<svg width="32" height="32" viewBox="0 0 32 32" fill="none" xmlns="http://www.w3.org/2000/svg">
<g id="vuesax/outline//Instagram Fill">
<g id="Vector">
<path fill-rule="evenodd" clip-rule="evenodd" d="M16 2.66699C12.3787 2.66699 11.9253 2.6821 10.5031 2.74699C9.08355 2.81188 8.11378 3.03766 7.26578 3.36744C6.37689 3.70166 5.57066 4.2261 4.904 4.90521C4.22597 5.57111 3.7012 6.37677 3.36622 7.2661C3.03822 8.1141 2.81155 9.08477 2.74666 10.5043C2.68266 11.9257 2.66666 12.3781 2.66666 16.0003C2.66666 19.6225 2.68178 20.075 2.74666 21.4972C2.81155 22.9168 3.03733 23.8865 3.36711 24.7345C3.70133 25.6234 4.22578 26.4297 4.90489 27.0963C5.5708 27.7743 6.37645 28.2991 7.26578 28.6341C8.11378 28.963 9.08355 29.1888 10.5031 29.2537C11.9253 29.3186 12.3787 29.3337 16 29.3337C19.6213 29.3337 20.0747 29.3186 21.4969 29.2537C22.9164 29.1888 23.8862 28.963 24.7342 28.6332C25.6231 28.299 26.4293 27.7746 27.096 27.0954C27.774 26.4295 28.2988 25.6239 28.6338 24.7345C28.9627 23.8865 29.1884 22.9168 29.2533 21.4972C29.3182 20.075 29.3333 19.6217 29.3333 16.0003C29.3333 12.379 29.3182 11.9257 29.2533 10.5034C29.1884 9.08388 28.9627 8.1141 28.6329 7.2661C28.2981 6.37638 27.7734 5.57039 27.0951 4.90433C26.4292 4.2263 25.6236 3.70153 24.7342 3.36655C23.8862 3.03855 22.9156 2.81188 21.496 2.74699C20.0747 2.68299 19.6222 2.66699 16 2.66699ZM16 5.06966C19.56 5.06966 19.9822 5.08299 21.3884 5.14699C22.688 5.20655 23.3938 5.42255 23.864 5.60655C24.4862 5.84744 24.9307 6.13721 25.3973 6.60299C25.864 7.06966 26.1529 7.5141 26.3938 8.13633C26.5769 8.60655 26.7938 9.31233 26.8533 10.6119C26.9173 12.0181 26.9307 12.4403 26.9307 16.0003C26.9307 19.5603 26.9173 19.9825 26.8533 21.3888C26.7938 22.6883 26.5778 23.3941 26.3938 23.8643C26.1804 24.4435 25.8399 24.9674 25.3973 25.3977C24.9672 25.8403 24.4432 26.1808 23.864 26.3941C23.3938 26.5772 22.688 26.7941 21.3884 26.8537C19.9822 26.9177 19.5609 26.931 16 26.931C12.4391 26.931 12.0178 26.9177 10.6116 26.8537C9.312 26.7941 8.60622 26.5781 8.136 26.3941C7.55685 26.1807 7.03289 25.8402 6.60266 25.3977C6.16015 24.9674 5.81967 24.4435 5.60622 23.8643C5.42311 23.3941 5.20622 22.6883 5.14666 21.3888C5.08266 19.9825 5.06933 19.5603 5.06933 16.0003C5.06933 12.4403 5.08266 12.0181 5.14666 10.6119C5.20622 9.31233 5.42222 8.60655 5.60622 8.13633C5.84711 7.5141 6.13689 7.06966 6.60266 6.60299C7.03283 6.16037 7.55681 5.81986 8.136 5.60655C8.60622 5.42344 9.312 5.20655 10.6116 5.14699C12.0178 5.08299 12.44 5.06966 16 5.06966Z" fill="#117CAD"/>
<path fill-rule="evenodd" clip-rule="evenodd" d="M16 20.4492C15.4158 20.4492 14.8373 20.3341 14.2975 20.1106C13.7577 19.887 13.2673 19.5593 12.8542 19.1462C12.4411 18.733 12.1134 18.2426 11.8898 17.7028C11.6662 17.1631 11.5511 16.5846 11.5511 16.0003C11.5511 15.4161 11.6662 14.8376 11.8898 14.2978C12.1134 13.758 12.4411 13.2676 12.8542 12.8545C13.2673 12.4414 13.7577 12.1137 14.2975 11.8901C14.8373 11.6665 15.4158 11.5514 16 11.5514C17.1799 11.5514 18.3115 12.0202 19.1459 12.8545C19.9802 13.6888 20.4489 14.8204 20.4489 16.0003C20.4489 17.1802 19.9802 18.3118 19.1459 19.1462C18.3115 19.9805 17.1799 20.4492 16 20.4492ZM16 9.14699C14.1824 9.14699 12.4392 9.86904 11.154 11.1543C9.86873 12.4395 9.14669 14.1827 9.14669 16.0003C9.14669 17.8179 9.86873 19.5611 11.154 20.8464C12.4392 22.1316 14.1824 22.8537 16 22.8537C17.8176 22.8537 19.5608 22.1316 20.8461 20.8464C22.1313 19.5611 22.8534 17.8179 22.8534 16.0003C22.8534 14.1827 22.1313 12.4395 20.8461 11.1543C19.5608 9.86904 17.8176 9.14699 16 9.14699ZM24.8471 9.02255C24.8471 9.4522 24.6765 9.86425 24.3726 10.1681C24.0688 10.4719 23.6568 10.6425 23.2271 10.6425C22.7975 10.6425 22.3854 10.4719 22.0816 10.1681C21.7778 9.86425 21.6071 9.4522 21.6071 9.02255C21.6071 8.5929 21.7778 8.18084 22.0816 7.87703C22.3854 7.57323 22.7975 7.40255 23.2271 7.40255C23.6568 7.40255 24.0688 7.57323 24.3726 7.87703C24.6765 8.18084 24.8471 8.5929 24.8471 9.02255Z" fill="#117CAD"/>
</g>
</g>
</svg>
