<svg width="32" height="32" viewBox="0 0 32 32" fill="none" xmlns="http://www.w3.org/2000/svg">
<g id="vuesax/outline//Telegram Fill">
<path id="Subtract" fill-rule="evenodd" clip-rule="evenodd" d="M29.3333 16.0003C29.3333 23.3641 23.3638 29.3337 16 29.3337C8.63621 29.3337 2.66667 23.3641 2.66667 16.0003C2.66667 8.63653 8.63621 2.66699 16 2.66699C23.3638 2.66699 29.3333 8.63653 29.3333 16.0003ZM16.4778 12.5103C15.1809 13.0497 12.589 14.1661 8.7021 15.8596C8.07092 16.1106 7.74028 16.3561 7.71018 16.5962C7.65931 17.002 8.16745 17.1618 8.85941 17.3794C8.95353 17.409 9.05105 17.4396 9.15103 17.4721C9.83181 17.6934 10.7476 17.9523 11.2236 17.9626C11.6555 17.9719 12.1375 17.7939 12.6696 17.4285C16.3013 14.977 18.176 13.7379 18.2937 13.7112C18.3767 13.6923 18.4918 13.6686 18.5697 13.7379C18.6477 13.8072 18.64 13.9385 18.6318 13.9737C18.5814 14.1883 16.5868 16.0427 15.5546 17.0023C15.2328 17.3015 15.0045 17.5137 14.9579 17.5622C14.8533 17.6707 14.7468 17.7734 14.6444 17.8721C14.012 18.4818 13.5377 18.939 14.6707 19.6857C15.2151 20.0445 15.6508 20.3412 16.0855 20.6372C16.5602 20.9604 17.0336 21.2829 17.6462 21.6844C17.8023 21.7867 17.9514 21.893 18.0965 21.9965C18.649 22.3903 19.1453 22.7441 19.7584 22.6877C20.1147 22.6549 20.4827 22.3199 20.6696 21.3207C21.1113 18.9594 21.9796 13.8431 22.1802 11.7347C22.1978 11.55 22.1757 11.3136 22.1579 11.2099C22.1402 11.1061 22.1031 10.9582 21.9682 10.8488C21.8084 10.7191 21.5618 10.6918 21.4515 10.6937C20.95 10.7026 20.1806 10.9701 16.4778 12.5103Z" fill="#117CAD"/>
</g>
</svg>
