<svg width="32" height="32" viewBox="0 0 32 32" fill="none" xmlns="http://www.w3.org/2000/svg">
<g id="vuesax/outline//Youtube Fill">
<path id="Vector" fill-rule="evenodd" clip-rule="evenodd" d="M27.4599 5.94633C28.7228 6.28438 29.7153 7.27681 30.0533 8.53968C30.6642 10.8264 30.6667 15.6002 30.6667 15.6002C30.6667 15.6002 30.6667 20.374 30.0533 22.6607C29.7153 23.9235 28.7228 24.9159 27.4599 25.2539C25.1733 25.8673 16 25.8673 16 25.8673C16 25.8673 6.8267 25.8673 4.54001 25.2539C3.27715 24.9159 2.28472 23.9235 1.94667 22.6607C1.33334 20.374 1.33334 15.6002 1.33334 15.6002C1.33334 15.6002 1.33334 10.8264 1.94667 8.53968C2.28472 7.27681 3.27715 6.28438 4.54001 5.94633C6.8267 5.33301 16 5.33301 16 5.33301C16 5.33301 25.1733 5.33301 27.4599 5.94633ZM20.6845 15.6006L13.0639 20V11.201L20.6845 15.6006Z" fill="#117CAD"/>
</g>
</svg>
