<svg width="36" height="36" viewBox="0 0 36 36" fill="none" xmlns="http://www.w3.org/2000/svg">
<rect width="36" height="36" rx="18" fill="#1674EA"/>
<path d="M28 18.0004C28 12.4775 23.5229 8.00039 18 8.00039C12.4771 8.00039 8 12.4775 8 18.0004C8 22.9917 11.6569 27.1287 16.4375 27.8789V20.891H13.8984V18.0004H16.4375V15.7973C16.4375 13.291 17.9304 11.9066 20.2146 11.9066C21.3087 11.9066 22.4531 12.102 22.4531 12.102V14.5629H21.1921C19.9499 14.5629 19.5625 15.3337 19.5625 16.1245V18.0004H22.3359L21.8926 20.891H19.5625V27.8789C24.3431 27.1287 28 22.9917 28 18.0004Z" fill="white"/>
</svg>
