<svg width="16" height="16" viewBox="0 0 16 16" fill="none" xmlns="http://www.w3.org/2000/svg">
<g id="image-02" clip-path="url(#clip0_8062_316)">
<path id="Icon" d="M3.99973 13.3333L9.91243 7.42059C10.1764 7.15658 10.3084 7.02457 10.4607 6.97511C10.5946 6.93161 10.7388 6.93161 10.8727 6.97511C11.0249 7.02457 11.1569 7.15658 11.4209 7.42059L14.2702 10.2698M7.00001 5.66634C7.00001 6.40272 6.40306 6.99967 5.66668 6.99967C4.9303 6.99967 4.33334 6.40272 4.33334 5.66634C4.33334 4.92996 4.9303 4.33301 5.66668 4.33301C6.40306 4.33301 7.00001 4.92996 7.00001 5.66634ZM14.6667 7.99967C14.6667 11.6816 11.6819 14.6663 8.00001 14.6663C4.31811 14.6663 1.33334 11.6816 1.33334 7.99967C1.33334 4.31778 4.31811 1.33301 8.00001 1.33301C11.6819 1.33301 14.6667 4.31778 14.6667 7.99967Z" stroke="white" stroke-width="1.5" stroke-linecap="round" stroke-linejoin="round"/>
</g>
<defs>
<clipPath id="clip0_8062_316">
<rect width="16" height="16" fill="white"/>
</clipPath>
</defs>
</svg>
