<svg width="48" height="48" viewBox="0 0 48 48" fill="none" xmlns="http://www.w3.org/2000/svg">
<g id="vuesax/outline//Instagram Fill">
<g id="Vector">
<path fill-rule="evenodd" clip-rule="evenodd" d="M24 4C18.568 4 17.888 4.02267 15.7547 4.12C13.6253 4.21733 12.1707 4.556 10.8987 5.05067C9.56533 5.552 8.356 6.33867 7.356 7.35733C6.33896 8.35618 5.55181 9.56466 5.04933 10.8987C4.55733 12.1707 4.21733 13.6267 4.12 15.756C4.024 17.888 4 18.5667 4 24C4 29.4333 4.02267 30.112 4.12 32.2453C4.21733 34.3747 4.556 35.8293 5.05067 37.1013C5.552 38.4347 6.33867 39.644 7.35733 40.644C8.35621 41.661 9.56468 42.4482 10.8987 42.9507C12.1707 43.444 13.6253 43.7827 15.7547 43.88C17.888 43.9773 18.568 44 24 44C29.432 44 30.112 43.9773 32.2453 43.88C34.3747 43.7827 35.8293 43.444 37.1013 42.9493C38.4347 42.448 39.644 41.6613 40.644 40.6427C41.661 39.6438 42.4482 38.4353 42.9507 37.1013C43.444 35.8293 43.7827 34.3747 43.88 32.2453C43.9773 30.112 44 29.432 44 24C44 18.568 43.9773 17.888 43.88 15.7547C43.7827 13.6253 43.444 12.1707 42.9493 10.8987C42.4472 9.56409 41.66 8.35509 40.6427 7.356C39.6438 6.33896 38.4353 5.55181 37.1013 5.04933C35.8293 4.55733 34.3733 4.21733 32.244 4.12C30.112 4.024 29.4333 4 24 4ZM24 7.604C29.34 7.604 29.9733 7.624 32.0827 7.72C34.032 7.80933 35.0907 8.13333 35.796 8.40933C36.7293 8.77067 37.396 9.20533 38.096 9.904C38.796 10.604 39.2293 11.2707 39.5907 12.204C39.8653 12.9093 40.1907 13.968 40.28 15.9173C40.376 18.0267 40.396 18.66 40.396 24C40.396 29.34 40.376 29.9733 40.28 32.0827C40.1907 34.032 39.8667 35.0907 39.5907 35.796C39.2706 36.6647 38.7598 37.4507 38.096 38.096C37.4508 38.76 36.6648 39.2707 35.796 39.5907C35.0907 39.8653 34.032 40.1907 32.0827 40.28C29.9733 40.376 29.3413 40.396 24 40.396C18.6587 40.396 18.0267 40.376 15.9173 40.28C13.968 40.1907 12.9093 39.8667 12.204 39.5907C11.3353 39.2706 10.5493 38.7598 9.904 38.096C9.24024 37.4506 8.7295 36.6647 8.40933 35.796C8.13467 35.0907 7.80933 34.032 7.72 32.0827C7.624 29.9733 7.604 29.34 7.604 24C7.604 18.66 7.624 18.0267 7.72 15.9173C7.80933 13.968 8.13333 12.9093 8.40933 12.204C8.77067 11.2707 9.20533 10.604 9.904 9.904C10.5493 9.24006 11.3352 8.7293 12.204 8.40933C12.9093 8.13467 13.968 7.80933 15.9173 7.72C18.0267 7.624 18.66 7.604 24 7.604Z" fill="white"/>
<path fill-rule="evenodd" clip-rule="evenodd" d="M24 30.6733C23.1237 30.6733 22.2559 30.5007 21.4463 30.1654C20.6366 29.83 19.9009 29.3384 19.2813 28.7188C18.6616 28.0991 18.17 27.3634 17.8347 26.5538C17.4993 25.7441 17.3267 24.8764 17.3267 24C17.3267 23.1236 17.4993 22.2559 17.8347 21.4462C18.17 20.6366 18.6616 19.9009 19.2813 19.2812C19.9009 18.6616 20.6366 18.17 21.4463 17.8346C22.2559 17.4993 23.1237 17.3267 24 17.3267C25.7699 17.3267 27.4673 18.0297 28.7188 19.2812C29.9703 20.5327 30.6734 22.2301 30.6734 24C30.6734 25.7699 29.9703 27.4673 28.7188 28.7188C27.4673 29.9703 25.7699 30.6733 24 30.6733ZM24 13.72C21.2736 13.72 18.6588 14.8031 16.731 16.7309C14.8031 18.6588 13.72 21.2736 13.72 24C13.72 26.7264 14.8031 29.3412 16.731 31.2691C18.6588 33.1969 21.2736 34.28 24 34.28C26.7265 34.28 29.3412 33.1969 31.2691 31.2691C33.197 29.3412 34.28 26.7264 34.28 24C34.28 21.2736 33.197 18.6588 31.2691 16.7309C29.3412 14.8031 26.7265 13.72 24 13.72ZM37.2707 13.5333C37.2707 14.1778 37.0147 14.7959 36.559 15.2516C36.1033 15.7073 35.4852 15.9633 34.8407 15.9633C34.1962 15.9633 33.5781 15.7073 33.1224 15.2516C32.6667 14.7959 32.4107 14.1778 32.4107 13.5333C32.4107 12.8889 32.6667 12.2708 33.1224 11.8151C33.5781 11.3594 34.1962 11.1033 34.8407 11.1033C35.4852 11.1033 36.1033 11.3594 36.559 11.8151C37.0147 12.2708 37.2707 12.8889 37.2707 13.5333Z" fill="white"/>
</g>
</g>
</svg>
