<svg width="36" height="36" viewBox="0 0 36 36" fill="none" xmlns="http://www.w3.org/2000/svg">
<rect width="36" height="36" rx="18" fill="#F4C20A"/>
<path d="M8 11.3333C8 9.49238 9.48153 8 11.3091 8H24.5455C26.373 8 27.8545 9.49238 27.8545 11.3333V24.6667C27.8545 26.5076 26.373 28 24.5455 28H11.3091C9.48153 28 8 26.5076 8 24.6667V11.3333Z" fill="#F4C20A"/>
<path d="M12.032 17.7725H15.9597L17.9236 21.1989L15.9597 24.6253H12.032L10.0681 21.1989L12.032 17.7725Z" fill="#171E26"/>
<path d="M13.9958 21.1989L12.032 24.6253L10.0681 21.1989L12.032 17.7725L13.9958 21.1989Z" fill="#101112"/>
<path d="M25.779 14.3464H21.8513L19.8875 10.917H23.8152L25.779 14.3464Z" fill="#101112"/>
<path d="M15.9597 17.7731L13.9958 21.1995L12.032 17.7731L13.9958 14.3467L15.9597 17.7731Z" fill="#101112"/>
<path d="M17.9236 14.3467H21.8513L23.8152 17.7731L21.8513 21.1995H17.9236L15.9597 17.7731L17.9236 14.3467Z" fill="#171E26"/>
<path d="M25.779 14.3464H21.8513L19.8875 10.917H23.8152L25.779 14.3464Z" fill="#101112"/>
<path d="M25.779 14.3464H21.8513L19.8875 10.917H23.8152L25.779 14.3464Z" fill="#171E26"/>
<path d="M25.779 14.3467L23.8152 17.7731H19.8875V17.7701L21.8513 14.3467H25.779Z" fill="#171E26"/>
<path d="M21.8513 14.3464L19.8874 17.7698L17.9236 14.3464L19.8874 10.917L21.8513 14.3464Z" fill="white"/>
<path d="M13.9958 14.3467H17.9236L19.8874 17.7731L17.9236 21.1995H13.9958L12.032 17.7731L13.9958 14.3467Z" fill="#171E26"/>
<path d="M13.9958 14.3467L12.032 17.7731L10.0681 21.1995L12.032 24.6259L13.9958 21.1995L15.9597 17.7731L13.9958 14.3467Z" fill="white"/>
<path d="M21.8468 23.7705H20.1018L19.2292 22.4521H20.9743L21.8468 23.7705Z" fill="#171E26"/>
<path d="M21.8468 23.7705L20.9743 25.4185H19.2292V25.417L20.1018 23.7705H21.8468Z" fill="#171E26"/>
<path d="M20.211 23.9366L19.2294 25.4184L18.2478 23.9366L19.2294 22.4521L20.211 23.9366Z" fill="white"/>
</svg>
