<svg width="36" height="36" viewBox="0 0 36 36" fill="none" xmlns="http://www.w3.org/2000/svg">
<rect width="36" height="36" rx="18" fill="#0084C6"/>
<path fill-rule="evenodd" clip-rule="evenodd" d="M28 18C28 23.5228 23.5228 28 18 28C12.4772 28 8 23.5228 8 18C8 12.4772 12.4772 8 18 8C23.5228 8 28 12.4772 28 18ZM18.3583 15.3824C17.3857 15.787 15.4418 16.6243 12.5266 17.8944C12.0532 18.0827 11.8052 18.2669 11.7826 18.4469C11.7445 18.7513 12.1256 18.8711 12.6446 19.0343C12.7151 19.0565 12.7883 19.0795 12.8633 19.1038C13.3739 19.2698 14.0607 19.464 14.4177 19.4717C14.7416 19.4787 15.1031 19.3452 15.5022 19.0711C18.226 17.2325 19.632 16.3032 19.7202 16.2831C19.7825 16.269 19.8688 16.2512 19.9273 16.3032C19.9858 16.3552 19.98 16.4536 19.9738 16.48C19.9361 16.641 18.4401 18.0318 17.6659 18.7515C17.4246 18.9759 17.2534 19.135 17.2184 19.1714C17.14 19.2528 17.0601 19.3298 16.9833 19.4038C16.509 19.8611 16.1532 20.204 17.003 20.764C17.4114 21.0331 17.7381 21.2556 18.0641 21.4776C18.4201 21.7201 18.7752 21.9619 19.2347 22.2631C19.3517 22.3398 19.4635 22.4195 19.5724 22.4971C19.9867 22.7925 20.3589 23.0579 20.8188 23.0155C21.086 22.991 21.362 22.7397 21.5022 21.9903C21.8335 20.2193 22.4847 16.382 22.6352 14.8008C22.6484 14.6623 22.6318 14.485 22.6185 14.4071C22.6051 14.3293 22.5773 14.2184 22.4761 14.1363C22.3563 14.0391 22.1714 14.0186 22.0886 14.02C21.7125 14.0267 21.1354 14.2273 18.3583 15.3824Z" fill="white"/>
</svg>
