<svg width="16" height="16" viewBox="0 0 16 16" fill="none" xmlns="http://www.w3.org/2000/svg">
<g clip-path="url(#clip0_6077_6215)">
<path d="M8.00001 14.6663C11.6819 14.6663 14.6667 11.6816 14.6667 7.99967C14.6667 4.31778 11.6819 1.33301 8.00001 1.33301C4.31811 1.33301 1.33334 4.31778 1.33334 7.99967C1.33334 11.6816 4.31811 14.6663 8.00001 14.6663Z" stroke="white" stroke-width="1.5" stroke-linecap="round" stroke-linejoin="round"/>
<path d="M6.33334 5.97656C6.33334 5.65837 6.33334 5.49928 6.39984 5.41046C6.45779 5.33306 6.54649 5.28463 6.64293 5.27774C6.7536 5.26984 6.88743 5.35587 7.15508 5.52793L10.3021 7.55105C10.5344 7.70035 10.6505 7.77501 10.6906 7.86993C10.7257 7.95288 10.7257 8.04647 10.6906 8.12941C10.6505 8.22434 10.5344 8.299 10.3021 8.4483L7.15508 10.4714C6.88743 10.6435 6.7536 10.7295 6.64293 10.7216C6.54649 10.7147 6.45779 10.6663 6.39984 10.5889C6.33334 10.5001 6.33334 10.341 6.33334 10.0228V5.97656Z" stroke="white" stroke-width="1.5" stroke-linecap="round" stroke-linejoin="round"/>
</g>
<defs>
<clipPath id="clip0_6077_6215">
<rect width="16" height="16" fill="white"/>
</clipPath>
</defs>
</svg>
