<svg width="36" height="36" viewBox="0 0 36 36" fill="none" xmlns="http://www.w3.org/2000/svg">
<rect width="36" height="36" rx="18" fill="#24CC63"/>
<path d="M16 9.5L13 10.5L12 11.5L10 13.5L9.5 16V19C9.5 19.4 9.83333 20.8333 10 21.5L11 23L9.5 26.5L11 26L13.5 25.5L17.5 26.5L21.5 26L25 23L26.5 20.5V16.5L25.5 13.5L23.5 11L21 10L17.5 9L16 9.5Z" fill="#24CC63"/>
<path d="M8 28L9.41152 22.8691C8.54422 21.3639 8.08876 19.6568 8.09099 17.9196C8.08095 12.4455 12.5264 8 17.99 8C20.6417 8 23.1315 9.02806 25.0062 10.9034C25.9303 11.8227 26.6627 12.9162 27.1611 14.1205C27.6595 15.3249 27.9139 16.6162 27.9096 17.9196C27.9096 23.3832 23.4641 27.8287 18 27.8287C16.3368 27.8287 14.7137 27.4151 13.262 26.6192L8 28ZM13.4942 24.8349L13.7967 25.0162C15.0665 25.7676 16.5146 26.1644 17.99 26.1654C22.5264 26.1654 26.2263 22.4662 26.2263 17.9291C26.2263 15.7318 25.3696 13.6555 23.8168 12.1034C23.0533 11.3355 22.1453 10.7264 21.1453 10.311C20.1452 9.89565 19.0728 9.68232 17.99 9.68331C13.4434 9.6839 9.74476 13.3832 9.74476 17.9202C9.74476 19.4724 10.1784 20.995 11.005 22.3055L11.1965 22.618L10.3598 25.662L13.4948 24.8354L13.4942 24.8349Z" fill="white"/>
<path fill-rule="evenodd" clip-rule="evenodd" d="M15.5202 13.7666C15.3388 13.353 15.1374 13.343 14.966 13.343C14.8148 13.3329 14.6529 13.3329 14.4815 13.3329C14.3208 13.3329 14.0484 13.3932 13.8168 13.6455C13.5846 13.8972 12.9501 14.4922 12.9501 15.7117C12.9501 16.9318 13.8369 18.1111 13.958 18.2724C14.0786 18.4337 15.6715 21.0139 18.192 22.0124C20.2883 22.839 20.712 22.6777 21.1657 22.6269C21.6189 22.5767 22.6275 22.0325 22.839 21.4476C23.0405 20.8733 23.0405 20.3693 22.9802 20.2682C22.9199 20.1678 22.748 20.1069 22.5064 19.9758C22.2541 19.8552 21.0446 19.2502 20.813 19.1693C20.5808 19.0889 20.4195 19.0487 20.2582 19.2904C20.0969 19.5427 19.623 20.0969 19.4724 20.2582C19.3306 20.4195 19.1799 20.4396 18.9377 20.3185C18.686 20.1979 17.8895 19.9356 16.9418 19.0889C16.2056 18.4331 15.7117 17.6171 15.5604 17.3755C15.4198 17.1232 15.5403 16.992 15.6715 16.8709C15.7826 16.7604 15.9238 16.579 16.0449 16.4378C16.1654 16.296 16.2056 16.1855 16.2966 16.0242C16.377 15.8629 16.3368 15.7117 16.2765 15.5911C16.2157 15.4801 15.7424 14.26 15.5202 13.766V13.7666Z" fill="white"/>
</svg>
