<svg width="48" height="48" viewBox="0 0 48 48" fill="none" xmlns="http://www.w3.org/2000/svg">
<g id="vuesax/outline//Youtube Fill">
<path id="Vector" fill-rule="evenodd" clip-rule="evenodd" d="M41.1899 8.91999C43.0842 9.42707 44.573 10.9157 45.08 12.81C45.9963 16.24 46 23.4007 46 23.4007C46 23.4007 46 30.5614 45.08 33.9915C44.573 35.8858 43.0842 37.3744 41.1899 37.8814C37.76 38.8014 23.9999 38.8014 23.9999 38.8014C23.9999 38.8014 10.24 38.8014 6.81 37.8814C4.91571 37.3744 3.42707 35.8858 2.91999 33.9915C2 30.5614 2 23.4007 2 23.4007C2 23.4007 2 16.24 2.91999 12.81C3.42707 10.9157 4.91571 9.42707 6.81 8.91999C10.24 8 23.9999 8 23.9999 8C23.9999 8 37.76 8 41.1899 8.91999ZM31.0268 23.4013L19.5958 30.0005V16.802L31.0268 23.4013Z" fill="white"/>
</g>
</svg>
