<?xml version="1.0" standalone="no"?>
<!DOCTYPE svg PUBLIC "-//W3C//DTD SVG 1.1//EN" "http://www.w3.org/Graphics/SVG/1.1/DTD/svg11.dtd" >
<svg xmlns="http://www.w3.org/2000/svg" xmlns:xlink="http://www.w3.org/1999/xlink" version="1.1">
<metadata>
Created by FontForge 20170924 at Wed Nov 16 09:39:14 2016
 By www-data
2011 published by FontShop International GmbH
</metadata>
<defs>
<font id="MaxProBold" horiz-adv-x="1" >
  <font-face 
    font-family="Max Pro"
    font-weight="700"
    font-stretch="normal"
    units-per-em="1000"
    panose-1="2 11 8 4 3 1 1 2 1 2"
    ascent="763"
    descent="-237"
    x-height="525"
    cap-height="739"
    bbox="-1135 -260 1586 1238.47"
    underline-thickness="90"
    underline-position="-95"
    stemh="104"
    stemv="116"
    unicode-range="U+000D-FEFF"
  />
<missing-glyph horiz-adv-x="616" 
d="M72 739h472v-739h-472v739zM480 64v611h-344v-611h344z" />
    <glyph glyph-name="fi" unicode="fi" horiz-adv-x="681" 
d="M594 507v-492c0 -10 -5 -15 -16 -15h-121c-11 0 -17 5 -17 15v400h-175v-400c0 -10 -5 -15 -16 -15h-122c-9 0 -17 6 -17 15v400h-77c-11 0 -16 5 -16 15v80c0 10 5 15 16 15h77v37c0 159 78 190 226 190c84 0 149 -17 176 -25c9 -3 12 -8 11 -15l-12 -73
c-3 -11 -5 -16 -20 -13c-51 8 -82 14 -131 14c-80 0 -95 -13 -95 -85v-30h309c12 0 20 -9 20 -18z" />
    <glyph glyph-name="fl" unicode="fl" horiz-adv-x="721" 
d="M683 95l13 -73c0 -11 -7 -15 -10 -16c-9 -4 -37 -15 -96 -15c-103 0 -149 57 -149 141v283h-176v-400c0 -10 -5 -15 -16 -15h-122c-9 0 -17 6 -17 15v400h-77c-11 0 -16 5 -16 15v80c0 10 5 15 16 15h77v68c0 107 54 159 171 159c73 0 118 -12 134 -17c9 -3 12 -9 11 -18
l-11 -68c-2 -10 -7 -14 -15 -13c-27 3 -44 7 -71 7c-24 0 -41 -4 -50 -11c-9 -9 -14 -23 -14 -43v-64h176v187c0 13 3 18 16 21l116 19c15 2 22 -4 22 -17v-589c0 -35 20 -45 39 -45c16 0 24 1 39 4c5 1 9 -3 10 -10z" />
    <glyph glyph-name="uniFB03" unicode="ffi" horiz-adv-x="1011" 
d="M924 507v-492c0 -10 -5 -15 -16 -15h-121c-11 0 -17 5 -17 15v400h-175v-400c0 -10 -5 -15 -16 -15h-122c-9 0 -17 6 -17 15v400h-175v-400c0 -10 -5 -15 -16 -15h-122c-9 0 -17 6 -17 15v400h-77c-11 0 -16 5 -16 15v80c0 10 5 15 16 15h77v68c0 107 54 159 171 159
c51 0 87 -5 134 -17c9 -2 12 -8 11 -18l-11 -68c-1 -11 -6 -15 -15 -13c-13 3 -52 7 -71 7c-47 0 -64 -11 -64 -54v-64h175v37c0 159 78 190 226 190c84 0 149 -17 176 -25c9 -2 12 -8 11 -17l-11 -71c-3 -9 -4 -14 -12 -14c-32 0 -80 15 -140 15c-80 0 -95 -13 -95 -85v-30
h309c12 0 20 -9 20 -18z" />
    <glyph glyph-name="uniFB04" unicode="ffl" horiz-adv-x="1051" 
d="M595 415v-400c0 -10 -5 -15 -16 -15h-122c-9 0 -17 6 -17 15v400h-175v-400c0 -10 -5 -15 -16 -15h-122c-9 0 -17 6 -17 15v400h-77c-11 0 -16 5 -16 15v80c0 10 5 15 16 15h77v68c0 107 54 159 171 159c51 0 91 -6 134 -17c9 -2 12 -8 11 -18l-11 -68
c-1 -9 -3 -14 -15 -13c-28 4 -48 7 -71 7c-47 0 -64 -11 -64 -54v-64h175v68c0 107 54 159 171 159c53 0 91 -6 134 -17c9 -2 12 -8 11 -18l-11 -68c-1 -9 -3 -16 -15 -13c-13 3 -44 7 -71 7c-47 0 -64 -11 -64 -54v-64h175v187c0 13 2 18 17 21l116 19c15 2 22 -4 22 -17
v-589c0 -35 20 -45 39 -45c16 0 25 2 34 3c8 1 12 1 15 -11l13 -69c3 -11 -6 -15 -10 -18c-9 -4 -37 -15 -96 -15c-103 0 -150 57 -150 141v283h-175z" />
    <glyph glyph-name=".notdef" horiz-adv-x="616" 
d="M72 739h472v-739h-472v739zM480 64v611h-344v-611h344z" />
    <glyph glyph-name="null" horiz-adv-x="0" 
 />
    <glyph glyph-name="null" horiz-adv-x="0" 
 />
    <glyph glyph-name="nonmarkingreturn" unicode="&#xd;" horiz-adv-x="280" 
 />
    <glyph glyph-name="space" unicode=" " horiz-adv-x="280" 
 />
    <glyph glyph-name="exclam" unicode="!" horiz-adv-x="351" 
d="M261 736l-17 -502c0 -9 -5 -13 -14 -13h-103c-9 0 -14 4 -14 13l-18 475c-1 14 5 22 18 24l128 19c13 2 20 -3 20 -16zM260 138v-118c0 -12 -8 -20 -19 -20h-123c-13 0 -19 7 -19 20v118c0 13 6 20 19 20h123c11 0 19 -8 19 -20z" />
    <glyph glyph-name="quotedbl" unicode="&#x22;" horiz-adv-x="538" 
d="M433 721l-17 -220c-1 -11 -8 -18 -16 -18h-87c-8 0 -16 7 -16 18v220c0 11 8 18 16 18h104c8 0 17 -7 16 -18zM241 721l-18 -220c-1 -11 -7 -18 -16 -18h-86c-9 0 -16 7 -16 18v220c0 12 5 18 16 18h103c8 0 18 -7 17 -18z" />
    <glyph glyph-name="numbersign" unicode="#" horiz-adv-x="753" 
d="M671 531l-12 -63c-1 -9 -8 -14 -20 -14h-94l-24 -139h93c15 0 21 -7 18 -20l-12 -63c-1 -8 -7 -15 -19 -15h-97l-36 -201c-1 -11 -8 -16 -19 -16h-65c-17 0 -21 7 -18 23l34 194h-106l-36 -201c-1 -11 -7 -16 -18 -16h-66c-15 0 -21 8 -18 23l34 194h-89
c-15 0 -21 7 -18 20l12 63c1 8 7 15 19 15h94l24 139h-92c-13 0 -22 4 -19 19l12 64c1 7 7 14 20 14h97l30 171c3 9 10 17 21 17h60c13 0 25 -1 22 -20l-30 -168h107l30 171c3 9 9 17 21 17h60c13 0 25 -1 22 -20l-30 -168h90c15 0 21 -7 18 -20zM336 454l-25 -139h106
l25 139h-106z" />
    <glyph glyph-name="dollar" unicode="$" horiz-adv-x="733" 
d="M657 220c0 -146 -92 -216 -234 -229v-101c0 -12 -8 -21 -19 -21h-78c-11 0 -18 10 -18 21v99c-113 7 -172 25 -213 38c-9 3 -19 11 -16 26l17 79c2 12 10 16 23 13c27 -8 132 -36 235 -36c71 0 138 24 138 95c0 80 -64 89 -165 105c-116 16 -251 54 -251 214
c0 145 75 214 234 226v100c0 9 7 20 18 20h78c11 0 19 -8 19 -20v-100c96 -7 165 -27 190 -35c9 -3 17 -9 14 -26l-15 -75c-3 -15 -13 -15 -28 -12c-61 15 -131 30 -203 30c-85 0 -144 -20 -144 -89c0 -76 67 -84 163 -100c107 -16 255 -36 255 -222z" />
    <glyph glyph-name="percent" unicode="%" horiz-adv-x="896" 
d="M372 557c0 -95 -19 -196 -175 -196s-175 101 -175 196c0 93 19 195 175 195s175 -102 175 -195zM874 182c0 -94 -19 -195 -175 -195s-175 101 -175 195c0 95 19 196 175 196s175 -101 175 -196zM739 685l-501 -685c-3 -3 -9 -5 -13 -2l-67 42c-4 3 -6 9 -2 13l501 684
c3 4 9 6 13 2l66 -41c3 -3 8 -6 3 -13zM762 182c0 73 -8 109 -63 109s-63 -36 -63 -109s8 -108 63 -108s63 35 63 108zM259 557c0 73 -7 108 -62 108s-63 -36 -63 -108c0 -73 8 -109 63 -109s62 36 62 109z" />
    <glyph glyph-name="ampersand" unicode="&#x26;" horiz-adv-x="822" 
d="M775 94l13 -64c1 -3 1 -6 1 -9c0 -8 -4 -13 -13 -16c-15 -5 -59 -18 -127 -18c-119 0 -179 44 -179 164v183c-1 -3 -1 -8 -10 -9c-51 -7 -98 -9 -137 -18c-56 -13 -92 -37 -92 -94c0 -80 63 -104 139 -104c21 0 31 0 46 3c3 1 5 1 6 1h3c9 0 15 -6 17 -18l10 -78
c3 -12 -6 -18 -15 -21c-15 -4 -40 -9 -81 -9c-138 0 -293 40 -293 211c0 133 98 162 171 170v28c-54 8 -155 39 -155 161c0 157 150 195 269 195c49 0 92 -7 108 -11c9 -2 14 -7 14 -16v-4c0 -1 0 -4 -1 -7l-11 -75c-1 -11 -9 -16 -22 -14c-19 3 -36 5 -60 5
c-69 0 -132 -19 -132 -90c0 -49 32 -73 77 -86c41 -12 94 -13 139 -20c9 -1 9 -6 10 -9v148c0 14 6 22 19 24l112 20c3 1 5 1 6 1h4c10 0 15 -6 15 -18v-163l128 -13c11 -1 16 -6 16 -14v-67c0 -9 -5 -14 -16 -15l-128 -11v-158c0 -40 12 -61 63 -61c31 0 52 4 71 8
c8 3 12 -4 15 -12z" />
    <glyph glyph-name="quotesingle" unicode="'" horiz-adv-x="350" 
d="M245 721l-17 -247c-1 -11 -7 -17 -16 -17h-91c-11 0 -16 6 -16 17v247c0 12 5 18 16 18h108c8 0 17 -7 16 -18z" />
    <glyph glyph-name="parenleft" unicode="(" horiz-adv-x="351" 
d="M304 -80c3 -4 0 -13 -5 -16l-76 -47c-3 -3 -10 -3 -13 -3c-5 0 -11 4 -17 12c-85 114 -129 293 -129 470c0 179 44 354 129 470c5 7 15 14 23 9l84 -52c6 -3 7 -7 4 -12c-76 -129 -100 -267 -100 -415s25 -291 100 -416z" />
    <glyph glyph-name="parenright" unicode=")" horiz-adv-x="351" 
d="M287 336c0 -179 -43 -349 -130 -470c-7 -11 -14 -14 -20 -11l-86 53c-3 3 -7 8 -4 12c76 125 99 267 99 416c0 148 -24 294 -99 415c-3 4 -1 13 4 16l76 47c15 9 25 -1 30 -8c83 -118 130 -290 130 -470z" />
    <glyph glyph-name="asterisk" unicode="*" horiz-adv-x="789" 
d="M643 576v-74c0 -15 -9 -18 -20 -17l-147 7l98 -96c5 -5 7 -9 7 -13c0 -5 -3 -9 -9 -13l-64 -45c-5 -3 -8 -5 -11 -5c-7 0 -12 5 -15 9l-86 118l-86 -118c-3 -3 -8 -9 -15 -9c-3 0 -7 2 -12 5l-63 45c-6 4 -9 8 -9 13s2 9 6 13l97 96l-147 -7c-11 -1 -20 2 -20 17v74
c0 11 4 18 20 17l148 -13l-99 96c-3 3 -6 9 -6 13c0 5 3 9 8 13l64 46c3 3 7 4 12 4c7 0 12 -5 15 -9l86 -118l86 118c3 4 8 9 15 9c4 0 8 -1 11 -4l64 -46c6 -4 9 -8 9 -13c0 -4 -2 -8 -7 -13l-98 -96l147 13c16 1 21 -6 21 -17z" />
    <glyph glyph-name="plus" unicode="+" horiz-adv-x="624" 
d="M576 360v-70c0 -13 -7 -19 -20 -19h-182v-182c0 -13 -6 -20 -19 -20h-85c-13 0 -19 7 -19 20v182h-183c-13 0 -20 6 -20 19v70c0 12 7 18 20 18h183v183c0 13 6 20 19 20h85c13 0 19 -7 19 -20v-182h182c13 0 20 -6 20 -19z" />
    <glyph glyph-name="comma" unicode="," horiz-adv-x="354" 
d="M263 85l-39 -231c-1 -9 -7 -13 -17 -13h-98c-9 0 -13 4 -12 13l22 230c1 9 6 13 15 13h115c7 0 15 -3 14 -12z" />
    <glyph glyph-name="hyphen" unicode="-" horiz-adv-x="419" 
d="M367 308v-68c0 -12 -11 -19 -22 -19h-271c-9 0 -22 6 -22 19v68c0 11 9 20 22 20h271c13 0 22 -9 22 -20z" />
    <glyph glyph-name="period" unicode="." horiz-adv-x="356" 
d="M266 126v-109c0 -9 -10 -17 -23 -17h-130c-13 0 -23 8 -23 17v109c0 9 10 17 23 17h130c13 0 23 -8 23 -17z" />
    <glyph glyph-name="slash" unicode="/" horiz-adv-x="386" 
d="M356 770l-218 -817c-3 -9 -9 -12 -18 -10l-81 18c-7 1 -12 7 -9 16l218 817c3 7 7 13 18 10l81 -18c7 -1 12 -5 9 -16z" />
    <glyph glyph-name="zero" unicode="0" horiz-adv-x="733" 
d="M682 370c0 -193 -32 -383 -316 -383s-316 190 -316 383c0 192 32 382 316 382s316 -189 316 -382zM515 370c0 168 -19 267 -150 267c-130 0 -148 -99 -148 -267c0 -169 18 -268 149 -268c130 0 149 99 149 268z" />
    <glyph glyph-name="one" unicode="1" horiz-adv-x="733" 
d="M640 96v-85c0 -7 -4 -11 -11 -11h-514c-7 0 -10 4 -10 11v85c0 7 3 11 10 12l186 22v464l-197 13c-7 1 -11 5 -11 11v84c0 6 4 10 11 11l348 39c7 1 12 -5 12 -10v-613l165 -21c7 -1 11 -5 11 -12z" />
    <glyph glyph-name="two" unicode="2" horiz-adv-x="733" 
d="M662 113v-102c0 -7 -3 -11 -10 -11h-533c-15 0 -22 9 -22 16l-1 99c0 64 11 89 65 127c27 19 140 100 175 124c51 35 138 93 138 156c0 93 -69 109 -153 109c-91 0 -189 -29 -214 -34c-11 -3 -17 5 -20 12l-16 75c-3 16 2 23 13 27c28 11 125 41 269 41
c155 0 290 -46 290 -230c0 -130 -107 -198 -211 -262l-178 -108v-29l394 2c7 0 14 -5 14 -12z" />
    <glyph glyph-name="three" unicode="3" horiz-adv-x="733" 
d="M656 198c0 -171 -155 -211 -293 -211c-101 0 -220 23 -251 36c-7 3 -19 10 -16 23l14 74c3 13 13 20 24 17c43 -11 132 -29 212 -29c76 0 142 24 142 105c0 99 -90 96 -212 112c-15 3 -18 9 -18 16v72c0 9 0 18 17 21c94 13 200 10 200 106c0 72 -63 91 -132 91
c-101 0 -195 -25 -227 -36c-11 -3 -18 1 -21 14l-17 75c-3 13 1 22 12 27c29 13 141 41 277 41c117 0 273 -32 273 -195c0 -122 -101 -153 -155 -161v-28c73 -8 171 -37 171 -170z" />
    <glyph glyph-name="four" unicode="4" horiz-adv-x="733" 
d="M700 271v-89c0 -8 -5 -15 -16 -15h-93v-154c0 -9 -5 -13 -14 -13h-129c-9 0 -14 4 -14 13v154h-386c-11 0 -16 5 -16 15v105c0 1 0 10 3 14l281 429l5 5c3 3 6 4 9 4h248c7 0 13 -5 13 -12v-441h93c11 0 16 -7 16 -15zM400 631l-224 -345h258v345h-34z" />
    <glyph glyph-name="five" unicode="5" horiz-adv-x="733" 
d="M649 222c0 -194 -161 -235 -286 -235c-135 0 -230 17 -250 26c-11 3 -18 11 -15 22l12 77c1 8 9 17 21 14c64 -11 110 -18 198 -18c76 0 152 21 152 114c0 73 -55 115 -146 115c-81 0 -160 -18 -209 -29c-24 -5 -42 15 -41 31l27 389c0 5 6 11 13 11h475
c11 0 17 -5 17 -15v-93c0 -11 -6 -16 -17 -16h-355l-11 -177c14 3 77 20 132 20c120 0 283 -40 283 -236z" />
    <glyph glyph-name="six" unicode="6" horiz-adv-x="733" 
d="M675 232c0 -197 -145 -245 -305 -245c-244 0 -313 124 -313 379c0 196 34 386 342 386c101 0 183 -16 218 -27c11 -3 18 -10 15 -19l-16 -86c-3 -9 -11 -14 -20 -11c-39 9 -103 22 -183 22c-128 0 -189 -47 -194 -183c56 16 116 30 181 30c146 0 275 -58 275 -246z
M508 232c0 101 -60 130 -140 130c-47 0 -115 -13 -148 -24v-21c0 -134 26 -215 147 -215c96 0 141 35 141 130z" />
    <glyph glyph-name="seven" unicode="7" horiz-adv-x="733" 
d="M665 724v-100c0 -15 -5 -23 -10 -30c-141 -181 -243 -367 -315 -576c-3 -9 -7 -18 -20 -18h-139c-11 0 -21 6 -17 17c59 179 199 429 345 597h-425c-11 0 -16 5 -16 15v95c0 10 5 15 16 15h564c9 0 17 -8 17 -15z" />
    <glyph glyph-name="eight" unicode="8" horiz-adv-x="733" 
d="M689 202c0 -145 -103 -215 -323 -215c-219 0 -322 68 -322 215c0 117 104 159 179 162v31l-8 1c-37 5 -158 20 -158 156c0 157 154 200 309 200c153 0 308 -42 308 -202c0 -120 -100 -147 -165 -155v-31c87 -8 180 -50 180 -162zM522 212c0 87 -81 109 -157 109
c-77 0 -156 -22 -156 -110c0 -77 58 -109 158 -109s155 31 155 110zM513 537c0 80 -68 100 -147 100s-147 -20 -147 -100c0 -73 57 -101 146 -101c91 0 148 28 148 101z" />
    <glyph glyph-name="nine" unicode="9" horiz-adv-x="733" 
d="M675 372l-1 -39c-5 -196 -64 -346 -336 -346c-124 0 -197 20 -212 25c-8 3 -17 10 -14 21l12 79c1 8 9 17 21 14c49 -8 83 -18 179 -18c127 0 185 48 190 183c-16 -5 -97 -30 -182 -30c-146 0 -275 58 -275 246c0 197 144 245 304 245c247 0 314 -129 314 -380zM511 401
v21c0 133 -26 215 -146 215c-96 0 -142 -35 -142 -131c0 -101 60 -129 141 -129c48 0 114 13 147 24z" />
    <glyph glyph-name="colon" unicode=":" horiz-adv-x="336" 
d="M246 129v-109c0 -12 -8 -20 -19 -20h-118c-11 0 -19 8 -19 20v109c0 12 8 21 19 21h118c11 0 19 -9 19 -21zM246 505v-109c0 -12 -8 -21 -19 -21h-118c-11 0 -19 9 -19 21v109c0 12 8 20 19 20h118c11 0 19 -8 19 -20z" />
    <glyph glyph-name="semicolon" unicode=";" horiz-adv-x="360" 
d="M270 505v-109c0 -12 -8 -21 -19 -21h-119c-11 0 -19 9 -19 21v109c0 12 8 20 19 20h119c11 0 19 -8 19 -20zM263 85l-39 -231c-1 -9 -7 -13 -17 -13h-98c-9 0 -13 4 -12 13l22 230c1 9 6 13 15 13h115c7 0 15 -3 14 -12z" />
    <glyph glyph-name="less" unicode="&#x3c;" horiz-adv-x="624" 
d="M569 132l-41 -74c-5 -9 -13 -11 -22 -6l-441 218c-7 4 -11 10 -11 17v56c0 9 4 15 11 18l441 218c10 5 17 3 22 -6l41 -74c3 -7 -1 -17 -8 -20l-370 -163l370 -164c7 -3 12 -12 8 -20z" />
    <glyph glyph-name="equal" unicode="=" horiz-adv-x="624" 
d="M547 260v-72c0 -13 -11 -20 -22 -20h-426c-9 0 -22 7 -22 20v72c0 11 9 19 22 19h426c13 0 22 -8 22 -19zM547 458v-72c0 -12 -11 -19 -22 -19h-426c-9 0 -22 7 -22 19v72c0 11 9 19 22 19h426c13 0 22 -8 22 -19z" />
    <glyph glyph-name="greater" unicode="&#x3e;" horiz-adv-x="624" 
d="M570 343v-56c0 -7 -4 -13 -11 -17l-441 -218c-7 -5 -18 -1 -22 6l-41 74c-4 7 1 16 8 20l370 164l-370 163c-7 3 -12 12 -8 20l41 74c5 9 13 11 22 6l441 -218c7 -3 11 -9 11 -18z" />
    <glyph glyph-name="question" unicode="?" horiz-adv-x="624" 
d="M557 570c0 -86 -57 -126 -111 -161c-50 -34 -99 -51 -99 -113c0 -25 1 -33 4 -54c3 -15 -8 -18 -21 -18h-107c-15 0 -15 4 -18 15c-3 16 -7 44 -7 71c0 86 47 115 119 163c35 21 73 47 73 92c0 65 -68 75 -120 75c-65 0 -142 -21 -163 -24c-3 -1 -5 -1 -7 -1
c-11 0 -12 7 -15 15l-14 61c-1 5 -2 9 -2 12c0 7 2 13 14 17c19 6 108 32 215 32c109 0 259 -26 259 -182zM363 138v-118c0 -12 -7 -20 -18 -20h-123c-13 0 -19 7 -19 20v118c0 13 6 20 19 20h123c11 0 18 -8 18 -20z" />
    <glyph glyph-name="at" unicode="@" horiz-adv-x="981" 
d="M893 370c0 -35 -2 -67 -5 -98c-1 -9 -9 -20 -24 -20h-48c-15 0 -23 12 -22 24c3 28 5 59 5 94c0 109 -14 185 -65 233c-47 47 -126 68 -257 68c-129 0 -208 -21 -255 -66c-51 -49 -65 -124 -65 -235c0 -212 55 -302 320 -302c39 0 75 3 107 7c16 3 25 -13 25 -22v-39
c0 -13 -11 -20 -22 -21c-33 -3 -70 -6 -109 -6c-326 0 -415 126 -415 383s89 382 415 382c325 0 415 -125 415 -382zM666 461v-214c0 -60 -22 -72 -76 -83c-29 -7 -66 -10 -112 -10c-88 0 -191 10 -191 134c0 93 55 113 123 123l134 21v20c0 45 -28 49 -73 49
c-48 0 -105 -14 -130 -22c-3 -1 -5 -1 -6 -1c-5 0 -9 3 -10 10l-12 51c-3 11 5 15 10 18c17 6 91 27 173 27c104 0 170 -26 170 -123zM550 360l-85 -14c-31 -5 -53 -11 -53 -56c0 -52 41 -59 72 -59c28 0 55 6 66 9v120z" />
    <glyph glyph-name="A" unicode="A" horiz-adv-x="817" 
d="M168 0h-134c-12 0 -15 10 -12 19l245 708c3 7 10 12 17 12h248c7 0 14 -5 17 -12l246 -708c4 -11 -1 -19 -13 -19h-144c-10 0 -16 5 -18 15l-77 236h-280l-76 -236c-3 -10 -10 -15 -19 -15zM507 368l-84 260h-40l-84 -260h208z" />
    <glyph glyph-name="B" unicode="B" horiz-adv-x="788" 
d="M456 0h-341c-11 0 -17 5 -17 16v707c0 11 6 16 17 16h359c157 0 236 -60 236 -180c0 -111 -67 -152 -157 -165v-26c114 -11 182 -48 182 -172c0 -139 -104 -196 -279 -196zM263 114h179c95 0 124 36 124 101c0 76 -35 102 -126 105l-177 5v-211zM263 427l168 6
c76 3 115 24 115 96c0 67 -28 96 -112 96h-171v-198z" />
    <glyph glyph-name="C" unicode="C" horiz-adv-x="705" 
d="M646 129l15 -74c1 -3 1 -5 1 -8c0 -7 -4 -14 -19 -19c-36 -12 -110 -34 -235 -34c-255 0 -345 110 -345 377s90 377 345 377c125 0 199 -23 235 -35c15 -5 19 -13 19 -20c0 -2 0 -4 -1 -7l-15 -76c-2 -8 -7 -12 -16 -12c-3 0 -6 0 -9 1c-29 8 -108 26 -183 26
c-168 0 -206 -74 -206 -254c0 -179 38 -257 206 -257c75 0 152 22 182 27c3 1 7 1 10 1c9 0 14 -4 16 -13z" />
    <glyph glyph-name="D" unicode="D" horiz-adv-x="828" 
d="M765 370c0 -259 -83 -370 -339 -370h-312c-11 0 -16 5 -16 16v707c0 11 5 16 16 16h312c256 0 339 -111 339 -369zM595 370c0 208 -47 255 -187 255h-145v-510h145c140 0 187 47 187 255z" />
    <glyph glyph-name="E" unicode="E" horiz-adv-x="690" 
d="M604 0h-489c-11 0 -17 5 -17 16v707c0 9 8 16 17 16h488c11 0 17 -5 17 -15v-91c0 -10 -6 -15 -17 -15h-340v-178h322c11 0 16 -5 16 -15v-91c0 -11 -5 -16 -16 -16h-322v-197h341c11 0 16 -5 16 -15v-91c0 -10 -5 -15 -16 -15z" />
    <glyph glyph-name="F" unicode="F" horiz-adv-x="642" 
d="M245 0h-130c-11 0 -17 5 -17 16v707c0 11 6 16 17 16h480c11 0 16 -5 16 -15v-91c0 -8 -7 -15 -16 -15h-332v-215h295c11 0 17 -5 17 -15v-91c0 -10 -6 -15 -17 -15h-295v-266c0 -9 -7 -16 -18 -16z" />
    <glyph glyph-name="G" unicode="G" horiz-adv-x="802" 
d="M447 -13c-292 0 -384 104 -384 382c0 276 102 383 366 383c146 0 253 -33 271 -41c13 -5 19 -12 18 -23l-2 -9c-4 -15 -10 -49 -14 -67c-3 -11 -11 -14 -20 -13c-19 3 -97 32 -220 32c-160 0 -230 -49 -230 -265c0 -213 65 -265 221 -265c44 0 90 7 103 10v168l-117 14
c-8 1 -15 6 -15 14v85c0 8 7 14 15 14h260c11 0 17 -5 17 -15v-287c0 -54 -10 -78 -63 -94c-46 -13 -139 -23 -206 -23z" />
    <glyph glyph-name="H" unicode="H" horiz-adv-x="856" 
d="M758 738v-723c0 -10 -5 -15 -16 -15h-133c-9 0 -17 6 -17 15v303h-329v-303c0 -10 -5 -15 -16 -15h-133c-11 0 -16 5 -16 15v706c0 8 5 13 15 14l135 17c11 1 15 -7 15 -14v-296h329v279c0 8 5 13 16 14l135 17c11 1 15 -7 15 -14z" />
    <glyph glyph-name="I" unicode="I" horiz-adv-x="361" 
d="M263 738v-723c0 -10 -5 -15 -16 -15h-133c-11 0 -16 5 -16 15v706c0 8 5 13 15 14l135 17c11 1 15 -7 15 -14z" />
    <glyph glyph-name="J" unicode="J" horiz-adv-x="357" 
d="M269 738v-741c0 -155 -94 -201 -235 -201h-38c-12 0 -23 1 -33 2c-11 1 -21 5 -21 22v72c0 15 6 24 22 25l53 2c61 3 87 16 87 91v709c0 8 5 15 16 16l133 17c11 1 16 -7 16 -14z" />
    <glyph glyph-name="K" unicode="K" horiz-adv-x="759" 
d="M333 432l212 298c4 5 7 9 18 9h156c9 0 22 -9 11 -24l-258 -337l278 -354c2 -3 3 -6 3 -9c0 -8 -7 -15 -12 -15h-169c-9 0 -15 3 -20 9l-219 304h-70v-298c0 -10 -5 -15 -16 -15h-133c-11 0 -16 5 -16 15v709c0 10 5 15 16 15h133c11 0 16 -5 16 -15v-292h70z" />
    <glyph glyph-name="L" unicode="L" horiz-adv-x="616" 
d="M588 0h-474c-11 0 -16 5 -16 15v705c0 9 5 14 15 15l134 17c11 1 16 -6 16 -14v-617h325c11 0 16 -5 16 -15v-91c0 -10 -5 -15 -16 -15z" />
    <glyph glyph-name="M" unicode="M" horiz-adv-x="1105" 
d="M558 283l107 438c3 11 11 18 22 18h247c11 0 21 -7 22 -18l76 -703c1 -12 -5 -18 -18 -18h-127c-13 0 -19 6 -20 18l-54 601h-29l-128 -492c-3 -9 -10 -17 -21 -17h-172c-11 0 -17 8 -20 17l-128 492h-29l-54 -601c-1 -12 -7 -18 -20 -18h-121c-11 0 -21 4 -18 19l76 701
c1 11 9 19 20 19h249c11 0 19 -7 22 -18l107 -438h11z" />
    <glyph glyph-name="N" unicode="N" horiz-adv-x="858" 
d="M114 739h204c16 0 21 -5 28 -20l233 -526h37l-16 531c0 10 5 15 15 15h130c10 0 15 -5 15 -15v-709c0 -7 -4 -15 -16 -15h-204c-16 0 -21 5 -28 20l-233 526h-37l16 -531c0 -10 -5 -15 -15 -15h-130c-10 0 -15 5 -15 15v709c0 7 4 15 16 15z" />
    <glyph glyph-name="O" unicode="O" horiz-adv-x="841" 
d="M778 369c0 -232 -63 -382 -358 -382c-293 0 -357 150 -357 382c0 233 64 383 357 383c295 0 358 -150 358 -383zM608 370c0 180 -21 267 -188 267c-168 0 -187 -87 -187 -267s19 -267 187 -267c167 0 188 87 188 267z" />
    <glyph glyph-name="P" unicode="P" horiz-adv-x="749" 
d="M247 0h-133c-11 0 -16 5 -16 15v708c0 11 6 16 17 16h336c183 0 267 -77 267 -244s-84 -244 -267 -244h-188v-236c0 -10 -5 -15 -16 -15zM263 365h140c93 0 144 29 144 130s-51 130 -144 130h-140v-260z" />
    <glyph glyph-name="Q" unicode="Q" horiz-adv-x="841" 
d="M778 369c0 -215 -55 -361 -298 -380l15 -73h175c11 0 16 -5 16 -15v-88c0 -10 -5 -15 -16 -15h-154c-115 0 -143 105 -164 192c-236 21 -289 167 -289 379c0 233 64 383 357 383c295 0 358 -150 358 -383zM608 370c0 180 -21 267 -188 267c-168 0 -187 -87 -187 -267
s19 -267 187 -267c167 0 188 87 188 267z" />
    <glyph glyph-name="R" unicode="R" horiz-adv-x="806" 
d="M247 0h-133c-11 0 -16 5 -16 15v709c0 10 5 15 16 15h352c164 0 254 -61 254 -201c0 -103 -41 -167 -157 -183v-27c116 -13 159 -47 164 -168l7 -146c0 -9 -5 -14 -15 -14h-142c-10 0 -15 5 -15 14l-6 134c-5 92 -55 114 -148 117l-145 4v-254c0 -10 -5 -15 -16 -15z
M263 377l149 6c82 3 140 26 140 119c0 84 -29 123 -117 123h-172v-248z" />
    <glyph glyph-name="S" unicode="S" horiz-adv-x="705" 
d="M643 216c0 -174 -141 -227 -292 -227c-134 0 -242 31 -259 37c-11 4 -20 13 -17 24l14 77c3 15 13 18 26 15l30 -8c42 -10 117 -26 185 -26c80 0 143 21 143 97c0 77 -66 84 -162 100c-104 16 -243 46 -243 219c0 178 127 226 287 226c116 0 218 -26 239 -34
c13 -4 23 -12 20 -23l-15 -80c-2 -9 -7 -13 -16 -13c-2 0 -5 0 -8 1c-59 12 -122 30 -203 30c-69 0 -139 -13 -139 -90c0 -75 78 -82 164 -98l16 -3c112 -21 230 -45 230 -224z" />
    <glyph glyph-name="T" unicode="T" horiz-adv-x="673" 
d="M661 724v-90c0 -11 -5 -16 -16 -16h-226v-603c0 -10 -5 -15 -16 -15h-133c-11 0 -16 5 -16 15v603h-226c-11 0 -16 5 -16 15v91c0 8 7 15 16 15h617c9 0 16 -7 16 -15z" />
    <glyph glyph-name="U" unicode="U" horiz-adv-x="819" 
d="M731 738v-482c0 -185 -102 -269 -322 -269c-208 0 -321 74 -321 267v466c0 8 5 13 15 14l135 18c11 1 15 -7 15 -14v-492c0 -91 29 -143 157 -143c116 0 155 46 155 137v480c0 8 5 13 16 14l134 18c11 1 16 -7 16 -14z" />
    <glyph glyph-name="V" unicode="V" horiz-adv-x="761" 
d="M504 0h-248c-9 0 -14 4 -16 12l-215 708c-3 9 0 19 12 19h143c9 0 16 -5 19 -15l166 -613h40l166 613c3 10 9 15 18 15h135c11 0 15 -10 12 -19l-215 -708c-2 -8 -8 -12 -17 -12z" />
    <glyph glyph-name="W" unicode="W" horiz-adv-x="1126" 
d="M308 135h33l105 511c2 13 9 19 21 19h197c13 0 20 -6 22 -19l105 -511h32l96 583c3 17 11 21 23 21h128c11 0 21 -8 18 -25l-139 -696c-2 -12 -10 -18 -23 -18h-230c-15 0 -20 7 -23 18l-99 486h-17l-99 -486c-3 -11 -9 -18 -24 -18h-234c-13 0 -21 6 -23 18l-139 696
c-3 11 1 25 18 25h133c12 0 20 -4 23 -21z" />
    <glyph glyph-name="X" unicode="X" horiz-adv-x="753" 
d="M490 389l250 -368c2 -3 3 -6 3 -8c0 -9 -5 -13 -15 -13h-162c-8 0 -16 5 -19 10l-178 291l-180 -291c-3 -5 -11 -10 -19 -10h-146c-11 0 -16 16 -12 21l247 361l-231 333c-1 1 -1 3 -1 6c0 9 10 18 14 18h158c12 0 16 -4 23 -16l159 -254l150 254c7 13 11 16 23 16h143
c11 0 14 -8 14 -15c0 -3 -1 -6 -2 -8z" />
    <glyph glyph-name="Y" unicode="Y" horiz-adv-x="737" 
d="M455 279v-264c0 -10 -6 -15 -17 -15h-132c-11 0 -17 5 -17 15v262l-285 438c-1 2 -2 5 -2 8c0 9 8 16 15 16h156c13 0 17 -4 24 -16l181 -313l174 313c7 13 11 16 23 16h146c11 0 14 -8 14 -15c0 -3 -1 -6 -2 -8z" />
    <glyph glyph-name="Z" unicode="Z" horiz-adv-x="701" 
d="M653 106v-91c0 -10 -5 -15 -16 -15h-568c-9 0 -16 7 -16 15v82c0 16 3 21 10 28l376 493h-375c-11 0 -16 5 -16 16v90c0 10 5 15 16 15h561c9 0 16 -7 16 -15v-90c0 -9 -2 -17 -7 -22l-383 -491h386c11 0 16 -5 16 -15z" />
    <glyph glyph-name="bracketleft" unicode="[" horiz-adv-x="368" 
d="M305 -68l-28 -69c-4 -9 -8 -12 -19 -9l-173 46c-9 3 -13 9 -13 20v831c0 11 4 17 13 20l173 46c9 3 16 0 19 -9l28 -68c3 -7 0 -15 -8 -18l-91 -38v-697l91 -38c8 -3 11 -10 8 -17z" />
    <glyph glyph-name="backslash" unicode="\" horiz-adv-x="330" 
d="M221 -47l-218 817c-3 11 2 15 9 16l81 18c11 3 15 -3 18 -10l218 -817c3 -9 -2 -15 -9 -16l-81 -18c-9 -2 -15 1 -18 10z" />
    <glyph glyph-name="bracketright" unicode="]" horiz-adv-x="368" 
d="M296 751v-831c0 -11 -4 -17 -13 -20l-174 -46c-11 -3 -16 2 -19 9l-27 69c-3 8 0 14 7 17l92 38v697l-91 38c-4 1 -12 7 -8 18l27 68c3 7 9 12 20 9l173 -46c9 -3 13 -9 13 -20z" />
    <glyph glyph-name="asciicircum" unicode="^" horiz-adv-x="622" 
d="M311 615l-163 -332c-3 -4 -5 -9 -13 -9c-3 0 -6 1 -9 2l-80 36c-6 3 -9 7 -9 12c0 3 1 5 2 8l215 396c5 7 12 11 21 11h72c9 0 16 -4 21 -11l215 -396c1 -3 2 -5 2 -8c0 -5 -3 -9 -9 -12l-80 -36c-3 -1 -6 -2 -9 -2c-8 0 -10 5 -13 9z" />
    <glyph glyph-name="underscore" unicode="_" horiz-adv-x="542" 
d="M0 -125v64h542v-64h-542z" />
    <glyph glyph-name="grave" unicode="`" horiz-adv-x="600" 
d="M411 658l-43 -58c-3 -5 -9 -7 -16 -3l-161 106c-6 4 -7 9 -3 14l48 63c4 5 11 7 16 3l157 -111c5 -4 6 -9 2 -14z" />
    <glyph glyph-name="a" unicode="a" horiz-adv-x="595" 
d="M529 380v-275c0 -76 -28 -89 -97 -105c-37 -8 -83 -13 -142 -13c-116 0 -244 15 -244 171c0 128 82 145 155 156l174 28v27c0 27 -3 43 -24 54c-13 7 -37 10 -71 10c-65 0 -136 -19 -165 -27c-5 -1 -9 -2 -10 -2c-7 0 -10 3 -11 9l-15 66c-1 3 -1 5 -1 8c0 9 7 12 12 15
c22 8 116 36 223 36c71 0 119 -10 152 -29c51 -27 64 -73 64 -129zM376 250l-107 -17c-38 -5 -71 -14 -71 -73c0 -70 56 -76 96 -76c37 0 69 7 82 11v155z" />
    <glyph glyph-name="b" unicode="b" horiz-adv-x="612" 
d="M566 271c0 -191 -43 -284 -250 -284c-80 0 -148 11 -187 24c-56 16 -57 42 -57 87v611c0 15 3 21 18 24l114 19c15 2 22 -4 22 -17v-157l-11 -62c14 3 76 22 135 22c153 0 216 -70 216 -267zM409 267c0 144 -18 166 -93 166c-36 0 -79 -10 -90 -13v-321c7 -3 40 -8 77 -8
c83 0 106 27 106 176z" />
    <glyph glyph-name="c" unicode="c" horiz-adv-x="518" 
d="M46 265c0 189 65 273 262 273c81 0 138 -15 162 -26c8 -3 15 -10 12 -22l-13 -62c-3 -11 -10 -14 -21 -11c-24 7 -67 16 -114 16c-103 0 -133 -45 -133 -169s30 -168 133 -168c47 0 90 9 114 16c11 3 18 0 21 -11l13 -62c3 -12 -4 -19 -12 -22c-24 -11 -81 -26 -162 -26
c-197 0 -262 85 -262 274z" />
    <glyph glyph-name="d" unicode="d" horiz-adv-x="613" 
d="M541 735v-647c0 -28 -3 -62 -59 -78c-48 -15 -109 -23 -172 -23c-196 0 -264 62 -264 271c0 173 40 280 216 280c71 0 124 -15 135 -18l-11 61v128c0 14 6 22 19 24l113 19c15 3 23 -5 23 -17zM386 101v324c-9 3 -48 9 -81 9c-76 0 -103 -15 -103 -167
c0 -160 31 -176 109 -176c35 0 68 7 75 10z" />
    <glyph glyph-name="e" unicode="e" horiz-adv-x="593" 
d="M547 271l-1 -48c0 -13 -5 -26 -24 -26h-323c0 -43 14 -66 43 -85c25 -15 61 -22 108 -22c61 0 105 15 136 23c11 3 18 -1 21 -12l13 -57c4 -16 -3 -21 -10 -24c-32 -13 -101 -33 -186 -33c-195 0 -278 72 -278 273c0 195 57 278 252 278c100 0 160 -23 199 -68
c37 -45 50 -111 50 -199zM395 290v6c0 27 -2 50 -7 71c-11 52 -37 69 -88 69c-64 0 -86 -20 -95 -65c-5 -25 -5 -50 -6 -81h196z" />
    <glyph glyph-name="f" unicode="f" horiz-adv-x="425" 
d="M426 717l-11 -68c-2 -10 -7 -14 -15 -13c-27 3 -44 7 -71 7c-24 0 -41 -4 -50 -11c-9 -9 -14 -23 -14 -43v-64h127c11 0 16 -5 16 -15v-80c0 -10 -5 -15 -16 -15h-127v-400c0 -10 -5 -15 -16 -15h-122c-9 0 -17 6 -17 15v400h-77c-11 0 -16 5 -16 15v80c0 10 5 15 16 15
h77v68c0 107 54 159 171 159c73 0 118 -12 134 -17c9 -3 12 -9 11 -18z" />
    <glyph glyph-name="g" unicode="g" horiz-adv-x="624" 
d="M137 191c13 3 27 6 42 9c-10 3 -21 7 -34 13c-38 17 -81 57 -81 142c0 142 95 183 238 183c96 0 112 -23 171 -23c43 0 64 10 99 27c4 2 7 3 9 3c4 0 7 -3 9 -9l25 -79c3 -8 5 -13 -6 -20c-17 -12 -36 -18 -56 -18c-15 0 -34 3 -41 4c8 -11 24 -43 24 -83
c0 -130 -106 -168 -239 -168h-13c-51 0 -71 -5 -71 -40s20 -41 71 -41h99c89 0 186 -23 186 -140c0 -128 -110 -175 -260 -175c-171 0 -260 28 -260 127c0 90 74 97 110 105v16c-45 11 -92 9 -92 86c0 50 29 71 70 81zM390 355c0 65 -19 99 -90 99s-90 -34 -90 -99
s19 -99 90 -99s90 34 90 99zM422 -70c0 47 -37 51 -82 51h-68c-34 0 -75 -6 -75 -55c0 -51 40 -63 116 -63c64 0 109 14 109 67z" />
    <glyph glyph-name="h" unicode="h" horiz-adv-x="616" 
d="M550 395v-380c0 -10 -5 -15 -16 -15h-122c-11 0 -16 5 -16 15v354c0 44 -15 66 -63 66c-32 0 -70 -5 -107 -12v-408c0 -10 -5 -15 -16 -15h-122c-11 0 -16 5 -16 15v694c0 15 3 21 18 24l114 19c15 2 22 -4 22 -17v-156l-11 -62c47 11 105 21 156 21
c112 0 179 -31 179 -143z" />
    <glyph glyph-name="i" unicode="i" horiz-adv-x="328" 
d="M241 498v-483c0 -10 -5 -15 -16 -15h-122c-11 0 -16 5 -16 15v483c0 10 5 15 16 15h122c11 0 16 -5 16 -15zM240 726v-115c0 -17 -9 -26 -28 -26h-96c-19 0 -28 9 -28 26v115c0 17 9 26 28 26h96c19 0 28 -9 28 -26z" />
    <glyph glyph-name="j" unicode="j" horiz-adv-x="323" 
d="M241 498v-529c0 -145 -86 -179 -195 -179c-43 0 -68 3 -73 4c-11 3 -20 4 -20 21l1 58c0 13 7 19 21 20l31 1c49 3 82 7 82 78v526c0 10 5 15 16 15h121c11 0 16 -5 16 -15zM240 726v-115c0 -17 -9 -26 -28 -26h-96c-19 0 -28 9 -28 26v115c0 17 9 26 28 26h96
c19 0 28 -9 28 -26z" />
    <glyph glyph-name="k" unicode="k" horiz-adv-x="590" 
d="M209 0h-121c-11 0 -16 5 -16 15v696c0 13 5 20 16 22l118 19c11 3 19 -5 19 -17v-422h41l136 203c3 6 9 9 18 9h138c11 0 12 -10 8 -15l-173 -239l183 -257c4 -5 -1 -14 -8 -14h-157c-6 0 -10 2 -13 7l-132 205h-41v-197c0 -10 -5 -15 -16 -15z" />
    <glyph glyph-name="l" unicode="l" horiz-adv-x="352" 
d="M314 95l13 -73c0 -11 -7 -15 -10 -16c-9 -4 -37 -15 -96 -15c-103 0 -149 57 -149 141v580c0 13 3 18 16 21l116 19c15 2 22 -4 22 -17v-589c0 -35 20 -45 39 -45c16 0 24 1 39 4c5 1 9 -3 10 -10z" />
    <glyph glyph-name="m" unicode="m" horiz-adv-x="949" 
d="M883 383v-368c0 -10 -5 -15 -16 -15h-122c-11 0 -17 5 -17 15v347c0 56 -25 73 -72 73c-23 0 -51 -3 -102 -12v-408c0 -10 -5 -15 -15 -15h-122c-11 0 -17 5 -17 15v347c0 56 -21 73 -68 73c-43 0 -94 -10 -106 -13v-407c0 -10 -5 -15 -16 -15h-122c-11 0 -16 5 -16 15
v436c0 39 24 49 83 64c50 11 130 23 195 23c63 0 106 -14 133 -34c18 8 109 34 197 34c125 0 203 -30 203 -155z" />
    <glyph glyph-name="n" unicode="n" horiz-adv-x="616" 
d="M550 383v-368c0 -10 -5 -15 -16 -15h-122c-11 0 -17 5 -17 15v347c0 56 -21 73 -68 73c-42 0 -90 -10 -101 -13v-407c0 -10 -5 -15 -16 -15h-122c-11 0 -16 5 -16 15v436c0 39 24 49 83 64c51 12 128 23 192 23c127 0 203 -30 203 -155z" />
    <glyph glyph-name="o" unicode="o" horiz-adv-x="600" 
d="M554 262c0 -154 -29 -275 -254 -275c-226 0 -254 121 -254 275c0 155 28 276 254 276c225 0 254 -121 254 -276zM397 262c0 117 -5 172 -97 172c-93 0 -97 -55 -97 -172c0 -116 4 -171 97 -171c92 0 97 55 97 171z" />
    <glyph glyph-name="p" unicode="p" horiz-adv-x="613" 
d="M567 262c0 -145 -28 -275 -216 -275c-53 0 -99 7 -136 18l11 -63v-109c0 -14 -6 -22 -18 -24l-114 -19c-15 -2 -22 4 -22 18v615c0 56 23 71 66 84c64 20 140 31 208 31c198 0 221 -119 221 -276zM410 266c0 153 -28 167 -96 167c-35 0 -78 -11 -88 -13v-320
c7 -3 39 -9 78 -9c81 0 106 26 106 175z" />
    <glyph glyph-name="q" unicode="q" horiz-adv-x="613" 
d="M541 432v-599c0 -14 -6 -22 -18 -24l-114 -19c-15 -3 -23 5 -23 17v135l12 63c-36 -11 -78 -18 -135 -18c-192 0 -217 129 -217 272c0 221 75 279 255 279c60 0 113 -8 164 -20c53 -12 76 -35 76 -86zM386 101v324c-8 3 -42 9 -81 9c-76 0 -103 -24 -103 -167
c0 -160 31 -176 109 -176c35 0 68 7 75 10z" />
    <glyph glyph-name="r" unicode="r" horiz-adv-x="391" 
d="M72 15v437c0 29 14 40 45 52c57 22 150 30 218 33h9c11 0 13 -1 20 -5c3 -3 7 -7 7 -16v-73c0 -11 -1 -20 -18 -20c-59 0 -110 -7 -127 -11v-397c0 -10 -5 -15 -16 -15h-122c-11 0 -16 5 -16 15z" />
    <glyph glyph-name="s" unicode="s" horiz-adv-x="508" 
d="M464 160c0 -131 -96 -172 -218 -172c-88 0 -166 21 -185 29c-7 3 -14 8 -11 16l12 69c2 8 6 12 12 12c1 0 4 0 7 -1c14 -3 82 -23 145 -23c45 0 84 14 84 57c0 48 -31 54 -83 62c-66 11 -171 24 -171 164c0 147 129 165 217 165c80 0 143 -16 163 -23c9 -2 12 -7 11 -16
l-12 -68c-1 -7 -5 -10 -13 -10c-2 0 -5 0 -8 1c-9 2 -67 14 -118 14c-39 0 -86 -8 -86 -52c0 -52 48 -55 99 -63c76 -14 155 -32 155 -161z" />
    <glyph glyph-name="t" unicode="t" horiz-adv-x="423" 
d="M377 98l13 -70c2 -9 -2 -15 -13 -18c-15 -5 -58 -18 -126 -18c-119 0 -179 44 -179 163v503c0 13 6 21 18 24l114 20c15 2 22 -4 22 -17v-160h133c11 0 16 -5 16 -15v-80c0 -10 -5 -15 -16 -15h-133v-253c0 -39 13 -61 64 -61c27 0 55 4 71 8c9 3 15 -4 16 -11z" />
    <glyph glyph-name="u" unicode="u" horiz-adv-x="611" 
d="M545 520v-343c0 -135 -74 -190 -239 -190c-156 0 -239 45 -239 189v319c0 14 6 22 18 24l114 19c15 2 22 -4 22 -18v-350c0 -53 18 -81 85 -81c73 0 85 35 85 81v325c0 14 6 22 18 24l111 18c3 1 6 1 8 1c11 0 17 -6 17 -18z" />
    <glyph glyph-name="v" unicode="v" horiz-adv-x="574" 
d="M392 0h-208c-9 0 -16 5 -19 16l-138 482c-1 3 -2 7 -2 10c0 11 6 17 18 17h119c13 0 20 -2 23 -17l95 -412h26l85 411c3 15 11 18 23 18h115c15 0 22 -9 18 -26l-136 -483c-3 -11 -9 -16 -19 -16z" />
    <glyph glyph-name="w" unicode="w" horiz-adv-x="883" 
d="M451 349h-12l-70 -331c-3 -12 -10 -18 -23 -18h-196c-13 0 -20 6 -23 19l-95 480c-3 15 4 26 19 26h119c13 0 20 -4 23 -20l54 -370h24l65 325c3 16 12 20 25 20h167c13 0 23 -4 26 -20l65 -325h23l54 370c3 16 9 20 22 20h115c13 0 22 -7 18 -26l-95 -480
c-3 -13 -10 -19 -22 -19h-189c-13 0 -21 6 -24 18z" />
    <glyph glyph-name="x" unicode="x" horiz-adv-x="598" 
d="M399 267l177 -248c1 -2 2 -4 2 -7c0 -7 -3 -12 -10 -12h-137c-6 0 -11 3 -16 10l-121 182l-111 -182c-3 -5 -9 -10 -16 -10h-137c-7 0 -10 5 -10 12c0 3 1 5 2 7l177 247l-158 236c-2 3 -3 6 -3 9c0 8 7 14 12 14h121c15 0 23 0 31 -13l104 -168l92 167c8 15 15 14 31 14
h119c5 0 12 -7 12 -15c0 -3 -1 -6 -2 -9z" />
    <glyph glyph-name="y" unicode="y" horiz-adv-x="574" 
d="M548 500l-158 -557c-26 -92 -64 -153 -194 -153c-67 0 -86 4 -102 7c-10 2 -15 8 -15 18l1 63c0 11 3 20 18 20c17 0 37 -2 60 -2c52 0 76 15 87 58l13 46h-75c-9 0 -15 5 -18 16l-139 483c-1 3 -1 6 -1 9c0 11 6 17 18 17h118c13 0 20 -2 23 -17l95 -412h27l85 411
c3 15 10 18 23 18h116c13 0 19 -6 19 -17c0 -3 0 -6 -1 -8z" />
    <glyph glyph-name="z" unicode="z" horiz-adv-x="524" 
d="M463 0h-396c-11 0 -16 5 -16 14v63c0 11 3 15 8 22l228 316h-226c-11 0 -16 5 -16 14v82c0 9 5 14 16 14h397c10 0 15 -5 15 -14v-64c0 -7 1 -11 -6 -20l-230 -317h226c11 0 16 -5 16 -14v-82c0 -9 -5 -14 -16 -14z" />
    <glyph glyph-name="braceleft" unicode="{" horiz-adv-x="431" 
d="M368 -68l-28 -69c-5 -8 -11 -11 -19 -9l-174 46c-9 3 -13 10 -13 21v260c0 72 -8 93 -59 101c-11 3 -18 8 -18 19v66c0 11 7 16 18 19c51 8 59 29 59 101v264c0 11 4 17 13 20l174 46c9 3 16 -1 19 -8l28 -69c3 -8 0 -14 -9 -18l-91 -38v-220c0 -74 -36 -99 -78 -117v-28
c42 -18 78 -43 78 -117v-215l92 -38c9 -3 11 -9 8 -17z" />
    <glyph glyph-name="bar" unicode="|" horiz-adv-x="289" 
d="M207 761v-902c0 -12 -8 -21 -19 -21h-89c-11 0 -17 13 -17 21v902c0 8 6 21 17 21h89c11 0 19 -9 19 -21z" />
    <glyph glyph-name="braceright" unicode="}" horiz-adv-x="431" 
d="M374 367v-66c0 -11 -8 -16 -19 -19c-51 -8 -59 -29 -59 -101v-260c0 -11 -4 -18 -13 -21l-174 -46c-9 -3 -15 -2 -19 9l-27 69c-3 5 -1 14 7 17l92 38v215c0 75 37 98 78 117v28c-41 19 -78 43 -78 117v220l-91 38c-4 3 -12 7 -8 18l27 69c3 8 10 11 20 8l173 -46
c9 -3 13 -9 13 -20v-264c0 -72 8 -93 59 -101c11 -3 19 -8 19 -19z" />
    <glyph glyph-name="asciitilde" unicode="~" horiz-adv-x="624" 
d="M518 357l30 -65c3 -8 1 -15 -6 -21c-24 -19 -85 -56 -138 -56c-31 0 -55 8 -92 23c-45 19 -63 27 -90 27c-35 0 -66 -19 -95 -40c-7 -5 -17 -9 -21 2l-30 65c-1 4 -2 7 -2 9c0 4 3 8 8 12c24 19 85 56 138 56c32 0 56 -8 92 -23c33 -13 59 -27 90 -27c35 0 67 20 95 40
c11 7 18 6 21 -2z" />
    <glyph glyph-name="uni00A0" unicode="&#xa0;" horiz-adv-x="280" 
 />
    <glyph glyph-name="exclamdown" unicode="&#xa1;" horiz-adv-x="352" 
d="M239 296l18 -502c0 -13 -7 -18 -21 -16l-127 19c-13 2 -20 10 -19 24l18 475c0 9 5 13 14 13h103c9 0 14 -4 14 -13zM255 509v-117c0 -13 -6 -20 -19 -20h-123c-11 0 -19 8 -19 20v117c0 13 8 16 19 16h123c11 0 19 -3 19 -16z" />
    <glyph glyph-name="cent" unicode="&#xa2;" horiz-adv-x="733" 
d="M572 99l12 -61c2 -11 -2 -18 -11 -22c-20 -11 -70 -21 -127 -26v-69c0 -12 -9 -20 -18 -20h-70c-11 0 -18 12 -18 20v71c-150 16 -193 109 -193 271c0 163 43 253 193 272v70c0 8 7 20 18 20h70c9 0 18 -8 18 -20v-69c57 -4 104 -15 127 -26c11 -5 14 -10 11 -21l-12 -62
c-2 -10 -9 -14 -22 -11c-23 5 -66 17 -114 17c-103 0 -133 -45 -133 -169c0 -125 30 -170 133 -170c48 0 89 9 114 16c13 3 20 0 22 -11z" />
    <glyph glyph-name="sterling" unicode="&#xa3;" horiz-adv-x="733" 
d="M655 701l-17 -85c-1 -7 -7 -10 -18 -8c-25 6 -93 23 -156 23c-65 0 -141 -12 -141 -96c0 -36 16 -107 19 -112h198c11 0 16 -5 16 -15v-90c0 -10 -5 -15 -16 -15h-174c3 -7 8 -32 8 -64c0 -80 -54 -109 -68 -120l327 4c10 0 15 -5 15 -16v-91c0 -9 -7 -16 -15 -16h-542
c-9 0 -15 7 -15 15v86c0 9 -1 16 18 19c48 8 127 31 127 130c0 67 -51 194 -51 290c0 172 123 212 261 212c99 0 187 -24 214 -32c7 -3 13 -10 10 -19z" />
    <glyph glyph-name="currency" unicode="&#xa4;" horiz-adv-x="733" 
d="M570 340c0 -33 -5 -60 -18 -91l57 -51c3 -3 4 -6 4 -9c0 -4 -2 -8 -5 -11l-65 -66c-3 -3 -7 -5 -11 -5s-7 1 -10 4l-52 48c-28 -12 -61 -20 -104 -20s-76 8 -104 20l-52 -48c-3 -3 -6 -4 -10 -4s-8 2 -11 5l-65 66c-3 3 -5 7 -5 11c0 3 1 6 4 9l57 51
c-13 31 -18 58 -18 91s5 60 18 91l-57 51c-3 3 -4 6 -4 9c0 4 2 8 5 11l65 66c3 3 7 5 11 5s7 -1 10 -4l52 -48c28 12 61 20 104 20s76 -8 104 -20l52 48c3 3 6 4 10 4s8 -2 11 -5l65 -66c3 -3 5 -7 5 -11c0 -3 -1 -6 -4 -9l-57 -51c13 -31 18 -58 18 -91zM462 340
c0 76 -19 108 -96 108s-96 -32 -96 -108s19 -108 96 -108s96 32 96 108z" />
    <glyph glyph-name="yen" unicode="&#xa5;" horiz-adv-x="733" 
d="M525 397h130c10 0 15 -5 15 -15v-68c0 -9 -12 -15 -15 -15h-576c-10 0 -15 5 -15 15v68c0 10 5 15 15 15h134l-200 316c-7 9 4 26 17 26h147c12 0 21 -5 26 -16l171 -318l164 318c7 13 13 16 25 16h141c11 0 24 -16 17 -25zM629 235v-66c0 -9 -8 -15 -15 -15h-160v-139
c0 -10 -5 -15 -16 -15h-133c-9 0 -17 6 -17 15v139h-168c-10 0 -15 5 -15 15v66c0 10 5 15 15 15h494c10 0 15 -5 15 -15z" />
    <glyph glyph-name="brokenbar" unicode="&#xa6;" horiz-adv-x="289" 
d="M207 228v-369c0 -12 -8 -21 -19 -21h-89c-11 0 -17 13 -17 21v370c0 9 6 20 17 20h89c11 0 19 -8 19 -21zM207 761v-369c0 -12 -8 -21 -19 -21h-89c-11 0 -17 13 -17 21v370c0 9 6 20 17 20h89c11 0 19 -8 19 -21z" />
    <glyph glyph-name="section" unicode="&#xa7;" horiz-adv-x="769" 
d="M683 289c0 -118 -112 -143 -132 -149v-25c12 -3 104 -32 104 -142c0 -77 -35 -124 -88 -151s-117 -32 -189 -32c-122 0 -218 26 -248 39c-7 3 -12 5 -12 16c0 3 0 6 1 9l14 66c2 10 7 15 14 15c3 0 8 -1 13 -2c25 -6 112 -33 208 -33c72 0 136 13 136 77
c0 60 -60 68 -132 76l-73 9c-115 16 -213 46 -213 182c0 120 111 146 131 151v25c-11 3 -103 35 -103 141c0 76 32 129 87 157c48 25 106 34 186 34c68 0 162 -18 222 -34c10 -3 14 -9 12 -18l-14 -75c-2 -8 -6 -12 -11 -12c-3 0 -8 1 -13 2c-30 8 -114 27 -189 27
s-131 -16 -131 -81c0 -60 57 -68 125 -76l74 -10c124 -16 221 -41 221 -186zM534 266c0 57 -43 77 -96 82c-16 3 -80 10 -88 10c-36 0 -115 -21 -115 -89c0 -64 59 -79 102 -82l88 -9c43 5 109 24 109 88z" />
    <glyph glyph-name="dieresis" unicode="&#xa8;" horiz-adv-x="600" 
d="M260 707v-77c0 -8 -9 -15 -21 -15h-115c-12 0 -20 7 -20 15v77c0 11 7 16 20 16h115c12 0 21 -7 21 -16zM495 707v-77c0 -8 -8 -15 -20 -15h-115c-12 0 -21 7 -21 15v77c0 9 9 16 21 16h115c13 0 20 -5 20 -16z" />
    <glyph glyph-name="copyright" unicode="&#xa9;" horiz-adv-x="944" 
d="M887 368c0 -257 -90 -381 -415 -381c-326 0 -415 124 -415 381c0 256 89 384 415 384c325 0 415 -128 415 -384zM793 369c0 113 -15 190 -70 238c-48 44 -125 64 -252 64c-131 0 -209 -22 -256 -69c-51 -49 -64 -125 -64 -234s13 -185 64 -234c47 -47 125 -66 256 -66
c127 0 204 18 252 61c55 49 70 127 70 240zM632 557l-9 -45c-1 -6 -5 -9 -12 -9c-1 0 -3 0 -5 1l-20 5c-23 6 -57 13 -83 13c-96 0 -119 -41 -119 -149s23 -149 119 -149c37 0 88 11 103 16c11 2 16 -1 17 -8l9 -44c1 -7 -2 -13 -9 -16c-28 -15 -87 -25 -139 -25
c-168 0 -205 85 -205 226s37 226 205 226c61 0 117 -16 138 -25c9 -3 12 -9 10 -17z" />
    <glyph glyph-name="ordfeminine" unicode="&#xaa;" horiz-adv-x="472" 
d="M377 656v-161c0 -45 -12 -57 -61 -68c-19 -4 -51 -8 -87 -8c-56 0 -159 1 -159 104c0 79 59 91 121 99l102 16v10c0 17 -2 28 -17 35c-10 4 -27 6 -50 6c-39 0 -78 -10 -115 -17c-3 -1 -6 -1 -8 -1c-5 0 -7 2 -8 7l-8 42c-1 6 3 10 12 12c39 11 84 20 144 20
c44 0 93 -3 117 -30c16 -19 17 -43 17 -66zM390 354v-36c0 -10 -5 -15 -16 -15h-286c-11 0 -16 5 -16 15v36c0 9 5 14 16 14h286c11 0 16 -5 16 -14zM293 579l-90 -14c-24 -4 -46 -8 -46 -39c0 -44 37 -47 72 -47c21 0 43 1 64 8v92z" />
    <glyph glyph-name="guillemotleft" unicode="&#xab;" horiz-adv-x="607" 
d="M182 289l145 -187c2 -3 3 -6 3 -9c0 -5 -2 -9 -7 -12l-72 -41c-3 -2 -7 -3 -10 -3c-4 0 -8 2 -12 7l-171 233c-3 3 -4 7 -4 12s1 9 4 12l171 233c4 5 8 7 12 7c3 0 7 -1 10 -3l72 -41c5 -3 7 -7 7 -12c0 -3 -1 -6 -3 -9zM405 289l145 -187c2 -3 3 -6 3 -9
c0 -5 -2 -9 -7 -12l-72 -41c-3 -2 -7 -3 -10 -3c-4 0 -8 2 -12 7l-171 233c-3 3 -4 7 -4 12s1 9 4 12l171 233c4 5 8 7 12 7c3 0 7 -1 10 -3l72 -41c5 -3 7 -7 7 -12c0 -3 -1 -6 -3 -9z" />
    <glyph glyph-name="logicalnot" unicode="&#xac;" horiz-adv-x="624" 
d="M569 372v-212c0 -8 -7 -19 -22 -19h-81c-12 0 -23 8 -23 20v121h-366c-8 0 -22 7 -22 20v69c0 11 9 20 22 20h470c15 0 22 -12 22 -19z" />
    <glyph glyph-name="uni00AD" unicode="&#xad;" horiz-adv-x="419" 
d="M367 308v-68c0 -12 -11 -19 -22 -19h-271c-9 0 -22 6 -22 19v68c0 11 9 20 22 20h271c13 0 22 -9 22 -20z" />
    <glyph glyph-name="registered" unicode="&#xae;" horiz-adv-x="944" 
d="M887 368c0 -257 -90 -381 -415 -381c-326 0 -415 124 -415 381c0 256 89 384 415 384c325 0 415 -128 415 -384zM793 369c0 113 -15 190 -70 238c-48 44 -125 64 -252 64c-131 0 -209 -22 -256 -69c-51 -49 -64 -125 -64 -234s13 -185 64 -234c47 -47 125 -66 256 -66
c127 0 204 18 252 61c55 49 70 127 70 240zM662 249l4 -80c0 -7 -3 -11 -10 -11h-83c-7 0 -11 3 -11 9l-6 102c-3 44 -42 48 -86 51l-68 3v-154c0 -7 -4 -11 -12 -11h-80c-7 0 -11 6 -11 11v405c0 8 4 12 13 12h198c91 0 148 -29 148 -120c0 -61 -25 -93 -98 -102v-17
c27 -3 47 -5 63 -14c24 -13 36 -37 39 -84zM553 451c0 47 -21 62 -73 62h-78v-127l77 3c52 3 74 15 74 62z" />
    <glyph glyph-name="overscore" unicode="&#xaf;" horiz-adv-x="600" 
d="M300 714c59 0 109 -10 144 -21c9 -3 15 -5 15 -14c0 -3 0 -6 -1 -9l-9 -53c-3 -11 -6 -12 -13 -12c-2 0 -5 0 -8 1c-39 7 -81 18 -128 18s-89 -11 -128 -18c-3 -1 -6 -1 -8 -1c-7 0 -10 1 -13 12l-9 53c-1 3 -1 6 -1 9c0 9 6 11 15 14c35 11 85 21 144 21z" />
    <glyph glyph-name="degree" unicode="&#xb0;" horiz-adv-x="417" 
d="M371 602c0 -83 -74 -150 -163 -150c-84 0 -162 63 -162 152c0 81 74 148 162 148c89 0 163 -68 163 -150zM287 602c0 39 -36 73 -80 73c-43 0 -77 -34 -77 -73c0 -41 34 -79 78 -79c43 0 79 38 79 79z" />
    <glyph glyph-name="plusminus" unicode="&#xb1;" horiz-adv-x="635" 
d="M554 404v-70c0 -11 -5 -18 -20 -18h-157v-131c0 -13 -6 -19 -19 -19h-84c-13 0 -19 6 -19 19v131h-158c-13 0 -20 6 -20 18v70c0 13 7 19 20 19h158v131c0 13 6 20 19 20h84c13 0 19 -7 19 -20v-131h157c13 0 20 -6 20 -19zM558 88v-68c0 -13 -12 -20 -23 -20h-436
c-8 0 -22 7 -22 20v68c0 11 9 20 22 20h436c13 0 23 -9 23 -20z" />
    <glyph glyph-name="twosuperior" unicode="&#xb2;" horiz-adv-x="527" 
d="M453 357v-60c0 -11 -6 -17 -19 -17h-324c-12 0 -21 6 -21 17v91c0 25 13 45 28 56c19 14 103 62 123 74c47 29 91 46 91 94c0 47 -34 57 -87 57c-48 0 -94 -10 -139 -22c-11 -3 -19 6 -20 13l-10 46c-3 11 5 19 13 22c28 11 94 25 174 25c124 0 185 -40 185 -141
c0 -75 -63 -130 -129 -162l-118 -61v-20l234 4c8 0 19 -5 19 -16z" />
    <glyph glyph-name="threesuperior" unicode="&#xb3;" horiz-adv-x="527" 
d="M449 406c0 -104 -95 -135 -194 -135c-77 0 -126 11 -147 18c-8 3 -15 7 -12 18l7 52c1 9 9 15 21 12c23 -5 65 -16 118 -16c59 0 91 15 91 60c0 48 -38 59 -128 64c-10 1 -15 7 -15 16v43c0 9 5 15 14 16c40 5 121 2 121 62c0 43 -33 53 -85 53s-99 -13 -130 -21
c-11 -3 -19 -4 -22 11l-9 50c-1 9 3 16 12 19c23 8 79 25 164 25c109 0 184 -33 184 -125c0 -61 -48 -86 -94 -97v-23c59 -11 104 -35 104 -102z" />
    <glyph glyph-name="acute" unicode="&#xb4;" horiz-adv-x="600" 
d="M364 780l47 -63c3 -3 3 -11 -2 -14l-161 -106c-7 -4 -12 -3 -17 3l-43 58c-4 6 -3 11 2 14l157 111c3 3 10 4 17 -3z" />
    <glyph glyph-name="mu" unicode="&#xb5;" horiz-adv-x="617" 
d="M551 521v-394c0 -105 -43 -140 -142 -140c-98 0 -174 24 -197 32l14 -64v-122c0 -14 -6 -22 -18 -24l-114 -19h-5c-11 0 -17 6 -17 17v688c0 14 6 22 18 24l114 19c15 2 22 -4 22 -17v-409c10 -5 59 -19 107 -19c53 0 63 12 63 61v341c0 14 6 22 19 24l114 19
c15 2 22 -4 22 -17z" />
    <glyph glyph-name="paragraph" unicode="&#xb6;" horiz-adv-x="751" 
d="M482 717v-887c0 -13 -3 -22 -18 -25l-83 -15c-15 -3 -23 5 -23 18v462c-37 -1 -57 -2 -69 -2h-16c-122 0 -227 38 -227 234c0 199 110 230 235 230h184c8 0 17 -4 17 -15zM680 734v-884c0 -13 -3 -22 -18 -25l-83 -15c-15 -3 -23 5 -23 18v883c0 15 6 23 17 26l84 15
c15 2 23 -4 23 -18zM358 625h-41c-83 0 -129 -11 -129 -123c0 -113 46 -125 129 -125h41v248z" />
    <glyph glyph-name="middot" unicode="&#xb7;" horiz-adv-x="244" 
d="M196 336v-105c0 -12 -7 -20 -18 -20h-111c-13 0 -19 7 -19 20v105c0 13 6 20 19 20h111c11 0 18 -8 18 -20z" />
    <glyph glyph-name="cedilla" unicode="&#xb8;" horiz-adv-x="600" 
d="M293 -31c64 0 110 -23 110 -87s-47 -87 -111 -87c-56 0 -81 7 -88 10c-5 3 -7 4 -7 13v32c0 6 3 8 10 7s30 -8 61 -8s47 6 47 33s-17 33 -44 33c-16 0 -37 -2 -44 -3s-11 1 -11 8v31c0 7 3 11 10 12c9 3 28 6 67 6z" />
    <glyph glyph-name="onesuperior" unicode="&#xb9;" horiz-adv-x="527" 
d="M363 734v-435c0 -11 -7 -19 -18 -19h-73c-11 0 -18 8 -18 19v350l-75 5c-11 1 -16 3 -16 14v49c0 9 5 15 15 16l167 20h2c9 0 16 -8 16 -19z" />
    <glyph glyph-name="ordmasculine" unicode="&#xba;" horiz-adv-x="475" 
d="M401 586c0 -85 -17 -167 -164 -167c-146 0 -163 82 -163 167c0 84 17 166 163 166c147 0 164 -82 164 -166zM314 586c0 66 -3 106 -76 106c-75 0 -77 -40 -77 -106c0 -67 2 -107 77 -107c73 0 76 40 76 107zM397 354v-36c0 -10 -5 -15 -16 -15h-287c-8 0 -15 6 -15 15v36
c0 9 5 14 15 14h287c11 0 16 -5 16 -14z" />
    <glyph glyph-name="guillemotright" unicode="&#xbb;" horiz-adv-x="607" 
d="M425 289l-145 187c-2 3 -3 6 -3 9c0 5 2 9 7 12l72 41c3 2 6 3 10 3s8 -2 12 -7l171 -233c6 -7 6 -15 0 -24l-171 -233c-4 -5 -8 -7 -12 -7s-7 1 -10 3l-72 41c-5 3 -7 7 -7 12c0 3 1 6 3 9zM202 289l-145 187c-2 3 -3 6 -3 9c0 5 2 9 7 12l72 41c3 2 6 3 10 3
s8 -2 12 -7l171 -233c6 -7 6 -15 0 -24l-171 -233c-4 -5 -8 -7 -12 -7s-7 1 -10 3l-72 41c-5 3 -7 7 -7 12c0 3 1 6 3 9z" />
    <glyph glyph-name="onequarter" unicode="&#xbc;" horiz-adv-x="1237" 
d="M363 734v-435c0 -11 -7 -19 -18 -19h-73c-11 0 -18 8 -18 19v350l-75 5c-11 1 -16 3 -16 14v49c0 9 5 15 15 16l167 20h2c9 0 16 -8 16 -19zM923 682l-460 -683c-3 -3 -7 -4 -12 -2l-66 45c-3 3 -5 9 -2 13l460 682c3 3 7 6 12 3l66 -45c3 -3 6 -8 2 -13zM1191 169v-51
c0 -11 -7 -17 -20 -17h-49v-82c0 -11 -7 -19 -18 -19h-70c-11 0 -18 8 -18 19v82h-244c-11 0 -17 9 -17 20v58c0 9 1 15 8 24l185 251c3 4 11 9 18 9h136c11 0 18 -7 18 -19v-258h51c13 0 20 -6 20 -17zM1017 386h-12l-146 -200h158v200z" />
    <glyph glyph-name="onehalf" unicode="&#xbd;" horiz-adv-x="1237" 
d="M363 734v-435c0 -11 -7 -19 -18 -19h-73c-11 0 -18 8 -18 19v350l-75 5c-11 1 -16 3 -16 14v49c0 9 5 15 15 16l167 20h2c9 0 16 -8 16 -19zM863 682l-460 -683c-3 -3 -7 -4 -12 -2l-66 45c-3 3 -5 9 -2 13l460 682c3 3 7 6 12 3l66 -45c3 -3 6 -8 2 -13zM1163 77v-60
c0 -11 -6 -17 -19 -17h-324c-12 0 -21 6 -21 17v91c0 25 13 45 28 56c19 14 103 62 123 74c47 29 91 46 91 94c0 47 -34 57 -87 57c-48 0 -94 -10 -139 -22c-11 -3 -19 6 -20 13l-10 46c-3 11 5 19 13 22c28 11 94 25 174 25c124 0 185 -40 185 -141
c0 -75 -63 -130 -129 -162l-118 -61v-20l234 4c8 0 19 -5 19 -16z" />
    <glyph glyph-name="threequarters" unicode="&#xbe;" horiz-adv-x="1237" 
d="M449 406c0 -104 -95 -135 -194 -135c-77 0 -126 11 -147 18c-8 3 -15 7 -12 18l7 52c1 9 9 15 21 12c23 -5 65 -16 118 -16c59 0 91 15 91 60c0 48 -38 59 -128 64c-10 1 -15 7 -15 16v43c0 9 5 15 14 16c40 5 121 2 121 62c0 43 -33 53 -85 53s-99 -13 -130 -21
c-11 -3 -19 -4 -22 11l-9 50c-1 9 3 16 12 19c23 8 79 25 164 25c109 0 184 -33 184 -125c0 -61 -48 -86 -94 -97v-23c59 -11 104 -35 104 -102zM923 682l-460 -683c-3 -3 -7 -4 -12 -2l-66 45c-3 3 -5 9 -2 13l460 682c3 3 7 6 12 3l66 -45c3 -3 6 -8 2 -13zM1191 169v-51
c0 -11 -7 -17 -20 -17h-49v-82c0 -11 -7 -19 -18 -19h-70c-11 0 -18 8 -18 19v82h-244c-11 0 -17 9 -17 20v58c0 9 1 15 8 24l185 251c3 4 11 9 18 9h136c11 0 18 -7 18 -19v-258h51c13 0 20 -6 20 -17zM1017 386h-12l-146 -200h158v200z" />
    <glyph glyph-name="questiondown" unicode="&#xbf;" horiz-adv-x="624" 
d="M67 -42c0 86 58 124 111 161c50 34 99 51 99 113c0 25 -1 33 -4 54c-3 15 8 18 21 18h107c15 0 15 -4 18 -15c3 -16 7 -44 7 -71c0 -86 -47 -115 -119 -163c-35 -21 -73 -47 -73 -92c0 -65 68 -75 120 -75c32 0 68 4 97 11l40 8c12 2 21 4 26 5c3 1 5 1 7 1
c11 0 12 -7 15 -15l14 -61c1 -5 2 -9 2 -12c0 -7 -2 -13 -14 -17c-21 -5 -107 -32 -215 -32c-110 0 -259 26 -259 182zM261 390v113c0 12 7 20 18 20h123c13 0 19 -7 19 -20v-113c0 -13 -6 -20 -19 -20h-123c-11 0 -18 8 -18 20z" />
    <glyph glyph-name="Agrave" unicode="&#xc0;" horiz-adv-x="817" 
d="M168 0h-134c-12 0 -15 10 -12 19l245 708c3 7 10 12 17 12h248c7 0 14 -5 17 -12l246 -708c4 -11 -1 -19 -13 -19h-144c-10 0 -16 5 -18 15l-77 236h-280l-76 -236c-3 -10 -10 -15 -19 -15zM507 368l-84 260h-40l-84 -260h208zM513 875l-43 -57c-5 -6 -10 -7 -16 -3
l-161 106c-5 3 -7 9 -3 14l48 63c4 6 9 7 16 2l157 -110c5 -4 5 -9 2 -15z" />
    <glyph glyph-name="Aacute" unicode="&#xc1;" horiz-adv-x="817" 
d="M168 0h-134c-12 0 -15 10 -12 19l245 708c3 7 10 12 17 12h248c7 0 14 -5 17 -12l246 -708c4 -11 -1 -19 -13 -19h-144c-10 0 -16 5 -18 15l-77 236h-280l-76 -236c-3 -10 -10 -15 -19 -15zM507 368l-84 260h-40l-84 -260h208zM468 998l47 -63c4 -5 3 -10 -2 -14
l-161 -106c-7 -5 -12 -4 -17 3l-43 57c-4 5 -3 10 2 15l158 110c6 4 11 3 16 -2z" />
    <glyph glyph-name="Acircumflex" unicode="&#xc2;" horiz-adv-x="817" 
d="M168 0h-134c-12 0 -15 10 -12 19l245 708c3 7 10 12 17 12h248c7 0 14 -5 17 -12l246 -708c4 -11 -1 -19 -13 -19h-144c-10 0 -16 5 -18 15l-77 236h-280l-76 -236c-3 -10 -10 -15 -19 -15zM507 368l-84 260h-40l-84 -260h208zM420 993l149 -103c3 -2 5 -5 5 -8
s-1 -5 -3 -8l-43 -56c-3 -3 -6 -5 -9 -5s-5 1 -8 3l-109 84l-109 -84c-3 -3 -4 -3 -8 -3c-3 0 -6 2 -9 5l-43 56c-2 3 -3 5 -3 8s2 6 5 8l149 103h36z" />
    <glyph glyph-name="Atilde" unicode="&#xc3;" horiz-adv-x="817" 
d="M168 0h-134c-12 0 -15 10 -12 19l245 708c3 7 10 12 17 12h248c7 0 14 -5 17 -12l246 -708c4 -11 -1 -19 -13 -19h-144c-10 0 -16 5 -18 15l-77 236h-280l-76 -236c-3 -10 -10 -15 -19 -15zM507 368l-84 260h-40l-84 -260h208zM587 879c0 -3 -1 -5 -2 -7l-5 -4
c-21 -19 -69 -55 -114 -55c-25 0 -49 12 -70 24c-19 9 -40 24 -60 24c-23 0 -47 -20 -70 -39c-4 -3 -7 -4 -9 -4c-5 0 -9 2 -11 7l-27 53c-1 3 -2 5 -2 8s1 5 3 6l4 5c21 19 69 55 114 55c27 0 49 -12 70 -24c19 -9 41 -24 60 -24c23 0 49 20 70 39c3 3 6 4 9 4
c5 0 9 -2 11 -7l27 -53c1 -3 2 -5 2 -8z" />
    <glyph glyph-name="Adieresis" unicode="&#xc4;" horiz-adv-x="817" 
d="M168 0h-134c-12 0 -15 10 -12 19l245 708c3 7 10 12 17 12h248c7 0 14 -5 17 -12l246 -708c4 -11 -1 -19 -13 -19h-144c-10 0 -16 5 -18 15l-77 236h-280l-76 -236c-3 -10 -10 -15 -19 -15zM507 368l-84 260h-40l-84 -260h208zM365 925v-77c0 -8 -9 -15 -21 -15h-115
c-12 0 -20 7 -20 15v77c0 11 7 16 20 16h115c12 0 21 -7 21 -16zM600 925v-77c0 -8 -8 -15 -20 -15h-115c-12 0 -21 7 -21 15v77c0 9 9 16 21 16h115c13 0 20 -5 20 -16z" />
    <glyph glyph-name="Aring" unicode="&#xc5;" horiz-adv-x="817" 
d="M168 0h-134c-12 0 -15 10 -12 19l245 708c3 7 10 12 17 12h248c7 0 14 -5 17 -12l246 -708c4 -11 -1 -19 -13 -19h-144c-10 0 -16 5 -18 15l-77 236h-280l-76 -236c-3 -10 -10 -15 -19 -15zM507 368l-84 260h-40l-84 -260h208zM553 910c0 -87 -53 -117 -150 -117
c-99 0 -150 30 -150 117c0 88 51 118 150 118c97 0 150 -30 150 -118zM452 911c0 47 -9 67 -49 67s-49 -21 -49 -68s9 -67 49 -67s49 21 49 68z" />
    <glyph glyph-name="AE" unicode="&#xc6;" horiz-adv-x="1015" 
d="M167 0h-133c-12 0 -15 10 -12 19l245 708c2 8 7 12 16 12h645c11 0 17 -5 17 -15v-90c0 -11 -6 -16 -17 -16h-287v-178h269c11 0 16 -5 16 -15v-91c0 -11 -5 -16 -16 -16h-269v-197h287c11 0 17 -5 17 -15v-91c0 -10 -6 -15 -17 -15h-434c-11 0 -17 5 -17 16v235h-215
l-76 -236c-2 -10 -8 -15 -19 -15zM477 368v262h-94l-85 -262h179z" />
    <glyph glyph-name="Ccedilla" unicode="&#xc7;" horiz-adv-x="705" 
d="M646 129l15 -74c1 -3 1 -5 1 -8c0 -7 -4 -14 -19 -19c-36 -12 -110 -34 -235 -34c-255 0 -345 110 -345 377s90 377 345 377c125 0 199 -23 235 -35c15 -5 19 -13 19 -20c0 -2 0 -4 -1 -7l-15 -76c-2 -8 -7 -12 -16 -12c-3 0 -6 0 -9 1c-29 8 -108 26 -183 26
c-168 0 -206 -74 -206 -254c0 -179 38 -257 206 -257c75 0 152 22 182 27c3 1 7 1 10 1c9 0 14 -4 16 -13zM410 -31c64 0 110 -23 110 -87s-47 -87 -111 -87c-56 0 -81 7 -88 10c-5 3 -7 4 -7 13v32c0 6 3 8 10 7s30 -8 61 -8s47 6 47 33s-17 33 -44 33c-16 0 -37 -2 -44 -3
s-11 1 -11 8v31c0 7 3 11 10 12c9 3 28 6 67 6z" />
    <glyph glyph-name="Egrave" unicode="&#xc8;" horiz-adv-x="690" 
d="M604 0h-489c-11 0 -17 5 -17 16v707c0 9 8 16 17 16h488c11 0 17 -5 17 -15v-91c0 -10 -6 -15 -17 -15h-340v-178h322c11 0 16 -5 16 -15v-91c0 -11 -5 -16 -16 -16h-322v-197h341c11 0 16 -5 16 -15v-91c0 -10 -5 -15 -16 -15zM470 875l-43 -57c-5 -6 -10 -7 -16 -3
l-161 106c-5 3 -7 9 -3 14l48 63c4 6 9 7 16 2l157 -110c5 -4 5 -9 2 -15z" />
    <glyph glyph-name="Eacute" unicode="&#xc9;" horiz-adv-x="690" 
d="M604 0h-489c-11 0 -17 5 -17 16v707c0 9 8 16 17 16h488c11 0 17 -5 17 -15v-91c0 -10 -6 -15 -17 -15h-340v-178h322c11 0 16 -5 16 -15v-91c0 -11 -5 -16 -16 -16h-322v-197h341c11 0 16 -5 16 -15v-91c0 -10 -5 -15 -16 -15zM433 998l47 -63c4 -5 3 -10 -2 -14
l-161 -106c-7 -5 -12 -4 -17 3l-43 57c-4 5 -3 10 2 15l158 110c6 4 11 3 16 -2z" />
    <glyph glyph-name="Ecircumflex" unicode="&#xca;" horiz-adv-x="690" 
d="M604 0h-489c-11 0 -17 5 -17 16v707c0 9 8 16 17 16h488c11 0 17 -5 17 -15v-91c0 -10 -6 -15 -17 -15h-340v-178h322c11 0 16 -5 16 -15v-91c0 -11 -5 -16 -16 -16h-322v-197h341c11 0 16 -5 16 -15v-91c0 -10 -5 -15 -16 -15zM380 993l149 -103c3 -2 5 -5 5 -8
s-1 -5 -3 -8l-43 -56c-3 -3 -6 -5 -9 -5s-5 1 -8 3l-109 84l-109 -84c-3 -3 -4 -3 -8 -3c-3 0 -6 2 -9 5l-43 56c-2 3 -3 5 -3 8s2 6 5 8l149 103h36z" />
    <glyph glyph-name="Edieresis" unicode="&#xcb;" horiz-adv-x="690" 
d="M604 0h-489c-11 0 -17 5 -17 16v707c0 9 8 16 17 16h488c11 0 17 -5 17 -15v-91c0 -10 -6 -15 -17 -15h-340v-178h322c11 0 16 -5 16 -15v-91c0 -11 -5 -16 -16 -16h-322v-197h341c11 0 16 -5 16 -15v-91c0 -10 -5 -15 -16 -15zM319 925v-77c0 -8 -9 -15 -21 -15h-115
c-12 0 -20 7 -20 15v77c0 11 7 16 20 16h115c12 0 21 -7 21 -16zM554 925v-77c0 -8 -8 -15 -20 -15h-115c-12 0 -21 7 -21 15v77c0 9 9 16 21 16h115c13 0 20 -5 20 -16z" />
    <glyph glyph-name="Igrave" unicode="&#xcc;" horiz-adv-x="361" 
d="M263 738v-723c0 -10 -5 -15 -16 -15h-133c-11 0 -16 5 -16 15v706c0 8 5 13 15 14l135 17c11 1 15 -7 15 -14zM286 875l-43 -57c-5 -6 -10 -7 -16 -3l-161 106c-5 3 -7 9 -3 14l48 63c4 6 9 7 16 2l157 -110c5 -4 5 -9 2 -15z" />
    <glyph glyph-name="Iacute" unicode="&#xcd;" horiz-adv-x="361" 
d="M263 738v-723c0 -10 -5 -15 -16 -15h-133c-11 0 -16 5 -16 15v706c0 8 5 13 15 14l135 17c11 1 15 -7 15 -14zM237 998l47 -63c4 -5 3 -10 -2 -14l-161 -106c-7 -5 -12 -4 -17 3l-43 57c-4 5 -3 10 2 15l158 110c6 4 11 3 16 -2z" />
    <glyph glyph-name="Icircumflex" unicode="&#xce;" horiz-adv-x="361" 
d="M263 738v-723c0 -10 -5 -15 -16 -15h-133c-11 0 -16 5 -16 15v706c0 8 5 13 15 14l135 17c11 1 15 -7 15 -14zM198 993l149 -103c3 -2 5 -5 5 -8s-1 -5 -3 -8l-43 -56c-3 -3 -6 -5 -9 -5s-5 1 -8 3l-109 84l-109 -84c-3 -3 -4 -3 -8 -3c-3 0 -6 2 -9 5l-43 56
c-2 3 -3 5 -3 8s2 6 5 8l149 103h36z" />
    <glyph glyph-name="Idieresis" unicode="&#xcf;" horiz-adv-x="361" 
d="M263 738v-723c0 -10 -5 -15 -16 -15h-133c-11 0 -16 5 -16 15v706c0 8 5 13 15 14l135 17c11 1 15 -7 15 -14zM141 925v-77c0 -8 -9 -15 -21 -15h-115c-12 0 -20 7 -20 15v77c0 11 7 16 20 16h115c12 0 21 -7 21 -16zM376 925v-77c0 -8 -8 -15 -20 -15h-115
c-12 0 -21 7 -21 15v77c0 9 9 16 21 16h115c13 0 20 -5 20 -16z" />
    <glyph glyph-name="Eth" unicode="&#xd0;" horiz-adv-x="847" 
d="M785 370c0 -259 -83 -370 -339 -370h-312c-11 0 -16 5 -16 16v305h-89c-11 0 -17 8 -17 16v74c0 11 10 15 17 15h89v298c0 8 7 15 16 15h312c256 0 339 -111 339 -369zM615 370c0 208 -47 255 -187 255h-144v-199h190c7 0 18 -4 18 -15v-74c0 -8 -7 -16 -18 -16h-190
v-206h144c140 0 187 47 187 255z" />
    <glyph glyph-name="Ntilde" unicode="&#xd1;" horiz-adv-x="858" 
d="M114 739h204c16 0 21 -5 28 -20l233 -526h37l-16 531c0 10 5 15 15 15h130c10 0 15 -5 15 -15v-709c0 -7 -4 -15 -16 -15h-204c-16 0 -21 5 -28 20l-233 526h-37l16 -531c0 -10 -5 -15 -15 -15h-130c-10 0 -15 5 -15 15v709c0 7 4 15 16 15zM643 879c0 -3 -1 -5 -2 -7
l-5 -4c-21 -19 -69 -55 -114 -55c-25 0 -49 12 -70 24c-19 9 -40 24 -60 24c-23 0 -47 -20 -70 -39c-4 -3 -7 -4 -9 -4c-5 0 -9 2 -11 7l-27 53c-1 3 -2 5 -2 8s1 5 3 6l4 5c21 19 69 55 114 55c27 0 49 -12 70 -24c19 -9 41 -24 60 -24c23 0 49 20 70 39c3 3 6 4 9 4
c5 0 9 -2 11 -7l27 -53c1 -3 2 -5 2 -8z" />
    <glyph glyph-name="Ograve" unicode="&#xd2;" horiz-adv-x="841" 
d="M778 369c0 -232 -63 -382 -358 -382c-293 0 -357 150 -357 382c0 233 64 383 357 383c295 0 358 -150 358 -383zM608 370c0 180 -21 267 -188 267c-168 0 -187 -87 -187 -267s19 -267 187 -267c167 0 188 87 188 267zM507 875l-43 -57c-5 -6 -10 -7 -16 -3l-161 106
c-5 3 -7 9 -3 14l48 63c4 6 9 7 16 2l157 -110c5 -4 5 -9 2 -15z" />
    <glyph glyph-name="Oacute" unicode="&#xd3;" horiz-adv-x="841" 
d="M778 369c0 -232 -63 -382 -358 -382c-293 0 -357 150 -357 382c0 233 64 383 357 383c295 0 358 -150 358 -383zM608 370c0 180 -21 267 -188 267c-168 0 -187 -87 -187 -267s19 -267 187 -267c167 0 188 87 188 267zM482 998l47 -63c4 -5 3 -10 -2 -14l-161 -106
c-7 -5 -12 -4 -17 3l-43 57c-4 5 -3 10 2 15l158 110c6 4 11 3 16 -2z" />
    <glyph glyph-name="Ocircumflex" unicode="&#xd4;" horiz-adv-x="841" 
d="M778 369c0 -232 -63 -382 -358 -382c-293 0 -357 150 -357 382c0 233 64 383 357 383c295 0 358 -150 358 -383zM608 370c0 180 -21 267 -188 267c-168 0 -187 -87 -187 -267s19 -267 187 -267c167 0 188 87 188 267zM437 993l149 -103c3 -2 5 -5 5 -8s-1 -5 -3 -8
l-43 -56c-3 -3 -6 -5 -9 -5s-5 1 -8 3l-109 84l-109 -84c-3 -3 -4 -3 -8 -3c-3 0 -6 2 -9 5l-43 56c-2 3 -3 5 -3 8s2 6 5 8l149 103h36z" />
    <glyph glyph-name="Otilde" unicode="&#xd5;" horiz-adv-x="841" 
d="M778 369c0 -232 -63 -382 -358 -382c-293 0 -357 150 -357 382c0 233 64 383 357 383c295 0 358 -150 358 -383zM608 370c0 180 -21 267 -188 267c-168 0 -187 -87 -187 -267s19 -267 187 -267c167 0 188 87 188 267zM605 879c0 -3 -1 -5 -2 -7l-5 -4
c-21 -19 -69 -55 -114 -55c-25 0 -49 12 -70 24c-19 9 -40 24 -60 24c-23 0 -47 -20 -70 -39c-4 -3 -7 -4 -9 -4c-5 0 -9 2 -11 7l-27 53c-1 3 -2 5 -2 8s1 5 3 6l4 5c21 19 69 55 114 55c27 0 49 -12 70 -24c19 -9 41 -24 60 -24c23 0 49 20 70 39c3 3 6 4 9 4
c5 0 9 -2 11 -7l27 -53c1 -3 2 -5 2 -8z" />
    <glyph glyph-name="Odieresis" unicode="&#xd6;" horiz-adv-x="841" 
d="M778 369c0 -232 -63 -382 -358 -382c-293 0 -357 150 -357 382c0 233 64 383 357 383c295 0 358 -150 358 -383zM608 370c0 180 -21 267 -188 267c-168 0 -187 -87 -187 -267s19 -267 187 -267c167 0 188 87 188 267zM381 925v-77c0 -8 -9 -15 -21 -15h-115
c-12 0 -20 7 -20 15v77c0 11 7 16 20 16h115c12 0 21 -7 21 -16zM616 925v-77c0 -8 -8 -15 -20 -15h-115c-12 0 -21 7 -21 15v77c0 9 9 16 21 16h115c13 0 20 -5 20 -16z" />
    <glyph glyph-name="multiply" unicode="&#xd7;" horiz-adv-x="624" 
d="M493 558l56 -55c4 -3 6 -8 6 -13s-2 -9 -7 -14l-161 -150l161 -151c5 -5 7 -9 7 -14c0 -6 -2 -10 -6 -13l-56 -55c-4 -4 -8 -6 -13 -6s-10 2 -14 7l-154 158l-154 -158c-4 -5 -9 -7 -14 -7s-9 2 -13 6l-56 55c-4 3 -6 7 -6 13c0 5 2 9 7 14l161 151l-161 150
c-5 5 -7 9 -7 14s2 10 6 13l56 55c4 4 8 6 13 6s10 -2 14 -7l154 -157l154 157c4 5 9 7 14 7s9 -2 13 -6z" />
    <glyph glyph-name="Oslash" unicode="&#xd8;" horiz-adv-x="841" 
d="M778 369c0 -232 -63 -382 -358 -382c-103 0 -176 18 -229 51l-67 -79c-3 -3 -6 -5 -9 -5s-6 1 -10 4l-48 37c-4 3 -6 6 -6 10c0 3 2 6 5 9l71 83c-49 67 -64 159 -64 272c0 233 64 383 357 383c100 0 174 -18 227 -50l68 80c3 3 7 5 10 5c4 0 7 -1 10 -4l48 -36
c4 -3 6 -7 6 -10c0 -2 -2 -5 -5 -10l-72 -83c51 -68 66 -160 66 -275zM608 370c0 56 -2 102 -10 141l-315 -367c28 -28 70 -41 137 -41c167 0 188 87 188 267zM242 231l314 366c-27 27 -73 40 -136 40c-168 0 -187 -87 -187 -267c0 -56 1 -100 9 -139z" />
    <glyph glyph-name="Ugrave" unicode="&#xd9;" horiz-adv-x="819" 
d="M731 738v-482c0 -185 -102 -269 -322 -269c-208 0 -321 74 -321 267v466c0 8 5 13 15 14l135 18c11 1 15 -7 15 -14v-492c0 -91 29 -143 157 -143c116 0 155 46 155 137v480c0 8 5 13 16 14l134 18c11 1 16 -7 16 -14zM513 875l-43 -57c-5 -6 -10 -7 -16 -3l-161 106
c-5 3 -7 9 -3 14l48 63c4 6 9 7 16 2l157 -110c5 -4 5 -9 2 -15z" />
    <glyph glyph-name="Uacute" unicode="&#xda;" horiz-adv-x="819" 
d="M731 738v-482c0 -185 -102 -269 -322 -269c-208 0 -321 74 -321 267v466c0 8 5 13 15 14l135 18c11 1 15 -7 15 -14v-492c0 -91 29 -143 157 -143c116 0 155 46 155 137v480c0 8 5 13 16 14l134 18c11 1 16 -7 16 -14zM466 998l47 -63c4 -5 3 -10 -2 -14l-161 -106
c-7 -5 -12 -4 -17 3l-43 57c-4 5 -3 10 2 15l158 110c6 4 11 3 16 -2z" />
    <glyph glyph-name="Ucircumflex" unicode="&#xdb;" horiz-adv-x="819" 
d="M731 738v-482c0 -185 -102 -269 -322 -269c-208 0 -321 74 -321 267v466c0 8 5 13 15 14l135 18c11 1 15 -7 15 -14v-492c0 -91 29 -143 157 -143c116 0 155 46 155 137v480c0 8 5 13 16 14l134 18c11 1 16 -7 16 -14zM426 993l149 -103c3 -2 5 -5 5 -8s-1 -5 -3 -8
l-43 -56c-3 -3 -6 -5 -9 -5s-5 1 -8 3l-109 84l-109 -84c-3 -3 -4 -3 -8 -3c-3 0 -6 2 -9 5l-43 56c-2 3 -3 5 -3 8s2 6 5 8l149 103h36z" />
    <glyph glyph-name="Udieresis" unicode="&#xdc;" horiz-adv-x="819" 
d="M731 738v-482c0 -185 -102 -269 -322 -269c-208 0 -321 74 -321 267v466c0 8 5 13 15 14l135 18c11 1 15 -7 15 -14v-492c0 -91 29 -143 157 -143c116 0 155 46 155 137v480c0 8 5 13 16 14l134 18c11 1 16 -7 16 -14zM369 925v-77c0 -8 -9 -15 -21 -15h-115
c-12 0 -20 7 -20 15v77c0 11 7 16 20 16h115c12 0 21 -7 21 -16zM604 925v-77c0 -8 -8 -15 -20 -15h-115c-12 0 -21 7 -21 15v77c0 9 9 16 21 16h115c13 0 20 -5 20 -16z" />
    <glyph glyph-name="Yacute" unicode="&#xdd;" horiz-adv-x="737" 
d="M455 279v-264c0 -10 -6 -15 -17 -15h-132c-11 0 -17 5 -17 15v262l-285 438c-1 2 -2 5 -2 8c0 9 8 16 15 16h156c13 0 17 -4 24 -16l181 -313l174 313c7 13 11 16 23 16h146c11 0 14 -8 14 -15c0 -3 -1 -6 -2 -8zM432 998l47 -63c4 -5 3 -10 -2 -14l-161 -106
c-7 -5 -12 -4 -17 3l-43 57c-4 5 -3 10 2 15l158 110c6 4 11 3 16 -2z" />
    <glyph glyph-name="Thorn" unicode="&#xde;" horiz-adv-x="749" 
d="M247 0h-133c-11 0 -16 5 -16 15v706c0 8 5 13 15 14l134 17c11 1 16 -7 16 -14v-133h182c181 0 273 -73 273 -232c0 -160 -92 -233 -273 -233h-182v-125c0 -10 -5 -15 -16 -15zM263 254h145c93 0 139 26 139 119c0 92 -46 118 -139 118h-145v-237z" />
    <glyph glyph-name="germandbls" unicode="&#xdf;" horiz-adv-x="637" 
d="M592 174c0 -136 -87 -187 -213 -187c-55 0 -89 10 -114 19c-5 3 -15 8 -12 17l12 68c1 8 6 12 14 12c15 0 38 -11 75 -11c49 0 91 24 91 87c0 113 -143 120 -143 201c0 71 92 65 92 174c0 57 -25 93 -80 93c-61 0 -91 -20 -91 -97v-722c0 -15 -3 -20 -18 -23l-111 -15
c-15 -2 -22 4 -22 17v743c0 145 82 202 241 202c120 0 226 -43 226 -178c0 -93 -42 -129 -106 -164c-7 -5 -11 -11 -11 -18s4 -13 12 -17c59 -29 158 -62 158 -201z" />
    <glyph glyph-name="agrave" unicode="&#xe0;" horiz-adv-x="595" 
d="M529 380v-275c0 -76 -28 -89 -97 -105c-37 -8 -83 -13 -142 -13c-116 0 -244 15 -244 171c0 128 82 145 155 156l174 28v27c0 27 -3 43 -24 54c-13 7 -37 10 -71 10c-65 0 -136 -19 -165 -27c-5 -1 -9 -2 -10 -2c-7 0 -10 3 -11 9l-15 66c-1 3 -1 5 -1 8c0 9 7 12 12 15
c22 8 116 36 223 36c71 0 119 -10 152 -29c51 -27 64 -73 64 -129zM376 250l-107 -17c-38 -5 -71 -14 -71 -73c0 -70 56 -76 96 -76c37 0 69 7 82 11v155zM416 658l-43 -58c-3 -5 -9 -7 -16 -3l-161 106c-6 4 -7 9 -3 14l48 63c4 5 11 7 16 3l157 -111c5 -4 6 -9 2 -14z" />
    <glyph glyph-name="aacute" unicode="&#xe1;" horiz-adv-x="595" 
d="M529 380v-275c0 -76 -28 -89 -97 -105c-37 -8 -83 -13 -142 -13c-116 0 -244 15 -244 171c0 128 82 145 155 156l174 28v27c0 27 -3 43 -24 54c-13 7 -37 10 -71 10c-65 0 -136 -19 -165 -27c-5 -1 -9 -2 -10 -2c-7 0 -10 3 -11 9l-15 66c-1 3 -1 5 -1 8c0 9 7 12 12 15
c22 8 116 36 223 36c71 0 119 -10 152 -29c51 -27 64 -73 64 -129zM376 250l-107 -17c-38 -5 -71 -14 -71 -73c0 -70 56 -76 96 -76c37 0 69 7 82 11v155zM374 780l47 -63c3 -3 3 -11 -2 -14l-161 -106c-7 -4 -12 -3 -17 3l-43 58c-4 6 -3 11 2 14l157 111c3 3 10 4 17 -3z
" />
    <glyph glyph-name="acircumflex" unicode="&#xe2;" horiz-adv-x="595" 
d="M529 380v-275c0 -76 -28 -89 -97 -105c-37 -8 -83 -13 -142 -13c-116 0 -244 15 -244 171c0 128 82 145 155 156l174 28v27c0 27 -3 43 -24 54c-13 7 -37 10 -71 10c-65 0 -136 -19 -165 -27c-5 -1 -9 -2 -10 -2c-7 0 -10 3 -11 9l-15 66c-1 3 -1 5 -1 8c0 9 7 12 12 15
c22 8 116 36 223 36c71 0 119 -10 152 -29c51 -27 64 -73 64 -129zM376 250l-107 -17c-38 -5 -71 -14 -71 -73c0 -70 56 -76 96 -76c37 0 69 7 82 11v155zM320 775l149 -103c3 -2 5 -5 5 -8s-1 -5 -3 -8l-43 -56c-3 -3 -6 -5 -9 -5s-5 1 -8 3l-109 84l-109 -84
c-3 -3 -4 -3 -8 -3c-3 0 -6 2 -9 5l-43 56c-2 3 -3 5 -3 8s2 6 5 8l149 103h36z" />
    <glyph glyph-name="atilde" unicode="&#xe3;" horiz-adv-x="595" 
d="M529 380v-275c0 -76 -28 -89 -97 -105c-37 -8 -83 -13 -142 -13c-116 0 -244 15 -244 171c0 128 82 145 155 156l174 28v27c0 27 -3 43 -24 54c-13 7 -37 10 -71 10c-65 0 -136 -19 -165 -27c-5 -1 -9 -2 -10 -2c-7 0 -10 3 -11 9l-15 66c-1 3 -1 5 -1 8c0 9 7 12 12 15
c22 8 116 36 223 36c71 0 119 -10 152 -29c51 -27 64 -73 64 -129zM376 250l-107 -17c-38 -5 -71 -14 -71 -73c0 -70 56 -76 96 -76c37 0 69 7 82 11v155zM485 661c0 -3 -1 -5 -2 -7l-5 -4c-21 -19 -69 -55 -114 -55c-25 0 -49 12 -70 24c-19 9 -40 24 -60 24
c-23 0 -47 -20 -70 -39c-4 -3 -7 -4 -9 -4c-5 0 -9 2 -11 7l-27 53c-1 3 -2 5 -2 8s1 5 3 6l4 5c21 19 69 55 114 55c27 0 49 -12 70 -24l30 -15c11 -5 21 -8 30 -9c23 0 49 20 70 39c3 3 6 4 9 4c5 0 9 -2 11 -7l27 -53c1 -3 2 -5 2 -8z" />
    <glyph glyph-name="adieresis" unicode="&#xe4;" horiz-adv-x="595" 
d="M529 380v-275c0 -76 -28 -89 -97 -105c-37 -8 -83 -13 -142 -13c-116 0 -244 15 -244 171c0 128 82 145 155 156l174 28v27c0 27 -3 43 -24 54c-13 7 -37 10 -71 10c-65 0 -136 -19 -165 -27c-5 -1 -9 -2 -10 -2c-7 0 -10 3 -11 9l-15 66c-1 3 -1 5 -1 8c0 9 7 12 12 15
c22 8 116 36 223 36c71 0 119 -10 152 -29c51 -27 64 -73 64 -129zM376 250l-107 -17c-38 -5 -71 -14 -71 -73c0 -70 56 -76 96 -76c37 0 69 7 82 11v155zM259 707v-77c0 -8 -9 -15 -21 -15h-115c-12 0 -20 7 -20 15v77c0 11 7 16 20 16h115c12 0 21 -7 21 -16zM494 707v-77
c0 -8 -8 -15 -20 -15h-115c-12 0 -21 7 -21 15v77c0 9 9 16 21 16h115c13 0 20 -5 20 -16z" />
    <glyph glyph-name="aring" unicode="&#xe5;" horiz-adv-x="595" 
d="M529 380v-275c0 -76 -28 -89 -97 -105c-37 -8 -83 -13 -142 -13c-116 0 -244 15 -244 171c0 128 82 145 155 156l174 28v27c0 27 -3 43 -24 54c-13 7 -37 10 -71 10c-65 0 -136 -19 -165 -27c-5 -1 -9 -2 -10 -2c-7 0 -10 3 -11 9l-15 66c-1 3 -1 5 -1 8c0 9 7 12 12 15
c22 8 116 36 223 36c71 0 119 -10 152 -29c51 -27 64 -73 64 -129zM376 250l-107 -17c-38 -5 -71 -14 -71 -73c0 -70 56 -76 96 -76c37 0 69 7 82 11v155zM445 683c0 -80 -48 -108 -137 -108s-137 28 -137 108s48 107 137 107s137 -27 137 -107zM353 683c0 43 -9 62 -45 62
c-37 0 -45 -20 -45 -63s8 -61 45 -61c36 0 45 19 45 62z" />
    <glyph glyph-name="ae" unicode="&#xe6;" horiz-adv-x="968" 
d="M266 -13c-124 0 -220 34 -220 165c0 143 112 160 222 160h146v19c-3 93 -57 103 -133 103c-70 0 -142 -18 -169 -26c-11 -2 -18 1 -20 10l-13 68c-2 11 2 19 13 23c29 11 115 29 198 29c99 0 161 -23 192 -83h13c37 59 90 83 197 83c168 0 230 -87 230 -256v-34
c0 -13 -4 -30 -29 -30h-336c0 -89 50 -128 150 -128c68 0 119 16 150 24c12 3 19 0 21 -9l11 -67c2 -10 -2 -17 -12 -22c-31 -12 -96 -29 -177 -29c-97 0 -177 22 -212 97h-12c-37 -75 -114 -97 -210 -97zM297 78c41 0 72 12 91 35s27 54 26 107h-124c-49 0 -95 -7 -95 -68
c0 -56 39 -74 102 -74zM557 311h215c0 84 -18 132 -107 132c-88 0 -108 -51 -108 -132z" />
    <glyph glyph-name="ccedilla" unicode="&#xe7;" horiz-adv-x="518" 
d="M46 265c0 189 65 273 262 273c81 0 138 -15 162 -26c8 -3 15 -10 12 -22l-13 -62c-3 -11 -10 -14 -21 -11c-24 7 -67 16 -114 16c-103 0 -133 -45 -133 -169s30 -168 133 -168c47 0 90 9 114 16c11 3 18 0 21 -11l13 -62c3 -12 -4 -19 -12 -22c-24 -11 -81 -26 -162 -26
c-197 0 -262 85 -262 274zM300 -31c64 0 110 -23 110 -87s-47 -87 -111 -87c-56 0 -81 7 -88 10c-5 3 -7 4 -7 13v32c0 6 3 8 10 7s30 -8 61 -8s47 6 47 33s-17 33 -44 33c-16 0 -37 -2 -44 -3s-11 1 -11 8v31c0 7 3 11 10 12c9 3 28 6 67 6z" />
    <glyph glyph-name="egrave" unicode="&#xe8;" horiz-adv-x="593" 
d="M547 271l-1 -48c0 -13 -5 -26 -24 -26h-323c0 -43 14 -66 43 -85c25 -15 61 -22 108 -22c61 0 105 15 136 23c11 3 18 -1 21 -12l13 -57c4 -16 -3 -21 -10 -24c-32 -13 -101 -33 -186 -33c-195 0 -278 72 -278 273c0 195 57 278 252 278c100 0 160 -23 199 -68
c37 -45 50 -111 50 -199zM395 290v6c0 27 -2 50 -7 71c-11 52 -37 69 -88 69c-64 0 -86 -20 -95 -65c-5 -25 -5 -50 -6 -81h196zM402 658l-43 -58c-3 -5 -9 -7 -16 -3l-161 106c-6 4 -7 9 -3 14l48 63c4 5 11 7 16 3l157 -111c5 -4 6 -9 2 -14z" />
    <glyph glyph-name="eacute" unicode="&#xe9;" horiz-adv-x="593" 
d="M547 271l-1 -48c0 -13 -5 -26 -24 -26h-323c0 -43 14 -66 43 -85c25 -15 61 -22 108 -22c61 0 105 15 136 23c11 3 18 -1 21 -12l13 -57c4 -16 -3 -21 -10 -24c-32 -13 -101 -33 -186 -33c-195 0 -278 72 -278 273c0 195 57 278 252 278c100 0 160 -23 199 -68
c37 -45 50 -111 50 -199zM395 290v6c0 27 -2 50 -7 71c-11 52 -37 69 -88 69c-64 0 -86 -20 -95 -65c-5 -25 -5 -50 -6 -81h196zM363 780l47 -63c3 -3 3 -11 -2 -14l-161 -106c-7 -4 -12 -3 -17 3l-43 58c-4 6 -3 11 2 14l157 111c3 3 10 4 17 -3z" />
    <glyph glyph-name="ecircumflex" unicode="&#xea;" horiz-adv-x="593" 
d="M547 271l-1 -48c0 -13 -5 -26 -24 -26h-323c0 -43 14 -66 43 -85c25 -15 61 -22 108 -22c61 0 105 15 136 23c11 3 18 -1 21 -12l13 -57c4 -16 -3 -21 -10 -24c-32 -13 -101 -33 -186 -33c-195 0 -278 72 -278 273c0 195 57 278 252 278c100 0 160 -23 199 -68
c37 -45 50 -111 50 -199zM395 290v6c0 27 -2 50 -7 71c-11 52 -37 69 -88 69c-64 0 -86 -20 -95 -65c-5 -25 -5 -50 -6 -81h196zM316 775l149 -103c3 -2 5 -5 5 -8s-1 -5 -3 -8l-43 -56c-3 -3 -6 -5 -9 -5s-5 1 -8 3l-109 84l-109 -84c-3 -3 -4 -3 -8 -3c-3 0 -6 2 -9 5
l-43 56c-2 3 -3 5 -3 8s2 6 5 8l149 103h36z" />
    <glyph glyph-name="edieresis" unicode="&#xeb;" horiz-adv-x="593" 
d="M547 271l-1 -48c0 -13 -5 -26 -24 -26h-323c0 -43 14 -66 43 -85c25 -15 61 -22 108 -22c61 0 105 15 136 23c11 3 18 -1 21 -12l13 -57c4 -16 -3 -21 -10 -24c-32 -13 -101 -33 -186 -33c-195 0 -278 72 -278 273c0 195 57 278 252 278c100 0 160 -23 199 -68
c37 -45 50 -111 50 -199zM395 290v6c0 27 -2 50 -7 71c-11 52 -37 69 -88 69c-64 0 -86 -20 -95 -65c-5 -25 -5 -50 -6 -81h196zM257 707v-77c0 -8 -9 -15 -21 -15h-115c-12 0 -20 7 -20 15v77c0 11 7 16 20 16h115c12 0 21 -7 21 -16zM492 707v-77c0 -8 -8 -15 -20 -15
h-115c-12 0 -21 7 -21 15v77c0 9 9 16 21 16h115c13 0 20 -5 20 -16z" />
    <glyph glyph-name="igrave" unicode="&#xec;" horiz-adv-x="328" 
d="M241 498v-483c0 -10 -5 -15 -16 -15h-122c-11 0 -16 5 -16 15v483c0 10 5 15 16 15h122c11 0 16 -5 16 -15zM277 658l-43 -58c-3 -5 -9 -7 -16 -3l-161 106c-6 4 -7 9 -3 14l48 63c4 5 11 7 16 3l157 -111c5 -4 6 -9 2 -14z" />
    <glyph glyph-name="iacute" unicode="&#xed;" horiz-adv-x="328" 
d="M241 498v-483c0 -10 -5 -15 -16 -15h-122c-11 0 -16 5 -16 15v483c0 10 5 15 16 15h122c11 0 16 -5 16 -15zM229 780l47 -63c3 -3 3 -11 -2 -14l-161 -106c-7 -4 -12 -3 -17 3l-43 58c-4 6 -3 11 2 14l157 111c3 3 10 4 17 -3z" />
    <glyph glyph-name="icircumflex" unicode="&#xee;" horiz-adv-x="328" 
d="M241 498v-483c0 -10 -5 -15 -16 -15h-122c-11 0 -16 5 -16 15v483c0 10 5 15 16 15h122c11 0 16 -5 16 -15zM182 775l149 -103c3 -2 5 -5 5 -8s-1 -5 -3 -8l-43 -56c-3 -3 -6 -5 -9 -5s-5 1 -8 3l-109 84l-109 -84c-3 -3 -4 -3 -8 -3c-3 0 -6 2 -9 5l-43 56
c-2 3 -3 5 -3 8s2 6 5 8l149 103h36z" />
    <glyph glyph-name="idieresis" unicode="&#xef;" horiz-adv-x="328" 
d="M241 498v-483c0 -10 -5 -15 -16 -15h-122c-11 0 -16 5 -16 15v483c0 10 5 15 16 15h122c11 0 16 -5 16 -15zM125 707v-77c0 -8 -9 -15 -21 -15h-115c-12 0 -20 7 -20 15v77c0 11 7 16 20 16h115c12 0 21 -7 21 -16zM360 707v-77c0 -8 -8 -15 -20 -15h-115
c-12 0 -21 7 -21 15v77c0 9 9 16 21 16h115c13 0 20 -5 20 -16z" />
    <glyph glyph-name="eth" unicode="&#xf0;" horiz-adv-x="600" 
d="M554 300c0 -131 -1 -313 -253 -313c-202 0 -255 117 -255 267c0 107 22 268 219 268c63 0 101 -18 134 -45c0 1 4 3 5 3c-11 80 -52 140 -95 171l-97 -68c-3 -2 -6 -3 -9 -3s-6 1 -9 4l-40 41c-3 3 -4 6 -4 11c0 3 2 6 5 9l72 47c-41 17 -110 18 -145 18
c-19 1 -25 9 -25 20v67c0 19 11 20 22 21c7 1 12 1 17 1h16c80 0 161 -12 229 -47l71 52c3 3 6 4 9 4s6 -2 9 -5l42 -46c2 -3 3 -5 3 -8c0 -4 -2 -7 -6 -10l-53 -38c64 -56 138 -157 138 -421zM397 254c0 104 -10 164 -97 164c-86 0 -98 -60 -98 -164
c0 -105 12 -163 98 -163c87 0 97 58 97 163z" />
    <glyph glyph-name="ntilde" unicode="&#xf1;" horiz-adv-x="616" 
d="M550 383v-368c0 -10 -5 -15 -16 -15h-122c-11 0 -17 5 -17 15v347c0 56 -21 73 -68 73c-42 0 -90 -10 -101 -13v-407c0 -10 -5 -15 -16 -15h-122c-11 0 -16 5 -16 15v436c0 39 24 49 83 64c51 12 128 23 192 23c127 0 203 -30 203 -155zM505 661c0 -3 -1 -5 -2 -7l-5 -4
c-21 -19 -69 -55 -114 -55c-25 0 -49 12 -70 24c-19 9 -40 24 -60 24c-23 0 -47 -20 -70 -39c-4 -3 -7 -4 -9 -4c-5 0 -9 2 -11 7l-27 53c-1 3 -2 5 -2 8s1 5 3 6l4 5c21 19 69 55 114 55c27 0 49 -12 70 -24l30 -15c11 -5 21 -8 30 -9c23 0 49 20 70 39c3 3 6 4 9 4
c5 0 9 -2 11 -7l27 -53c1 -3 2 -5 2 -8z" />
    <glyph glyph-name="ograve" unicode="&#xf2;" horiz-adv-x="600" 
d="M554 262c0 -154 -29 -275 -254 -275c-226 0 -254 121 -254 275c0 155 28 276 254 276c225 0 254 -121 254 -276zM397 262c0 117 -5 172 -97 172c-93 0 -97 -55 -97 -172c0 -116 4 -171 97 -171c92 0 97 55 97 171zM402 658l-43 -58c-3 -5 -9 -7 -16 -3l-161 106
c-6 4 -7 9 -3 14l48 63c4 5 11 7 16 3l157 -111c5 -4 6 -9 2 -14z" />
    <glyph glyph-name="oacute" unicode="&#xf3;" horiz-adv-x="600" 
d="M554 262c0 -154 -29 -275 -254 -275c-226 0 -254 121 -254 275c0 155 28 276 254 276c225 0 254 -121 254 -276zM397 262c0 117 -5 172 -97 172c-93 0 -97 -55 -97 -172c0 -116 4 -171 97 -171c92 0 97 55 97 171zM363 780l47 -63c3 -3 3 -11 -2 -14l-161 -106
c-7 -4 -12 -3 -17 3l-43 58c-4 6 -3 11 2 14l157 111c3 3 10 4 17 -3z" />
    <glyph glyph-name="ocircumflex" unicode="&#xf4;" horiz-adv-x="600" 
d="M554 262c0 -154 -29 -275 -254 -275c-226 0 -254 121 -254 275c0 155 28 276 254 276c225 0 254 -121 254 -276zM397 262c0 117 -5 172 -97 172c-93 0 -97 -55 -97 -172c0 -116 4 -171 97 -171c92 0 97 55 97 171zM318 775l149 -103c3 -2 5 -5 5 -8s-1 -5 -3 -8l-43 -56
c-3 -3 -6 -5 -9 -5s-5 1 -8 3l-109 84l-109 -84c-3 -3 -4 -3 -8 -3c-3 0 -6 2 -9 5l-43 56c-2 3 -3 5 -3 8s2 6 5 8l149 103h36z" />
    <glyph glyph-name="otilde" unicode="&#xf5;" horiz-adv-x="600" 
d="M554 262c0 -154 -29 -275 -254 -275c-226 0 -254 121 -254 275c0 155 28 276 254 276c225 0 254 -121 254 -276zM397 262c0 117 -5 172 -97 172c-93 0 -97 -55 -97 -172c0 -116 4 -171 97 -171c92 0 97 55 97 171zM485 661c0 -3 -1 -5 -2 -7l-5 -4
c-21 -19 -69 -55 -114 -55c-25 0 -49 12 -70 24c-19 9 -40 24 -60 24c-23 0 -47 -20 -70 -39c-4 -3 -7 -4 -9 -4c-5 0 -9 2 -11 7l-27 53c-1 3 -2 5 -2 8s1 5 3 6l4 5c21 19 69 55 114 55c27 0 49 -12 70 -24l30 -15c11 -5 21 -8 30 -9c23 0 49 20 70 39c3 3 6 4 9 4
c5 0 9 -2 11 -7l27 -53c1 -3 2 -5 2 -8z" />
    <glyph glyph-name="odieresis" unicode="&#xf6;" horiz-adv-x="600" 
d="M554 262c0 -154 -29 -275 -254 -275c-226 0 -254 121 -254 275c0 155 28 276 254 276c225 0 254 -121 254 -276zM397 262c0 117 -5 172 -97 172c-93 0 -97 -55 -97 -172c0 -116 4 -171 97 -171c92 0 97 55 97 171zM261 707v-77c0 -8 -9 -15 -21 -15h-115
c-12 0 -20 7 -20 15v77c0 11 7 16 20 16h115c12 0 21 -7 21 -16zM496 707v-77c0 -8 -8 -15 -20 -15h-115c-12 0 -21 7 -21 15v77c0 9 9 16 21 16h115c13 0 20 -5 20 -16z" />
    <glyph glyph-name="divide" unicode="&#xf7;" horiz-adv-x="624" 
d="M574 361v-73c0 -11 -9 -18 -22 -18h-480c-13 0 -22 7 -22 18v73c0 9 9 17 22 17h480c13 0 22 -8 22 -17zM376 560v-107c0 -11 -7 -16 -20 -16h-88c-12 0 -21 7 -21 16v107c0 8 9 15 21 15h88c12 0 20 -7 20 -15zM376 196v-107c0 -8 -8 -15 -20 -15h-88
c-12 0 -21 7 -21 15v107c0 9 9 16 21 16h88c13 0 20 -5 20 -16z" />
    <glyph glyph-name="oslash" unicode="&#xf8;" horiz-adv-x="600" 
d="M554 262c0 -154 -29 -275 -254 -275c-68 0 -116 10 -152 29l-58 -68c-4 -4 -8 -6 -11 -6s-7 2 -10 5l-35 28c-4 3 -6 7 -6 10s2 7 5 10l58 68c-39 51 -45 119 -45 199c0 155 28 276 254 276c76 0 128 -14 165 -37l61 71c4 4 8 6 11 6s7 -2 10 -5l35 -28c4 -3 6 -7 6 -10
c0 -4 -1 -7 -4 -10l-66 -77c29 -49 36 -114 36 -186zM203 262v-37c0 -11 0 -21 1 -30l175 205c-13 23 -39 34 -79 34c-93 0 -97 -55 -97 -172zM397 262v23c0 7 0 14 -1 21l-166 -194c15 -15 35 -21 70 -21c92 0 97 55 97 171z" />
    <glyph glyph-name="ugrave" unicode="&#xf9;" horiz-adv-x="611" 
d="M545 520v-343c0 -135 -74 -190 -239 -190c-156 0 -239 45 -239 189v319c0 14 6 22 18 24l114 19c15 2 22 -4 22 -18v-350c0 -53 18 -81 85 -81c73 0 85 35 85 81v325c0 14 6 22 18 24l111 18c3 1 6 1 8 1c11 0 17 -6 17 -18zM410 658l-43 -58c-3 -5 -9 -7 -16 -3
l-161 106c-6 4 -7 9 -3 14l48 63c4 5 11 7 16 3l157 -111c5 -4 6 -9 2 -14z" />
    <glyph glyph-name="uacute" unicode="&#xfa;" horiz-adv-x="611" 
d="M545 520v-343c0 -135 -74 -190 -239 -190c-156 0 -239 45 -239 189v319c0 14 6 22 18 24l114 19c15 2 22 -4 22 -18v-350c0 -53 18 -81 85 -81c73 0 85 35 85 81v325c0 14 6 22 18 24l111 18c3 1 6 1 8 1c11 0 17 -6 17 -18zM363 780l47 -63c3 -3 3 -11 -2 -14l-161 -106
c-7 -4 -12 -3 -17 3l-43 58c-4 6 -3 11 2 14l157 111c3 3 10 4 17 -3z" />
    <glyph glyph-name="ucircumflex" unicode="&#xfb;" horiz-adv-x="611" 
d="M545 520v-343c0 -135 -74 -190 -239 -190c-156 0 -239 45 -239 189v319c0 14 6 22 18 24l114 19c15 2 22 -4 22 -18v-350c0 -53 18 -81 85 -81c73 0 85 35 85 81v325c0 14 6 22 18 24l111 18c3 1 6 1 8 1c11 0 17 -6 17 -18zM323 775l149 -103c3 -2 5 -5 5 -8
s-1 -5 -3 -8l-43 -56c-3 -3 -6 -5 -9 -5s-5 1 -8 3l-109 84l-109 -84c-3 -3 -4 -3 -8 -3c-3 0 -6 2 -9 5l-43 56c-2 3 -3 5 -3 8s2 6 5 8l149 103h36z" />
    <glyph glyph-name="udieresis" unicode="&#xfc;" horiz-adv-x="611" 
d="M545 520v-343c0 -135 -74 -190 -239 -190c-156 0 -239 45 -239 189v319c0 14 6 22 18 24l114 19c15 2 22 -4 22 -18v-350c0 -53 18 -81 85 -81c73 0 85 35 85 81v325c0 14 6 22 18 24l111 18c3 1 6 1 8 1c11 0 17 -6 17 -18zM267 707v-77c0 -8 -9 -15 -21 -15h-115
c-12 0 -20 7 -20 15v77c0 11 7 16 20 16h115c12 0 21 -7 21 -16zM502 707v-77c0 -8 -8 -15 -20 -15h-115c-12 0 -21 7 -21 15v77c0 9 9 16 21 16h115c13 0 20 -5 20 -16z" />
    <glyph glyph-name="yacute" unicode="&#xfd;" horiz-adv-x="574" 
d="M548 500l-158 -557c-26 -92 -64 -153 -194 -153c-67 0 -86 4 -102 7c-10 2 -15 8 -15 18l1 63c0 11 3 20 18 20c17 0 37 -2 60 -2c52 0 76 15 87 58l13 46h-75c-9 0 -15 5 -18 16l-139 483c-1 3 -1 6 -1 9c0 11 6 17 18 17h118c13 0 20 -2 23 -17l95 -412h27l85 411
c3 15 10 18 23 18h116c13 0 19 -6 19 -17c0 -3 0 -6 -1 -8zM349 780l47 -63c3 -3 3 -11 -2 -14l-161 -106c-7 -4 -12 -3 -17 3l-43 58c-4 6 -3 11 2 14l157 111c3 3 10 4 17 -3z" />
    <glyph glyph-name="thorn" unicode="&#xfe;" horiz-adv-x="613" 
d="M567 262c0 -144 -28 -275 -216 -275c-52 0 -99 7 -136 18l11 -63v-109c0 -14 -6 -22 -18 -24l-114 -19c-15 -2 -22 4 -22 18v901c0 14 6 22 18 24l114 19c15 2 22 -4 22 -17v-157l-11 -62c14 3 77 22 135 22c154 0 217 -79 217 -276zM410 267c0 144 -18 166 -94 166
c-36 0 -79 -10 -90 -13v-321c7 -3 39 -8 78 -8c81 0 106 27 106 176z" />
    <glyph glyph-name="ydieresis" unicode="&#xff;" horiz-adv-x="574" 
d="M548 500l-158 -557c-26 -92 -64 -153 -194 -153c-67 0 -86 4 -102 7c-10 2 -15 8 -15 18l1 63c0 11 3 20 18 20c17 0 37 -2 60 -2c52 0 76 15 87 58l13 46h-75c-9 0 -15 5 -18 16l-139 483c-1 3 -1 6 -1 9c0 11 6 17 18 17h118c13 0 20 -2 23 -17l95 -412h27l85 411
c3 15 10 18 23 18h116c13 0 19 -6 19 -17c0 -3 0 -6 -1 -8zM253 707v-77c0 -8 -9 -15 -21 -15h-115c-12 0 -20 7 -20 15v77c0 11 7 16 20 16h115c12 0 21 -7 21 -16zM488 707v-77c0 -8 -8 -15 -20 -15h-115c-12 0 -21 7 -21 15v77c0 9 9 16 21 16h115c13 0 20 -5 20 -16z
" />
    <glyph glyph-name="Amacron" unicode="&#x100;" horiz-adv-x="817" 
d="M168 0h-134c-12 0 -15 10 -12 19l245 708c3 7 10 12 17 12h248c7 0 14 -5 17 -12l246 -708c4 -11 -1 -19 -13 -19h-144c-10 0 -16 5 -18 15l-77 236h-280l-76 -236c-3 -10 -10 -15 -19 -15zM507 368l-84 260h-40l-84 -260h208zM403 932c59 0 109 -10 144 -21
c9 -3 15 -5 15 -14c0 -3 0 -6 -1 -9l-9 -53c-3 -11 -6 -12 -13 -12c-2 0 -5 0 -8 1c-39 7 -81 18 -128 18s-89 -11 -128 -18c-3 -1 -6 -1 -8 -1c-7 0 -10 1 -13 12l-9 53c-1 3 -1 6 -1 9c0 9 6 11 15 14c35 11 85 21 144 21z" />
    <glyph glyph-name="amacron" unicode="&#x101;" horiz-adv-x="595" 
d="M529 380v-275c0 -76 -28 -89 -97 -105c-37 -8 -83 -13 -142 -13c-116 0 -244 15 -244 171c0 128 82 145 155 156l174 28v27c0 27 -3 43 -24 54c-13 7 -37 10 -71 10c-65 0 -136 -19 -165 -27c-5 -1 -9 -2 -10 -2c-7 0 -10 3 -11 9l-15 66c-1 3 -1 5 -1 8c0 9 7 12 12 15
c22 8 116 36 223 36c71 0 119 -10 152 -29c51 -27 64 -73 64 -129zM376 250l-107 -17c-38 -5 -71 -14 -71 -73c0 -70 56 -76 96 -76c37 0 69 7 82 11v155zM313 714c59 0 109 -10 144 -21c9 -3 15 -5 15 -14c0 -3 0 -6 -1 -9l-9 -53c-3 -11 -6 -12 -13 -12c-2 0 -5 0 -8 1
c-39 7 -81 18 -128 18s-89 -11 -128 -18c-3 -1 -6 -1 -8 -1c-7 0 -10 1 -13 12l-9 53c-1 3 -1 6 -1 9c0 9 6 11 15 14c35 11 85 21 144 21z" />
    <glyph glyph-name="Abreve" unicode="&#x102;" horiz-adv-x="817" 
d="M168 0h-134c-12 0 -15 10 -12 19l245 708c3 7 10 12 17 12h248c7 0 14 -5 17 -12l246 -708c4 -11 -1 -19 -13 -19h-144c-10 0 -16 5 -18 15l-77 236h-280l-76 -236c-3 -10 -10 -15 -19 -15zM507 368l-84 260h-40l-84 -260h208zM586 954c0 -108 -69 -141 -184 -141
s-183 33 -183 141c0 9 0 19 15 19h55c15 0 16 -10 16 -19c1 -51 20 -73 97 -73s98 21 98 73c0 9 1 19 16 19h55c15 0 15 -10 15 -19z" />
    <glyph glyph-name="abreve" unicode="&#x103;" horiz-adv-x="595" 
d="M529 380v-275c0 -76 -28 -89 -97 -105c-37 -8 -83 -13 -142 -13c-116 0 -244 15 -244 171c0 128 82 145 155 156l174 28v27c0 27 -3 43 -24 54c-13 7 -37 10 -71 10c-65 0 -136 -19 -165 -27c-5 -1 -9 -2 -10 -2c-7 0 -10 3 -11 9l-15 66c-1 3 -1 5 -1 8c0 9 7 12 12 15
c22 8 116 36 223 36c71 0 119 -10 152 -29c51 -27 64 -73 64 -129zM376 250l-107 -17c-38 -5 -71 -14 -71 -73c0 -70 56 -76 96 -76c37 0 69 7 82 11v155zM497 736c0 -108 -69 -141 -184 -141s-183 33 -183 141c0 9 0 19 15 19h55c15 0 16 -10 16 -19c1 -51 20 -73 97 -73
s98 21 98 73c0 9 1 19 16 19h55c15 0 15 -10 15 -19z" />
    <glyph glyph-name="Aogonek" unicode="&#x104;" horiz-adv-x="817" 
d="M813 -120c10 2 16 -1 17 -9l8 -48c1 -7 -2 -12 -9 -15c-13 -7 -43 -15 -94 -15c-75 0 -140 25 -140 102c0 49 27 78 63 105h-20c-10 0 -16 5 -18 15l-77 236h-280l-76 -236c-3 -10 -10 -15 -19 -15h-134c-12 0 -15 10 -12 19l245 708c3 7 10 12 17 12h248
c7 0 14 -5 17 -12l246 -708c4 -11 -1 -19 -13 -19h-39c-33 -23 -46 -52 -46 -80c0 -31 20 -47 59 -47c24 0 46 4 57 7zM507 368l-84 260h-40l-84 -260h208z" />
    <glyph glyph-name="aogonek" unicode="&#x105;" horiz-adv-x="595" 
d="M514 -120c10 2 16 -1 17 -9l8 -48c1 -7 -2 -12 -9 -15c-13 -7 -43 -15 -94 -15c-75 0 -140 25 -140 102c0 43 20 70 48 94c-17 -1 -35 -2 -54 -2c-116 0 -244 15 -244 171c0 128 82 145 155 156l174 28v27c0 27 -3 43 -24 54c-13 7 -37 10 -71 10
c-65 0 -136 -19 -165 -27c-5 -1 -9 -2 -10 -2c-7 0 -10 3 -11 9l-15 66c-1 3 -1 5 -1 8c0 9 7 12 12 15c22 8 116 36 223 36c71 0 119 -10 152 -29c51 -27 64 -73 64 -129v-275c0 -70 -23 -85 -78 -101c-39 -23 -53 -53 -53 -84s20 -47 59 -47c24 0 46 4 57 7zM376 250
l-107 -17c-38 -5 -71 -14 -71 -73c0 -70 56 -76 96 -76c37 0 69 7 82 11v155z" />
    <glyph glyph-name="Cacute" unicode="&#x106;" horiz-adv-x="705" 
d="M646 129l15 -74c1 -3 1 -5 1 -8c0 -7 -4 -14 -19 -19c-36 -12 -110 -34 -235 -34c-255 0 -345 110 -345 377s90 377 345 377c125 0 199 -23 235 -35c15 -5 19 -13 19 -20c0 -2 0 -4 -1 -7l-15 -76c-2 -8 -7 -12 -16 -12c-3 0 -6 0 -9 1c-29 8 -108 26 -183 26
c-168 0 -206 -74 -206 -254c0 -179 38 -257 206 -257c75 0 152 22 182 27c3 1 7 1 10 1c9 0 14 -4 16 -13zM480 998l47 -63c4 -5 3 -10 -2 -14l-161 -106c-7 -5 -12 -4 -17 3l-43 57c-4 5 -3 10 2 15l158 110c6 4 11 3 16 -2z" />
    <glyph glyph-name="cacute" unicode="&#x107;" horiz-adv-x="518" 
d="M46 265c0 189 65 273 262 273c81 0 138 -15 162 -26c8 -3 15 -10 12 -22l-13 -62c-3 -11 -10 -14 -21 -11c-24 7 -67 16 -114 16c-103 0 -133 -45 -133 -169s30 -168 133 -168c47 0 90 9 114 16c11 3 18 0 21 -11l13 -62c3 -12 -4 -19 -12 -22c-24 -11 -81 -26 -162 -26
c-197 0 -262 85 -262 274zM361 780l47 -63c3 -3 3 -11 -2 -14l-161 -106c-7 -4 -12 -3 -17 3l-43 58c-4 6 -3 11 2 14l157 111c3 3 10 4 17 -3z" />
    <glyph glyph-name="Ccircumflex" unicode="&#x108;" horiz-adv-x="705" 
d="M646 129l15 -74c1 -3 1 -5 1 -8c0 -7 -4 -14 -19 -19c-36 -12 -110 -34 -235 -34c-255 0 -345 110 -345 377s90 377 345 377c125 0 199 -23 235 -35c15 -5 19 -13 19 -20c0 -2 0 -4 -1 -7l-15 -76c-2 -8 -7 -12 -16 -12c-3 0 -6 0 -9 1c-29 8 -108 26 -183 26
c-168 0 -206 -74 -206 -254c0 -179 38 -257 206 -257c75 0 152 22 182 27c3 1 7 1 10 1c9 0 14 -4 16 -13zM427 993l149 -103c3 -2 5 -5 5 -8s-1 -5 -3 -8l-43 -56c-3 -3 -6 -5 -9 -5s-5 1 -8 3l-109 84l-109 -84c-3 -3 -4 -3 -8 -3c-3 0 -6 2 -9 5l-43 56c-2 3 -3 5 -3 8
s2 6 5 8l149 103h36z" />
    <glyph glyph-name="ccircumflex" unicode="&#x109;" horiz-adv-x="518" 
d="M46 265c0 189 65 273 262 273c81 0 138 -15 162 -26c8 -3 15 -10 12 -22l-13 -62c-3 -11 -10 -14 -21 -11c-24 7 -67 16 -114 16c-103 0 -133 -45 -133 -169s30 -168 133 -168c47 0 90 9 114 16c11 3 18 0 21 -11l13 -62c3 -12 -4 -19 -12 -22c-24 -11 -81 -26 -162 -26
c-197 0 -262 85 -262 274zM316 775l149 -103c3 -2 5 -5 5 -8s-1 -5 -3 -8l-43 -56c-3 -3 -6 -5 -9 -5s-5 1 -8 3l-109 84l-109 -84c-3 -3 -4 -3 -8 -3c-3 0 -6 2 -9 5l-43 56c-2 3 -3 5 -3 8s2 6 5 8l149 103h36z" />
    <glyph glyph-name="Cdotaccent" unicode="&#x10a;" horiz-adv-x="705" 
d="M646 129l15 -74c1 -3 1 -5 1 -8c0 -7 -4 -14 -19 -19c-36 -12 -110 -34 -235 -34c-255 0 -345 110 -345 377s90 377 345 377c125 0 199 -23 235 -35c15 -5 19 -13 19 -20c0 -2 0 -4 -1 -7l-15 -76c-2 -8 -7 -12 -16 -12c-3 0 -6 0 -9 1c-29 8 -108 26 -183 26
c-168 0 -206 -74 -206 -254c0 -179 38 -257 206 -257c75 0 152 22 182 27c3 1 7 1 10 1c9 0 14 -4 16 -13zM497 945v-95c0 -9 -9 -17 -22 -17h-134c-13 0 -22 8 -22 17v95c0 9 9 17 22 17h134c13 0 22 -8 22 -17z" />
    <glyph glyph-name="cdotaccent" unicode="&#x10b;" horiz-adv-x="518" 
d="M46 265c0 189 65 273 262 273c81 0 138 -15 162 -26c8 -3 15 -10 12 -22l-13 -62c-3 -11 -10 -14 -21 -11c-24 7 -67 16 -114 16c-103 0 -133 -45 -133 -169s30 -168 133 -168c47 0 90 9 114 16c11 3 18 0 21 -11l13 -62c3 -12 -4 -19 -12 -22c-24 -11 -81 -26 -162 -26
c-197 0 -262 85 -262 274zM387 727v-95c0 -9 -9 -17 -22 -17h-134c-13 0 -22 8 -22 17v95c0 9 9 17 22 17h134c13 0 22 -8 22 -17z" />
    <glyph glyph-name="Ccaron" unicode="&#x10c;" horiz-adv-x="705" 
d="M646 129l15 -74c1 -3 1 -5 1 -8c0 -7 -4 -14 -19 -19c-36 -12 -110 -34 -235 -34c-255 0 -345 110 -345 377s90 377 345 377c125 0 199 -23 235 -35c15 -5 19 -13 19 -20c0 -2 0 -4 -1 -7l-15 -76c-2 -8 -7 -12 -16 -12c-3 0 -6 0 -9 1c-29 8 -108 26 -183 26
c-168 0 -206 -74 -206 -254c0 -179 38 -257 206 -257c75 0 152 22 182 27c3 1 7 1 10 1c9 0 14 -4 16 -13zM392 812l-149 103c-3 2 -5 5 -5 8c0 2 1 5 3 8l43 56c3 3 6 5 9 5c4 0 5 0 8 -3l109 -84l109 84c3 2 5 3 8 3s6 -2 9 -5l43 -56c2 -3 3 -6 3 -8c0 -3 -2 -6 -5 -8
l-149 -103h-36z" />
    <glyph glyph-name="ccaron" unicode="&#x10d;" horiz-adv-x="518" 
d="M46 265c0 189 65 273 262 273c81 0 138 -15 162 -26c8 -3 15 -10 12 -22l-13 -62c-3 -11 -10 -14 -21 -11c-24 7 -67 16 -114 16c-103 0 -133 -45 -133 -169s30 -168 133 -168c47 0 90 9 114 16c11 3 18 0 21 -11l13 -62c3 -12 -4 -19 -12 -22c-24 -11 -81 -26 -162 -26
c-197 0 -262 85 -262 274zM280 595l-149 103c-3 2 -5 5 -5 8c0 2 1 5 3 8l43 56c3 3 6 5 9 5c4 0 5 0 8 -3l109 -84l109 84c3 2 5 3 8 3s6 -2 9 -5l43 -56c2 -3 3 -6 3 -8c0 -3 -2 -6 -5 -8l-149 -103h-36z" />
    <glyph glyph-name="Dcaron" unicode="&#x10e;" horiz-adv-x="828" 
d="M765 370c0 -259 -83 -370 -339 -370h-312c-11 0 -16 5 -16 16v707c0 11 5 16 16 16h312c256 0 339 -111 339 -369zM595 370c0 208 -47 255 -187 255h-145v-510h145c140 0 187 47 187 255zM371 812l-149 103c-3 2 -5 5 -5 8c0 2 1 5 3 8l43 56c3 3 6 5 9 5c4 0 5 0 8 -3
l109 -84l109 84c3 2 5 3 8 3s6 -2 9 -5l43 -56c2 -3 3 -6 3 -8c0 -3 -2 -6 -5 -8l-149 -103h-36z" />
    <glyph glyph-name="dcaron" unicode="&#x10f;" horiz-adv-x="733" 
d="M541 735v-647c0 -28 -3 -62 -59 -78c-48 -15 -109 -23 -172 -23c-196 0 -264 62 -264 271c0 173 40 280 216 280c71 0 124 -15 135 -18l-11 61v128c0 14 6 22 19 24l113 19c15 3 23 -5 23 -17zM386 101v324c-9 3 -48 9 -81 9c-76 0 -103 -15 -103 -167
c0 -160 31 -176 109 -176c35 0 68 7 75 10zM599 583l29 148c3 9 10 15 21 15h90c15 0 21 -12 16 -24l-59 -144c-3 -8 -10 -12 -20 -12h-61c-9 0 -19 6 -16 17z" />
    <glyph glyph-name="Dcroat" unicode="&#x110;" horiz-adv-x="847" 
d="M785 370c0 -259 -83 -370 -339 -370h-312c-11 0 -16 5 -16 16v305h-89c-11 0 -17 8 -17 16v74c0 11 10 15 17 15h89v298c0 8 7 15 16 15h312c256 0 339 -111 339 -369zM615 370c0 208 -47 255 -187 255h-144v-199h190c7 0 18 -4 18 -15v-74c0 -8 -7 -16 -18 -16h-190
v-206h144c140 0 187 47 187 255z" />
    <glyph glyph-name="dslash" unicode="&#x111;" horiz-adv-x="612" 
d="M541 572v-484c0 -28 -3 -62 -59 -78c-48 -15 -109 -23 -172 -23c-196 0 -264 52 -264 261c0 172 40 270 216 270c71 0 124 -15 135 -18l-11 61v11h-137c-11 0 -16 5 -16 15v65c0 10 5 15 16 15h137v42c0 14 6 22 19 24l113 19c15 3 23 -5 23 -17v-68h47
c11 0 16 -5 16 -15v-65c0 -10 -5 -15 -16 -15h-47zM386 101v304c-9 3 -48 9 -81 9c-76 0 -103 -5 -103 -157c0 -160 31 -166 109 -166c35 0 68 7 75 10z" />
    <glyph glyph-name="Emacron" unicode="&#x112;" horiz-adv-x="690" 
d="M604 0h-489c-11 0 -17 5 -17 16v707c0 9 8 16 17 16h488c11 0 17 -5 17 -15v-91c0 -10 -6 -15 -17 -15h-340v-178h322c11 0 16 -5 16 -15v-91c0 -11 -5 -16 -16 -16h-322v-197h341c11 0 16 -5 16 -15v-91c0 -10 -5 -15 -16 -15zM359 932c59 0 109 -10 144 -21
c9 -3 15 -5 15 -14c0 -3 0 -6 -1 -9l-9 -53c-3 -11 -6 -12 -13 -12c-2 0 -5 0 -8 1c-39 7 -81 18 -128 18s-89 -11 -128 -18c-3 -1 -6 -1 -8 -1c-7 0 -10 1 -13 12l-9 53c-1 3 -1 6 -1 9c0 9 6 11 15 14c35 11 85 21 144 21z" />
    <glyph glyph-name="emacron" unicode="&#x113;" horiz-adv-x="593" 
d="M547 271l-1 -48c0 -13 -5 -26 -24 -26h-323c0 -43 14 -66 43 -85c25 -15 61 -22 108 -22c61 0 105 15 136 23c11 3 18 -1 21 -12l13 -57c4 -16 -3 -21 -10 -24c-32 -13 -101 -33 -186 -33c-195 0 -278 72 -278 273c0 195 57 278 252 278c100 0 160 -23 199 -68
c37 -45 50 -111 50 -199zM395 290v6c0 27 -2 50 -7 71c-11 52 -37 69 -88 69c-64 0 -86 -20 -95 -65c-5 -25 -5 -50 -6 -81h196zM298 714c59 0 109 -10 144 -21c9 -3 15 -5 15 -14c0 -3 0 -6 -1 -9l-9 -53c-3 -11 -6 -12 -13 -12c-2 0 -5 0 -8 1c-39 7 -81 18 -128 18
s-89 -11 -128 -18c-3 -1 -6 -1 -8 -1c-7 0 -10 1 -13 12l-9 53c-1 3 -1 6 -1 9c0 9 6 11 15 14c35 11 85 21 144 21z" />
    <glyph glyph-name="Ebreve" unicode="&#x114;" horiz-adv-x="690" 
d="M604 0h-489c-11 0 -17 5 -17 16v707c0 9 8 16 17 16h488c11 0 17 -5 17 -15v-91c0 -10 -6 -15 -17 -15h-340v-178h322c11 0 16 -5 16 -15v-91c0 -11 -5 -16 -16 -16h-322v-197h341c11 0 16 -5 16 -15v-91c0 -10 -5 -15 -16 -15zM553 954c0 -108 -69 -141 -184 -141
s-183 33 -183 141c0 9 0 19 15 19h55c15 0 16 -10 16 -19c1 -51 20 -73 97 -73s98 21 98 73c0 9 1 19 16 19h55c15 0 15 -10 15 -19z" />
    <glyph glyph-name="ebreve" unicode="&#x115;" horiz-adv-x="593" 
d="M547 271l-1 -48c0 -13 -5 -26 -24 -26h-323c0 -43 14 -66 43 -85c25 -15 61 -22 108 -22c61 0 105 15 136 23c11 3 18 -1 21 -12l13 -57c4 -16 -3 -21 -10 -24c-32 -13 -101 -33 -186 -33c-195 0 -278 72 -278 273c0 195 57 278 252 278c100 0 160 -23 199 -68
c37 -45 50 -111 50 -199zM395 290v6c0 27 -2 50 -7 71c-11 52 -37 69 -88 69c-64 0 -86 -20 -95 -65c-5 -25 -5 -50 -6 -81h196zM482 736c0 -108 -69 -141 -184 -141s-183 33 -183 141c0 9 0 19 15 19h55c15 0 16 -10 16 -19c1 -51 20 -73 97 -73s98 21 98 73
c0 9 1 19 16 19h55c15 0 15 -10 15 -19z" />
    <glyph glyph-name="Edotaccent" unicode="&#x116;" horiz-adv-x="690" 
d="M604 0h-489c-11 0 -17 5 -17 16v707c0 9 8 16 17 16h488c11 0 17 -5 17 -15v-91c0 -10 -6 -15 -17 -15h-340v-178h322c11 0 16 -5 16 -15v-91c0 -11 -5 -16 -16 -16h-322v-197h341c11 0 16 -5 16 -15v-91c0 -10 -5 -15 -16 -15zM453 945v-95c0 -9 -9 -17 -22 -17h-134
c-13 0 -22 8 -22 17v95c0 9 9 17 22 17h134c13 0 22 -8 22 -17z" />
    <glyph glyph-name="edotaccent" unicode="&#x117;" horiz-adv-x="593" 
d="M547 271l-1 -48c0 -13 -5 -26 -24 -26h-323c0 -43 14 -66 43 -85c25 -15 61 -22 108 -22c61 0 105 15 136 23c11 3 18 -1 21 -12l13 -57c4 -16 -3 -21 -10 -24c-32 -13 -101 -33 -186 -33c-195 0 -278 72 -278 273c0 195 57 278 252 278c100 0 160 -23 199 -68
c37 -45 50 -111 50 -199zM395 290v6c0 27 -2 50 -7 71c-11 52 -37 69 -88 69c-64 0 -86 -20 -95 -65c-5 -25 -5 -50 -6 -81h196zM388 727v-95c0 -9 -9 -17 -22 -17h-134c-13 0 -22 8 -22 17v95c0 9 9 17 22 17h134c13 0 22 -8 22 -17z" />
    <glyph glyph-name="Eogonek" unicode="&#x118;" horiz-adv-x="690" 
d="M446 0h-331c-11 0 -17 5 -17 16v707c0 9 8 16 17 16h488c11 0 17 -5 17 -15v-91c0 -10 -6 -15 -17 -15h-340v-178h322c11 0 16 -5 16 -15v-91c0 -11 -5 -16 -16 -16h-322v-197h341c11 0 16 -5 16 -15v-91c0 -10 -5 -15 -16 -15h-73c-33 -23 -46 -52 -46 -80
c0 -31 20 -47 59 -47c24 0 46 4 57 7c10 2 16 -1 17 -9l8 -48c1 -7 -2 -12 -9 -15c-13 -7 -43 -15 -94 -15c-75 0 -140 25 -140 102c0 49 27 78 63 105z" />
    <glyph glyph-name="eogonek" unicode="&#x119;" horiz-adv-x="593" 
d="M435 -120c10 2 16 -1 17 -9l8 -48c1 -7 -2 -12 -9 -15c-13 -7 -43 -15 -94 -15c-75 0 -140 25 -140 102c0 43 20 71 49 95c-155 13 -220 90 -220 270c0 195 57 278 252 278c100 0 160 -23 199 -68c37 -45 50 -111 50 -199l-1 -48c0 -13 -5 -26 -24 -26h-323
c0 -43 14 -66 43 -85c25 -15 61 -22 108 -22c61 0 105 15 136 23c11 3 18 -1 21 -12l13 -57c4 -16 -3 -21 -10 -24c-29 -12 -88 -29 -161 -32c-21 -21 -30 -45 -30 -68c0 -31 20 -47 59 -47c24 0 46 4 57 7zM395 290v6c0 27 -2 50 -7 71c-11 52 -37 69 -88 69
c-64 0 -86 -20 -95 -65c-5 -25 -5 -50 -6 -81h196z" />
    <glyph glyph-name="Ecaron" unicode="&#x11a;" horiz-adv-x="690" 
d="M604 0h-489c-11 0 -17 5 -17 16v707c0 9 8 16 17 16h488c11 0 17 -5 17 -15v-91c0 -10 -6 -15 -17 -15h-340v-178h322c11 0 16 -5 16 -15v-91c0 -11 -5 -16 -16 -16h-322v-197h341c11 0 16 -5 16 -15v-91c0 -10 -5 -15 -16 -15zM344 812l-149 103c-3 2 -5 5 -5 8
c0 2 1 5 3 8l43 56c3 3 6 5 9 5c4 0 5 0 8 -3l109 -84l109 84c3 2 5 3 8 3s6 -2 9 -5l43 -56c2 -3 3 -6 3 -8c0 -3 -2 -6 -5 -8l-149 -103h-36z" />
    <glyph glyph-name="ecaron" unicode="&#x11b;" horiz-adv-x="593" 
d="M547 271l-1 -48c0 -13 -5 -26 -24 -26h-323c0 -43 14 -66 43 -85c25 -15 61 -22 108 -22c61 0 105 15 136 23c11 3 18 -1 21 -12l13 -57c4 -16 -3 -21 -10 -24c-32 -13 -101 -33 -186 -33c-195 0 -278 72 -278 273c0 195 57 278 252 278c100 0 160 -23 199 -68
c37 -45 50 -111 50 -199zM395 290v6c0 27 -2 50 -7 71c-11 52 -37 69 -88 69c-64 0 -86 -20 -95 -65c-5 -25 -5 -50 -6 -81h196zM288 595l-149 103c-3 2 -5 5 -5 8c0 2 1 5 3 8l43 56c3 3 6 5 9 5c4 0 5 0 8 -3l109 -84l109 84c3 2 5 3 8 3s6 -2 9 -5l43 -56c2 -3 3 -6 3 -8
c0 -3 -2 -6 -5 -8l-149 -103h-36z" />
    <glyph glyph-name="Gcircumflex" unicode="&#x11c;" horiz-adv-x="802" 
d="M447 -13c-292 0 -384 104 -384 382c0 276 102 383 366 383c146 0 253 -33 271 -41c13 -5 19 -12 18 -23l-2 -9c-4 -15 -10 -49 -14 -67c-3 -11 -11 -14 -20 -13c-19 3 -97 32 -220 32c-160 0 -230 -49 -230 -265c0 -213 65 -265 221 -265c44 0 90 7 103 10v168l-117 14
c-8 1 -15 6 -15 14v85c0 8 7 14 15 14h260c11 0 17 -5 17 -15v-287c0 -54 -10 -78 -63 -94c-46 -13 -139 -23 -206 -23zM444 993l149 -103c3 -2 5 -5 5 -8s-1 -5 -3 -8l-43 -56c-3 -3 -6 -5 -9 -5s-5 1 -8 3l-109 84l-109 -84c-3 -3 -4 -3 -8 -3c-3 0 -6 2 -9 5l-43 56
c-2 3 -3 5 -3 8s2 6 5 8l149 103h36z" />
    <glyph glyph-name="gcircumflex" unicode="&#x11d;" horiz-adv-x="624" 
d="M137 191c13 3 27 6 42 9c-10 3 -21 7 -34 13c-38 17 -81 57 -81 142c0 142 95 183 238 183c96 0 112 -23 171 -23c43 0 64 10 99 27c4 2 7 3 9 3c4 0 7 -3 9 -9l25 -79c3 -8 5 -13 -6 -20c-17 -12 -36 -18 -56 -18c-15 0 -34 3 -41 4c8 -11 24 -43 24 -83
c0 -130 -106 -168 -239 -168h-13c-51 0 -71 -5 -71 -40s20 -41 71 -41h99c89 0 186 -23 186 -140c0 -128 -110 -175 -260 -175c-171 0 -260 28 -260 127c0 90 74 97 110 105v16c-45 11 -92 9 -92 86c0 50 29 71 70 81zM390 355c0 65 -19 99 -90 99s-90 -34 -90 -99
s19 -99 90 -99s90 34 90 99zM422 -70c0 47 -37 51 -82 51h-68c-34 0 -75 -6 -75 -55c0 -51 40 -63 116 -63c64 0 109 14 109 67zM317 775l149 -103c3 -2 5 -5 5 -8s-1 -5 -3 -8l-43 -56c-3 -3 -6 -5 -9 -5s-5 1 -8 3l-109 84l-109 -84c-3 -3 -4 -3 -8 -3c-3 0 -6 2 -9 5
l-43 56c-2 3 -3 5 -3 8s2 6 5 8l149 103h36z" />
    <glyph glyph-name="Gbreve" unicode="&#x11e;" horiz-adv-x="802" 
d="M447 -13c-292 0 -384 104 -384 382c0 276 102 383 366 383c146 0 253 -33 271 -41c13 -5 19 -12 18 -23l-2 -9c-4 -15 -10 -49 -14 -67c-3 -11 -11 -14 -20 -13c-19 3 -97 32 -220 32c-160 0 -230 -49 -230 -265c0 -213 65 -265 221 -265c44 0 90 7 103 10v168l-117 14
c-8 1 -15 6 -15 14v85c0 8 7 14 15 14h260c11 0 17 -5 17 -15v-287c0 -54 -10 -78 -63 -94c-46 -13 -139 -23 -206 -23zM609 954c0 -108 -69 -141 -184 -141s-183 33 -183 141c0 9 0 19 15 19h55c15 0 16 -10 16 -19c1 -51 20 -73 97 -73s98 21 98 73c0 9 1 19 16 19h55
c15 0 15 -10 15 -19z" />
    <glyph glyph-name="gbreve" unicode="&#x11f;" horiz-adv-x="624" 
d="M137 191c13 3 27 6 42 9c-10 3 -21 7 -34 13c-38 17 -81 57 -81 142c0 142 95 183 238 183c96 0 112 -23 171 -23c43 0 64 10 99 27c4 2 7 3 9 3c4 0 7 -3 9 -9l25 -79c3 -8 5 -13 -6 -20c-17 -12 -36 -18 -56 -18c-15 0 -34 3 -41 4c8 -11 24 -43 24 -83
c0 -130 -106 -168 -239 -168h-13c-51 0 -71 -5 -71 -40s20 -41 71 -41h99c89 0 186 -23 186 -140c0 -128 -110 -175 -260 -175c-171 0 -260 28 -260 127c0 90 74 97 110 105v16c-45 11 -92 9 -92 86c0 50 29 71 70 81zM390 355c0 65 -19 99 -90 99s-90 -34 -90 -99
s19 -99 90 -99s90 34 90 99zM422 -70c0 47 -37 51 -82 51h-68c-34 0 -75 -6 -75 -55c0 -51 40 -63 116 -63c64 0 109 14 109 67zM482 736c0 -108 -69 -141 -184 -141s-183 33 -183 141c0 9 0 19 15 19h55c15 0 16 -10 16 -19c1 -51 20 -73 97 -73s98 21 98 73
c0 9 1 19 16 19h55c15 0 15 -10 15 -19z" />
    <glyph glyph-name="Gdotaccent" unicode="&#x120;" horiz-adv-x="802" 
d="M447 -13c-292 0 -384 104 -384 382c0 276 102 383 366 383c146 0 253 -33 271 -41c13 -5 19 -12 18 -23l-2 -9c-4 -15 -10 -49 -14 -67c-3 -11 -11 -14 -20 -13c-19 3 -97 32 -220 32c-160 0 -230 -49 -230 -265c0 -213 65 -265 221 -265c44 0 90 7 103 10v168l-117 14
c-8 1 -15 6 -15 14v85c0 8 7 14 15 14h260c11 0 17 -5 17 -15v-287c0 -54 -10 -78 -63 -94c-46 -13 -139 -23 -206 -23zM515 945v-95c0 -9 -9 -17 -22 -17h-134c-13 0 -22 8 -22 17v95c0 9 9 17 22 17h134c13 0 22 -8 22 -17z" />
    <glyph glyph-name="gdotaccent" unicode="&#x121;" horiz-adv-x="624" 
d="M137 191c13 3 27 6 42 9c-10 3 -21 7 -34 13c-38 17 -81 57 -81 142c0 142 95 183 238 183c96 0 112 -23 171 -23c43 0 64 10 99 27c4 2 7 3 9 3c4 0 7 -3 9 -9l25 -79c3 -8 5 -13 -6 -20c-17 -12 -36 -18 -56 -18c-15 0 -34 3 -41 4c8 -11 24 -43 24 -83
c0 -130 -106 -168 -239 -168h-13c-51 0 -71 -5 -71 -40s20 -41 71 -41h99c89 0 186 -23 186 -140c0 -128 -110 -175 -260 -175c-171 0 -260 28 -260 127c0 90 74 97 110 105v16c-45 11 -92 9 -92 86c0 50 29 71 70 81zM390 355c0 65 -19 99 -90 99s-90 -34 -90 -99
s19 -99 90 -99s90 34 90 99zM422 -70c0 47 -37 51 -82 51h-68c-34 0 -75 -6 -75 -55c0 -51 40 -63 116 -63c64 0 109 14 109 67zM387 727v-95c0 -9 -9 -17 -22 -17h-134c-13 0 -22 8 -22 17v95c0 9 9 17 22 17h134c13 0 22 -8 22 -17z" />
    <glyph glyph-name="Gcommaaccent" unicode="&#x122;" horiz-adv-x="802" 
d="M447 -13c-292 0 -384 104 -384 382c0 276 102 383 366 383c146 0 253 -33 271 -41c13 -5 19 -12 18 -23l-2 -9c-4 -15 -10 -49 -14 -67c-3 -11 -11 -14 -20 -13c-19 3 -97 32 -220 32c-160 0 -230 -49 -230 -265c0 -213 65 -265 221 -265c44 0 90 7 103 10v168l-117 14
c-8 1 -15 6 -15 14v85c0 8 7 14 15 14h260c11 0 17 -5 17 -15v-287c0 -54 -10 -78 -63 -94c-46 -13 -139 -23 -206 -23zM352 -213l29 148c3 9 10 15 21 15h90c15 0 21 -12 16 -24l-59 -144c-3 -8 -10 -12 -20 -12h-61c-9 0 -19 6 -16 17z" />
    <glyph glyph-name="gcommaaccent" unicode="&#x123;" horiz-adv-x="624" 
d="M137 191c13 3 27 6 42 9c-10 3 -21 7 -34 13c-38 17 -81 57 -81 142c0 142 95 183 238 183c96 0 112 -23 171 -23c43 0 64 10 99 27c4 2 7 3 9 3c4 0 7 -3 9 -9l25 -79c3 -8 5 -13 -6 -20c-17 -12 -36 -18 -56 -18c-15 0 -34 3 -41 4c8 -11 24 -43 24 -83
c0 -130 -106 -168 -239 -168h-13c-51 0 -71 -5 -71 -40s20 -41 71 -41h99c89 0 186 -23 186 -140c0 -128 -110 -175 -260 -175c-171 0 -260 28 -260 127c0 90 74 97 110 105v16c-45 11 -92 9 -92 86c0 50 29 71 70 81zM390 355c0 65 -19 99 -90 99s-90 -34 -90 -99
s19 -99 90 -99s90 34 90 99zM422 -70c0 47 -37 51 -82 51h-68c-34 0 -75 -6 -75 -55c0 -51 40 -63 116 -63c64 0 109 14 109 67zM392 778l-29 -148c-3 -9 -10 -15 -21 -15h-90c-15 0 -21 12 -16 24l59 144c3 8 9 12 20 12h61c9 0 19 -6 16 -17z" />
    <glyph glyph-name="Hcircumflex" unicode="&#x124;" horiz-adv-x="856" 
d="M758 738v-723c0 -10 -5 -15 -16 -15h-133c-9 0 -17 6 -17 15v303h-329v-303c0 -10 -5 -15 -16 -15h-133c-11 0 -16 5 -16 15v706c0 8 5 13 15 14l135 17c11 1 15 -7 15 -14v-296h329v279c0 8 5 13 16 14l135 17c11 1 15 -7 15 -14zM444 993l149 -103c3 -2 5 -5 5 -8
s-1 -5 -3 -8l-43 -56c-3 -3 -6 -5 -9 -5s-5 1 -8 3l-109 84l-109 -84c-3 -3 -4 -3 -8 -3c-3 0 -6 2 -9 5l-43 56c-2 3 -3 5 -3 8s2 6 5 8l149 103h36z" />
    <glyph glyph-name="hcircumflex" unicode="&#x125;" horiz-adv-x="616" 
d="M550 395v-380c0 -10 -5 -15 -16 -15h-122c-11 0 -16 5 -16 15v354c0 44 -15 66 -63 66c-32 0 -70 -5 -107 -12v-408c0 -10 -5 -15 -16 -15h-122c-11 0 -16 5 -16 15v694c0 15 3 21 18 24l114 19c15 2 22 -4 22 -17v-156l-11 -62c47 11 105 21 156 21
c112 0 179 -31 179 -143zM171 959l149 -103c3 -2 5 -5 5 -8s-1 -5 -3 -8l-43 -56c-3 -3 -6 -5 -9 -5s-5 1 -8 3l-109 84l-109 -84c-3 -3 -4 -3 -8 -3c-3 0 -6 2 -9 5l-43 56c-2 3 -3 5 -3 8s2 6 5 8l149 103h36z" />
    <glyph glyph-name="Hbar" unicode="&#x126;" horiz-adv-x="918" 
d="M278 0h-132c-11 0 -17 5 -17 15v487h-69c-13 0 -22 8 -22 19v76c0 11 9 19 22 19h69v105c0 8 5 13 16 14l134 17c11 1 15 -7 15 -14v-122h330v105c0 8 7 13 15 14l134 17c11 1 16 -7 16 -14v-122h70c12 0 21 -8 21 -19v-76c0 -11 -9 -19 -21 -19h-70v-487
c0 -10 -6 -15 -17 -15h-131c-11 0 -17 5 -17 15v244h-330v-244c0 -10 -5 -15 -16 -15zM294 373h330v129h-330v-129z" />
    <glyph glyph-name="hbar" unicode="&#x127;" horiz-adv-x="616" 
d="M72 572h-48c-11 0 -16 5 -16 15v65c0 10 5 15 16 15h48v42c0 15 3 21 18 24l114 19h5c11 0 17 -6 17 -17v-68h137c11 0 16 -5 16 -15v-65c0 -10 -5 -15 -16 -15h-138l-10 -55c47 11 105 21 156 21c112 0 179 -31 179 -143v-380c0 -10 -5 -15 -16 -15h-122
c-11 0 -16 5 -16 15v354c0 44 -15 66 -63 66c-35 0 -70 -5 -107 -12v-408c0 -10 -5 -15 -16 -15h-122c-11 0 -16 5 -16 15v557z" />
    <glyph glyph-name="Itilde" unicode="&#x128;" horiz-adv-x="361" 
d="M263 738v-723c0 -10 -5 -15 -16 -15h-133c-11 0 -16 5 -16 15v706c0 8 5 13 15 14l135 17c11 1 15 -7 15 -14zM365 879c0 -3 -1 -5 -2 -7l-5 -4c-21 -19 -69 -55 -114 -55c-25 0 -49 12 -70 24c-19 9 -40 24 -60 24c-23 0 -47 -20 -70 -39c-4 -3 -7 -4 -9 -4
c-5 0 -9 2 -11 7l-27 53c-1 3 -2 5 -2 8s1 5 3 6l4 5c21 19 69 55 114 55c27 0 49 -12 70 -24c19 -9 41 -24 60 -24c23 0 49 20 70 39c3 3 6 4 9 4c5 0 9 -2 11 -7l27 -53c1 -3 2 -5 2 -8z" />
    <glyph glyph-name="itilde" unicode="&#x129;" horiz-adv-x="328" 
d="M241 498v-483c0 -10 -5 -15 -16 -15h-122c-11 0 -16 5 -16 15v483c0 10 5 15 16 15h122c11 0 16 -5 16 -15zM349 661c0 -3 -1 -5 -2 -7l-5 -4c-21 -19 -69 -55 -114 -55c-25 0 -49 12 -70 24c-19 9 -40 24 -60 24c-23 0 -47 -20 -70 -39c-4 -3 -7 -4 -9 -4
c-5 0 -9 2 -11 7l-27 53c-1 3 -2 5 -2 8s1 5 3 6l4 5c21 19 69 55 114 55c27 0 49 -12 70 -24l30 -15c11 -5 21 -8 30 -9c23 0 49 20 70 39c3 3 6 4 9 4c5 0 9 -2 11 -7l27 -53c1 -3 2 -5 2 -8z" />
    <glyph glyph-name="Imacron" unicode="&#x12a;" horiz-adv-x="361" 
d="M263 738v-723c0 -10 -5 -15 -16 -15h-133c-11 0 -16 5 -16 15v706c0 8 5 13 15 14l135 17c11 1 15 -7 15 -14zM180 932c59 0 109 -10 144 -21c9 -3 15 -5 15 -14c0 -3 0 -6 -1 -9l-9 -53c-3 -11 -6 -12 -13 -12c-2 0 -5 0 -8 1c-39 7 -81 18 -128 18s-89 -11 -128 -18
c-3 -1 -6 -1 -8 -1c-7 0 -10 1 -13 12l-9 53c-1 3 -1 6 -1 9c0 9 6 11 15 14c35 11 85 21 144 21z" />
    <glyph glyph-name="imacron" unicode="&#x12b;" horiz-adv-x="328" 
d="M241 498v-483c0 -10 -5 -15 -16 -15h-122c-11 0 -16 5 -16 15v483c0 10 5 15 16 15h122c11 0 16 -5 16 -15zM164 714c59 0 109 -10 144 -21c9 -3 15 -5 15 -14c0 -3 0 -6 -1 -9l-9 -53c-3 -11 -6 -12 -13 -12c-2 0 -5 0 -8 1c-39 7 -81 18 -128 18s-89 -11 -128 -18
c-3 -1 -6 -1 -8 -1c-7 0 -10 1 -13 12l-9 53c-1 3 -1 6 -1 9c0 9 6 11 15 14c35 11 85 21 144 21z" />
    <glyph glyph-name="Ibreve" unicode="&#x12c;" horiz-adv-x="361" 
d="M263 738v-723c0 -10 -5 -15 -16 -15h-133c-11 0 -16 5 -16 15v706c0 8 5 13 15 14l135 17c11 1 15 -7 15 -14zM365 954c0 -108 -69 -141 -184 -141s-183 33 -183 141c0 9 0 19 15 19h55c15 0 16 -10 16 -19c1 -51 20 -73 97 -73s98 21 98 73c0 9 1 19 16 19h55
c15 0 15 -10 15 -19z" />
    <glyph glyph-name="ibreve" unicode="&#x12d;" horiz-adv-x="328" 
d="M241 498v-483c0 -10 -5 -15 -16 -15h-122c-11 0 -16 5 -16 15v483c0 10 5 15 16 15h122c11 0 16 -5 16 -15zM348 736c0 -108 -69 -141 -184 -141s-183 33 -183 141c0 9 0 19 15 19h55c15 0 16 -10 16 -19c1 -51 20 -73 97 -73s98 21 98 73c0 9 1 19 16 19h55
c15 0 15 -10 15 -19z" />
    <glyph glyph-name="Iogonek" unicode="&#x12e;" horiz-adv-x="361" 
d="M282 -120c10 2 16 -1 17 -9l8 -48c1 -7 -2 -12 -9 -15c-13 -7 -43 -15 -94 -15c-75 0 -140 25 -140 102c0 49 27 78 63 105h-13c-11 0 -16 5 -16 15v706c0 8 5 13 15 14l135 17c11 1 15 -7 15 -14v-723c0 -10 -5 -15 -16 -15h-35c-33 -23 -46 -52 -46 -80
c0 -31 20 -47 59 -47c24 0 46 4 57 7z" />
    <glyph glyph-name="iogonek" unicode="&#x12f;" horiz-adv-x="328" 
d="M268 -120c10 2 16 -1 17 -9l8 -48c1 -7 -2 -12 -9 -15c-13 -7 -43 -15 -94 -15c-75 0 -140 25 -140 102c0 49 27 78 63 105h-10c-11 0 -16 5 -16 15v483c0 10 5 15 16 15h122c11 0 16 -5 16 -15v-483c0 -10 -5 -15 -16 -15h-27c-33 -23 -46 -52 -46 -80
c0 -31 20 -47 59 -47c24 0 46 4 57 7zM240 726v-115c0 -17 -9 -26 -28 -26h-96c-19 0 -28 9 -28 26v115c0 17 9 26 28 26h96c19 0 28 -9 28 -26z" />
    <glyph glyph-name="Idotaccent" unicode="&#x130;" horiz-adv-x="361" 
d="M263 738v-723c0 -10 -5 -15 -16 -15h-133c-11 0 -16 5 -16 15v706c0 8 5 13 15 14l135 17c11 1 15 -7 15 -14zM269 945v-95c0 -9 -9 -17 -22 -17h-134c-13 0 -22 8 -22 17v95c0 9 9 17 22 17h134c13 0 22 -8 22 -17z" />
    <glyph glyph-name="dotlessi" unicode="&#x131;" horiz-adv-x="328" 
d="M241 498v-483c0 -10 -5 -15 -16 -15h-122c-11 0 -16 5 -16 15v483c0 10 5 15 16 15h122c11 0 16 -5 16 -15z" />
    <glyph glyph-name="IJ" unicode="&#x132;" horiz-adv-x="718" 
d="M263 738v-723c0 -10 -5 -15 -16 -15h-133c-11 0 -16 5 -16 15v706c0 8 5 13 15 14l135 17c11 1 15 -7 15 -14zM630 738v-741c0 -155 -94 -201 -235 -201h-38c-12 0 -23 1 -33 2c-11 1 -21 5 -21 22v72c0 15 6 24 22 25l53 2c61 3 87 16 87 91v709c0 8 5 15 16 16l133 17
c11 1 16 -7 16 -14z" />
    <glyph glyph-name="ij" unicode="&#x133;" horiz-adv-x="651" 
d="M241 498v-483c0 -10 -5 -15 -16 -15h-122c-11 0 -16 5 -16 15v483c0 10 5 15 16 15h122c11 0 16 -5 16 -15zM240 726v-115c0 -17 -9 -26 -28 -26h-96c-19 0 -28 9 -28 26v115c0 17 9 26 28 26h96c19 0 28 -9 28 -26zM569 498v-529c0 -145 -86 -179 -195 -179
c-43 0 -68 3 -73 4c-11 3 -20 4 -20 21l1 58c0 13 7 19 21 20l31 1c49 3 82 7 82 78v526c0 10 5 15 16 15h121c11 0 16 -5 16 -15zM568 726v-115c0 -17 -9 -26 -28 -26h-96c-19 0 -28 9 -28 26v115c0 17 9 26 28 26h96c19 0 28 -9 28 -26z" />
    <glyph glyph-name="Jcircumflex" unicode="&#x134;" horiz-adv-x="357" 
d="M269 738v-741c0 -155 -94 -201 -235 -201h-38c-12 0 -23 1 -33 2c-11 1 -21 5 -21 22v72c0 15 6 24 22 25l53 2c61 3 87 16 87 91v709c0 8 5 15 16 16l133 17c11 1 16 -7 16 -14zM207 993l149 -103c3 -2 5 -5 5 -8s-1 -5 -3 -8l-43 -56c-3 -3 -6 -5 -9 -5s-5 1 -8 3
l-109 84l-109 -84c-3 -3 -4 -3 -8 -3c-3 0 -6 2 -9 5l-43 56c-2 3 -3 5 -3 8s2 6 5 8l149 103h36z" />
    <glyph glyph-name="jcircumflex" unicode="&#x135;" horiz-adv-x="323" 
d="M241 498v-529c0 -145 -86 -179 -195 -179c-43 0 -68 3 -73 4c-11 3 -20 4 -20 21l1 58c0 13 7 19 21 20l31 1c49 3 82 7 82 78v526c0 10 5 15 16 15h121c11 0 16 -5 16 -15zM182 775l149 -103c3 -2 5 -5 5 -8s-1 -5 -3 -8l-43 -56c-3 -3 -6 -5 -9 -5s-5 1 -8 3l-109 84
l-109 -84c-3 -3 -4 -3 -8 -3c-3 0 -6 2 -9 5l-43 56c-2 3 -3 5 -3 8s2 6 5 8l149 103h36z" />
    <glyph glyph-name="Kcommaaccent" unicode="&#x136;" horiz-adv-x="759" 
d="M333 432l212 298c4 5 7 9 18 9h156c9 0 22 -9 11 -24l-258 -337l278 -354c2 -3 3 -6 3 -9c0 -8 -7 -15 -12 -15h-169c-9 0 -15 3 -20 9l-219 304h-70v-298c0 -10 -5 -15 -16 -15h-133c-11 0 -16 5 -16 15v709c0 10 5 15 16 15h133c11 0 16 -5 16 -15v-292h70zM313 -213
l29 148c3 9 10 15 21 15h90c15 0 21 -12 16 -24l-59 -144c-3 -8 -10 -12 -20 -12h-61c-9 0 -19 6 -16 17z" />
    <glyph glyph-name="kcommaaccent" unicode="&#x137;" horiz-adv-x="590" 
d="M209 0h-121c-11 0 -16 5 -16 15v696c0 13 5 20 16 22l118 19c11 3 19 -5 19 -17v-422h41l136 203c3 6 9 9 18 9h138c11 0 12 -10 8 -15l-173 -239l183 -257c4 -5 -1 -14 -8 -14h-157c-6 0 -10 2 -13 7l-132 205h-41v-197c0 -10 -5 -15 -16 -15zM218 -213l29 148
c3 9 10 15 21 15h90c15 0 21 -12 16 -24l-59 -144c-3 -8 -10 -12 -20 -12h-61c-9 0 -19 6 -16 17z" />
    <glyph glyph-name="kgreenlandic" unicode="&#x138;" horiz-adv-x="608" 
d="M209 0h-121c-11 0 -16 5 -16 15v495c0 10 5 15 16 15h121c11 0 16 -5 16 -15v-197h51l136 203c3 6 9 9 18 9h138c11 0 12 -10 8 -15l-173 -239l183 -257c4 -5 -1 -14 -8 -14h-157c-6 0 -10 2 -13 7l-132 205h-51v-197c0 -10 -5 -15 -16 -15z" />
    <glyph glyph-name="Lacute" unicode="&#x139;" horiz-adv-x="616" 
d="M588 0h-474c-11 0 -16 5 -16 15v705c0 9 5 14 15 15l134 17c11 1 16 -6 16 -14v-617h325c11 0 16 -5 16 -15v-91c0 -10 -5 -15 -16 -15zM278 998l47 -63c4 -5 3 -10 -2 -14l-161 -106c-7 -5 -12 -4 -17 3l-43 57c-4 5 -3 10 2 15l158 110c6 4 11 3 16 -2z" />
    <glyph glyph-name="lacute" unicode="&#x13a;" horiz-adv-x="352" 
d="M314 95l13 -73c0 -11 -7 -15 -10 -16c-9 -4 -37 -15 -96 -15c-103 0 -149 57 -149 141v580c0 13 3 18 16 21l116 19c15 2 22 -4 22 -17v-589c0 -35 20 -45 39 -45c16 0 24 1 39 4c5 1 9 -3 10 -10zM250 996l47 -63c4 -5 3 -10 -2 -14l-161 -106c-7 -5 -12 -4 -17 3
l-43 57c-4 5 -3 10 2 15l158 110c6 4 11 3 16 -2z" />
    <glyph glyph-name="Lcommaaccent" unicode="&#x13b;" horiz-adv-x="616" 
d="M588 0h-474c-11 0 -16 5 -16 15v705c0 9 5 14 15 15l134 17c11 1 16 -6 16 -14v-617h325c11 0 16 -5 16 -15v-91c0 -10 -5 -15 -16 -15zM284 -213l29 148c3 9 10 15 21 15h90c15 0 21 -12 16 -24l-59 -144c-3 -8 -10 -12 -20 -12h-61c-9 0 -19 6 -16 17z" />
    <glyph glyph-name="lcommaaccent" unicode="&#x13c;" horiz-adv-x="352" 
d="M314 95l13 -73c0 -11 -7 -15 -10 -16c-9 -4 -37 -15 -96 -15c-103 0 -149 57 -149 141v580c0 13 3 18 16 21l116 19c15 2 22 -4 22 -17v-589c0 -35 20 -45 39 -45c16 0 24 1 39 4c5 1 9 -3 10 -10zM130 -213l29 148c3 9 10 15 21 15h90c15 0 21 -12 16 -24l-59 -144
c-3 -8 -10 -12 -20 -12h-61c-9 0 -19 6 -16 17z" />
    <glyph glyph-name="Lcaron" unicode="&#x13d;" horiz-adv-x="616" 
d="M588 0h-474c-11 0 -16 5 -16 15v705c0 9 5 14 15 15l134 17c11 1 16 -6 16 -14v-617h325c11 0 16 -5 16 -15v-91c0 -10 -5 -15 -16 -15zM425 589l29 148c3 9 10 15 21 15h90c15 0 21 -12 16 -24l-59 -144c-3 -8 -10 -12 -20 -12h-61c-9 0 -19 6 -16 17z" />
    <glyph glyph-name="lcaron" unicode="&#x13e;" horiz-adv-x="418" 
d="M314 95l13 -73c0 -11 -7 -15 -10 -16c-9 -4 -37 -15 -96 -15c-103 0 -149 57 -149 141v580c0 13 3 18 16 21l116 19c15 2 22 -4 22 -17v-589c0 -35 20 -45 39 -45c16 0 24 1 39 4c5 1 9 -3 10 -10zM284 583l29 148c3 9 10 15 21 15h90c15 0 21 -12 16 -24l-59 -144
c-3 -8 -10 -12 -20 -12h-61c-9 0 -19 6 -16 17z" />
    <glyph glyph-name="Ldot" unicode="&#x13f;" horiz-adv-x="614" 
d="M588 0h-474c-11 0 -16 5 -16 15v705c0 9 5 14 15 15l134 17c11 1 16 -6 16 -14v-617h325c11 0 16 -5 16 -15v-91c0 -10 -5 -15 -16 -15zM544 464v-105c0 -12 -7 -20 -18 -20h-111c-13 0 -19 7 -19 20v105c0 13 6 20 19 20h111c11 0 18 -8 18 -20z" />
    <glyph glyph-name="ldot" unicode="&#x140;" horiz-adv-x="441" 
d="M314 95l13 -73c0 -11 -7 -15 -10 -16c-9 -4 -37 -15 -96 -15c-103 0 -149 57 -149 141v580c0 13 3 18 16 21l116 19c15 2 22 -4 22 -17v-589c0 -35 20 -45 39 -45c16 0 24 1 39 4c5 1 9 -3 10 -10zM441 464v-105c0 -12 -7 -20 -18 -20h-111c-13 0 -19 7 -19 20v105
c0 13 6 20 19 20h111c11 0 18 -8 18 -20z" />
    <glyph glyph-name="Lslash" unicode="&#x141;" horiz-adv-x="614" 
d="M588 0h-474c-11 0 -16 5 -16 15v299l-74 -22c-15 -4 -17 0 -20 8l-20 66c-3 11 1 18 10 21l104 31v303c0 8 5 13 15 14l134 17c11 1 16 -7 16 -14v-270l185 56c7 3 17 2 20 -7l22 -71c3 -9 -4 -14 -12 -17l-215 -65v-243h325c11 0 16 -5 16 -15v-91c0 -10 -5 -15 -16 -15
z" />
    <glyph glyph-name="lslash" unicode="&#x142;" horiz-adv-x="458" 
d="M278 -9c-103 0 -149 57 -149 141v180l-74 -23c-7 -3 -17 -2 -20 7l-20 67c-3 8 -2 15 10 18l104 31v300c0 13 3 18 16 21l116 19c15 2 22 -4 22 -17v-276l108 33c11 3 16 0 19 -7l22 -68c3 -7 -4 -14 -11 -17l-138 -41v-213c0 -35 20 -45 39 -45c16 0 25 2 32 3
c3 1 6 1 7 1c8 0 9 -3 10 -10l13 -73c3 -9 -7 -15 -10 -16c-9 -4 -37 -15 -96 -15z" />
    <glyph glyph-name="Nacute" unicode="&#x143;" horiz-adv-x="858" 
d="M114 739h204c16 0 21 -5 28 -20l233 -526h37l-16 531c0 10 5 15 15 15h130c10 0 15 -5 15 -15v-709c0 -7 -4 -15 -16 -15h-204c-16 0 -21 5 -28 20l-233 526h-37l16 -531c0 -10 -5 -15 -15 -15h-130c-10 0 -15 5 -15 15v709c0 7 4 15 16 15zM539 998l47 -63
c4 -5 3 -10 -2 -14l-161 -106c-7 -5 -12 -4 -17 3l-43 57c-4 5 -3 10 2 15l158 110c6 4 11 3 16 -2z" />
    <glyph glyph-name="nacute" unicode="&#x144;" horiz-adv-x="616" 
d="M550 383v-368c0 -10 -5 -15 -16 -15h-122c-11 0 -17 5 -17 15v347c0 56 -21 73 -68 73c-42 0 -90 -10 -101 -13v-407c0 -10 -5 -15 -16 -15h-122c-11 0 -16 5 -16 15v436c0 39 24 49 83 64c51 12 128 23 192 23c127 0 203 -30 203 -155zM395 780l47 -63
c3 -3 3 -11 -2 -14l-161 -106c-7 -4 -12 -3 -17 3l-43 58c-4 6 -3 11 2 14l157 111c3 3 10 4 17 -3z" />
    <glyph glyph-name="Ncommaaccent" unicode="&#x145;" horiz-adv-x="858" 
d="M114 739h204c16 0 21 -5 28 -20l233 -526h37l-16 531c0 10 5 15 15 15h130c10 0 15 -5 15 -15v-709c0 -7 -4 -15 -16 -15h-204c-16 0 -21 5 -28 20l-233 526h-37l16 -531c0 -10 -5 -15 -15 -15h-130c-10 0 -15 5 -15 15v709c0 7 4 15 16 15zM364 -213l29 148
c3 9 10 15 21 15h90c15 0 21 -12 16 -24l-59 -144c-3 -8 -10 -12 -20 -12h-61c-9 0 -19 6 -16 17z" />
    <glyph glyph-name="ncommaaccent" unicode="&#x146;" horiz-adv-x="616" 
d="M550 383v-368c0 -10 -5 -15 -16 -15h-122c-11 0 -17 5 -17 15v347c0 56 -21 73 -68 73c-42 0 -90 -10 -101 -13v-407c0 -10 -5 -15 -16 -15h-122c-11 0 -16 5 -16 15v436c0 39 24 49 83 64c51 12 128 23 192 23c127 0 203 -30 203 -155zM227 -213l29 148c3 9 10 15 21 15
h90c15 0 21 -12 16 -24l-59 -144c-3 -8 -10 -12 -20 -12h-61c-9 0 -19 6 -16 17z" />
    <glyph glyph-name="Ncaron" unicode="&#x147;" horiz-adv-x="858" 
d="M114 739h204c16 0 21 -5 28 -20l233 -526h37l-16 531c0 10 5 15 15 15h130c10 0 15 -5 15 -15v-709c0 -7 -4 -15 -16 -15h-204c-16 0 -21 5 -28 20l-233 526h-37l16 -531c0 -10 -5 -15 -15 -15h-130c-10 0 -15 5 -15 15v709c0 7 4 15 16 15zM437 812l-149 103
c-3 2 -5 5 -5 8c0 2 1 5 3 8l43 56c3 3 6 5 9 5c4 0 5 0 8 -3l109 -84l109 84c3 2 5 3 8 3s6 -2 9 -5l43 -56c2 -3 3 -6 3 -8c0 -3 -2 -6 -5 -8l-149 -103h-36z" />
    <glyph glyph-name="ncaron" unicode="&#x148;" horiz-adv-x="616" 
d="M550 383v-368c0 -10 -5 -15 -16 -15h-122c-11 0 -17 5 -17 15v347c0 56 -21 73 -68 73c-42 0 -90 -10 -101 -13v-407c0 -10 -5 -15 -16 -15h-122c-11 0 -16 5 -16 15v436c0 39 24 49 83 64c51 12 128 23 192 23c127 0 203 -30 203 -155zM300 595l-149 103c-3 2 -5 5 -5 8
c0 2 1 5 3 8l43 56c3 3 6 5 9 5c4 0 5 0 8 -3l109 -84l109 84c3 2 5 3 8 3s6 -2 9 -5l43 -56c2 -3 3 -6 3 -8c0 -3 -2 -6 -5 -8l-149 -103h-36z" />
    <glyph glyph-name="napostrophe" unicode="&#x149;" horiz-adv-x="894" 
d="M50 504l32 217c1 11 10 18 21 18h108c11 0 18 -7 18 -18c0 -3 0 -6 -1 -9l-66 -214c-3 -11 -12 -15 -20 -15h-76c-8 0 -19 9 -16 21zM828 383v-368c0 -10 -5 -15 -16 -15h-122c-11 0 -17 5 -17 15v347c0 56 -21 73 -68 73c-42 0 -90 -10 -101 -13v-407
c0 -10 -5 -15 -16 -15h-122c-11 0 -16 5 -16 15v436c0 39 24 49 83 64c51 12 128 23 192 23c127 0 203 -30 203 -155z" />
    <glyph glyph-name="Eng" unicode="&#x14a;" horiz-adv-x="858" 
d="M114 739h204c16 0 21 -5 28 -20l233 -526h37l-16 531c0 10 5 15 15 15h130c10 0 15 -5 15 -15v-717c0 -156 -79 -211 -252 -211h-46c-15 0 -24 5 -24 22v75c0 15 4 22 21 23l63 3c63 3 87 14 87 70v11h-69c-16 0 -21 5 -28 20l-233 526h-37l16 -531c0 -10 -5 -15 -15 -15
h-130c-10 0 -15 5 -15 15v709c0 7 4 15 16 15z" />
    <glyph glyph-name="eng" unicode="&#x14b;" horiz-adv-x="616" 
d="M550 383v-408c0 -145 -86 -179 -195 -179c-43 0 -68 3 -73 4c-11 3 -20 4 -20 21l1 58c0 13 7 19 21 20l31 1c49 3 80 7 80 78v384c0 56 -21 73 -68 73c-42 0 -90 -10 -101 -13v-407c0 -10 -5 -15 -16 -15h-122c-11 0 -16 5 -16 15v436c0 39 24 49 83 64
c51 12 128 23 192 23c127 0 203 -30 203 -155z" />
    <glyph glyph-name="Omacron" unicode="&#x14c;" horiz-adv-x="841" 
d="M778 369c0 -232 -63 -382 -358 -382c-293 0 -357 150 -357 382c0 233 64 383 357 383c295 0 358 -150 358 -383zM608 370c0 180 -21 267 -188 267c-168 0 -187 -87 -187 -267s19 -267 187 -267c167 0 188 87 188 267zM420 932c59 0 109 -10 144 -21c9 -3 15 -5 15 -14
c0 -3 0 -6 -1 -9l-9 -53c-3 -11 -6 -12 -13 -12c-2 0 -5 0 -8 1c-39 7 -81 18 -128 18s-89 -11 -128 -18c-3 -1 -6 -1 -8 -1c-7 0 -10 1 -13 12l-9 53c-1 3 -1 6 -1 9c0 9 6 11 15 14c35 11 85 21 144 21z" />
    <glyph glyph-name="omacron" unicode="&#x14d;" horiz-adv-x="600" 
d="M554 262c0 -154 -29 -275 -254 -275c-226 0 -254 121 -254 275c0 155 28 276 254 276c225 0 254 -121 254 -276zM397 262c0 117 -5 172 -97 172c-93 0 -97 -55 -97 -172c0 -116 4 -171 97 -171c92 0 97 55 97 171zM296 714c59 0 109 -10 144 -21c9 -3 15 -5 15 -14
c0 -3 0 -6 -1 -9l-9 -53c-3 -11 -6 -12 -13 -12c-2 0 -5 0 -8 1c-39 7 -81 18 -128 18s-89 -11 -128 -18c-3 -1 -6 -1 -8 -1c-7 0 -10 1 -13 12l-9 53c-1 3 -1 6 -1 9c0 9 6 11 15 14c35 11 85 21 144 21z" />
    <glyph glyph-name="Obreve" unicode="&#x14e;" horiz-adv-x="841" 
d="M778 369c0 -232 -63 -382 -358 -382c-293 0 -357 150 -357 382c0 233 64 383 357 383c295 0 358 -150 358 -383zM608 370c0 180 -21 267 -188 267c-168 0 -187 -87 -187 -267s19 -267 187 -267c167 0 188 87 188 267zM604 954c0 -108 -69 -141 -184 -141
s-183 33 -183 141c0 9 0 19 15 19h55c15 0 16 -10 16 -19c1 -51 20 -73 97 -73s98 21 98 73c0 9 1 19 16 19h55c15 0 15 -10 15 -19z" />
    <glyph glyph-name="obreve" unicode="&#x14f;" horiz-adv-x="600" 
d="M554 262c0 -154 -29 -275 -254 -275c-226 0 -254 121 -254 275c0 155 28 276 254 276c225 0 254 -121 254 -276zM397 262c0 117 -5 172 -97 172c-93 0 -97 -55 -97 -172c0 -116 4 -171 97 -171c92 0 97 55 97 171zM484 736c0 -108 -69 -141 -184 -141s-183 33 -183 141
c0 9 0 19 15 19h55c15 0 16 -10 16 -19c1 -51 20 -73 97 -73s98 21 98 73c0 9 1 19 16 19h55c15 0 15 -10 15 -19z" />
    <glyph glyph-name="Ohungarumlaut" unicode="&#x150;" horiz-adv-x="841" 
d="M778 369c0 -232 -63 -382 -358 -382c-293 0 -357 150 -357 382c0 233 64 383 357 383c295 0 358 -150 358 -383zM608 370c0 180 -21 267 -188 267c-168 0 -187 -87 -187 -267s19 -267 187 -267c167 0 188 87 188 267zM636 990l40 -55c5 -6 4 -11 -2 -15l-161 -106
c-4 -3 -12 -4 -16 3l-36 51c-5 5 -4 10 2 14l157 111c4 3 12 4 16 -3zM426 990l40 -55c5 -6 4 -11 -2 -15l-161 -106c-4 -3 -12 -4 -16 3l-36 51c-5 5 -4 10 2 14l157 111c4 3 12 4 16 -3z" />
    <glyph glyph-name="ohungarumlaut" unicode="&#x151;" horiz-adv-x="600" 
d="M554 262c0 -154 -29 -275 -254 -275c-226 0 -254 121 -254 275c0 155 28 276 254 276c225 0 254 -121 254 -276zM397 262c0 117 -5 172 -97 172c-93 0 -97 -55 -97 -172c0 -116 4 -171 97 -171c92 0 97 55 97 171zM492 773l40 -55c5 -6 4 -11 -2 -15l-161 -106
c-4 -3 -12 -4 -16 3l-36 51c-5 5 -4 10 2 14l157 111c4 3 12 4 16 -3zM283 773l40 -55c5 -6 4 -11 -2 -15l-161 -106c-4 -3 -12 -4 -16 3l-36 51c-5 5 -4 10 2 14l157 111c4 3 12 4 16 -3z" />
    <glyph glyph-name="OE" unicode="&#x152;" horiz-adv-x="1129" 
d="M375 -13c-283 0 -312 192 -312 383c0 189 29 382 312 382c71 0 146 -22 189 -66v37c0 11 6 16 18 16h460c11 0 17 -5 17 -15v-91c0 -10 -6 -15 -17 -15h-336v-179h315c10 0 15 -5 15 -14v-92c0 -10 -5 -15 -15 -15h-315v-197h337c11 0 16 -5 16 -16v-90
c0 -10 -5 -15 -16 -15h-461c-11 0 -17 6 -17 17v36c-42 -45 -121 -66 -190 -66zM386 99c136 0 157 87 157 270c0 184 -21 271 -157 271s-154 -87 -154 -271c0 -183 18 -270 154 -270z" />
    <glyph glyph-name="oe" unicode="&#x153;" horiz-adv-x="934" 
d="M397 262c0 116 -5 172 -97 172c-93 0 -97 -56 -97 -172c0 -115 4 -171 97 -171c92 0 97 56 97 171zM734 288v7c0 28 -1 53 -6 76c-12 48 -38 65 -89 65c-63 0 -86 -20 -95 -64c-5 -24 -5 -53 -6 -84h196zM481 48h-13c-10 -15 -56 -61 -168 -61c-226 0 -254 122 -254 275
s28 276 254 276c116 0 148 -47 159 -60h13c10 15 52 60 168 60c100 0 163 -23 200 -70c35 -43 48 -105 48 -188v-57c0 -13 -4 -26 -24 -26h-323c0 -43 14 -66 45 -85c25 -15 60 -22 106 -22c61 0 109 16 136 23c11 3 18 -1 21 -12l13 -57c3 -11 1 -19 -10 -24
c-32 -13 -101 -33 -186 -33c-124 0 -174 44 -185 61z" />
    <glyph glyph-name="Racute" unicode="&#x154;" horiz-adv-x="806" 
d="M247 0h-133c-11 0 -16 5 -16 15v709c0 10 5 15 16 15h352c164 0 254 -61 254 -201c0 -103 -41 -167 -157 -183v-27c116 -13 159 -47 164 -168l7 -146c0 -9 -5 -14 -15 -14h-142c-10 0 -15 5 -15 14l-6 134c-5 92 -55 114 -148 117l-145 4v-254c0 -10 -5 -15 -16 -15z
M263 377l149 6c82 3 140 26 140 119c0 84 -29 123 -117 123h-172v-248zM472 998l47 -63c4 -5 3 -10 -2 -14l-161 -106c-7 -5 -12 -4 -17 3l-43 57c-4 5 -3 10 2 15l158 110c6 4 11 3 16 -2z" />
    <glyph glyph-name="racute" unicode="&#x155;" horiz-adv-x="391" 
d="M72 15v437c0 29 14 40 45 52c57 22 150 30 218 33h9c11 0 13 -1 20 -5c3 -3 7 -7 7 -16v-73c0 -11 -1 -20 -18 -20c-59 0 -110 -7 -127 -11v-397c0 -10 -5 -15 -16 -15h-122c-11 0 -16 5 -16 15zM298 780l47 -63c3 -3 3 -11 -2 -14l-161 -106c-7 -4 -12 -3 -17 3l-43 58
c-4 6 -3 11 2 14l157 111c3 3 10 4 17 -3z" />
    <glyph glyph-name="Rcommaaccent" unicode="&#x156;" horiz-adv-x="806" 
d="M247 0h-133c-11 0 -16 5 -16 15v709c0 10 5 15 16 15h352c164 0 254 -61 254 -201c0 -103 -41 -167 -157 -183v-27c116 -13 159 -47 164 -168l7 -146c0 -9 -5 -14 -15 -14h-142c-10 0 -15 5 -15 14l-6 134c-5 92 -55 114 -148 117l-145 4v-254c0 -10 -5 -15 -16 -15z
M263 377l149 6c82 3 140 26 140 119c0 84 -29 123 -117 123h-172v-248zM336 -213l29 148c3 9 10 15 21 15h90c15 0 21 -12 16 -24l-59 -144c-3 -8 -10 -12 -20 -12h-61c-9 0 -19 6 -16 17z" />
    <glyph glyph-name="rcommaaccent" unicode="&#x157;" horiz-adv-x="391" 
d="M72 15v437c0 29 14 40 45 52c57 22 150 30 218 33h9c11 0 13 -1 20 -5c3 -3 7 -7 7 -16v-73c0 -11 -1 -20 -18 -20c-59 0 -110 -7 -127 -11v-397c0 -10 -5 -15 -16 -15h-122c-11 0 -16 5 -16 15zM54 -213l29 148c3 9 10 15 21 15h90c15 0 21 -12 16 -24l-59 -144
c-3 -8 -10 -12 -20 -12h-61c-9 0 -19 6 -16 17z" />
    <glyph glyph-name="Rcaron" unicode="&#x158;" horiz-adv-x="806" 
d="M247 0h-133c-11 0 -16 5 -16 15v709c0 10 5 15 16 15h352c164 0 254 -61 254 -201c0 -103 -41 -167 -157 -183v-27c116 -13 159 -47 164 -168l7 -146c0 -9 -5 -14 -15 -14h-142c-10 0 -15 5 -15 14l-6 134c-5 92 -55 114 -148 117l-145 4v-254c0 -10 -5 -15 -16 -15z
M263 377l149 6c82 3 140 26 140 119c0 84 -29 123 -117 123h-172v-248zM372 812l-149 103c-3 2 -5 5 -5 8c0 2 1 5 3 8l43 56c3 3 6 5 9 5c4 0 5 0 8 -3l109 -84l109 84c3 2 5 3 8 3s6 -2 9 -5l43 -56c2 -3 3 -6 3 -8c0 -3 -2 -6 -5 -8l-149 -103h-36z" />
    <glyph glyph-name="rcaron" unicode="&#x159;" horiz-adv-x="391" 
d="M72 15v437c0 29 14 40 45 52c57 22 150 30 218 33h9c11 0 13 -1 20 -5c3 -3 7 -7 7 -16v-73c0 -11 -1 -20 -18 -20c-59 0 -110 -7 -127 -11v-397c0 -10 -5 -15 -16 -15h-122c-11 0 -16 5 -16 15zM198 595l-149 103c-3 2 -5 5 -5 8c0 2 1 5 3 8l43 56c3 3 6 5 9 5
c4 0 5 0 8 -3l109 -84l109 84c3 2 5 3 8 3s6 -2 9 -5l43 -56c2 -3 3 -6 3 -8c0 -3 -2 -6 -5 -8l-149 -103h-36z" />
    <glyph glyph-name="Sacute" unicode="&#x15a;" horiz-adv-x="705" 
d="M643 216c0 -174 -141 -227 -292 -227c-134 0 -242 31 -259 37c-11 4 -20 13 -17 24l14 77c3 15 13 18 26 15l30 -8c42 -10 117 -26 185 -26c80 0 143 21 143 97c0 77 -66 84 -162 100c-104 16 -243 46 -243 219c0 178 127 226 287 226c116 0 218 -26 239 -34
c13 -4 23 -12 20 -23l-15 -80c-2 -9 -7 -13 -16 -13c-2 0 -5 0 -8 1c-59 12 -122 30 -203 30c-69 0 -139 -13 -139 -90c0 -75 78 -82 164 -98l16 -3c112 -21 230 -45 230 -224zM443 998l47 -63c4 -5 3 -10 -2 -14l-161 -106c-7 -5 -12 -4 -17 3l-43 57c-4 5 -3 10 2 15
l158 110c6 4 11 3 16 -2z" />
    <glyph glyph-name="sacute" unicode="&#x15b;" horiz-adv-x="508" 
d="M464 160c0 -131 -96 -172 -218 -172c-88 0 -166 21 -185 29c-7 3 -14 8 -11 16l12 69c2 8 6 12 12 12c1 0 4 0 7 -1c14 -3 82 -23 145 -23c45 0 84 14 84 57c0 48 -31 54 -83 62c-66 11 -171 24 -171 164c0 147 129 165 217 165c80 0 143 -16 163 -23c9 -2 12 -7 11 -16
l-12 -68c-1 -7 -5 -10 -13 -10c-2 0 -5 0 -8 1c-9 2 -67 14 -118 14c-39 0 -86 -8 -86 -52c0 -52 48 -55 99 -63c76 -14 155 -32 155 -161zM345 780l47 -63c3 -3 3 -11 -2 -14l-161 -106c-7 -4 -12 -3 -17 3l-43 58c-4 6 -3 11 2 14l157 111c3 3 10 4 17 -3z" />
    <glyph glyph-name="Scircumflex" unicode="&#x15c;" horiz-adv-x="705" 
d="M643 216c0 -174 -141 -227 -292 -227c-134 0 -242 31 -259 37c-11 4 -20 13 -17 24l14 77c3 15 13 18 26 15l30 -8c42 -10 117 -26 185 -26c80 0 143 21 143 97c0 77 -66 84 -162 100c-104 16 -243 46 -243 219c0 178 127 226 287 226c116 0 218 -26 239 -34
c13 -4 23 -12 20 -23l-15 -80c-2 -9 -7 -13 -16 -13c-2 0 -5 0 -8 1c-59 12 -122 30 -203 30c-69 0 -139 -13 -139 -90c0 -75 78 -82 164 -98l16 -3c112 -21 230 -45 230 -224zM370 993l149 -103c3 -2 5 -5 5 -8s-1 -5 -3 -8l-43 -56c-3 -3 -6 -5 -9 -5s-5 1 -8 3l-109 84
l-109 -84c-3 -3 -4 -3 -8 -3c-3 0 -6 2 -9 5l-43 56c-2 3 -3 5 -3 8s2 6 5 8l149 103h36z" />
    <glyph glyph-name="scircumflex" unicode="&#x15d;" horiz-adv-x="508" 
d="M464 160c0 -131 -96 -172 -218 -172c-88 0 -166 21 -185 29c-7 3 -14 8 -11 16l12 69c2 8 6 12 12 12c1 0 4 0 7 -1c14 -3 82 -23 145 -23c45 0 84 14 84 57c0 48 -31 54 -83 62c-66 11 -171 24 -171 164c0 147 129 165 217 165c80 0 143 -16 163 -23c9 -2 12 -7 11 -16
l-12 -68c-1 -7 -5 -10 -13 -10c-2 0 -5 0 -8 1c-9 2 -67 14 -118 14c-39 0 -86 -8 -86 -52c0 -52 48 -55 99 -63c76 -14 155 -32 155 -161zM292 775l149 -103c3 -2 5 -5 5 -8s-1 -5 -3 -8l-43 -56c-3 -3 -6 -5 -9 -5s-5 1 -8 3l-109 84l-109 -84c-3 -3 -4 -3 -8 -3
c-3 0 -6 2 -9 5l-43 56c-2 3 -3 5 -3 8s2 6 5 8l149 103h36z" />
    <glyph glyph-name="Scedilla" unicode="&#x15e;" horiz-adv-x="705" 
d="M643 216c0 -174 -141 -227 -292 -227c-134 0 -242 31 -259 37c-11 4 -20 13 -17 24l14 77c3 15 13 18 26 15l30 -8c42 -10 117 -26 185 -26c80 0 143 21 143 97c0 77 -66 84 -162 100c-104 16 -243 46 -243 219c0 178 127 226 287 226c116 0 218 -26 239 -34
c13 -4 23 -12 20 -23l-15 -80c-2 -9 -7 -13 -16 -13c-2 0 -5 0 -8 1c-59 12 -122 30 -203 30c-69 0 -139 -13 -139 -90c0 -75 78 -82 164 -98l16 -3c112 -21 230 -45 230 -224zM345 -31c64 0 110 -23 110 -87s-47 -87 -111 -87c-56 0 -81 7 -88 10c-5 3 -7 4 -7 13v32
c0 6 3 8 10 7s30 -8 61 -8s47 6 47 33s-17 33 -44 33c-16 0 -37 -2 -44 -3s-11 1 -11 8v31c0 7 3 11 10 12c9 3 28 6 67 6z" />
    <glyph glyph-name="scedilla" unicode="&#x15f;" horiz-adv-x="508" 
d="M464 160c0 -131 -96 -172 -218 -172c-88 0 -166 21 -185 29c-7 3 -14 8 -11 16l12 69c2 8 6 12 12 12c1 0 4 0 7 -1c14 -3 82 -23 145 -23c45 0 84 14 84 57c0 48 -31 54 -83 62c-66 11 -171 24 -171 164c0 147 129 165 217 165c80 0 143 -16 163 -23c9 -2 12 -7 11 -16
l-12 -68c-1 -7 -5 -10 -13 -10c-2 0 -5 0 -8 1c-9 2 -67 14 -118 14c-39 0 -86 -8 -86 -52c0 -52 48 -55 99 -63c76 -14 155 -32 155 -161zM265 -31c64 0 110 -23 110 -87s-47 -87 -111 -87c-56 0 -81 7 -88 10c-5 3 -7 4 -7 13v32c0 6 3 8 10 7s30 -8 61 -8s47 6 47 33
s-17 33 -44 33c-16 0 -37 -2 -44 -3s-11 1 -11 8v31c0 7 3 11 10 12c9 3 28 6 67 6z" />
    <glyph glyph-name="Scaron" unicode="&#x160;" horiz-adv-x="705" 
d="M643 216c0 -174 -141 -227 -292 -227c-134 0 -242 31 -259 37c-11 4 -20 13 -17 24l14 77c3 15 13 18 26 15l30 -8c42 -10 117 -26 185 -26c80 0 143 21 143 97c0 77 -66 84 -162 100c-104 16 -243 46 -243 219c0 178 127 226 287 226c116 0 218 -26 239 -34
c13 -4 23 -12 20 -23l-15 -80c-2 -9 -7 -13 -16 -13c-2 0 -5 0 -8 1c-59 12 -122 30 -203 30c-69 0 -139 -13 -139 -90c0 -75 78 -82 164 -98l16 -3c112 -21 230 -45 230 -224zM350 812l-149 103c-3 2 -5 5 -5 8c0 2 1 5 3 8l43 56c3 3 6 5 9 5c4 0 5 0 8 -3l109 -84l109 84
c3 2 5 3 8 3s6 -2 9 -5l43 -56c2 -3 3 -6 3 -8c0 -3 -2 -6 -5 -8l-149 -103h-36z" />
    <glyph glyph-name="scaron" unicode="&#x161;" horiz-adv-x="508" 
d="M464 160c0 -131 -96 -172 -218 -172c-88 0 -166 21 -185 29c-7 3 -14 8 -11 16l12 69c2 8 6 12 12 12c1 0 4 0 7 -1c14 -3 82 -23 145 -23c45 0 84 14 84 57c0 48 -31 54 -83 62c-66 11 -171 24 -171 164c0 147 129 165 217 165c80 0 143 -16 163 -23c9 -2 12 -7 11 -16
l-12 -68c-1 -7 -5 -10 -13 -10c-2 0 -5 0 -8 1c-9 2 -67 14 -118 14c-39 0 -86 -8 -86 -52c0 -52 48 -55 99 -63c76 -14 155 -32 155 -161zM243 595l-149 103c-3 2 -5 5 -5 8c0 2 1 5 3 8l43 56c3 3 6 5 9 5c4 0 5 0 8 -3l109 -84l109 84c3 2 5 3 8 3s6 -2 9 -5l43 -56
c2 -3 3 -6 3 -8c0 -3 -2 -6 -5 -8l-149 -103h-36z" />
    <glyph glyph-name="Tcommaaccent" unicode="&#x162;" horiz-adv-x="673" 
d="M661 724v-90c0 -11 -5 -16 -16 -16h-226v-603c0 -10 -5 -15 -16 -15h-133c-11 0 -16 5 -16 15v603h-226c-11 0 -16 5 -16 15v91c0 8 7 15 16 15h617c9 0 16 -7 16 -15zM331 -31c64 0 110 -23 110 -87s-47 -87 -111 -87c-56 0 -81 7 -88 10c-5 3 -7 4 -7 13v32
c0 6 3 8 10 7s30 -8 61 -8s47 6 47 33s-17 33 -44 33c-16 0 -37 -2 -44 -3s-11 1 -11 8v31c0 7 3 11 10 12c9 3 28 6 67 6z" />
    <glyph glyph-name="tcommaaccent" unicode="&#x163;" horiz-adv-x="423" 
d="M377 98l13 -70c2 -9 -2 -15 -13 -18c-15 -5 -58 -18 -126 -18c-119 0 -179 44 -179 163v503c0 13 6 21 18 24l114 20c15 2 22 -4 22 -17v-160h133c11 0 16 -5 16 -15v-80c0 -10 -5 -15 -16 -15h-133v-253c0 -39 13 -61 64 -61c27 0 55 4 71 8c9 3 15 -4 16 -11zM220 -31
c64 0 110 -23 110 -87s-47 -87 -111 -87c-56 0 -81 7 -88 10c-5 3 -7 4 -7 13v32c0 6 3 8 10 7s30 -8 61 -8s47 6 47 33s-17 33 -44 33c-16 0 -37 -2 -44 -3s-11 1 -11 8v31c0 7 3 11 10 12c9 3 28 6 67 6z" />
    <glyph glyph-name="Tcaron" unicode="&#x164;" horiz-adv-x="673" 
d="M661 724v-90c0 -11 -5 -16 -16 -16h-226v-603c0 -10 -5 -15 -16 -15h-133c-11 0 -16 5 -16 15v603h-226c-11 0 -16 5 -16 15v91c0 8 7 15 16 15h617c9 0 16 -7 16 -15zM318 812l-149 103c-3 2 -5 5 -5 8c0 2 1 5 3 8l43 56c3 3 6 5 9 5c4 0 5 0 8 -3l109 -84l109 84
c3 2 5 3 8 3s6 -2 9 -5l43 -56c2 -3 3 -6 3 -8c0 -3 -2 -6 -5 -8l-149 -103h-36z" />
    <glyph glyph-name="tcaron" unicode="&#x165;" horiz-adv-x="430" 
d="M377 98l13 -70c2 -9 -2 -15 -13 -18c-15 -5 -58 -18 -126 -18c-119 0 -179 44 -179 163v503c0 13 6 21 18 24l114 20c15 2 22 -4 22 -17v-160h133c11 0 16 -5 16 -15v-80c0 -10 -5 -15 -16 -15h-133v-253c0 -39 13 -61 64 -61c27 0 55 4 71 8c9 3 15 -4 16 -11zM296 583
l29 148c3 9 10 15 21 15h90c15 0 21 -12 16 -24l-59 -144c-3 -8 -10 -12 -20 -12h-61c-9 0 -19 6 -16 17z" />
    <glyph glyph-name="Tbar" unicode="&#x166;" horiz-adv-x="673" 
d="M661 724v-90c0 -11 -5 -16 -16 -16h-226v-202h81c13 0 22 -9 22 -20v-68c0 -12 -11 -19 -22 -19h-81v-294c0 -10 -5 -15 -16 -15h-133c-11 0 -16 5 -16 15v294h-81c-9 0 -22 6 -22 19v68c0 11 9 20 22 20h81v202h-226c-11 0 -16 5 -16 15v91c0 8 7 15 16 15h617
c9 0 16 -7 16 -15z" />
    <glyph glyph-name="tbar" unicode="&#x167;" horiz-adv-x="423" 
d="M377 98l13 -70c2 -9 -2 -15 -13 -18c-15 -5 -58 -18 -126 -18c-119 0 -179 44 -179 163v503c0 13 6 21 18 24l114 20c15 2 22 -4 22 -17v-160h133c11 0 16 -5 16 -15v-80c0 -10 -5 -15 -16 -15h-133v-110h133c11 0 16 -5 16 -15v-80c0 -10 -5 -15 -16 -15h-133v-33
c0 -39 13 -61 64 -61c27 0 55 4 71 8c9 3 15 -4 16 -11z" />
    <glyph glyph-name="Utilde" unicode="&#x168;" horiz-adv-x="819" 
d="M731 738v-482c0 -185 -102 -269 -322 -269c-208 0 -321 74 -321 267v466c0 8 5 13 15 14l135 18c11 1 15 -7 15 -14v-492c0 -91 29 -143 157 -143c116 0 155 46 155 137v480c0 8 5 13 16 14l134 18c11 1 16 -7 16 -14zM600 879c0 -3 -1 -5 -2 -7l-5 -4
c-21 -19 -69 -55 -114 -55c-25 0 -49 12 -70 24c-19 9 -40 24 -60 24c-23 0 -47 -20 -70 -39c-4 -3 -7 -4 -9 -4c-5 0 -9 2 -11 7l-27 53c-1 3 -2 5 -2 8s1 5 3 6l4 5c21 19 69 55 114 55c27 0 49 -12 70 -24c19 -9 41 -24 60 -24c23 0 49 20 70 39c3 3 6 4 9 4
c5 0 9 -2 11 -7l27 -53c1 -3 2 -5 2 -8z" />
    <glyph glyph-name="utilde" unicode="&#x169;" horiz-adv-x="611" 
d="M545 520v-343c0 -135 -74 -190 -239 -190c-156 0 -239 45 -239 189v319c0 14 6 22 18 24l114 19c15 2 22 -4 22 -18v-350c0 -53 18 -81 85 -81c73 0 85 35 85 81v325c0 14 6 22 18 24l111 18c3 1 6 1 8 1c11 0 17 -6 17 -18zM487 661c0 -3 -1 -5 -2 -7l-5 -4
c-21 -19 -69 -55 -114 -55c-25 0 -49 12 -70 24c-19 9 -40 24 -60 24c-23 0 -47 -20 -70 -39c-4 -3 -7 -4 -9 -4c-5 0 -9 2 -11 7l-27 53c-1 3 -2 5 -2 8s1 5 3 6l4 5c21 19 69 55 114 55c27 0 49 -12 70 -24l30 -15c11 -5 21 -8 30 -9c23 0 49 20 70 39c3 3 6 4 9 4
c5 0 9 -2 11 -7l27 -53c1 -3 2 -5 2 -8z" />
    <glyph glyph-name="Umacron" unicode="&#x16a;" horiz-adv-x="819" 
d="M731 738v-482c0 -185 -102 -269 -322 -269c-208 0 -321 74 -321 267v466c0 8 5 13 15 14l135 18c11 1 15 -7 15 -14v-492c0 -91 29 -143 157 -143c116 0 155 46 155 137v480c0 8 5 13 16 14l134 18c11 1 16 -7 16 -14zM407 932c59 0 109 -10 144 -21c9 -3 15 -5 15 -14
c0 -3 0 -6 -1 -9l-9 -53c-3 -11 -6 -12 -13 -12c-2 0 -5 0 -8 1c-39 7 -81 18 -128 18s-89 -11 -128 -18c-3 -1 -6 -1 -8 -1c-7 0 -10 1 -13 12l-9 53c-1 3 -1 6 -1 9c0 9 6 11 15 14c35 11 85 21 144 21z" />
    <glyph glyph-name="umacron" unicode="&#x16b;" horiz-adv-x="611" 
d="M545 520v-343c0 -135 -74 -190 -239 -190c-156 0 -239 45 -239 189v319c0 14 6 22 18 24l114 19c15 2 22 -4 22 -18v-350c0 -53 18 -81 85 -81c73 0 85 35 85 81v325c0 14 6 22 18 24l111 18c3 1 6 1 8 1c11 0 17 -6 17 -18zM306 714c59 0 109 -10 144 -21
c9 -3 15 -5 15 -14c0 -3 0 -6 -1 -9l-9 -53c-3 -11 -6 -12 -13 -12c-2 0 -5 0 -8 1c-39 7 -81 18 -128 18s-89 -11 -128 -18c-3 -1 -6 -1 -8 -1c-7 0 -10 1 -13 12l-9 53c-1 3 -1 6 -1 9c0 9 6 11 15 14c35 11 85 21 144 21z" />
    <glyph glyph-name="Ubreve" unicode="&#x16c;" horiz-adv-x="819" 
d="M731 738v-482c0 -185 -102 -269 -322 -269c-208 0 -321 74 -321 267v466c0 8 5 13 15 14l135 18c11 1 15 -7 15 -14v-492c0 -91 29 -143 157 -143c116 0 155 46 155 137v480c0 8 5 13 16 14l134 18c11 1 16 -7 16 -14zM591 954c0 -108 -69 -141 -184 -141
s-183 33 -183 141c0 9 0 19 15 19h55c15 0 16 -10 16 -19c1 -51 20 -73 97 -73s98 21 98 73c0 9 1 19 16 19h55c15 0 15 -10 15 -19z" />
    <glyph glyph-name="ubreve" unicode="&#x16d;" horiz-adv-x="611" 
d="M545 520v-343c0 -135 -74 -190 -239 -190c-156 0 -239 45 -239 189v319c0 14 6 22 18 24l114 19c15 2 22 -4 22 -18v-350c0 -53 18 -81 85 -81c73 0 85 35 85 81v325c0 14 6 22 18 24l111 18c3 1 6 1 8 1c11 0 17 -6 17 -18zM490 736c0 -108 -69 -141 -184 -141
s-183 33 -183 141c0 9 0 19 15 19h55c15 0 16 -10 16 -19c1 -51 20 -73 97 -73s98 21 98 73c0 9 1 19 16 19h55c15 0 15 -10 15 -19z" />
    <glyph glyph-name="Uring" unicode="&#x16e;" horiz-adv-x="819" 
d="M731 738v-482c0 -185 -102 -269 -322 -269c-208 0 -321 74 -321 267v466c0 8 5 13 15 14l135 18c11 1 15 -7 15 -14v-492c0 -91 29 -143 157 -143c116 0 155 46 155 137v480c0 8 5 13 16 14l134 18c11 1 16 -7 16 -14zM564 910c0 -87 -53 -117 -150 -117
c-99 0 -150 30 -150 117c0 88 51 118 150 118c97 0 150 -30 150 -118zM463 911c0 47 -9 67 -49 67s-49 -21 -49 -68s9 -67 49 -67s49 21 49 68z" />
    <glyph glyph-name="uring" unicode="&#x16f;" horiz-adv-x="611" 
d="M545 520v-343c0 -135 -74 -190 -239 -190c-156 0 -239 45 -239 189v319c0 14 6 22 18 24l114 19c15 2 22 -4 22 -18v-350c0 -53 18 -81 85 -81c73 0 85 35 85 81v325c0 14 6 22 18 24l111 18c3 1 6 1 8 1c11 0 17 -6 17 -18zM443 683c0 -80 -48 -108 -137 -108
s-137 28 -137 108s48 107 137 107s137 -27 137 -107zM351 683c0 43 -9 62 -45 62c-37 0 -45 -20 -45 -63s8 -61 45 -61c36 0 45 19 45 62z" />
    <glyph glyph-name="Uhungarumlaut" unicode="&#x170;" horiz-adv-x="819" 
d="M731 738v-482c0 -185 -102 -269 -322 -269c-208 0 -321 74 -321 267v466c0 8 5 13 15 14l135 18c11 1 15 -7 15 -14v-492c0 -91 29 -143 157 -143c116 0 155 46 155 137v480c0 8 5 13 16 14l134 18c11 1 16 -7 16 -14zM601 990l40 -55c5 -6 4 -11 -2 -15l-161 -106
c-4 -3 -12 -4 -16 3l-36 51c-5 5 -4 10 2 14l157 111c4 3 12 4 16 -3zM391 990l40 -55c5 -6 4 -11 -2 -15l-161 -106c-4 -3 -12 -4 -16 3l-36 51c-5 5 -4 10 2 14l157 111c4 3 12 4 16 -3z" />
    <glyph glyph-name="uhungarumlaut" unicode="&#x171;" horiz-adv-x="611" 
d="M545 520v-343c0 -135 -74 -190 -239 -190c-156 0 -239 45 -239 189v319c0 14 6 22 18 24l114 19c15 2 22 -4 22 -18v-350c0 -53 18 -81 85 -81c73 0 85 35 85 81v325c0 14 6 22 18 24l111 18c3 1 6 1 8 1c11 0 17 -6 17 -18zM525 773l40 -55c5 -6 4 -11 -2 -15l-161 -106
c-4 -3 -12 -4 -16 3l-36 51c-5 5 -4 10 2 14l157 111c4 3 12 4 16 -3zM316 773l40 -55c5 -6 4 -11 -2 -15l-161 -106c-4 -3 -12 -4 -16 3l-36 51c-5 5 -4 10 2 14l157 111c4 3 12 4 16 -3z" />
    <glyph glyph-name="Uogonek" unicode="&#x172;" horiz-adv-x="819" 
d="M545 -120c10 2 16 -1 17 -9l8 -48c1 -7 -2 -12 -9 -15c-13 -7 -43 -15 -94 -15c-75 0 -140 25 -140 102c0 41 19 70 47 93c-187 8 -286 85 -286 266v466c0 8 5 13 15 14l135 18c11 1 15 -7 15 -14v-492c0 -91 29 -143 157 -143c116 0 155 46 155 137v480c0 8 5 13 16 14
l134 18c11 1 16 -7 16 -14v-482c0 -171 -86 -254 -270 -267c-23 -21 -32 -45 -32 -69c0 -31 20 -47 59 -47c24 0 46 4 57 7z" />
    <glyph glyph-name="uogonek" unicode="&#x173;" horiz-adv-x="611" 
d="M435 -120c10 2 16 -1 17 -9l8 -48c1 -7 -2 -12 -9 -15c-13 -7 -43 -15 -94 -15c-75 0 -140 25 -140 102c0 43 19 70 48 94c-131 8 -198 55 -198 187v319c0 14 6 22 18 24l114 19c15 2 22 -4 22 -18v-350c0 -53 18 -81 85 -81c73 0 85 35 85 81v325c0 14 6 22 18 24
l111 18c3 1 6 1 8 1c11 0 17 -6 17 -18v-343c0 -123 -60 -177 -195 -188c-23 -21 -31 -45 -31 -69c0 -31 20 -47 59 -47c24 0 46 4 57 7z" />
    <glyph glyph-name="Wcircumflex" unicode="&#x174;" horiz-adv-x="1126" 
d="M308 135h33l105 511c2 13 9 19 21 19h197c13 0 20 -6 22 -19l105 -511h32l96 583c3 17 11 21 23 21h128c11 0 21 -8 18 -25l-139 -696c-2 -12 -10 -18 -23 -18h-230c-15 0 -20 7 -23 18l-99 486h-17l-99 -486c-3 -11 -9 -18 -24 -18h-234c-13 0 -21 6 -23 18l-139 696
c-3 11 1 25 18 25h133c12 0 20 -4 23 -21zM581 993l149 -103c3 -2 5 -5 5 -8s-1 -5 -3 -8l-43 -56c-3 -3 -6 -5 -9 -5s-5 1 -8 3l-109 84l-109 -84c-3 -3 -4 -3 -8 -3c-3 0 -6 2 -9 5l-43 56c-2 3 -3 5 -3 8s2 6 5 8l149 103h36z" />
    <glyph glyph-name="wcircumflex" unicode="&#x175;" horiz-adv-x="883" 
d="M451 349h-12l-70 -331c-3 -12 -10 -18 -23 -18h-196c-13 0 -20 6 -23 19l-95 480c-3 15 4 26 19 26h119c13 0 20 -4 23 -20l54 -370h24l65 325c3 16 12 20 25 20h167c13 0 23 -4 26 -20l65 -325h23l54 370c3 16 9 20 22 20h115c13 0 22 -7 18 -26l-95 -480
c-3 -13 -10 -19 -22 -19h-189c-13 0 -21 6 -24 18zM462 775l149 -103c3 -2 5 -5 5 -8s-1 -5 -3 -8l-43 -56c-3 -3 -6 -5 -9 -5s-5 1 -8 3l-109 84l-109 -84c-3 -3 -4 -3 -8 -3c-3 0 -6 2 -9 5l-43 56c-2 3 -3 5 -3 8s2 6 5 8l149 103h36z" />
    <glyph glyph-name="Ycircumflex" unicode="&#x176;" horiz-adv-x="737" 
d="M455 279v-264c0 -10 -6 -15 -17 -15h-132c-11 0 -17 5 -17 15v262l-285 438c-1 2 -2 5 -2 8c0 9 8 16 15 16h156c13 0 17 -4 24 -16l181 -313l174 313c7 13 11 16 23 16h146c11 0 14 -8 14 -15c0 -3 -1 -6 -2 -8zM384 993l149 -103c3 -2 5 -5 5 -8s-1 -5 -3 -8l-43 -56
c-3 -3 -6 -5 -9 -5s-5 1 -8 3l-109 84l-109 -84c-3 -3 -4 -3 -8 -3c-3 0 -6 2 -9 5l-43 56c-2 3 -3 5 -3 8s2 6 5 8l149 103h36z" />
    <glyph glyph-name="ycircumflex" unicode="&#x177;" horiz-adv-x="574" 
d="M548 500l-158 -557c-26 -92 -64 -153 -194 -153c-67 0 -86 4 -102 7c-10 2 -15 8 -15 18l1 63c0 11 3 20 18 20c17 0 37 -2 60 -2c52 0 76 15 87 58l13 46h-75c-9 0 -15 5 -18 16l-139 483c-1 3 -1 6 -1 9c0 11 6 17 18 17h118c13 0 20 -2 23 -17l95 -412h27l85 411
c3 15 10 18 23 18h116c13 0 19 -6 19 -17c0 -3 0 -6 -1 -8zM304 775l149 -103c3 -2 5 -5 5 -8s-1 -5 -3 -8l-43 -56c-3 -3 -6 -5 -9 -5s-5 1 -8 3l-109 84l-109 -84c-3 -3 -4 -3 -8 -3c-3 0 -6 2 -9 5l-43 56c-2 3 -3 5 -3 8s2 6 5 8l149 103h36z" />
    <glyph glyph-name="Ydieresis" unicode="&#x178;" horiz-adv-x="737" 
d="M455 279v-264c0 -10 -6 -15 -17 -15h-132c-11 0 -17 5 -17 15v262l-285 438c-1 2 -2 5 -2 8c0 9 8 16 15 16h156c13 0 17 -4 24 -16l181 -313l174 313c7 13 11 16 23 16h146c11 0 14 -8 14 -15c0 -3 -1 -6 -2 -8zM335 925v-77c0 -8 -9 -15 -21 -15h-115
c-12 0 -20 7 -20 15v77c0 11 7 16 20 16h115c12 0 21 -7 21 -16zM570 925v-77c0 -8 -8 -15 -20 -15h-115c-12 0 -21 7 -21 15v77c0 9 9 16 21 16h115c13 0 20 -5 20 -16z" />
    <glyph glyph-name="Zacute" unicode="&#x179;" horiz-adv-x="701" 
d="M653 106v-91c0 -10 -5 -15 -16 -15h-568c-9 0 -16 7 -16 15v82c0 16 3 21 10 28l376 493h-375c-11 0 -16 5 -16 16v90c0 10 5 15 16 15h561c9 0 16 -7 16 -15v-90c0 -9 -2 -17 -7 -22l-383 -491h386c11 0 16 -5 16 -15zM438 998l47 -63c4 -5 3 -10 -2 -14l-161 -106
c-7 -5 -12 -4 -17 3l-43 57c-4 5 -3 10 2 15l158 110c6 4 11 3 16 -2z" />
    <glyph glyph-name="zacute" unicode="&#x17a;" horiz-adv-x="524" 
d="M463 0h-396c-11 0 -16 5 -16 14v63c0 11 3 15 8 22l228 316h-226c-11 0 -16 5 -16 14v82c0 9 5 14 16 14h397c10 0 15 -5 15 -14v-64c0 -7 1 -11 -6 -20l-230 -317h226c11 0 16 -5 16 -14v-82c0 -9 -5 -14 -16 -14zM358 780l47 -63c3 -3 3 -11 -2 -14l-161 -106
c-7 -4 -12 -3 -17 3l-43 58c-4 6 -3 11 2 14l157 111c3 3 10 4 17 -3z" />
    <glyph glyph-name="Zdotaccent" unicode="&#x17b;" horiz-adv-x="701" 
d="M653 106v-91c0 -10 -5 -15 -16 -15h-568c-9 0 -16 7 -16 15v82c0 16 3 21 10 28l376 493h-375c-11 0 -16 5 -16 16v90c0 10 5 15 16 15h561c9 0 16 -7 16 -15v-90c0 -9 -2 -17 -7 -22l-383 -491h386c11 0 16 -5 16 -15zM438 945v-95c0 -9 -9 -17 -22 -17h-134
c-13 0 -22 8 -22 17v95c0 9 9 17 22 17h134c13 0 22 -8 22 -17z" />
    <glyph glyph-name="zdotaccent" unicode="&#x17c;" horiz-adv-x="524" 
d="M463 0h-396c-11 0 -16 5 -16 14v63c0 11 3 15 8 22l228 316h-226c-11 0 -16 5 -16 14v82c0 9 5 14 16 14h397c10 0 15 -5 15 -14v-64c0 -7 1 -11 -6 -20l-230 -317h226c11 0 16 -5 16 -14v-82c0 -9 -5 -14 -16 -14zM351 727v-95c0 -9 -9 -17 -22 -17h-134
c-13 0 -22 8 -22 17v95c0 9 9 17 22 17h134c13 0 22 -8 22 -17z" />
    <glyph glyph-name="Zcaron" unicode="&#x17d;" horiz-adv-x="701" 
d="M653 106v-91c0 -10 -5 -15 -16 -15h-568c-9 0 -16 7 -16 15v82c0 16 3 21 10 28l376 493h-375c-11 0 -16 5 -16 16v90c0 10 5 15 16 15h561c9 0 16 -7 16 -15v-90c0 -9 -2 -17 -7 -22l-383 -491h386c11 0 16 -5 16 -15zM328 812l-149 103c-3 2 -5 5 -5 8c0 2 1 5 3 8
l43 56c3 3 6 5 9 5c4 0 5 0 8 -3l109 -84l109 84c3 2 5 3 8 3s6 -2 9 -5l43 -56c2 -3 3 -6 3 -8c0 -3 -2 -6 -5 -8l-149 -103h-36z" />
    <glyph glyph-name="zcaron" unicode="&#x17e;" horiz-adv-x="524" 
d="M463 0h-396c-11 0 -16 5 -16 14v63c0 11 3 15 8 22l228 316h-226c-11 0 -16 5 -16 14v82c0 9 5 14 16 14h397c10 0 15 -5 15 -14v-64c0 -7 1 -11 -6 -20l-230 -317h226c11 0 16 -5 16 -14v-82c0 -9 -5 -14 -16 -14zM246 595l-149 103c-3 2 -5 5 -5 8c0 2 1 5 3 8l43 56
c3 3 6 5 9 5c4 0 5 0 8 -3l109 -84l109 84c3 2 5 3 8 3s6 -2 9 -5l43 -56c2 -3 3 -6 3 -8c0 -3 -2 -6 -5 -8l-149 -103h-36z" />
    <glyph glyph-name="longs" unicode="&#x17f;" horiz-adv-x="425" 
d="M426 717l-11 -68c-2 -10 -7 -14 -15 -13c-27 3 -44 7 -71 7c-24 0 -41 -4 -50 -11c-9 -9 -14 -23 -14 -43v-574c0 -10 -5 -15 -16 -15h-122c-9 0 -17 6 -17 15v400h-77c-11 0 -16 5 -16 15v80c0 10 5 15 16 15h77v68c0 107 54 159 171 159c73 0 118 -12 134 -17
c9 -3 12 -9 11 -18z" />
    <glyph glyph-name="uni018F" unicode="&#x18f;" horiz-adv-x="835" 
d="M602 322h-348c0 -163 43 -214 174 -214s174 51 174 214zM84 369v51c0 11 5 16 16 16h500c0 157 -78 195 -217 195c-106 0 -188 -27 -215 -32c-3 -1 -5 -1 -8 -1c-9 0 -15 4 -17 13l-16 72c-1 3 -1 6 -1 8c0 9 6 16 19 20c18 8 124 41 271 41c264 0 356 -118 356 -383
c0 -244 -72 -381 -344 -381s-344 137 -344 381z" />
    <glyph glyph-name="florin" unicode="&#x192;" horiz-adv-x="733" 
d="M594 718l-13 -62c-3 -12 -9 -17 -19 -15c-19 3 -38 6 -61 6c-58 0 -69 -24 -77 -76l-14 -80h123c9 0 18 -4 15 -16l-15 -77c-3 -12 -9 -18 -20 -18h-122l-104 -572c-3 -8 -9 -15 -20 -15h-109c-12 0 -22 5 -19 21l104 566h-80c-9 0 -18 4 -15 16l15 77c2 12 9 18 20 18
h81l18 103c18 111 66 158 192 158c44 0 91 -9 107 -14c7 -3 16 -7 13 -20z" />
    <glyph glyph-name="uni01B5" unicode="&#x1b5;" horiz-adv-x="701" 
d="M653 106v-91c0 -10 -5 -15 -16 -15h-568c-9 0 -16 7 -16 15v82c0 16 3 21 10 28l152 200h-60c-9 0 -22 6 -22 19v68c0 11 9 20 22 20h142l142 186h-375c-11 0 -16 5 -16 16v90c0 10 5 15 16 15h561c9 0 16 -7 16 -15v-90c0 -9 -2 -17 -7 -22l-141 -180h62
c13 0 22 -9 22 -20v-68c0 -12 -11 -19 -22 -19h-145l-159 -204h386c11 0 16 -5 16 -15z" />
    <glyph glyph-name="uni01B6" unicode="&#x1b6;" horiz-adv-x="524" 
d="M463 0h-396c-11 0 -16 5 -16 14v63c0 9 3 16 8 22l83 115h-53c-13 0 -22 8 -22 19v64c0 11 9 19 22 19h126l72 99h-226c-11 0 -16 5 -16 14v82c0 9 5 14 16 14h397c10 0 15 -5 15 -14v-64c0 -7 1 -11 -6 -20l-81 -111h62c12 0 22 -8 22 -19v-64c0 -11 -10 -19 -22 -19
h-136l-75 -104h226c11 0 16 -5 16 -14v-82c0 -9 -5 -14 -16 -14z" />
    <glyph glyph-name="Aringacute" unicode="&#x1fa;" horiz-adv-x="817" 
d="M168 0h-134c-12 0 -15 10 -12 19l245 708c3 7 10 12 17 12h248c7 0 14 -5 17 -12l246 -708c4 -11 -1 -19 -13 -19h-144c-10 0 -16 5 -18 15l-77 236h-280l-76 -236c-3 -10 -10 -15 -19 -15zM507 368l-84 260h-40l-84 -260h208zM556 910c0 -87 -53 -117 -150 -117
c-99 0 -150 30 -150 117c0 88 51 118 150 118c97 0 150 -30 150 -118zM455 911c0 47 -9 67 -49 67s-49 -21 -49 -68s9 -67 49 -67s49 21 49 68zM473 1234l47 -63c4 -5 3 -10 -2 -14l-161 -106c-7 -5 -12 -4 -17 3l-43 57c-4 5 -3 10 2 15l158 110c6 4 11 3 16 -2z" />
    <glyph glyph-name="aringacute" unicode="&#x1fb;" horiz-adv-x="595" 
d="M529 380v-275c0 -76 -28 -89 -97 -105c-37 -8 -83 -13 -142 -13c-116 0 -244 15 -244 171c0 128 82 145 155 156l174 28v27c0 27 -3 43 -24 54c-13 7 -37 10 -71 10c-65 0 -136 -19 -165 -27c-5 -1 -9 -2 -10 -2c-7 0 -10 3 -11 9l-15 66c-1 3 -1 5 -1 8c0 9 7 12 12 15
c22 8 116 36 223 36c71 0 119 -10 152 -29c51 -27 64 -73 64 -129zM376 250l-107 -17c-38 -5 -71 -14 -71 -73c0 -70 56 -76 96 -76c37 0 69 7 82 11v155zM445 683c0 -80 -48 -108 -137 -108s-137 28 -137 108s48 107 137 107s137 -27 137 -107zM353 683c0 43 -9 62 -45 62
c-37 0 -45 -20 -45 -63s8 -61 45 -61c36 0 45 19 45 62zM373 998l47 -63c4 -5 3 -10 -2 -14l-161 -106c-7 -5 -12 -4 -17 3l-43 57c-4 5 -3 10 2 15l158 110c6 4 11 3 16 -2z" />
    <glyph glyph-name="AEacute" unicode="&#x1fc;" horiz-adv-x="1015" 
d="M167 0h-133c-12 0 -15 10 -12 19l245 708c2 8 7 12 16 12h645c11 0 17 -5 17 -15v-90c0 -11 -6 -16 -17 -16h-287v-178h269c11 0 16 -5 16 -15v-91c0 -11 -5 -16 -16 -16h-269v-197h287c11 0 17 -5 17 -15v-91c0 -10 -6 -15 -17 -15h-434c-11 0 -17 5 -17 16v235h-215
l-76 -236c-2 -10 -8 -15 -19 -15zM477 368v262h-94l-85 -262h179zM685 998l47 -63c4 -5 3 -10 -2 -14l-161 -106c-7 -5 -12 -4 -17 3l-43 57c-4 5 -3 10 2 15l158 110c6 4 11 3 16 -2z" />
    <glyph glyph-name="aeacute" unicode="&#x1fd;" horiz-adv-x="968" 
d="M266 -13c-124 0 -220 34 -220 165c0 143 112 160 222 160h146v19c-3 93 -57 103 -133 103c-70 0 -142 -18 -169 -26c-11 -2 -18 1 -20 10l-13 68c-2 11 2 19 13 23c29 11 115 29 198 29c99 0 161 -23 192 -83h13c37 59 90 83 197 83c168 0 230 -87 230 -256v-34
c0 -13 -4 -30 -29 -30h-336c0 -89 50 -128 150 -128c68 0 119 16 150 24c12 3 19 0 21 -9l11 -67c2 -10 -2 -17 -12 -22c-31 -12 -96 -29 -177 -29c-97 0 -177 22 -212 97h-12c-37 -75 -114 -97 -210 -97zM297 78c41 0 72 12 91 35s27 54 26 107h-124c-49 0 -95 -7 -95 -68
c0 -56 39 -74 102 -74zM557 311h215c0 84 -18 132 -107 132c-88 0 -108 -51 -108 -132zM587 780l47 -63c3 -3 3 -11 -2 -14l-161 -106c-7 -4 -12 -3 -17 3l-43 58c-4 6 -3 11 2 14l157 111c3 3 10 4 17 -3z" />
    <glyph glyph-name="Oslashacute" unicode="&#x1fe;" horiz-adv-x="841" 
d="M778 369c0 -232 -63 -382 -358 -382c-103 0 -176 18 -229 51l-67 -79c-3 -3 -6 -5 -9 -5s-6 1 -10 4l-48 37c-4 3 -6 6 -6 10c0 3 2 6 5 9l71 83c-49 67 -64 159 -64 272c0 233 64 383 357 383c100 0 174 -18 227 -50l68 80c3 3 7 5 10 5c4 0 7 -1 10 -4l48 -36
c4 -3 6 -7 6 -10c0 -2 -2 -5 -5 -10l-72 -83c51 -68 66 -160 66 -275zM608 370c0 56 -2 102 -10 141l-315 -367c28 -28 70 -41 137 -41c167 0 188 87 188 267zM242 231l314 366c-27 27 -73 40 -136 40c-168 0 -187 -87 -187 -267c0 -56 1 -100 9 -139zM494 998l47 -63
c4 -5 3 -10 -2 -14l-161 -106c-7 -5 -12 -4 -17 3l-43 57c-4 5 -3 10 2 15l158 110c6 4 11 3 16 -2z" />
    <glyph glyph-name="oslashacute" unicode="&#x1ff;" horiz-adv-x="600" 
d="M554 262c0 -154 -29 -275 -254 -275c-68 0 -116 10 -152 29l-58 -68c-4 -4 -8 -6 -11 -6s-7 2 -10 5l-35 28c-4 3 -6 7 -6 10s2 7 5 10l58 68c-39 51 -45 119 -45 199c0 155 28 276 254 276c76 0 128 -14 165 -37l61 71c4 4 8 6 11 6s7 -2 10 -5l35 -28c4 -3 6 -7 6 -10
c0 -4 -1 -7 -4 -10l-66 -77c29 -49 36 -114 36 -186zM203 262v-37c0 -11 0 -21 1 -30l175 205c-13 23 -39 34 -79 34c-93 0 -97 -55 -97 -172zM397 262v23c0 7 0 14 -1 21l-166 -194c15 -15 35 -21 70 -21c92 0 97 55 97 171zM383 780l47 -63c3 -3 3 -11 -2 -14l-161 -106
c-7 -4 -12 -3 -17 3l-43 58c-4 6 -3 11 2 14l157 111c3 3 10 4 17 -3z" />
    <glyph glyph-name="Scommaaccent" unicode="&#x218;" horiz-adv-x="705" 
d="M643 216c0 -174 -141 -227 -292 -227c-134 0 -242 31 -259 37c-11 4 -20 13 -17 24l14 77c3 15 13 18 26 15l30 -8c42 -10 117 -26 185 -26c80 0 143 21 143 97c0 77 -66 84 -162 100c-104 16 -243 46 -243 219c0 178 127 226 287 226c116 0 218 -26 239 -34
c13 -4 23 -12 20 -23l-15 -80c-2 -9 -7 -13 -16 -13c-2 0 -5 0 -8 1c-59 12 -122 30 -203 30c-69 0 -139 -13 -139 -90c0 -75 78 -82 164 -98l16 -3c112 -21 230 -45 230 -224zM275 -213l29 148c3 9 10 15 21 15h90c15 0 21 -12 16 -24l-59 -144c-3 -8 -10 -12 -20 -12h-61
c-9 0 -19 6 -16 17z" />
    <glyph glyph-name="scommaaccent" unicode="&#x219;" horiz-adv-x="508" 
d="M464 160c0 -131 -96 -172 -218 -172c-88 0 -166 21 -185 29c-7 3 -14 8 -11 16l12 69c2 8 6 12 12 12c1 0 4 0 7 -1c14 -3 82 -23 145 -23c45 0 84 14 84 57c0 48 -31 54 -83 62c-66 11 -171 24 -171 164c0 147 129 165 217 165c80 0 143 -16 163 -23c9 -2 12 -7 11 -16
l-12 -68c-1 -7 -5 -10 -13 -10c-2 0 -5 0 -8 1c-9 2 -67 14 -118 14c-39 0 -86 -8 -86 -52c0 -52 48 -55 99 -63c76 -14 155 -32 155 -161zM185 -213l29 148c3 9 10 15 21 15h90c15 0 21 -12 16 -24l-59 -144c-3 -8 -10 -12 -20 -12h-61c-9 0 -19 6 -16 17z" />
    <glyph glyph-name="uni021A" unicode="&#x21a;" horiz-adv-x="673" 
d="M661 724v-90c0 -11 -5 -16 -16 -16h-226v-603c0 -10 -5 -15 -16 -15h-133c-11 0 -16 5 -16 15v603h-226c-11 0 -16 5 -16 15v91c0 8 7 15 16 15h617c9 0 16 -7 16 -15zM241 -213l29 148c3 9 10 15 21 15h90c15 0 21 -12 16 -24l-59 -144c-3 -8 -10 -12 -20 -12h-61
c-9 0 -19 6 -16 17z" />
    <glyph glyph-name="uni021B" unicode="&#x21b;" horiz-adv-x="423" 
d="M377 98l13 -70c2 -9 -2 -15 -13 -18c-15 -5 -58 -18 -126 -18c-119 0 -179 44 -179 163v503c0 13 6 21 18 24l114 20c15 2 22 -4 22 -17v-160h133c11 0 16 -5 16 -15v-80c0 -10 -5 -15 -16 -15h-133v-253c0 -39 13 -61 64 -61c27 0 55 4 71 8c9 3 15 -4 16 -11zM147 -213
l29 148c3 9 10 15 21 15h90c15 0 21 -12 16 -24l-59 -144c-3 -8 -10 -12 -20 -12h-61c-9 0 -19 6 -16 17z" />
    <glyph glyph-name="uni0237" unicode="&#x237;" horiz-adv-x="323" 
d="M241 498v-529c0 -145 -86 -179 -195 -179c-43 0 -68 3 -73 4c-11 3 -20 4 -20 21l1 58c0 13 7 19 21 20l31 1c49 3 82 7 82 78v526c0 10 5 15 16 15h121c11 0 16 -5 16 -15z" />
    <glyph glyph-name="uni0259" unicode="&#x259;" horiz-adv-x="593" 
d="M298 89c94 0 101 58 101 146h-202c0 -88 7 -146 101 -146zM46 265v37c0 13 5 26 24 26h324c0 43 -14 66 -43 85c-25 15 -61 22 -108 22c-61 0 -105 -15 -136 -23c-11 -3 -18 1 -21 12l-13 57c-4 16 3 21 10 24c32 13 101 33 186 33c195 0 278 -72 278 -273
c0 -185 -57 -278 -251 -278s-250 93 -250 278z" />
    <glyph glyph-name="uni02BB" unicode="&#x2bb;" horiz-adv-x="278" 
d="M228 718l-32 -217c-1 -11 -10 -18 -21 -18h-108c-11 0 -18 7 -18 18c0 3 0 6 1 9l66 214c3 11 12 15 20 15h76c8 0 19 -9 16 -21z" />
    <glyph glyph-name="afii57929" unicode="&#x2bc;" horiz-adv-x="278" 
d="M50 504l32 217c1 11 10 18 21 18h108c11 0 18 -7 18 -18c0 -3 0 -6 -1 -9l-66 -214c-3 -11 -12 -15 -20 -15h-76c-8 0 -19 9 -16 21z" />
    <glyph glyph-name="circumflex" unicode="&#x2c6;" horiz-adv-x="600" 
d="M318 775l149 -103c3 -2 5 -5 5 -8s-1 -5 -3 -8l-43 -56c-3 -3 -6 -5 -9 -5s-5 1 -8 3l-109 84l-109 -84c-3 -3 -4 -3 -8 -3c-3 0 -6 2 -9 5l-43 56c-2 3 -3 5 -3 8s2 6 5 8l149 103h36z" />
    <glyph glyph-name="caron" unicode="&#x2c7;" horiz-adv-x="600" 
d="M282 595l-149 103c-3 2 -5 5 -5 8c0 2 1 5 3 8l43 56c3 3 6 5 9 5c4 0 5 0 8 -3l109 -84l109 84c3 2 5 3 8 3s6 -2 9 -5l43 -56c2 -3 3 -6 3 -8c0 -3 -2 -6 -5 -8l-149 -103h-36z" />
    <glyph glyph-name="breve" unicode="&#x2d8;" horiz-adv-x="600" 
d="M483 736c0 -108 -69 -141 -184 -141s-183 33 -183 141c0 9 0 19 15 19h55c15 0 16 -10 16 -19c1 -51 20 -73 97 -73s98 21 98 73c0 9 1 19 16 19h55c15 0 15 -10 15 -19z" />
    <glyph glyph-name="dotaccent" unicode="&#x2d9;" horiz-adv-x="600" 
d="M389 727v-95c0 -9 -9 -17 -22 -17h-134c-13 0 -22 8 -22 17v95c0 9 9 17 22 17h134c13 0 22 -8 22 -17z" />
    <glyph glyph-name="ring" unicode="&#x2da;" horiz-adv-x="600" 
d="M437 683c0 -80 -48 -108 -137 -108s-137 28 -137 108s48 107 137 107s137 -27 137 -107zM345 683c0 43 -9 62 -45 62c-37 0 -45 -20 -45 -63s8 -61 45 -61c36 0 45 19 45 62z" />
    <glyph glyph-name="ogonek" unicode="&#x2db;" horiz-adv-x="600" 
d="M396 -120c10 2 16 -1 17 -9l8 -48c1 -7 -2 -12 -9 -15c-13 -7 -43 -15 -94 -15c-75 0 -140 25 -140 102c0 57 39 91 86 120l100 5c-61 -24 -84 -63 -84 -100c0 -31 20 -47 59 -47c24 0 46 4 57 7z" />
    <glyph glyph-name="tilde" unicode="&#x2dc;" horiz-adv-x="600" 
d="M485 661c0 -3 -1 -5 -2 -7l-5 -4c-21 -19 -69 -55 -114 -55c-25 0 -49 12 -70 24c-19 9 -40 24 -60 24c-23 0 -47 -20 -70 -39c-4 -3 -7 -4 -9 -4c-5 0 -9 2 -11 7l-27 53c-1 3 -2 5 -2 8s1 5 3 6l4 5c21 19 69 55 114 55c27 0 49 -12 70 -24l30 -15c11 -5 21 -8 30 -9
c23 0 49 20 70 39c3 3 6 4 9 4c5 0 9 -2 11 -7l27 -53c1 -3 2 -5 2 -8z" />
    <glyph glyph-name="hungarumlaut" unicode="&#x2dd;" horiz-adv-x="600" 
d="M472 773l40 -55c5 -6 4 -11 -2 -15l-161 -106c-4 -3 -12 -4 -16 3l-36 51c-5 5 -4 10 2 14l157 111c4 3 12 4 16 -3zM263 773l40 -55c5 -6 4 -11 -2 -15l-161 -106c-4 -3 -12 -4 -16 3l-36 51c-5 5 -4 10 2 14l157 111c4 3 12 4 16 -3z" />
    <glyph glyph-name="gravecomb" unicode="&#x300;" 
d="M-199 658l-43 -58c-3 -5 -9 -7 -16 -3l-161 106c-6 4 -7 9 -3 14l48 63c4 5 11 7 16 3l157 -111c5 -4 6 -9 2 -14z" />
    <glyph glyph-name="acutecomb" unicode="&#x301;" 
d="M-238 780l47 -63c3 -3 3 -11 -2 -14l-161 -106c-7 -4 -12 -3 -17 3l-43 58c-4 6 -3 11 2 14l157 111c3 3 10 4 17 -3z" />
    <glyph glyph-name="uni0302" unicode="&#x302;" 
d="M-283 775l149 -103c3 -2 5 -5 5 -8s-1 -5 -3 -8l-43 -56c-3 -3 -6 -5 -9 -5s-5 1 -8 3l-109 84l-109 -84c-3 -3 -4 -3 -8 -3c-3 0 -6 2 -9 5l-43 56c-2 3 -3 5 -3 8s2 6 5 8l149 103h36z" />
    <glyph glyph-name="tildecomb" unicode="&#x303;" 
d="M-116 661c0 -3 -1 -5 -2 -7l-5 -4c-21 -19 -69 -55 -114 -55c-25 0 -49 12 -70 24c-19 9 -40 24 -60 24c-23 0 -47 -20 -70 -39c-4 -3 -7 -4 -9 -4c-5 0 -9 2 -11 7l-27 53c-1 3 -2 5 -2 8s1 5 3 6l4 5c21 19 69 55 114 55c27 0 49 -12 70 -24l30 -15c11 -5 21 -8 30 -9
c23 0 49 20 70 39c3 3 6 4 9 4c5 0 9 -2 11 -7l27 -53c1 -3 2 -5 2 -8z" />
    <glyph glyph-name="uni0304" unicode="&#x304;" 
d="M-239 714c59 0 109 -10 144 -21c9 -3 15 -5 15 -14c0 -3 0 -6 -1 -9l-9 -53c-3 -11 -6 -12 -13 -12c-2 0 -5 0 -8 1c-39 7 -81 18 -128 18s-89 -11 -128 -18c-3 -1 -6 -1 -8 -1c-7 0 -10 1 -13 12l-9 53c-1 3 -1 6 -1 9c0 9 6 11 15 14c35 11 85 21 144 21z" />
    <glyph glyph-name="uni0306" unicode="&#x306;" 
d="M-77 736c0 -108 -69 -141 -184 -141s-183 33 -183 141c0 9 0 19 15 19h55c15 0 16 -10 16 -19c1 -51 20 -73 97 -73s98 21 98 73c0 9 1 19 16 19h55c15 0 15 -10 15 -19z" />
    <glyph glyph-name="uni0307" unicode="&#x307;" 
d="M-73 727v-95c0 -9 -9 -17 -22 -17h-134c-13 0 -22 8 -22 17v95c0 9 9 17 22 17h134c13 0 22 -8 22 -17z" />
    <glyph glyph-name="uni0308" unicode="&#x308;" 
d="M-315 707v-77c0 -8 -9 -15 -21 -15h-115c-12 0 -20 7 -20 15v77c0 11 7 16 20 16h115c12 0 21 -7 21 -16zM-80 707v-77c0 -8 -8 -15 -20 -15h-115c-12 0 -21 7 -21 15v77c0 9 9 16 21 16h115c13 0 20 -5 20 -16z" />
    <glyph glyph-name="uni030A" unicode="&#x30a;" 
d="M-82 683c0 -80 -48 -108 -137 -108s-137 28 -137 108s48 107 137 107s137 -27 137 -107zM-174 683c0 43 -9 62 -45 62c-37 0 -45 -20 -45 -63s8 -61 45 -61c36 0 45 19 45 62z" />
    <glyph glyph-name="uni030B" unicode="&#x30b;" 
d="M-117 773l40 -55c5 -6 4 -11 -2 -15l-161 -106c-4 -3 -12 -4 -16 3l-36 51c-5 5 -4 10 2 14l157 111c4 3 12 4 16 -3zM-326 773l40 -55c5 -6 4 -11 -2 -15l-161 -106c-4 -3 -12 -4 -16 3l-36 51c-5 5 -4 10 2 14l157 111c4 3 12 4 16 -3z" />
    <glyph glyph-name="uni030C" unicode="&#x30c;" 
d="M-275 595l-149 103c-3 2 -5 5 -5 8c0 2 1 5 3 8l43 56c3 3 6 5 9 5c4 0 5 0 8 -3l109 -84l109 84c3 2 5 3 8 3s6 -2 9 -5l43 -56c2 -3 3 -6 3 -8c0 -3 -2 -6 -5 -8l-149 -103h-36z" />
    <glyph glyph-name="uni0312" unicode="&#x312;" 
d="M-81 778l-29 -148c-3 -9 -10 -15 -21 -15h-90c-15 0 -21 12 -16 24l59 144c3 8 9 12 20 12h61c9 0 19 -6 16 -17z" />
    <glyph glyph-name="uni0313" unicode="&#x313;" 
d="M-238 583l29 148c3 9 10 15 21 15h90c15 0 20 -12 16 -24l-59 -144c-3 -8 -10 -12 -20 -12h-61c-9 0 -19 6 -16 17z" />
    <glyph glyph-name="uni0326" unicode="&#x326;" 
d="M-238 -213l29 148c3 9 10 15 21 15h90c15 0 21 -12 16 -24l-59 -144c-3 -8 -10 -12 -20 -12h-61c-9 0 -19 6 -16 17z" />
    <glyph glyph-name="uni0327" unicode="&#x327;" 
d="M-190 -31c64 0 110 -23 110 -87s-47 -87 -111 -87c-56 0 -81 7 -88 10c-5 3 -7 4 -7 13v32c0 6 3 8 10 7s30 -8 61 -8s47 6 47 33s-17 33 -44 33c-16 0 -37 -2 -44 -3s-11 1 -11 8v31c0 7 3 11 10 12c9 3 28 6 67 6z" />
    <glyph glyph-name="uni0328" unicode="&#x328;" 
d="M-102 -120c10 2 16 -1 17 -9l8 -48c1 -7 -2 -12 -9 -15c-13 -7 -43 -15 -94 -15c-75 0 -140 25 -140 102c0 57 39 91 86 120l100 5c-61 -24 -84 -63 -84 -100c0 -31 20 -47 59 -47c24 0 46 4 57 7z" />
    <glyph glyph-name="uni0335" unicode="&#x335;" 
d="M-6 300v-75c0 -11 -12 -17 -23 -17h-497c-8 0 -22 6 -22 17v75c0 11 7 16 22 16h497c13 0 23 -7 23 -16z" />
    <glyph glyph-name="uni0336" unicode="&#x336;" 
d="M-51 300v-75c0 -11 -12 -17 -23 -17h-1039c-8 0 -22 6 -22 17v75c0 9 10 16 23 16h1039c15 0 22 -5 22 -16z" />
    <glyph glyph-name="uni0394" unicode="&#x394;" horiz-adv-x="746" 
d="M479 726l244 -699c1 -4 2 -7 2 -9c0 -9 -6 -18 -21 -18h-662c-15 0 -21 9 -21 18c0 2 1 5 2 9l244 699c3 7 13 13 20 13h172c7 0 17 -6 20 -13zM394 639h-44l-176 -542h395z" />
    <glyph glyph-name="uni03A9" unicode="&#x3a9;" horiz-adv-x="751" 
d="M699 418c0 -111 -45 -222 -170 -270v-24l154 -30c7 -1 10 -5 10 -10v-71c0 -9 -5 -13 -14 -13h-239c-10 0 -15 5 -15 14v182c77 43 105 121 105 213c0 147 -24 232 -154 232c-131 0 -155 -85 -155 -232c0 -92 28 -170 105 -213v-182c0 -9 -5 -14 -15 -14h-239
c-9 0 -14 4 -14 13v71c0 5 3 9 10 10l154 30v24c-125 48 -170 159 -170 270c0 172 46 334 323 334c278 0 324 -162 324 -334z" />
    <glyph glyph-name="uni03BC" unicode="&#x3bc;" horiz-adv-x="617" 
d="M551 521v-394c0 -105 -43 -140 -142 -140c-98 0 -174 24 -197 32l14 -64v-122c0 -14 -6 -22 -18 -24l-114 -19h-5c-11 0 -17 6 -17 17v688c0 14 6 22 18 24l114 19c15 2 22 -4 22 -17v-409c10 -5 59 -19 107 -19c53 0 63 12 63 61v341c0 14 6 22 19 24l114 19
c15 2 22 -4 22 -17z" />
    <glyph glyph-name="pi" unicode="&#x3c0;" horiz-adv-x="614" 
d="M600 510v-79c0 -9 -5 -14 -16 -14h-67v-402c0 -10 -5 -15 -16 -15h-122c-11 0 -16 5 -16 15v402h-112v-402c0 -10 -5 -15 -16 -15h-122c-11 0 -16 5 -16 15v402h-67c-11 0 -16 5 -16 14v79c0 10 5 15 16 15h554c11 0 16 -5 16 -15z" />
    <glyph glyph-name="uni0400" unicode="&#x400;" horiz-adv-x="690" 
d="M604 0h-489c-11 0 -17 5 -17 16v707c0 9 8 16 17 16h488c11 0 17 -5 17 -15v-91c0 -10 -6 -15 -17 -15h-340v-178h322c11 0 16 -5 16 -15v-91c0 -11 -5 -16 -16 -16h-322v-197h341c11 0 16 -5 16 -15v-91c0 -10 -5 -15 -16 -15zM472 875l-43 -57c-5 -6 -10 -7 -16 -3
l-161 106c-5 3 -7 9 -3 14l48 63c4 6 9 7 16 2l157 -110c5 -4 5 -9 2 -15z" />
    <glyph glyph-name="afii10023" unicode="&#x401;" horiz-adv-x="690" 
d="M604 0h-489c-11 0 -17 5 -17 16v707c0 9 8 16 17 16h488c11 0 17 -5 17 -15v-91c0 -10 -6 -15 -17 -15h-340v-178h322c11 0 16 -5 16 -15v-91c0 -11 -5 -16 -16 -16h-322v-197h341c11 0 16 -5 16 -15v-91c0 -10 -5 -15 -16 -15zM319 925v-77c0 -8 -9 -15 -21 -15h-115
c-12 0 -20 7 -20 15v77c0 11 7 16 20 16h115c12 0 21 -7 21 -16zM554 925v-77c0 -8 -8 -15 -20 -15h-115c-12 0 -21 7 -21 15v77c0 9 9 16 21 16h115c13 0 20 -5 20 -16z" />
    <glyph glyph-name="afii10051" unicode="&#x402;" horiz-adv-x="949" 
d="M899 190c0 -77 -11 -143 -46 -192c-41 -59 -123 -93 -270 -93h-38c-10 0 -15 5 -15 16v81c0 11 5 16 15 16h30c35 0 84 7 115 36c27 27 38 59 38 127c0 111 -33 166 -140 166c-70 0 -142 -19 -170 -27v-305c0 -10 -5 -15 -16 -15h-132c-11 0 -16 5 -16 15v603h-226
c-9 0 -16 7 -16 15v91c0 10 5 15 16 15h615c11 0 17 -5 17 -15v-91c0 -10 -6 -15 -17 -15h-225v-183c37 11 133 32 229 32c190 0 252 -108 252 -277z" />
    <glyph glyph-name="afii10052" unicode="&#x403;" horiz-adv-x="616" 
d="M247 0h-133c-11 0 -16 5 -16 15v709c0 10 5 15 16 15h474c11 0 16 -5 16 -15v-91c0 -10 -5 -15 -16 -15h-325v-603c0 -10 -5 -15 -16 -15zM432 998l47 -63c4 -5 3 -10 -2 -14l-161 -106c-7 -5 -12 -4 -17 3l-43 57c-4 5 -3 10 2 15l158 110c6 4 11 3 16 -2z" />
    <glyph glyph-name="afii10053" unicode="&#x404;" horiz-adv-x="705" 
d="M408 -6c-255 0 -345 110 -345 377c0 266 90 377 345 377c124 0 199 -23 235 -35c15 -7 19 -12 19 -20c0 -1 0 -3 -1 -6l-16 -76c-2 -9 -7 -13 -15 -13c-3 0 -6 0 -9 1c-29 8 -114 29 -183 29c-145 0 -204 -57 -204 -188h239c9 0 16 -5 15 -14l-12 -94
c-1 -9 -7 -14 -17 -14h-226c0 -141 56 -204 205 -204c69 0 154 20 183 28c3 1 6 1 9 1c8 0 13 -4 15 -12l16 -76c1 -3 1 -5 1 -7c0 -7 -4 -14 -19 -19c-36 -13 -111 -35 -235 -35z" />
    <glyph glyph-name="afii10054" unicode="&#x405;" horiz-adv-x="705" 
d="M643 216c0 -174 -141 -227 -292 -227c-134 0 -242 31 -259 37c-11 4 -20 13 -17 24l14 77c3 15 13 18 26 15l30 -8c42 -10 117 -26 185 -26c80 0 143 21 143 97c0 77 -66 84 -162 100c-104 16 -243 46 -243 219c0 178 127 226 287 226c116 0 218 -26 239 -34
c13 -4 23 -12 20 -23l-15 -80c-2 -9 -7 -13 -16 -13c-2 0 -5 0 -8 1c-59 12 -122 30 -203 30c-69 0 -139 -13 -139 -90c0 -75 78 -82 164 -98l16 -3c112 -21 230 -45 230 -224z" />
    <glyph glyph-name="afii10055" unicode="&#x406;" horiz-adv-x="361" 
d="M263 738v-723c0 -10 -5 -15 -16 -15h-133c-11 0 -16 5 -16 15v706c0 8 5 13 15 14l135 17c11 1 15 -7 15 -14z" />
    <glyph glyph-name="afii10056" unicode="&#x407;" horiz-adv-x="361" 
d="M263 738v-723c0 -10 -5 -15 -16 -15h-133c-11 0 -16 5 -16 15v706c0 8 5 13 15 14l135 17c11 1 15 -7 15 -14zM141 925v-77c0 -8 -9 -15 -21 -15h-115c-12 0 -20 7 -20 15v77c0 11 7 16 20 16h115c12 0 21 -7 21 -16zM376 925v-77c0 -8 -8 -15 -20 -15h-115
c-12 0 -21 7 -21 15v77c0 9 9 16 21 16h115c13 0 20 -5 20 -16z" />
    <glyph glyph-name="afii10057" unicode="&#x408;" horiz-adv-x="357" 
d="M269 738v-741c0 -155 -94 -201 -235 -201h-38c-12 0 -23 1 -33 2c-11 1 -21 5 -21 22v72c0 15 6 24 22 25l53 2c61 3 87 16 87 91v709c0 8 5 15 16 16l133 17c11 1 16 -7 16 -14z" />
    <glyph glyph-name="afii10058" unicode="&#x409;" horiz-adv-x="1224" 
d="M324 625v-265c0 -226 -80 -360 -301 -360c-9 0 -13 4 -13 13v113c0 7 4 12 13 13c131 8 140 114 140 239v345c0 9 8 16 17 16h523c9 0 17 -7 17 -16v-261h202c170 0 271 -60 271 -231s-101 -231 -271 -231h-349c-11 0 -18 7 -18 16v609h-231zM720 114h164
c93 0 139 25 139 117s-46 118 -139 118h-164v-235z" />
    <glyph glyph-name="afii10059" unicode="&#x40a;" horiz-adv-x="1235" 
d="M247 0h-133c-11 0 -16 5 -16 15v706c0 8 5 13 15 14l134 17c11 1 16 -6 16 -15v-284h302v268c0 8 5 13 16 14l133 17c11 1 16 -4 16 -15v-284h203c170 0 271 -59 271 -227c0 -167 -101 -226 -271 -226h-350c-11 0 -18 7 -18 16v323h-302v-324c0 -10 -5 -15 -16 -15z
M730 114h166c92 0 138 23 138 112c0 90 -46 113 -138 113h-166v-225z" />
    <glyph glyph-name="afii10060" unicode="&#x40b;" horiz-adv-x="938" 
d="M402 0h-133c-11 0 -16 5 -16 14v605h-225c-9 0 -16 7 -16 15v91c0 9 5 14 16 14h615c10 0 15 -5 15 -14v-91c0 -10 -5 -15 -15 -15h-225v-180c40 11 150 32 248 32c156 0 222 -57 222 -178v-279c0 -9 -5 -14 -16 -14h-134c-10 0 -15 5 -15 14v246c0 68 -35 91 -111 91
c-75 0 -161 -18 -194 -26v-311c0 -9 -5 -14 -16 -14z" />
    <glyph glyph-name="afii10061" unicode="&#x40c;" horiz-adv-x="759" 
d="M334 432l212 298c4 5 7 9 18 9h156c9 0 22 -9 11 -24l-258 -337l278 -354c2 -3 3 -6 3 -9c0 -8 -7 -15 -12 -15h-169c-9 0 -15 3 -20 9l-219 304h-70v-298c0 -10 -5 -15 -16 -15h-133c-11 0 -16 5 -16 15v709c0 10 5 15 16 15h133c11 0 16 -5 16 -15v-292h70zM472 998
l47 -63c4 -5 3 -10 -2 -14l-161 -106c-7 -5 -12 -4 -17 3l-43 57c-4 5 -3 10 2 15l158 110c6 4 11 3 16 -2z" />
    <glyph glyph-name="uni040D" unicode="&#x40d;" horiz-adv-x="856" 
d="M327 0h-213c-11 0 -16 5 -16 15v710c0 9 5 14 15 14h124c10 0 15 -5 15 -14v-542h32l216 535c5 14 14 21 29 21h213c11 0 16 -5 16 -15v-709c0 -10 -5 -15 -16 -15h-123c-11 0 -16 5 -16 15v541h-32l-215 -535c-6 -14 -16 -21 -29 -21zM533 875l-43 -57
c-5 -6 -10 -7 -16 -3l-161 106c-5 3 -7 9 -3 14l48 63c4 6 9 7 16 2l157 -110c5 -4 5 -9 2 -15z" />
    <glyph glyph-name="afii10062" unicode="&#x40e;" horiz-adv-x="729" 
d="M285 276l-283 445c-5 8 7 18 14 18h157c12 0 16 -4 23 -17l185 -312l164 313c7 13 11 16 23 16h145c15 0 18 -13 13 -24l-271 -469c-107 -185 -200 -259 -394 -259c-11 0 -16 7 -16 15v97c0 9 5 15 16 16c102 8 148 28 209 135zM561 954c0 -108 -69 -141 -184 -141
s-183 33 -183 141c0 9 0 19 15 19h55c15 0 16 -10 16 -19c1 -51 20 -73 97 -73s98 21 98 73c0 9 1 19 16 19h55c15 0 15 -10 15 -19z" />
    <glyph glyph-name="afii10145" unicode="&#x40f;" horiz-adv-x="833" 
d="M470 -168h-106c-11 0 -17 5 -17 15v153h-233c-11 0 -16 5 -16 15v706c0 8 5 13 15 14l134 17c11 1 16 -6 16 -15v-614h308v598c0 8 5 13 15 14l134 17c10 1 15 -4 15 -15v-722c0 -10 -5 -15 -16 -15h-233v-153c0 -10 -5 -15 -16 -15z" />
    <glyph glyph-name="afii10017" unicode="&#x410;" horiz-adv-x="817" 
d="M168 0h-134c-12 0 -15 10 -12 19l245 708c3 7 10 12 17 12h248c7 0 14 -5 17 -12l246 -708c4 -11 -1 -19 -13 -19h-144c-10 0 -16 5 -18 15l-77 236h-280l-76 -236c-3 -10 -10 -15 -19 -15zM507 368l-84 260h-40l-84 -260h208z" />
    <glyph glyph-name="afii10018" unicode="&#x411;" horiz-adv-x="761" 
d="M458 0h-343c-9 0 -17 7 -17 16v708c0 10 5 15 16 15h484c10 0 15 -5 15 -14v-91c0 -10 -5 -15 -15 -15h-335v-157h195c171 0 272 -60 272 -231s-101 -231 -272 -231zM263 114h157c93 0 139 25 139 117s-46 118 -139 118h-157v-235z" />
    <glyph glyph-name="afii10019" unicode="&#x412;" horiz-adv-x="788" 
d="M456 0h-341c-11 0 -17 5 -17 16v707c0 11 6 16 17 16h359c157 0 236 -60 236 -180c0 -111 -67 -152 -157 -165v-26c114 -11 182 -48 182 -172c0 -139 -104 -196 -279 -196zM263 114h179c95 0 124 36 124 101c0 76 -35 102 -126 105l-177 5v-211zM263 427l168 6
c76 3 115 24 115 96c0 67 -28 96 -112 96h-171v-198z" />
    <glyph glyph-name="afii10020" unicode="&#x413;" horiz-adv-x="616" 
d="M247 0h-133c-11 0 -16 5 -16 15v709c0 10 5 15 16 15h474c11 0 16 -5 16 -15v-91c0 -10 -5 -15 -16 -15h-325v-603c0 -10 -5 -15 -16 -15z" />
    <glyph glyph-name="afii10021" unicode="&#x414;" horiz-adv-x="809" 
d="M547 625h-213c0 -189 3 -383 -96 -511h309v511zM190 739h505c11 0 16 -5 16 -16v-609h85c11 0 16 -5 16 -15v-252c0 -10 -5 -15 -16 -15h-106c-11 0 -17 5 -17 15v153h-524v-153c0 -10 -5 -15 -16 -15h-108c-10 0 -15 5 -15 15v247c0 9 5 16 15 20
c140 51 148 261 148 422v187c0 11 6 16 17 16z" />
    <glyph glyph-name="afii10022" unicode="&#x415;" horiz-adv-x="690" 
d="M604 0h-489c-11 0 -17 5 -17 16v707c0 9 8 16 17 16h488c11 0 17 -5 17 -15v-91c0 -10 -6 -15 -17 -15h-340v-178h322c11 0 16 -5 16 -15v-91c0 -11 -5 -16 -16 -16h-322v-197h341c11 0 16 -5 16 -15v-91c0 -10 -5 -15 -16 -15z" />
    <glyph glyph-name="afii10024" unicode="&#x416;" horiz-adv-x="1165" 
d="M665 313v-298c0 -10 -5 -15 -16 -15h-133c-11 0 -16 5 -16 15v298h-70l-219 -304c-5 -6 -12 -9 -20 -9h-169c-5 0 -12 7 -12 15c0 3 1 6 3 9l278 354l-258 337c-11 16 2 24 11 24h156c11 0 14 -4 18 -9l212 -298h70v292c0 10 5 15 16 15h133c11 0 16 -5 16 -15v-292h70
l212 298c4 5 7 9 18 9h156c9 0 22 -8 11 -24l-258 -337l278 -354c2 -3 3 -6 3 -9c0 -8 -7 -15 -12 -15h-169c-9 0 -15 3 -20 9l-219 304h-70z" />
    <glyph glyph-name="afii10025" unicode="&#x417;" horiz-adv-x="694" 
d="M636 198c0 -171 -155 -211 -293 -211c-101 0 -220 23 -251 36c-7 3 -19 10 -16 23l14 74c3 13 13 20 24 17c43 -11 132 -29 212 -29c76 0 142 24 142 105c0 99 -90 96 -212 112c-15 3 -18 9 -18 16v72c0 9 0 18 17 21c94 13 200 10 200 106c0 72 -63 91 -132 91
c-101 0 -195 -25 -227 -36c-11 -3 -18 1 -21 14l-17 75c-3 13 1 22 12 27c29 13 141 41 277 41c117 0 273 -32 273 -195c0 -122 -101 -153 -155 -161v-28c73 -8 171 -37 171 -170z" />
    <glyph glyph-name="afii10026" unicode="&#x418;" horiz-adv-x="856" 
d="M327 0h-213c-11 0 -16 5 -16 15v710c0 9 5 14 15 14h124c10 0 15 -5 15 -14v-542h32l216 535c5 14 14 21 29 21h213c11 0 16 -5 16 -15v-709c0 -10 -5 -15 -16 -15h-123c-11 0 -16 5 -16 15v541h-32l-215 -535c-6 -14 -16 -21 -29 -21z" />
    <glyph glyph-name="afii10027" unicode="&#x419;" horiz-adv-x="856" 
d="M327 0h-213c-11 0 -16 5 -16 15v710c0 9 5 14 15 14h124c10 0 15 -5 15 -14v-542h32l216 535c5 14 14 21 29 21h213c11 0 16 -5 16 -15v-709c0 -10 -5 -15 -16 -15h-123c-11 0 -16 5 -16 15v541h-32l-215 -535c-6 -14 -16 -21 -29 -21zM613 954
c0 -108 -69 -141 -184 -141s-183 33 -183 141c0 9 0 19 15 19h55c15 0 16 -10 16 -19c1 -51 20 -73 97 -73s98 21 98 73c0 9 1 19 16 19h55c15 0 15 -10 15 -19z" />
    <glyph glyph-name="afii10028" unicode="&#x41a;" horiz-adv-x="759" 
d="M333 432l212 298c4 5 7 9 18 9h156c9 0 22 -9 11 -24l-258 -337l278 -354c2 -3 3 -6 3 -9c0 -8 -7 -15 -12 -15h-169c-9 0 -15 3 -20 9l-219 304h-70v-298c0 -10 -5 -15 -16 -15h-133c-11 0 -16 5 -16 15v709c0 10 5 15 16 15h133c11 0 16 -5 16 -15v-292h70z" />
    <glyph glyph-name="afii10029" unicode="&#x41b;" horiz-adv-x="839" 
d="M324 625v-265c0 -226 -80 -360 -301 -360c-9 0 -13 4 -13 13v113c0 7 4 12 13 13c131 8 140 114 140 239v345c0 9 8 16 17 16h543c11 0 18 -7 18 -16v-708c0 -10 -5 -15 -16 -15h-133c-11 0 -16 5 -16 15v610h-252z" />
    <glyph glyph-name="afii10030" unicode="&#x41c;" horiz-adv-x="1105" 
d="M558 283l107 438c3 11 11 18 22 18h247c11 0 21 -7 22 -18l76 -703c1 -12 -5 -18 -18 -18h-127c-13 0 -19 6 -20 18l-54 601h-29l-128 -492c-3 -9 -10 -17 -21 -17h-172c-11 0 -17 8 -20 17l-128 492h-29l-54 -601c-1 -12 -7 -18 -20 -18h-121c-11 0 -21 4 -18 19l76 701
c1 11 9 19 20 19h249c11 0 19 -7 22 -18l107 -438h11z" />
    <glyph glyph-name="afii10031" unicode="&#x41d;" horiz-adv-x="856" 
d="M758 738v-723c0 -10 -5 -15 -16 -15h-133c-9 0 -17 6 -17 15v303h-329v-303c0 -10 -5 -15 -16 -15h-133c-11 0 -16 5 -16 15v706c0 8 5 13 15 14l135 17c11 1 15 -7 15 -14v-296h329v279c0 8 5 13 16 14l135 17c11 1 15 -7 15 -14z" />
    <glyph glyph-name="afii10032" unicode="&#x41e;" horiz-adv-x="841" 
d="M778 369c0 -232 -63 -382 -358 -382c-293 0 -357 150 -357 382c0 233 64 383 357 383c295 0 358 -150 358 -383zM608 370c0 180 -21 267 -188 267c-168 0 -187 -87 -187 -267s19 -267 187 -267c167 0 188 87 188 267z" />
    <glyph glyph-name="afii10033" unicode="&#x41f;" horiz-adv-x="838" 
d="M247 0h-133c-11 0 -16 5 -16 15v709c0 10 5 15 16 15h610c11 0 16 -5 16 -15v-709c0 -10 -5 -15 -16 -15h-132c-11 0 -17 5 -17 15v610h-312v-610c0 -10 -5 -15 -16 -15z" />
    <glyph glyph-name="afii10034" unicode="&#x420;" horiz-adv-x="749" 
d="M247 0h-133c-11 0 -16 5 -16 15v708c0 11 6 16 17 16h336c183 0 267 -77 267 -244s-84 -244 -267 -244h-188v-236c0 -10 -5 -15 -16 -15zM263 365h140c93 0 144 29 144 130s-51 130 -144 130h-140v-260z" />
    <glyph glyph-name="afii10035" unicode="&#x421;" horiz-adv-x="705" 
d="M646 129l15 -74c1 -3 1 -5 1 -8c0 -7 -4 -14 -19 -19c-36 -12 -110 -34 -235 -34c-255 0 -345 110 -345 377s90 377 345 377c125 0 199 -23 235 -35c15 -5 19 -13 19 -20c0 -2 0 -4 -1 -7l-15 -76c-2 -8 -7 -12 -16 -12c-3 0 -6 0 -9 1c-29 8 -108 26 -183 26
c-168 0 -206 -74 -206 -254c0 -179 38 -257 206 -257c75 0 152 22 182 27c3 1 7 1 10 1c9 0 14 -4 16 -13z" />
    <glyph glyph-name="afii10036" unicode="&#x422;" horiz-adv-x="673" 
d="M661 724v-90c0 -11 -5 -16 -16 -16h-226v-603c0 -10 -5 -15 -16 -15h-133c-11 0 -16 5 -16 15v603h-226c-11 0 -16 5 -16 15v91c0 8 7 15 16 15h617c9 0 16 -7 16 -15z" />
    <glyph glyph-name="afii10037" unicode="&#x423;" horiz-adv-x="729" 
d="M285 276l-283 445c-5 8 7 18 14 18h157c12 0 16 -4 23 -17l185 -312l164 313c7 13 11 16 23 16h145c15 0 18 -13 13 -24l-271 -469c-107 -185 -200 -259 -394 -259c-11 0 -16 7 -16 15v97c0 9 5 15 16 16c102 8 148 28 209 135z" />
    <glyph glyph-name="afii10038" unicode="&#x424;" horiz-adv-x="966" 
d="M549 0h-132c-11 0 -16 5 -16 15v78c-310 0 -356 121 -356 289c0 165 46 289 356 289v50c0 8 5 13 15 14l134 17c10 1 15 -4 15 -15v-66c310 0 356 -124 356 -289c0 -168 -46 -289 -356 -289v-78c0 -10 -5 -15 -16 -15zM401 206v352c-155 0 -186 -45 -186 -176
s31 -176 186 -176zM565 558v-352c155 0 186 45 186 176s-31 176 -186 176z" />
    <glyph glyph-name="afii10039" unicode="&#x425;" horiz-adv-x="753" 
d="M490 389l250 -368c2 -3 3 -6 3 -8c0 -9 -5 -13 -15 -13h-162c-8 0 -16 5 -19 10l-178 291l-180 -291c-3 -5 -11 -10 -19 -10h-146c-11 0 -16 16 -12 21l247 361l-231 333c-1 1 -1 3 -1 6c0 9 10 18 14 18h158c12 0 16 -4 23 -16l159 -254l150 254c7 13 11 16 23 16h143
c11 0 14 -8 14 -15c0 -3 -1 -6 -2 -8z" />
    <glyph glyph-name="afii10040" unicode="&#x426;" horiz-adv-x="833" 
d="M820 -168h-106c-11 0 -17 5 -17 15v153h-583c-11 0 -16 5 -16 15v706c0 8 5 13 15 14l134 17c11 1 16 -6 16 -15v-623h308v607c0 8 5 13 15 14l134 17c10 1 15 -4 15 -15v-623h85c11 0 16 -5 16 -15v-252c0 -10 -5 -15 -16 -15z" />
    <glyph glyph-name="afii10041" unicode="&#x427;" horiz-adv-x="783" 
d="M669 0h-132c-11 0 -17 5 -17 15v299c-40 -11 -150 -32 -248 -32c-157 0 -222 57 -222 178v261c0 8 5 13 16 14l133 17c11 1 16 -6 16 -15v-248c0 -68 34 -91 111 -91c74 0 162 18 194 26v297c0 8 5 13 15 14l134 17c11 1 16 -6 16 -15v-722c0 -10 -5 -15 -16 -15z" />
    <glyph glyph-name="afii10042" unicode="&#x428;" horiz-adv-x="1106" 
d="M992 0h-878c-11 0 -16 5 -16 15v706c0 8 5 13 15 14l134 17c11 1 16 -6 16 -15v-623h208v607c0 8 5 13 15 14l134 17c10 1 15 -4 15 -15v-623h209v607c0 8 5 13 15 14l134 17c10 1 15 -4 15 -15v-721c0 -11 -5 -16 -16 -16z" />
    <glyph glyph-name="afii10043" unicode="&#x429;" horiz-adv-x="1106" 
d="M970 0h-856c-11 0 -16 5 -16 15v706c0 8 5 13 15 14l134 17c11 1 16 -6 16 -15v-623h208v607c0 8 5 13 15 14l134 17c10 1 15 -4 15 -15v-623h209v607c0 8 5 13 15 14l134 17c10 1 15 -4 15 -15v-623h85c11 0 16 -5 16 -15v-252c0 -10 -5 -15 -16 -15h-106
c-11 0 -17 5 -17 15v153z" />
    <glyph glyph-name="afii10044" unicode="&#x42a;" horiz-adv-x="853" 
d="M550 0h-349c-9 0 -17 7 -17 16v602h-156c-9 0 -16 7 -16 15v91c0 10 5 15 16 15h302c9 0 18 -8 18 -17v-260h202c171 0 272 -60 272 -231s-101 -231 -272 -231zM348 114h164c93 0 140 25 140 117s-48 118 -140 118h-164v-235z" />
    <glyph glyph-name="afii10045" unicode="&#x42b;" horiz-adv-x="1132" 
d="M464 0h-349c-9 0 -17 7 -17 16v705c0 8 5 13 15 14l134 17c11 1 16 -6 16 -15v-275h201c171 0 272 -60 272 -231s-101 -231 -272 -231zM263 114h164c92 0 139 25 139 117s-47 118 -139 118h-164v-235zM1034 738v-723c0 -10 -5 -15 -16 -15h-133c-11 0 -16 5 -16 15v706
c0 8 5 13 15 14l135 17c11 1 15 -7 15 -14z" />
    <glyph glyph-name="afii10046" unicode="&#x42c;" horiz-adv-x="767" 
d="M464 0h-349c-9 0 -17 7 -17 16v705c0 8 5 13 15 14l134 17c11 1 16 -6 16 -15v-275h201c171 0 272 -60 272 -231s-101 -231 -272 -231zM263 114h164c92 0 139 25 139 117s-47 118 -139 118h-164v-235z" />
    <glyph glyph-name="afii10047" unicode="&#x42d;" horiz-adv-x="705" 
d="M297 -6c-124 0 -199 22 -235 35c-15 5 -19 12 -19 19c0 2 0 4 1 7l16 76c2 8 7 12 15 12c3 0 6 0 9 -1c29 -8 114 -28 183 -28c149 0 205 63 205 204h-226c-10 0 -16 5 -17 14l-12 94c-1 9 6 14 15 14h239c0 131 -59 188 -204 188c-69 0 -154 -21 -183 -29
c-3 -1 -6 -1 -9 -1c-8 0 -13 4 -15 13l-16 76c-1 3 -1 5 -1 6c0 8 4 13 19 20c36 12 111 35 235 35c255 0 345 -111 345 -377c0 -267 -90 -377 -345 -377z" />
    <glyph glyph-name="afii10048" unicode="&#x42e;" horiz-adv-x="1154" 
d="M734 -13c-273 0 -345 129 -356 332h-115v-304c0 -10 -5 -15 -16 -15h-133c-11 0 -16 5 -16 15v706c0 8 5 13 15 14l134 17c8 1 16 -6 16 -14v-298h116c13 191 93 312 355 312c293 0 357 -150 357 -383c0 -232 -64 -382 -357 -382zM733 103c167 0 188 87 188 267
s-21 267 -188 267c-168 0 -187 -87 -187 -267s19 -267 187 -267z" />
    <glyph glyph-name="afii10049" unicode="&#x42f;" horiz-adv-x="806" 
d="M692 0h-133c-11 0 -16 5 -16 15v254l-145 -4c-93 -3 -143 -25 -148 -117l-6 -134c0 -9 -5 -14 -15 -14h-142c-10 0 -15 5 -15 14l7 146c5 121 48 155 164 168v27c-116 16 -157 80 -157 183c0 140 90 201 254 201h352c11 0 16 -5 16 -15v-709c0 -10 -5 -15 -16 -15z
M543 377v248h-172c-88 0 -117 -39 -117 -123c0 -93 58 -116 140 -119z" />
    <glyph glyph-name="afii10065" unicode="&#x430;" horiz-adv-x="595" 
d="M529 380v-275c0 -76 -28 -89 -97 -105c-37 -8 -83 -13 -142 -13c-116 0 -244 15 -244 171c0 128 82 145 155 156l174 28v27c0 27 -3 43 -24 54c-13 7 -37 10 -71 10c-65 0 -136 -19 -165 -27c-5 -1 -9 -2 -10 -2c-7 0 -10 3 -11 9l-15 66c-1 3 -1 5 -1 8c0 9 7 12 12 15
c22 8 116 36 223 36c71 0 119 -10 152 -29c51 -27 64 -73 64 -129zM376 250l-107 -17c-38 -5 -71 -14 -71 -73c0 -70 56 -76 96 -76c37 0 69 7 82 11v155z" />
    <glyph glyph-name="afii10066" unicode="&#x431;" horiz-adv-x="603" 
d="M149 678c99 94 177 87 289 98c31 3 50 6 79 11c19 3 23 -5 23 -20v-85c0 -15 -7 -23 -20 -22l-38 2c-13 1 -27 1 -44 1c-109 0 -225 -30 -241 -182h8c13 18 64 54 142 54c180 0 210 -129 210 -274c0 -188 -75 -274 -252 -274c-176 0 -255 89 -255 320
c0 185 24 300 99 371zM303 91c88 0 98 60 98 167c0 106 -10 165 -98 165c-92 0 -104 -59 -104 -165c0 -107 12 -167 104 -167z" />
    <glyph glyph-name="afii10067" unicode="&#x432;" horiz-adv-x="608" 
d="M359 0h-271c-11 0 -16 5 -16 15v495c0 10 5 15 16 15h285c123 0 174 -36 174 -127c0 -83 -48 -106 -112 -117v-18c81 -7 129 -41 129 -126c0 -99 -78 -137 -205 -137zM225 87h99c64 0 83 26 83 67c0 51 -22 69 -83 72l-99 2v-141zM225 306l97 3c51 3 76 17 76 65
c0 43 -18 64 -74 64h-99v-132z" />
    <glyph glyph-name="afii10068" unicode="&#x433;" horiz-adv-x="482" 
d="M209 0h-121c-11 0 -16 5 -16 15v494c0 11 6 16 17 16h356c11 0 17 -5 17 -15v-80c0 -10 -6 -15 -17 -15h-220v-400c0 -10 -5 -15 -16 -15z" />
    <glyph glyph-name="afii10069" unicode="&#x434;" horiz-adv-x="616" 
d="M270 425v-54c0 -82 -11 -197 -67 -271h201v325h-134zM154 525h374c11 0 16 -5 16 -14v-411h68c11 0 17 -5 17 -15v-220c0 -10 -6 -15 -17 -15h-89c-11 0 -16 5 -16 15v135h-375v-135c0 -10 -5 -15 -16 -15h-90c-11 0 -16 5 -16 15v213c0 13 4 18 15 22
c98 32 113 190 113 302v108c0 10 5 15 16 15z" />
    <glyph glyph-name="afii10070" unicode="&#x435;" horiz-adv-x="593" 
d="M547 271l-1 -48c0 -13 -5 -26 -24 -26h-323c0 -43 14 -66 43 -85c25 -15 61 -22 108 -22c61 0 105 15 136 23c11 3 18 -1 21 -12l13 -57c4 -16 -3 -21 -10 -24c-32 -13 -101 -33 -186 -33c-195 0 -278 72 -278 273c0 195 57 278 252 278c100 0 160 -23 199 -68
c37 -45 50 -111 50 -199zM395 290v6c0 27 -2 50 -7 71c-11 52 -37 69 -88 69c-64 0 -86 -20 -95 -65c-5 -25 -5 -50 -6 -81h196z" />
    <glyph glyph-name="afii10072" unicode="&#x436;" horiz-adv-x="920" 
d="M187 0h-157c-7 0 -12 9 -8 14l183 257l-173 239c-4 5 -3 15 8 15h138c9 0 15 -3 18 -9l137 -203h50v197c0 10 6 15 17 15h121c11 0 16 -5 16 -15v-197h50l137 203c3 6 9 9 18 9h138c11 0 12 -10 8 -15l-173 -239l183 -257c4 -5 -1 -14 -8 -14h-157c-7 0 -11 2 -14 7
l-132 205h-50v-197c0 -10 -6 -15 -17 -15h-121c-11 0 -16 5 -16 15v197h-50l-132 -205c-3 -5 -7 -7 -14 -7z" />
    <glyph glyph-name="afii10073" unicode="&#x437;" horiz-adv-x="527" 
d="M265 -10c-116 0 -201 18 -225 26c-11 4 -16 12 -14 23l9 59c1 13 11 18 22 15c23 -5 99 -21 164 -21c53 0 105 9 105 63c0 33 -18 50 -54 57c-31 7 -60 9 -91 13c-15 3 -18 10 -18 19v45c0 8 3 16 18 19c27 4 56 6 83 13c35 7 53 25 53 54c0 53 -49 58 -102 58
c-62 0 -135 -16 -159 -21c-11 -3 -19 1 -22 16l-8 58c-2 11 2 19 13 23c24 8 111 27 212 27c109 0 220 -27 220 -135c0 -75 -35 -107 -116 -123v-15c81 -13 127 -44 127 -123c0 -120 -117 -150 -217 -150z" />
    <glyph glyph-name="afii10074" unicode="&#x438;" horiz-adv-x="621" 
d="M245 0h-157c-11 0 -16 5 -16 15v495c0 10 5 15 16 15h101c11 0 17 -5 17 -15v-342h19l129 343c3 9 11 14 22 14h157c11 0 16 -5 16 -15v-495c0 -10 -5 -15 -16 -15h-102c-11 0 -16 5 -16 15v342h-19l-129 -343c-3 -9 -11 -14 -22 -14z" />
    <glyph glyph-name="afii10075" unicode="&#x439;" horiz-adv-x="621" 
d="M245 0h-157c-11 0 -16 5 -16 15v495c0 10 5 15 16 15h101c11 0 17 -5 17 -15v-342h19l129 343c3 9 11 14 22 14h157c11 0 16 -5 16 -15v-495c0 -10 -5 -15 -16 -15h-102c-11 0 -16 5 -16 15v342h-19l-129 -343c-3 -9 -11 -14 -22 -14zM494 736c0 -108 -69 -141 -184 -141
s-183 33 -183 141c0 9 0 19 15 19h55c15 0 16 -10 16 -19c1 -51 20 -73 97 -73s98 21 98 73c0 9 1 19 16 19h55c15 0 15 -10 15 -19z" />
    <glyph glyph-name="afii10076" unicode="&#x43a;" horiz-adv-x="608" 
d="M209 0h-121c-11 0 -16 5 -16 15v495c0 10 5 15 16 15h121c11 0 16 -5 16 -15v-197h51l136 203c3 6 9 9 18 9h138c11 0 12 -10 8 -15l-173 -239l183 -257c4 -5 -1 -14 -8 -14h-157c-6 0 -10 2 -13 7l-132 205h-51v-197c0 -10 -5 -15 -16 -15z" />
    <glyph glyph-name="afii10077" unicode="&#x43b;" horiz-adv-x="617" 
d="M252 425v-169c0 -198 -60 -256 -224 -256c-15 0 -23 7 -23 21v82c0 10 5 15 16 16c76 5 81 47 81 134v256c0 11 6 16 17 16h410c11 0 16 -5 16 -15v-495c0 -10 -5 -15 -16 -15h-121c-11 0 -16 5 -16 15v410h-140z" />
    <glyph glyph-name="afii10078" unicode="&#x43c;" horiz-adv-x="825" 
d="M172 0h-100c-11 0 -24 6 -21 22l53 484c1 13 8 19 23 19h199c13 0 20 -4 24 -20l61 -271h11l61 271c4 16 10 20 25 20h190c13 0 21 -6 23 -19l53 -484c3 -15 -7 -22 -22 -22h-101c-15 0 -23 4 -24 20l-35 380h-20l-69 -297c-4 -16 -10 -19 -25 -19h-133
c-15 0 -21 3 -25 19l-69 297h-20l-35 -380c-3 -16 -9 -20 -24 -20z" />
    <glyph glyph-name="afii10079" unicode="&#x43d;" horiz-adv-x="621" 
d="M208 0h-119c-11 0 -17 5 -17 16v479c0 13 3 21 18 24l115 18c11 3 20 -4 20 -17v-196h171v171c0 13 3 21 18 24l115 18c11 3 20 -4 20 -17v-504c0 -11 -5 -16 -16 -16h-120c-11 0 -17 5 -17 16v205h-171v-205c0 -11 -6 -16 -17 -16z" />
    <glyph glyph-name="afii10080" unicode="&#x43e;" horiz-adv-x="600" 
d="M554 262c0 -154 -29 -275 -254 -275c-226 0 -254 121 -254 275c0 155 28 276 254 276c225 0 254 -121 254 -276zM397 262c0 117 -5 172 -97 172c-93 0 -97 -55 -97 -172c0 -116 4 -171 97 -171c92 0 97 55 97 171z" />
    <glyph glyph-name="afii10081" unicode="&#x43f;" horiz-adv-x="621" 
d="M208 0h-119c-11 0 -17 5 -17 16v493c0 11 5 16 16 16h445c11 0 16 -5 16 -16v-493c0 -11 -5 -16 -16 -16h-120c-11 0 -17 5 -17 16v409h-171v-409c0 -11 -6 -16 -17 -16z" />
    <glyph glyph-name="afii10082" unicode="&#x440;" horiz-adv-x="613" 
d="M567 262c0 -145 -28 -275 -216 -275c-53 0 -99 7 -136 18l11 -63v-109c0 -14 -6 -22 -18 -24l-114 -19c-15 -2 -22 4 -22 18v615c0 56 23 71 66 84c64 20 140 31 208 31c198 0 221 -119 221 -276zM410 266c0 153 -28 167 -96 167c-35 0 -78 -11 -88 -13v-320
c7 -3 39 -9 78 -9c81 0 106 26 106 175z" />
    <glyph glyph-name="afii10083" unicode="&#x441;" horiz-adv-x="518" 
d="M46 265c0 189 65 273 262 273c81 0 138 -15 162 -26c8 -3 15 -10 12 -22l-13 -62c-3 -11 -10 -14 -21 -11c-24 7 -67 16 -114 16c-103 0 -133 -45 -133 -169s30 -168 133 -168c47 0 90 9 114 16c11 3 18 0 21 -11l13 -62c3 -12 -4 -19 -12 -22c-24 -11 -81 -26 -162 -26
c-197 0 -262 85 -262 274z" />
    <glyph glyph-name="afii10084" unicode="&#x442;" horiz-adv-x="522" 
d="M322 0h-120c-11 0 -17 5 -17 16v399h-148c-11 0 -17 5 -17 15v80c0 10 6 15 17 15h449c11 0 16 -5 16 -15v-80c0 -10 -5 -15 -16 -15h-148v-399c0 -11 -5 -16 -16 -16z" />
    <glyph glyph-name="afii10085" unicode="&#x443;" horiz-adv-x="565" 
d="M548 500l-158 -557c-26 -92 -64 -153 -194 -153c-67 0 -86 4 -102 7c-10 2 -15 8 -15 18l1 63c0 11 3 20 18 20c17 0 37 -2 60 -2c52 0 76 15 87 58l13 46h-75c-9 0 -15 5 -18 16l-139 483c-1 3 -1 6 -1 9c0 11 6 17 18 17h118c13 0 20 -2 23 -17l95 -412h27l85 411
c3 15 10 18 23 18h116c13 0 19 -6 19 -17c0 -3 0 -6 -1 -8z" />
    <glyph glyph-name="afii10086" unicode="&#x444;" horiz-adv-x="869" 
d="M246 -14c-175 0 -202 132 -202 280c0 203 65 272 209 272c41 0 82 -10 101 -17l14 -4l-10 62v133c0 12 5 19 16 21l119 19c11 3 18 -5 18 -17l1 -216c20 7 61 19 104 19c144 0 209 -69 209 -272c0 -148 -27 -280 -202 -280c-51 0 -96 13 -123 21l11 -64v-110
c0 -14 -6 -22 -17 -24l-118 -19c-11 -3 -18 6 -18 18v196c-27 -7 -67 -18 -112 -18zM298 91c19 0 48 5 60 8v324c-13 3 -45 10 -69 10c-64 0 -89 -18 -89 -167c0 -155 26 -175 98 -175zM571 91c72 0 98 20 98 175c0 149 -24 167 -90 167c-23 0 -55 -7 -68 -10v-324
c12 -3 41 -8 60 -8z" />
    <glyph glyph-name="afii10087" unicode="&#x445;" horiz-adv-x="598" 
d="M399 267l177 -248c1 -2 2 -4 2 -7c0 -7 -3 -12 -10 -12h-137c-6 0 -11 3 -16 10l-121 182l-111 -182c-3 -5 -9 -10 -16 -10h-137c-7 0 -10 5 -10 12c0 3 1 5 2 7l177 247l-158 236c-2 3 -3 6 -3 9c0 8 7 14 12 14h121c15 0 23 0 31 -13l104 -168l92 167c8 15 15 14 31 14
h119c5 0 12 -7 12 -15c0 -3 -1 -6 -2 -9z" />
    <glyph glyph-name="afii10088" unicode="&#x446;" horiz-adv-x="616" 
d="M613 -150h-89c-11 0 -17 5 -17 15v135h-419c-11 0 -16 5 -16 16v479c0 13 3 21 18 24l115 18c11 3 20 -4 20 -17v-420h167v395c0 13 3 21 18 24l115 18c11 3 20 -4 20 -17v-420h68c11 0 16 -5 16 -15v-220c0 -10 -5 -15 -16 -15z" />
    <glyph glyph-name="afii10089" unicode="&#x447;" horiz-adv-x="619" 
d="M531 0h-121c-11 0 -16 5 -16 15v122l11 63c-47 -12 -106 -22 -157 -22c-112 0 -178 33 -178 144v173c0 13 3 21 18 24l115 18c11 3 20 -4 20 -17v-173c0 -44 15 -66 64 -66c45 0 95 10 107 12v202c0 13 3 21 18 24l115 18c11 3 20 -4 20 -17v-505c0 -10 -5 -15 -16 -15z
" />
    <glyph glyph-name="afii10090" unicode="&#x448;" horiz-adv-x="871" 
d="M782 0h-694c-11 0 -16 5 -16 16v479c0 13 3 21 18 24l115 18c11 3 20 -4 20 -17v-420h133v395c0 13 6 21 19 24l115 18c11 3 20 -4 20 -17v-420h133v395c0 13 6 21 19 24l115 18c11 3 20 -4 20 -17v-504c0 -11 -6 -16 -17 -16z" />
    <glyph glyph-name="afii10091" unicode="&#x449;" horiz-adv-x="871" 
d="M762 0h-674c-11 0 -16 5 -16 16v479c0 13 3 21 18 24l115 18c11 3 20 -4 20 -17v-420h133v395c0 13 6 21 19 24l115 18c11 3 20 -4 20 -17v-420h133v395c0 13 6 21 19 24l115 18c11 3 20 -4 20 -17v-420h69c11 0 16 -5 16 -15v-220c0 -10 -5 -15 -16 -15h-90
c-11 0 -16 5 -16 15v135z" />
    <glyph glyph-name="afii10092" unicode="&#x44a;" horiz-adv-x="658" 
d="M426 0h-279c-11 0 -16 5 -16 15v400h-106c-11 0 -17 5 -17 15v80c0 10 6 15 17 15h243c11 0 16 -5 16 -15v-159h142c131 0 197 -52 197 -175c0 -125 -66 -176 -197 -176zM284 87h106c56 0 77 30 77 89c0 57 -21 88 -77 88h-106v-177z" />
    <glyph glyph-name="afii10093" unicode="&#x44b;" horiz-adv-x="868" 
d="M780 0h-121c-11 0 -16 5 -16 15v479c0 15 6 24 19 26l115 19c13 2 19 -4 19 -17v-507c0 -10 -5 -15 -16 -15zM366 0h-278c-11 0 -16 5 -16 15v480c0 13 3 21 18 24l115 18c11 3 20 -4 20 -17v-169h141c131 0 198 -52 198 -175c0 -125 -67 -176 -198 -176zM225 87h106
c56 0 77 30 77 89c0 57 -21 88 -77 88h-106v-177z" />
    <glyph glyph-name="afii10094" unicode="&#x44c;" horiz-adv-x="599" 
d="M366 0h-278c-11 0 -16 5 -16 15v480c0 13 3 21 18 24l115 18c11 3 20 -4 20 -17v-169h141c131 0 198 -52 198 -175c0 -125 -67 -176 -198 -176zM225 87h106c56 0 77 30 77 89c0 57 -21 88 -77 88h-106v-177z" />
    <glyph glyph-name="afii10095" unicode="&#x44d;" horiz-adv-x="518" 
d="M472 265c0 -189 -65 -274 -262 -274c-81 0 -138 15 -162 26c-8 3 -15 10 -12 22l13 62c3 11 10 14 21 11c24 -7 67 -16 114 -16c89 0 131 32 131 123h-140c-7 0 -12 4 -13 12l-9 69c-1 8 2 12 11 12h151c0 88 -43 121 -131 121c-47 0 -90 -9 -114 -16
c-11 -3 -18 0 -21 11l-13 62c-3 12 4 19 12 22c24 11 81 26 162 26c197 0 262 -84 262 -273z" />
    <glyph glyph-name="afii10096" unicode="&#x44e;" horiz-adv-x="853" 
d="M553 -13c-205 0 -245 100 -253 233h-75v-205c0 -10 -5 -15 -16 -15h-121c-11 0 -16 5 -16 15v479c0 15 6 24 19 26l116 19c11 3 18 -5 18 -17v-198h76c11 124 57 214 252 214c226 0 254 -122 254 -276c0 -153 -28 -275 -254 -275zM553 91c93 0 98 55 98 171
c0 117 -5 172 -98 172s-97 -55 -97 -172c0 -116 4 -171 97 -171z" />
    <glyph glyph-name="afii10097" unicode="&#x44f;" horiz-adv-x="616" 
d="M196 0h-131c-10 0 -15 5 -15 15l5 97c4 87 37 118 124 123v17c-89 13 -121 58 -121 130c0 109 74 143 189 143h281c11 0 16 -5 16 -15v-495c0 -10 -5 -15 -16 -15h-121c-11 0 -16 5 -16 15v185l-82 -3c-67 -3 -90 -19 -93 -82l-3 -100c-1 -10 -7 -15 -17 -15zM391 438
h-105c-52 0 -72 -29 -72 -76c0 -59 35 -77 88 -80l89 -3v159z" />
    <glyph glyph-name="uni0450" unicode="&#x450;" horiz-adv-x="593" 
d="M547 271l-1 -48c0 -13 -5 -26 -24 -26h-323c0 -43 14 -66 43 -85c25 -15 61 -22 108 -22c61 0 105 15 136 23c11 3 18 -1 21 -12l13 -57c4 -16 -3 -21 -10 -24c-32 -13 -101 -33 -186 -33c-195 0 -278 72 -278 273c0 195 57 278 252 278c100 0 160 -23 199 -68
c37 -45 50 -111 50 -199zM395 290v6c0 27 -2 50 -7 71c-11 52 -37 69 -88 69c-64 0 -86 -20 -95 -65c-5 -25 -5 -50 -6 -81h196zM402 658l-43 -58c-3 -5 -9 -7 -16 -3l-161 106c-6 4 -7 9 -3 14l48 63c4 5 11 7 16 3l157 -111c5 -4 6 -9 2 -14z" />
    <glyph glyph-name="afii10071" unicode="&#x451;" horiz-adv-x="593" 
d="M547 271l-1 -48c0 -13 -5 -26 -24 -26h-323c0 -43 14 -66 43 -85c25 -15 61 -22 108 -22c61 0 105 15 136 23c11 3 18 -1 21 -12l13 -57c4 -16 -3 -21 -10 -24c-32 -13 -101 -33 -186 -33c-195 0 -278 72 -278 273c0 195 57 278 252 278c100 0 160 -23 199 -68
c37 -45 50 -111 50 -199zM395 290v6c0 27 -2 50 -7 71c-11 52 -37 69 -88 69c-64 0 -86 -20 -95 -65c-5 -25 -5 -50 -6 -81h196zM257 707v-77c0 -8 -9 -15 -21 -15h-115c-12 0 -20 7 -20 15v77c0 11 7 16 20 16h115c12 0 21 -7 21 -16zM492 707v-77c0 -8 -8 -15 -20 -15
h-115c-12 0 -21 7 -21 15v77c0 9 9 16 21 16h115c13 0 20 -5 20 -16z" />
    <glyph glyph-name="afii10099" unicode="&#x452;" horiz-adv-x="616" 
d="M550 345v-252c0 -222 -75 -303 -283 -303c-11 0 -17 5 -17 14v72c0 10 6 15 17 15c116 3 129 60 129 201v227c0 44 -15 66 -63 66c-32 0 -70 -5 -107 -12v-358c0 -10 -5 -15 -16 -15h-122c-11 0 -16 5 -16 15v557h-48c-11 0 -16 5 -16 15v65c0 10 5 15 16 15h48v42
c0 15 3 21 18 24l114 19c15 2 22 -4 22 -17v-68h137c11 0 16 -5 16 -15v-65c0 -10 -5 -15 -16 -15h-137v-43l-11 -62c47 11 105 21 156 21c112 0 179 -31 179 -143z" />
    <glyph glyph-name="afii10100" unicode="&#x453;" horiz-adv-x="482" 
d="M209 0h-121c-11 0 -16 5 -16 15v494c0 11 6 16 17 16h356c11 0 17 -5 17 -15v-80c0 -10 -6 -15 -17 -15h-220v-400c0 -10 -5 -15 -16 -15zM347 780l47 -63c3 -3 3 -11 -2 -14l-161 -106c-7 -4 -12 -3 -17 3l-43 58c-4 6 -3 11 2 14l157 111c3 3 10 4 17 -3z" />
    <glyph glyph-name="afii10101" unicode="&#x454;" horiz-adv-x="518" 
d="M46 265c0 189 65 273 262 273c81 0 138 -15 162 -26c8 -3 15 -10 12 -22l-13 -62c-3 -11 -10 -14 -21 -11c-24 7 -67 16 -114 16c-88 0 -131 -33 -131 -121h151c8 0 12 -4 11 -12l-9 -69c-1 -8 -6 -12 -13 -12h-140c0 -91 42 -123 131 -123c47 0 90 9 114 16
c11 3 18 0 21 -11l13 -62c3 -12 -4 -19 -12 -22c-24 -11 -81 -26 -162 -26c-197 0 -262 85 -262 274z" />
    <glyph glyph-name="afii10102" unicode="&#x455;" horiz-adv-x="508" 
d="M464 160c0 -131 -96 -172 -218 -172c-88 0 -166 21 -185 29c-7 3 -14 8 -11 16l12 69c2 8 6 12 12 12c1 0 4 0 7 -1c14 -3 82 -23 145 -23c45 0 84 14 84 57c0 48 -31 54 -83 62c-66 11 -171 24 -171 164c0 147 129 165 217 165c80 0 143 -16 163 -23c9 -2 12 -7 11 -16
l-12 -68c-1 -7 -5 -10 -13 -10c-2 0 -5 0 -8 1c-9 2 -67 14 -118 14c-39 0 -86 -8 -86 -52c0 -52 48 -55 99 -63c76 -14 155 -32 155 -161z" />
    <glyph glyph-name="afii10103" unicode="&#x456;" horiz-adv-x="328" 
d="M241 498v-483c0 -10 -5 -15 -16 -15h-122c-11 0 -16 5 -16 15v483c0 10 5 15 16 15h122c11 0 16 -5 16 -15zM240 726v-115c0 -17 -9 -26 -28 -26h-96c-19 0 -28 9 -28 26v115c0 17 9 26 28 26h96c19 0 28 -9 28 -26z" />
    <glyph glyph-name="afii10104" unicode="&#x457;" horiz-adv-x="328" 
d="M241 498v-483c0 -10 -5 -15 -16 -15h-122c-11 0 -16 5 -16 15v483c0 10 5 15 16 15h122c11 0 16 -5 16 -15zM125 707v-77c0 -8 -9 -15 -21 -15h-115c-12 0 -20 7 -20 15v77c0 11 7 16 20 16h115c12 0 21 -7 21 -16zM360 707v-77c0 -8 -8 -15 -20 -15h-115
c-12 0 -21 7 -21 15v77c0 9 9 16 21 16h115c13 0 20 -5 20 -16z" />
    <glyph glyph-name="afii10105" unicode="&#x458;" horiz-adv-x="323" 
d="M241 498v-529c0 -145 -86 -179 -195 -179c-43 0 -68 3 -73 4c-11 3 -20 4 -20 21l1 58c0 13 7 19 21 20l31 1c49 3 82 7 82 78v526c0 10 5 15 16 15h121c11 0 16 -5 16 -15zM240 726v-115c0 -17 -9 -26 -28 -26h-96c-19 0 -28 9 -28 26v115c0 17 9 26 28 26h96
c19 0 28 -9 28 -26z" />
    <glyph glyph-name="afii10106" unicode="&#x459;" horiz-adv-x="908" 
d="M252 425v-169c0 -198 -60 -256 -224 -256c-15 0 -23 7 -23 21v82c0 10 5 15 16 16c76 5 81 47 81 134v256c0 11 6 16 17 16h399c11 0 17 -5 17 -15v-159h141c131 0 197 -52 197 -175c0 -125 -66 -176 -197 -176h-278c-11 0 -17 5 -17 15v410h-129zM535 87h105
c56 0 77 30 77 89c0 57 -21 88 -77 88h-105v-177z" />
    <glyph glyph-name="afii10107" unicode="&#x45a;" horiz-adv-x="920" 
d="M208 0h-119c-11 0 -17 5 -17 16v479c0 13 3 21 18 24l115 18c11 3 20 -4 20 -17v-184h168v159c0 13 3 21 18 24l115 18c11 3 20 -4 20 -17v-184h144c133 0 195 -52 195 -168s-62 -168 -195 -168h-281c-11 0 -16 5 -16 15v218h-168v-217c0 -11 -6 -16 -17 -16zM546 87h106
c51 0 77 27 77 81c0 56 -26 81 -77 81h-106v-162z" />
    <glyph glyph-name="afii10108" unicode="&#x45b;" horiz-adv-x="616" 
d="M226 572v-43l-11 -62c47 11 105 21 156 21c112 0 179 -31 179 -143v-330c0 -10 -5 -15 -16 -15h-122c-11 0 -16 5 -16 15v304c0 44 -15 66 -63 66c-32 0 -70 -5 -107 -12v-358c0 -10 -5 -15 -16 -15h-122c-11 0 -16 5 -16 15v557h-48c-11 0 -16 5 -16 15v65
c0 10 5 15 16 15h48v42c0 15 3 21 18 24l114 19c15 2 22 -4 22 -17v-68h137c11 0 16 -5 16 -15v-65c0 -10 -5 -15 -16 -15h-137z" />
    <glyph glyph-name="afii10109" unicode="&#x45c;" horiz-adv-x="608" 
d="M209 0h-121c-11 0 -16 5 -16 15v495c0 10 5 15 16 15h121c11 0 16 -5 16 -15v-197h51l136 203c3 6 9 9 18 9h138c11 0 12 -10 8 -15l-173 -239l183 -257c4 -5 -1 -14 -8 -14h-157c-6 0 -10 2 -13 7l-132 205h-51v-197c0 -10 -5 -15 -16 -15zM381 780l47 -63
c3 -3 3 -11 -2 -14l-161 -106c-7 -4 -12 -3 -17 3l-43 58c-4 6 -3 11 2 14l157 111c3 3 10 4 17 -3z" />
    <glyph glyph-name="uni045D" unicode="&#x45d;" horiz-adv-x="621" 
d="M245 0h-157c-11 0 -16 5 -16 15v495c0 10 5 15 16 15h101c11 0 17 -5 17 -15v-342h19l129 343c3 9 11 14 22 14h157c11 0 16 -5 16 -15v-495c0 -10 -5 -15 -16 -15h-102c-11 0 -16 5 -16 15v342h-19l-129 -343c-3 -9 -11 -14 -22 -14zM415 658l-43 -58
c-3 -5 -9 -7 -16 -3l-161 106c-6 4 -7 9 -3 14l48 63c4 5 11 7 16 3l157 -111c5 -4 6 -9 2 -14z" />
    <glyph glyph-name="afii10110" unicode="&#x45e;" horiz-adv-x="565" 
d="M548 500l-158 -557c-26 -92 -64 -153 -194 -153c-67 0 -86 4 -102 7c-10 2 -15 8 -15 18l1 63c0 11 3 20 18 20c17 0 37 -2 60 -2c52 0 76 15 87 58l13 46h-75c-9 0 -15 5 -18 16l-139 483c-1 3 -1 6 -1 9c0 11 6 17 18 17h118c13 0 20 -2 23 -17l95 -412h27l85 411
c3 15 10 18 23 18h116c13 0 19 -6 19 -17c0 -3 0 -6 -1 -8zM475 736c0 -108 -69 -141 -184 -141s-183 33 -183 141c0 9 0 19 15 19h55c15 0 16 -10 16 -19c1 -51 20 -73 97 -73s98 21 98 73c0 9 1 19 16 19h55c15 0 15 -10 15 -19z" />
    <glyph glyph-name="afii10193" unicode="&#x45f;" horiz-adv-x="617" 
d="M353 -150h-89c-11 0 -16 5 -16 15v135h-160c-11 0 -16 5 -16 16v479c0 13 3 21 18 24l115 18c11 3 20 -4 20 -17v-420h167v395c0 13 3 21 18 24l115 18c11 3 20 -4 20 -17v-504c0 -11 -5 -16 -16 -16h-159v-135c0 -10 -6 -15 -17 -15z" />
    <glyph glyph-name="afii10146" unicode="&#x462;" horiz-adv-x="773" 
d="M104 556h-76c-11 0 -16 5 -16 15v50c0 11 5 16 16 16h76v83c0 9 5 14 16 15l134 17c5 1 14 -7 14 -15v-100h238c11 0 17 -5 17 -16v-50c0 -10 -6 -15 -17 -15h-238v-94h202c171 0 272 -60 272 -231s-101 -231 -272 -231h-349c-9 0 -17 7 -17 16v540zM268 114h164
c93 0 140 25 140 117s-48 118 -140 118h-164v-235z" />
    <glyph glyph-name="afii10194" unicode="&#x463;" horiz-adv-x="602" 
d="M228 430v-79h141c131 0 198 -52 198 -175c0 -125 -67 -176 -198 -176h-279c-11 0 -16 5 -16 15v415h-48c-11 0 -16 5 -16 15v65c0 10 5 15 16 15h48v184c0 15 3 21 18 24l114 19c15 2 22 -4 22 -17v-210h137c11 0 16 -5 16 -15v-65c0 -10 -5 -15 -16 -15h-137zM228 87
h106c56 0 77 30 77 89c0 57 -21 88 -77 88h-106v-177z" />
    <glyph glyph-name="afii10147" unicode="&#x472;" horiz-adv-x="841" 
d="M420 -13c-293 0 -357 150 -357 382c0 233 64 383 357 383c294 0 358 -150 358 -383c0 -232 -64 -382 -358 -382zM420 103c156 0 183 75 188 224h-375c3 -149 32 -224 187 -224zM233 427h374c-5 141 -38 210 -187 210s-182 -69 -187 -210z" />
    <glyph glyph-name="afii10195" unicode="&#x473;" horiz-adv-x="600" 
d="M299 -13c-225 0 -253 122 -253 275c0 154 28 276 253 276c227 0 255 -122 255 -276c0 -153 -28 -275 -255 -275zM299 91c84 0 98 44 98 136h-195c3 -92 13 -136 97 -136zM203 302h194c-3 89 -14 132 -98 132c-83 0 -93 -43 -96 -132z" />
    <glyph glyph-name="afii10148" unicode="&#x474;" horiz-adv-x="812" 
d="M405 111l131 485c37 136 112 143 236 143c11 0 17 -5 17 -15v-102c0 -11 -6 -16 -17 -16h-70l-181 -594c-2 -8 -8 -12 -17 -12h-248c-9 0 -14 4 -16 12l-215 708c-3 9 0 19 12 19h143c9 0 16 -5 19 -15l166 -613h40z" />
    <glyph glyph-name="afii10196" unicode="&#x475;" horiz-adv-x="617" 
d="M306 96l65 318c24 116 100 111 205 111c11 0 16 -5 16 -14v-86c0 -10 -5 -15 -16 -15h-54l-111 -394c-3 -11 -9 -16 -19 -16h-208c-9 0 -16 5 -19 16l-138 482c-1 3 -2 7 -2 10c0 11 6 17 18 17h119c13 0 20 -2 23 -17l95 -412h26z" />
    <glyph glyph-name="afii10050" unicode="&#x490;" horiz-adv-x="616" 
d="M247 0h-133c-11 0 -16 5 -16 15v709c0 10 5 15 16 15h351v136c0 10 6 15 17 15h106c11 0 16 -5 16 -15v-242c0 -10 -5 -15 -16 -15h-325v-603c0 -10 -5 -15 -16 -15z" />
    <glyph glyph-name="afii10098" unicode="&#x491;" horiz-adv-x="482" 
d="M209 0h-121c-11 0 -16 5 -16 15v494c0 11 6 16 17 16h251v124c0 10 5 15 16 15h89c11 0 17 -5 17 -15v-219c0 -10 -6 -15 -17 -15h-220v-400c0 -10 -5 -15 -16 -15z" />
    <glyph glyph-name="uni0492" unicode="&#x492;" horiz-adv-x="646" 
d="M277 0h-133c-11 0 -16 5 -16 15v262h-99c-11 0 -17 5 -17 15v91c0 10 6 15 17 15h99v326c0 10 5 15 16 15h474c11 0 16 -5 16 -15v-91c0 -10 -5 -15 -16 -15h-325v-220h197c11 0 16 -5 16 -15v-91c0 -10 -5 -15 -16 -15h-197v-262c0 -10 -5 -15 -16 -15z" />
    <glyph glyph-name="uni0493" unicode="&#x493;" horiz-adv-x="508" 
d="M235 0h-121c-11 0 -16 5 -16 15v164h-70c-11 0 -17 5 -17 15v73c0 11 6 16 17 16h70v226c0 11 6 16 17 16h356c11 0 17 -5 17 -15v-80c0 -10 -6 -15 -17 -15h-220v-132h128c11 0 17 -5 17 -16v-73c0 -10 -6 -15 -17 -15h-128v-164c0 -10 -5 -15 -16 -15z" />
    <glyph glyph-name="uni0496" unicode="&#x496;" horiz-adv-x="1165" 
d="M665 313v-298c0 -10 -5 -15 -16 -15h-133c-11 0 -16 5 -16 15v298h-70l-219 -304c-5 -6 -12 -9 -20 -9h-169c-5 0 -12 7 -12 15c0 3 1 6 3 9l278 354l-258 337c-11 16 2 24 11 24h156c11 0 14 -4 18 -9l212 -298h70v292c0 10 5 15 16 15h133c11 0 16 -5 16 -15v-292h70
l212 298c4 5 7 9 18 9h156c9 0 22 -8 11 -24l-258 -337l207 -264h86c11 0 16 -5 16 -15v-252c0 -10 -5 -15 -16 -15h-106c-11 0 -17 5 -17 15v153h-70c-9 0 -15 3 -20 9l-219 304h-70z" />
    <glyph glyph-name="uni0497" unicode="&#x497;" horiz-adv-x="920" 
d="M187 0h-157c-7 0 -12 9 -8 14l183 257l-173 239c-4 5 -3 15 8 15h138c9 0 15 -3 18 -9l137 -203h50v197c0 10 6 15 17 15h121c11 0 16 -5 16 -15v-197h50l137 203c3 6 9 9 18 9h138c11 0 12 -10 8 -15l-173 -239l122 -171h69c11 0 16 -5 16 -15v-220
c0 -10 -5 -15 -16 -15h-90c-11 0 -16 5 -16 15v135h-67c-7 0 -11 2 -14 7l-132 205h-50v-197c0 -10 -6 -15 -17 -15h-121c-11 0 -16 5 -16 15v197h-50l-132 -205c-3 -5 -7 -7 -14 -7z" />
    <glyph glyph-name="uni049A" unicode="&#x49a;" horiz-adv-x="759" 
d="M333 432l212 298c4 5 7 9 18 9h156c9 0 22 -9 11 -24l-258 -337l207 -264h83c11 0 16 -5 16 -15v-252c0 -10 -5 -15 -16 -15h-106c-11 0 -17 5 -17 15v153h-67c-9 0 -15 3 -20 9l-219 304h-70v-298c0 -10 -5 -15 -16 -15h-133c-11 0 -16 5 -16 15v709c0 10 5 15 16 15
h133c11 0 16 -5 16 -15v-292h70z" />
    <glyph glyph-name="uni049B" unicode="&#x49b;" horiz-adv-x="608" 
d="M209 0h-121c-11 0 -16 5 -16 15v495c0 10 5 15 16 15h121c11 0 16 -5 16 -15v-197h51l136 203c3 6 9 9 18 9h138c11 0 12 -10 8 -15l-173 -239l122 -171h68c11 0 16 -5 16 -15v-220c0 -10 -5 -15 -16 -15h-89c-11 0 -17 5 -17 15v135h-66c-6 0 -10 2 -13 7l-132 205h-51
v-197c0 -10 -5 -15 -16 -15z" />
    <glyph glyph-name="uni049C" unicode="&#x49c;" horiz-adv-x="780" 
d="M367 313v-167c0 -8 -4 -12 -12 -12h-41c-8 0 -12 4 -12 12v167h-39v-298c0 -10 -5 -15 -16 -15h-133c-11 0 -16 5 -16 15v709c0 10 5 15 16 15h133c11 0 16 -5 16 -15v-292h39v176c0 8 4 12 12 12h41c8 0 12 -4 12 -12v-176h20l179 298c4 5 7 9 18 9h156
c9 0 22 -8 11 -24l-225 -337l245 -354c2 -3 3 -6 3 -9c0 -8 -7 -15 -12 -15h-169c-9 0 -15 3 -20 9l-186 304h-20z" />
    <glyph glyph-name="uni049D" unicode="&#x49d;" horiz-adv-x="634" 
d="M301 212v-105c0 -8 -4 -12 -12 -12h-22c-8 0 -12 4 -12 12v105h-30v-197c0 -10 -5 -15 -16 -15h-121c-11 0 -16 5 -16 15v495c0 10 5 15 16 15h121c11 0 16 -5 16 -15v-197h30v105c0 8 4 12 12 12h22c8 0 12 -4 12 -12v-105h19l118 203c3 6 9 9 18 9h138
c11 0 12 -10 8 -15l-155 -239l165 -257c4 -5 -1 -14 -8 -14h-157c-6 0 -10 2 -13 7l-114 205h-19z" />
    <glyph glyph-name="uni04A2" unicode="&#x4a2;" horiz-adv-x="856" 
d="M719 -153v153h-110c-9 0 -17 6 -17 15v303h-329v-303c0 -10 -5 -15 -16 -15h-133c-11 0 -16 5 -16 15v706c0 8 5 13 15 14l135 17c11 1 15 -7 15 -14v-296h329v279c0 8 5 13 16 14l135 17c11 1 15 -7 15 -14v-624h84c11 0 16 -5 16 -15v-252c0 -10 -5 -15 -16 -15h-106
c-11 0 -17 5 -17 15z" />
    <glyph glyph-name="uni04A3" unicode="&#x4a3;" horiz-adv-x="621" 
d="M209 0h-119c-11 0 -17 5 -17 16v479c0 13 3 21 18 24l115 18c11 3 20 -4 20 -17v-196h171v171c0 13 3 21 18 24l115 18c11 3 20 -4 20 -17v-420h68c11 0 17 -5 17 -15v-220c0 -10 -6 -15 -17 -15h-89c-11 0 -16 5 -16 15v135h-99c-11 0 -17 5 -17 16v205h-171v-205
c0 -11 -6 -16 -17 -16z" />
    <glyph glyph-name="uni04AE" unicode="&#x4ae;" horiz-adv-x="737" 
d="M455 279v-264c0 -10 -6 -15 -17 -15h-132c-11 0 -17 5 -17 15v262l-285 438c-1 2 -2 5 -2 8c0 9 8 16 15 16h156c13 0 17 -4 24 -16l181 -313l174 313c7 13 11 16 23 16h146c11 0 14 -8 14 -15c0 -3 -1 -6 -2 -8z" />
    <glyph glyph-name="uni04AF" unicode="&#x4af;" horiz-adv-x="573" 
d="M363 0v-196c0 -10 -5 -15 -16 -15h-121c-11 0 -16 5 -16 15v196l-184 498c-8 21 1 27 16 27h119c12 0 18 -2 22 -17l95 -347h26l89 347c3 15 11 17 23 17h114c15 0 24 -9 17 -26z" />
    <glyph glyph-name="uni04B0" unicode="&#x4b0;" horiz-adv-x="737" 
d="M455 279h127c11 0 17 -5 17 -15v-80c0 -11 -6 -16 -17 -16h-127v-153c0 -10 -6 -15 -17 -15h-132c-11 0 -17 5 -17 15v153h-126c-11 0 -17 5 -17 16v80c0 10 6 15 17 15h124l-283 436c-1 2 -2 5 -2 8c0 9 8 16 15 16h156c13 0 17 -4 24 -16l181 -313l174 313
c7 13 11 16 23 16h146c11 0 14 -8 14 -15c0 -3 -1 -6 -2 -8z" />
    <glyph glyph-name="uni04B1" unicode="&#x4b1;" horiz-adv-x="573" 
d="M363 0v-196c0 -10 -5 -15 -16 -15h-121c-11 0 -16 5 -16 15v196h-156c-11 0 -17 5 -17 15v73c0 10 6 15 17 15h118l-146 395c-8 21 1 27 16 27h119c12 0 18 -2 22 -17l95 -347h26l89 347c3 15 11 17 23 17h114c15 0 24 -9 17 -26l-146 -396h118c11 0 17 -5 17 -15v-73
c0 -10 -6 -15 -17 -15h-156z" />
    <glyph glyph-name="uni04B2" unicode="&#x4b2;" horiz-adv-x="753" 
d="M638 0h-72c-8 0 -16 5 -19 10l-178 291l-180 -291c-3 -5 -11 -10 -19 -10h-146c-11 0 -16 16 -12 21l247 361l-231 333c-1 1 -1 3 -1 6c0 9 10 18 14 18h158c12 0 16 -4 23 -16l159 -254l150 254c7 13 11 16 23 16h143c11 0 14 -8 14 -15c0 -3 -1 -6 -2 -8l-219 -327
l187 -275h84c11 0 16 -5 16 -15v-252c0 -10 -5 -15 -16 -15h-107c-11 0 -16 5 -16 15v153z" />
    <glyph glyph-name="uni04B3" unicode="&#x4b3;" horiz-adv-x="598" 
d="M479 0h-48c-6 0 -11 3 -16 10l-121 182l-111 -182c-3 -5 -9 -10 -16 -10h-137c-7 0 -10 5 -10 12c0 3 1 5 2 7l177 247l-158 236c-2 3 -3 6 -3 9c0 8 7 14 12 14h121c15 0 23 0 31 -13l104 -168l92 167c8 15 15 14 31 14h119c5 0 12 -7 12 -15c0 -3 -1 -6 -2 -9
l-159 -234l119 -167h67c11 0 16 -5 16 -15v-220c0 -10 -5 -15 -16 -15h-90c-11 0 -16 5 -16 15v135z" />
    <glyph glyph-name="uni04B6" unicode="&#x4b6;" horiz-adv-x="783" 
d="M646 0h-109c-11 0 -17 5 -17 15v299c-40 -11 -150 -32 -248 -32c-157 0 -222 57 -222 178v261c0 8 5 13 16 14l133 17c11 1 16 -6 16 -15v-248c0 -68 34 -91 111 -91c74 0 162 18 194 26v297c0 8 5 13 15 14l134 17c11 1 16 -6 16 -15v-623h84c11 0 16 -5 16 -15v-252
c0 -10 -5 -15 -16 -15h-106c-11 0 -17 5 -17 15v153z" />
    <glyph glyph-name="uni04B7" unicode="&#x4b7;" horiz-adv-x="619" 
d="M510 0h-100c-11 0 -16 5 -16 15v122l11 63c-47 -12 -106 -22 -157 -22c-112 0 -178 33 -178 144v173c0 13 3 21 18 24l115 18c11 3 20 -4 20 -17v-173c0 -44 15 -66 64 -66c45 0 95 10 107 12v202c0 13 3 21 18 24l115 18c11 3 20 -4 20 -17v-420h68c11 0 17 -5 17 -15
v-220c0 -10 -6 -15 -17 -15h-89c-11 0 -16 5 -16 15v135z" />
    <glyph glyph-name="uni04B8" unicode="&#x4b8;" horiz-adv-x="783" 
d="M669 0h-132c-11 0 -17 5 -17 15v299c-23 -7 -68 -15 -120 -22v-146c0 -8 -4 -12 -12 -12h-41c-8 0 -12 4 -12 12v138c-21 -1 -42 -2 -63 -2c-157 0 -222 57 -222 178v261c0 8 5 13 16 14l133 17c11 1 16 -6 16 -15v-248c0 -68 34 -91 111 -91h9v167c0 8 4 12 12 12h41
c8 0 12 -4 12 -12v-163c51 7 97 15 120 22v297c0 8 5 13 15 14l134 17c11 1 16 -6 16 -15v-722c0 -10 -5 -15 -16 -15z" />
    <glyph glyph-name="uni04B9" unicode="&#x4b9;" horiz-adv-x="619" 
d="M531 0h-121c-11 0 -16 5 -16 15v122l11 63c-22 -6 -46 -11 -73 -15v-78c0 -8 -4 -12 -12 -12h-22c-8 0 -12 4 -12 12v72c-7 -1 -13 -1 -20 -1h-18c-112 0 -178 33 -178 144v173c0 13 3 21 18 24l115 18c11 3 20 -4 20 -17v-173c0 -44 15 -66 63 -66v102c0 8 4 12 12 12
h22c8 0 12 -4 12 -12v-100c29 3 54 7 62 10v202c0 13 3 21 18 24l115 18c11 3 20 -4 20 -17v-505c0 -10 -5 -15 -16 -15z" />
    <glyph glyph-name="uni04BA" unicode="&#x4ba;" horiz-adv-x="782" 
d="M247 0h-134c-10 0 -15 5 -15 14v707c0 8 5 13 15 14l134 17c11 1 16 -7 16 -14v-299c41 11 147 32 248 32c156 0 221 -57 221 -178v-279c0 -9 -5 -14 -16 -14h-133c-11 0 -16 5 -16 14v250c0 68 -34 91 -111 91c-74 0 -160 -18 -193 -26v-315c0 -9 -5 -14 -16 -14z" />
    <glyph glyph-name="uni04BB" unicode="&#x4bb;" horiz-adv-x="619" 
d="M209 0h-121c-11 0 -16 5 -16 15v479c0 15 3 22 18 25l115 18c11 3 20 -5 20 -17v-118l-11 -63c47 12 105 22 156 22c112 0 179 -31 179 -143v-203c0 -10 -5 -15 -16 -15h-121c-11 0 -16 5 -16 15v177c0 44 -15 67 -64 67c-44 0 -96 -10 -107 -13v-231
c0 -10 -5 -15 -16 -15z" />
    <glyph glyph-name="uni04C0" unicode="&#x4c0;" horiz-adv-x="361" 
d="M263 738v-723c0 -10 -5 -15 -16 -15h-133c-11 0 -16 5 -16 15v706c0 8 5 13 15 14l135 17c11 1 15 -7 15 -14z" />
    </font>
</defs>
</svg>
