<?xml version="1.0" standalone="no"?>
<!DOCTYPE svg PUBLIC "-//W3C//DTD SVG 1.1//EN" "http://www.w3.org/Graphics/SVG/1.1/DTD/svg11.dtd" >
<svg xmlns="http://www.w3.org/2000/svg" xmlns:xlink="http://www.w3.org/1999/xlink" version="1.1">
<metadata>
Created by FontForge 20170924 at Sun Feb 26 01:27:34 2017
 By www-data
2011 published by FontShop International GmbH
</metadata>
<defs>
<font id="MaxPro-Medium" horiz-adv-x="1" >
  <font-face 
    font-family="Max Pro"
    font-weight="500"
    font-stretch="normal"
    units-per-em="1000"
    panose-1="2 11 6 4 3 1 1 2 1 2"
    ascent="763"
    descent="-237"
    x-height="525"
    cap-height="739"
    bbox="-1091 -259 1508 1221.69"
    underline-thickness="90"
    underline-position="-95"
    stemh="82"
    stemv="90"
    unicode-range="U+000D-FEFF"
  />
<missing-glyph horiz-adv-x="599" 
d="M73 739h453v-739h-453v739zM469 57v625h-339v-625h339z" />
    <glyph glyph-name="fi" unicode="fi" horiz-adv-x="617" 
d="M529 509v-494c0 -10 -5 -15 -16 -15h-82c-10 0 -15 5 -15 15v425h-195v-425c0 -10 -5 -15 -15 -15h-82c-11 0 -16 5 -16 15v425h-78c-10 0 -15 5 -15 15v55c0 10 5 15 15 15h78v50c0 56 11 99 36 127c32 37 82 50 161 50c84 0 148 -16 168 -23c9 -3 13 -8 12 -16l-8 -53
c-3 -12 -9 -14 -20 -11c-27 5 -74 17 -134 17c-79 0 -102 -18 -102 -94v-47h291c11 0 17 -5 17 -16z" />
    <glyph glyph-name="fl" unicode="fl" horiz-adv-x="654" 
d="M619 70l10 -51c1 -5 -1 -12 -8 -15c-11 -5 -39 -13 -83 -13c-80 0 -123 41 -123 120v329h-194v-425c0 -10 -5 -15 -15 -15h-82c-11 0 -16 5 -16 15v425h-78c-10 0 -15 5 -15 15v55c0 10 5 15 15 15h78v79c0 101 49 148 157 148c63 0 106 -9 125 -16c9 -3 13 -9 12 -16
l-7 -50c-1 -8 -6 -12 -15 -12c-17 3 -52 10 -85 10c-25 0 -44 -2 -56 -13c-12 -9 -18 -26 -18 -49v-81h194v194c0 9 5 15 15 17l82 16h4c9 0 13 -5 13 -15v-619c0 -36 22 -43 42 -43c15 0 26 3 37 4c5 0 8 -1 11 -9z" />
    <glyph glyph-name="uniFB03" unicode="ffi" horiz-adv-x="925" 
d="M837 509v-494c0 -10 -5 -15 -16 -15h-82c-10 0 -15 5 -15 15v425h-195v-425c0 -10 -5 -15 -15 -15h-82c-11 0 -16 5 -16 15v425h-195v-425c0 -10 -5 -15 -15 -15h-82c-11 0 -16 5 -16 15v425h-78c-10 0 -15 5 -15 15v55c0 10 5 15 15 15h78v79c0 101 49 148 157 148
c63 0 106 -9 125 -16c9 -3 13 -9 12 -16l-7 -50c-1 -8 -6 -12 -15 -12c-17 3 -52 10 -85 10c-25 0 -44 -2 -56 -13c-12 -9 -18 -26 -18 -49v-81h195v50c0 56 11 99 36 127c32 37 82 50 161 50c84 0 148 -16 168 -23c9 -3 13 -8 12 -16l-8 -53c-3 -12 -9 -14 -20 -11
c-27 5 -74 17 -134 17c-79 0 -102 -18 -102 -94v-47h291c11 0 17 -5 17 -16z" />
    <glyph glyph-name="uniFB04" unicode="ffl" horiz-adv-x="962" 
d="M846 -9c-80 0 -122 41 -122 120v329h-195v-425c0 -10 -5 -15 -15 -15h-82c-11 0 -16 5 -16 15v425h-195v-425c0 -10 -5 -15 -15 -15h-82c-11 0 -16 5 -16 15v425h-78c-10 0 -15 5 -15 15v55c0 10 5 15 15 15h78v79c0 101 49 148 157 148c63 0 106 -9 125 -16
c9 -3 13 -9 12 -16l-7 -50c-1 -8 -6 -12 -15 -12c-17 3 -52 10 -85 10c-25 0 -44 -2 -56 -13c-12 -9 -18 -26 -18 -49v-81h195v79c0 101 49 148 157 148c63 0 106 -11 125 -16c9 -2 13 -7 12 -16l-7 -50c-1 -8 -5 -12 -12 -12h-3c-17 3 -52 10 -85 10c-51 0 -74 -11 -74 -62
v-81h195v194c0 9 5 15 14 17l82 16c12 3 17 -6 17 -15v-619c0 -36 22 -43 42 -43c15 0 26 3 37 4c5 0 8 -1 11 -9l10 -51c3 -9 -5 -14 -8 -15c-9 -4 -36 -13 -83 -13z" />
    <glyph glyph-name=".notdef" horiz-adv-x="599" 
d="M73 739h453v-739h-453v739zM469 57v625h-339v-625h339z" />
    <glyph glyph-name=".null" horiz-adv-x="0" 
 />
    <glyph glyph-name=".null" horiz-adv-x="0" 
 />
    <glyph glyph-name="nonmarkingreturn" unicode="&#xd;" horiz-adv-x="280" 
 />
    <glyph glyph-name="space" unicode=" " horiz-adv-x="280" 
 />
    <glyph glyph-name="exclam" unicode="!" horiz-adv-x="312" 
d="M221 739l-12 -515c0 -7 -4 -11 -12 -11h-76c-8 0 -12 4 -12 11l-12 493c0 9 5 15 15 17l95 18c8 1 14 -5 14 -13zM220 132v-115c0 -11 -5 -17 -16 -17h-89c-11 0 -16 6 -16 17v115c0 11 5 17 16 17h89c11 0 16 -6 16 -17z" />
    <glyph glyph-name="quotedbl" unicode="&#x22;" horiz-adv-x="486" 
d="M215 726l-16 -220c0 -7 -5 -13 -12 -13h-66c-9 0 -13 4 -13 13v220c0 9 4 13 13 13h81c7 0 14 -5 13 -13zM378 726l-15 -220c-1 -9 -6 -13 -13 -13h-66c-7 0 -12 6 -12 13v220c0 7 5 13 12 13h81c7 0 14 -5 13 -13z" />
    <glyph glyph-name="numbersign" unicode="#" horiz-adv-x="731" 
d="M646 534l-11 -62c-1 -7 -5 -12 -14 -12h-96l-25 -152h94c9 0 17 -3 14 -14l-11 -62c-1 -7 -6 -12 -14 -12h-98l-35 -208c-1 -8 -6 -12 -14 -12h-61c-8 0 -16 3 -13 16l33 204h-115l-35 -208c-1 -8 -6 -12 -14 -12h-61c-8 0 -16 3 -13 16l33 204h-92c-9 0 -17 5 -14 14
l11 63c1 7 6 11 14 11h96l26 152h-94c-9 0 -17 5 -14 14l11 63c1 7 6 11 14 11h98l30 178c1 9 6 13 15 13h59c8 0 18 -2 15 -14l-30 -177h116l30 178c1 9 6 13 15 13h59c8 0 18 -2 15 -14l-30 -177h93c11 0 15 -5 13 -14zM320 460l-25 -152h115l26 152h-116z" />
    <glyph glyph-name="dollar" unicode="$" horiz-adv-x="704" 
d="M634 215c0 -149 -102 -211 -233 -224v-101c0 -11 -6 -18 -17 -18h-64c-11 0 -16 9 -16 18v99c-113 5 -189 28 -210 36c-8 3 -15 8 -15 17c0 3 0 5 1 8l14 58c3 8 11 14 19 11c47 -13 140 -34 233 -34c82 0 166 28 166 119c0 94 -79 104 -187 120
c-116 16 -256 46 -256 211c0 148 97 203 236 214v100c0 9 5 17 16 17h64c11 0 17 -6 17 -17v-100c96 -7 165 -27 188 -34c9 -3 14 -9 14 -18c0 -1 0 -3 -1 -6l-13 -57c-3 -8 -9 -14 -21 -11c-23 5 -112 31 -212 31c-85 0 -167 -20 -167 -107c0 -91 90 -106 182 -119
c113 -16 262 -29 262 -213z" />
    <glyph glyph-name="percent" unicode="%" horiz-adv-x="863" 
d="M840 180c0 -96 -18 -193 -168 -193c-151 0 -168 97 -168 193s17 192 168 192c150 0 168 -96 168 -192zM359 559c0 -96 -17 -192 -168 -192c-150 0 -168 96 -168 192s18 193 168 193c151 0 168 -97 168 -193zM706 695l-486 -695c-3 -3 -8 -5 -13 -2l-49 31
c-3 3 -6 8 -2 13l487 695c3 5 7 5 12 2l49 -31c7 -4 5 -10 2 -13zM751 180c0 78 -10 122 -79 122c-71 0 -80 -44 -80 -122c0 -79 9 -123 80 -123c69 0 79 44 79 123zM271 559c0 79 -10 123 -80 123s-79 -44 -79 -123c0 -78 9 -122 79 -122s80 44 80 122z" />
    <glyph glyph-name="ampersand" unicode="&#x26;" horiz-adv-x="772" 
d="M735 75l11 -52c2 -9 -1 -14 -10 -17c-19 -7 -61 -19 -124 -19c-108 0 -161 42 -161 150v206c-2 -5 -5 -7 -10 -8c-57 -7 -113 -8 -157 -19c-59 -15 -99 -44 -99 -111c0 -91 78 -121 162 -121c33 0 55 5 62 5c8 0 14 -1 17 -12l8 -59c3 -11 -4 -17 -12 -20
c-11 -3 -39 -11 -86 -11c-132 0 -275 45 -275 208c0 155 125 166 164 174v26c-40 8 -149 32 -149 164c0 138 110 193 253 193c48 0 84 -5 108 -13c7 -3 11 -7 11 -14v-3c0 -1 0 -4 -1 -7l-8 -55c-1 -9 -7 -13 -16 -12c-20 3 -43 6 -70 6c-86 0 -155 -24 -155 -109
c0 -53 34 -82 83 -98c44 -15 103 -17 160 -22c8 -1 7 -4 10 -8v166c0 10 5 16 15 18l85 16c11 2 17 -3 17 -15v-174l141 -10c10 -1 15 -6 15 -15v-49c0 -9 -5 -14 -15 -15l-141 -11v-189c0 -49 20 -65 72 -65c30 0 72 8 82 11c7 1 11 -2 13 -10z" />
    <glyph glyph-name="quotesingle" unicode="'" horiz-adv-x="325" 
d="M217 726l-16 -244c0 -8 -5 -13 -12 -13h-68c-9 0 -13 4 -13 13v244c0 9 4 13 13 13h83c7 0 14 -5 13 -13z" />
    <glyph glyph-name="parenleft" unicode="(" horiz-adv-x="325" 
d="M276 -87c5 -8 0 -12 -3 -15l-59 -41c-9 -7 -13 -3 -22 8c-93 117 -127 327 -127 471c0 143 34 354 127 470c11 12 14 13 22 8l59 -41c5 -3 6 -8 3 -15c-75 -123 -101 -276 -101 -422c0 -143 24 -301 101 -423z" />
    <glyph glyph-name="parenright" unicode=")" horiz-adv-x="325" 
d="M49 -87c75 124 101 279 101 423c0 146 -26 299 -101 422c-3 7 -2 12 3 15l59 41c8 5 11 4 22 -8c91 -118 127 -326 127 -470s-34 -354 -127 -471c-9 -11 -13 -15 -22 -8l-59 41c-3 3 -8 7 -3 15z" />
    <glyph glyph-name="asterisk" unicode="*" horiz-adv-x="739" 
d="M591 583v-64c0 -9 -7 -12 -14 -12l-148 7l98 -106c3 -3 4 -6 4 -9c0 -4 -2 -7 -6 -10l-53 -39c-3 -2 -6 -3 -8 -3c-5 0 -8 2 -11 6l-82 122l-83 -122c-3 -4 -6 -6 -11 -6c-3 0 -5 1 -8 3l-53 39c-4 3 -6 6 -6 10c0 3 1 6 4 9l96 106l-148 -7c-7 0 -14 3 -14 12v64
c0 9 5 14 15 13l147 -11l-97 106c-3 3 -4 6 -4 9s2 7 6 10l53 39c3 2 5 3 8 3c5 0 8 -2 11 -6l83 -122l82 122c3 4 6 6 11 6c2 0 5 -1 8 -3l53 -39c4 -3 6 -7 6 -10s-1 -6 -4 -9l-96 -106l146 11c10 1 15 -4 15 -13z" />
    <glyph glyph-name="plus" unicode="+" horiz-adv-x="608" 
d="M553 353v-57c0 -11 -6 -16 -18 -16h-183v-182c0 -12 -5 -18 -16 -18h-65c-11 0 -16 6 -16 17v183h-183c-11 0 -17 6 -17 17v57c0 11 6 16 17 16h183v183c0 11 5 17 15 17h65c11 0 17 -6 17 -17v-183h183c12 0 18 -6 18 -17z" />
    <glyph glyph-name="comma" unicode="," horiz-adv-x="324" 
d="M233 85l-37 -209c-3 -9 -5 -14 -16 -14h-69c-7 0 -15 3 -14 12l18 210c1 9 3 13 15 13h89c7 0 17 -1 14 -12z" />
    <glyph glyph-name="hyphen" unicode="-" horiz-adv-x="409" 
d="M356 302v-56c0 -11 -9 -17 -18 -17h-266c-9 0 -19 6 -19 17v56c0 9 8 17 19 17h266c11 0 18 -8 18 -17z" />
    <glyph glyph-name="period" unicode="." horiz-adv-x="324" 
d="M234 100v-84c0 -11 -6 -16 -18 -16h-107c-13 0 -19 5 -19 16v84c0 11 6 16 19 16h107c12 0 18 -5 18 -16z" />
    <glyph glyph-name="slash" unicode="/" horiz-adv-x="371" 
d="M340 769l-219 -816c-1 -5 -6 -11 -14 -8l-68 16c-5 1 -11 5 -8 13l219 816c1 5 6 11 14 8l68 -15c5 -1 11 -6 8 -14z" />
    <glyph glyph-name="zero" unicode="0" horiz-adv-x="704" 
d="M648 370c0 -193 -31 -383 -297 -383s-296 190 -296 383s30 382 296 382s297 -189 297 -382zM525 370c0 181 -22 289 -174 289s-173 -108 -173 -289c0 -182 21 -290 173 -290s174 110 174 290z" />
    <glyph glyph-name="one" unicode="1" horiz-adv-x="704" 
d="M606 74v-61c0 -9 -4 -13 -12 -13h-474c-8 0 -12 4 -12 13v61c0 7 4 12 12 13l187 17v523l-198 10c-8 0 -12 4 -12 12v58c0 7 4 11 12 12l307 33c5 0 11 -5 11 -10v-639l167 -16c8 -1 12 -6 12 -13z" />
    <glyph glyph-name="two" unicode="2" horiz-adv-x="704" 
d="M635 85v-71c0 -9 -5 -14 -14 -14h-509c-11 0 -16 7 -16 14l-2 82c-1 36 9 64 42 92c37 32 134 101 172 128c84 60 177 129 177 205c0 109 -73 134 -170 134c-89 0 -170 -22 -213 -34c-8 -3 -16 4 -19 12l-13 59c-2 9 2 16 13 21c23 10 112 39 251 39
c151 0 276 -52 276 -232c0 -131 -113 -206 -220 -278l-178 -120v-25l409 2c9 0 14 -5 14 -14z" />
    <glyph glyph-name="three" unicode="3" horiz-adv-x="704" 
d="M627 195c0 -163 -141 -208 -275 -208c-112 0 -213 23 -246 37c-11 4 -16 11 -13 21l14 59c3 11 10 14 21 11c55 -18 142 -32 214 -32c83 0 161 31 161 122c0 117 -99 117 -230 130c-11 1 -17 6 -17 15v58c0 11 6 16 17 17c121 11 217 21 217 120c0 86 -69 110 -155 110
c-99 0 -179 -24 -223 -37c-8 -3 -17 -1 -20 11l-14 58c-1 3 -1 5 -1 8c0 7 4 12 12 16c35 16 138 41 264 41c142 0 260 -53 260 -193c0 -132 -110 -156 -150 -164v-26c40 -5 164 -22 164 -174z" />
    <glyph glyph-name="four" unicode="4" horiz-adv-x="704" 
d="M669 255v-63c0 -8 -7 -15 -16 -15h-93v-163c0 -8 -7 -14 -14 -14h-92c-9 0 -14 5 -14 14v163h-389c-11 0 -16 5 -16 15v77c0 3 0 9 3 14l307 449c3 3 7 7 12 7h188c8 0 15 -6 15 -14v-454h93c11 0 16 -5 16 -16zM440 651h-32l-259 -380h291v380z" />
    <glyph glyph-name="five" unicode="5" horiz-adv-x="704" 
d="M620 222c0 -176 -135 -235 -283 -235c-123 0 -217 17 -233 25c-7 3 -14 8 -11 19l10 60c1 7 5 15 16 12c29 -7 94 -20 198 -20c92 0 179 26 179 140c0 68 -42 138 -166 138c-91 0 -180 -27 -215 -35c-17 -4 -32 12 -31 25l25 377c0 5 7 11 12 11h452c11 0 16 -5 16 -16
v-66c0 -11 -5 -16 -16 -16h-362l-13 -207c16 5 92 23 148 23c135 0 274 -55 274 -235z" />
    <glyph glyph-name="six" unicode="6" horiz-adv-x="704" 
d="M646 231c0 -181 -127 -244 -291 -244c-237 0 -297 124 -297 385c0 213 43 380 329 380c97 0 176 -17 202 -25c9 -2 13 -7 12 -15l-13 -69c-1 -7 -6 -10 -15 -9c-59 12 -110 21 -187 21c-142 0 -203 -61 -208 -213c75 21 136 34 196 34c153 0 272 -65 272 -245zM522 232
c0 111 -67 151 -165 151c-54 0 -130 -15 -176 -31c-1 -6 -1 -12 -1 -18v-17c0 -164 42 -238 175 -238c113 0 167 45 167 153z" />
    <glyph glyph-name="seven" unicode="7" horiz-adv-x="704" 
d="M637 723v-74c0 -10 -3 -19 -8 -26c-165 -211 -249 -394 -323 -609c-3 -7 -7 -14 -18 -14h-94c-11 0 -21 6 -17 17c64 195 192 447 341 623h-435c-11 0 -16 5 -16 16v67c0 11 5 16 16 16h538c9 0 16 -8 16 -16z" />
    <glyph glyph-name="eight" unicode="8" horiz-adv-x="704" 
d="M661 202c0 -145 -98 -215 -309 -215c-209 0 -309 70 -309 215c0 117 101 160 172 163v30c-44 5 -159 21 -159 157c0 157 149 200 296 200s295 -42 295 -200c0 -129 -103 -149 -158 -157v-30c81 -8 172 -50 172 -163zM538 206c0 101 -96 126 -187 126s-185 -25 -185 -126
c0 -91 65 -126 182 -126h5c121 0 185 34 185 126zM527 543c0 91 -68 117 -174 117c-107 0 -176 -29 -176 -117c0 -91 81 -117 174 -117s176 26 176 117z" />
    <glyph glyph-name="nine" unicode="9" horiz-adv-x="704" 
d="M646 372c0 -15 -1 -27 -1 -39c0 -232 -83 -346 -321 -346c-117 0 -193 22 -197 24c-9 3 -13 8 -12 15l12 67c1 7 8 13 15 10c59 -13 101 -20 183 -20c142 0 196 62 201 214c-56 -19 -125 -35 -196 -35c-155 0 -273 65 -273 246s127 244 291 244c241 0 298 -132 298 -380z
M524 410v12c0 164 -43 237 -175 237c-113 0 -168 -44 -168 -152c0 -111 67 -151 166 -151c53 0 131 14 176 30c1 11 1 19 1 24z" />
    <glyph glyph-name="colon" unicode=":" horiz-adv-x="315" 
d="M225 102v-85c0 -11 -8 -17 -17 -17h-101c-11 0 -17 6 -17 17v85c0 11 6 17 17 17h101c9 0 17 -6 17 -17zM225 508v-85c0 -11 -8 -17 -17 -17h-101c-11 0 -17 6 -17 17v85c0 11 6 17 17 17h101c9 0 17 -6 17 -17z" />
    <glyph glyph-name="semicolon" unicode=";" horiz-adv-x="332" 
d="M242 508v-85c0 -11 -5 -17 -16 -17h-102c-9 0 -17 6 -17 17v85c0 11 8 17 17 17h102c11 0 16 -6 16 -17zM233 85l-37 -209c-3 -9 -5 -14 -16 -14h-69c-7 0 -15 3 -14 12l18 210c1 9 3 13 15 13h89c7 0 17 -1 14 -12z" />
    <glyph glyph-name="less" unicode="&#x3c;" horiz-adv-x="608" 
d="M548 118l-32 -61c-3 -5 -8 -10 -17 -5l-432 222c-5 2 -8 6 -8 12v57c0 7 3 11 9 14l431 223c3 1 5 2 6 2c5 0 8 -2 11 -7l32 -61c1 -1 1 -3 1 -6c0 -5 -2 -8 -7 -10l-377 -182l377 -182c7 -4 9 -9 6 -16z" />
    <glyph glyph-name="equal" unicode="=" horiz-adv-x="606" 
d="M528 438v-59c0 -11 -9 -17 -18 -17h-414c-9 0 -18 6 -18 17v59c0 11 6 17 18 17h414c12 0 18 -6 18 -17zM528 263v-59c0 -11 -9 -17 -18 -17h-414c-9 0 -18 6 -18 17v59c0 9 7 17 18 17h414c11 0 18 -8 18 -17z" />
    <glyph glyph-name="greater" unicode="&#x3e;" horiz-adv-x="607" 
d="M548 343v-57c0 -6 -3 -10 -8 -12l-431 -222c-7 -3 -14 -3 -17 5l-32 61c-3 5 -1 13 6 16l377 182l-377 182c-7 4 -9 9 -6 16l32 61c4 7 10 9 17 5l431 -223c7 -3 8 -7 8 -14z" />
    <glyph glyph-name="question" unicode="?" horiz-adv-x="607" 
d="M536 574c0 -96 -74 -137 -111 -163c-44 -29 -104 -52 -104 -117c0 -31 2 -40 5 -61c3 -13 -7 -16 -18 -16h-76c-12 0 -14 2 -17 14c-3 11 -7 38 -7 65c0 101 52 129 121 174c30 19 83 56 83 104c0 74 -76 85 -135 85c-72 0 -152 -22 -171 -25c-3 -1 -6 -1 -8 -1
c-6 0 -10 4 -12 13l-13 54c-1 3 -1 5 -1 7c0 5 4 10 13 13c17 6 109 32 206 32c128 0 245 -40 245 -178zM335 132v-115c0 -11 -6 -17 -17 -17h-88c-11 0 -17 6 -17 17v115c0 11 6 17 17 17h88c11 0 17 -6 17 -17z" />
    <glyph glyph-name="at" unicode="@" horiz-adv-x="941" 
d="M855 369c0 -35 -2 -67 -5 -98c-1 -8 -7 -16 -18 -16h-46c-11 0 -18 8 -17 19c3 28 5 60 5 95c0 112 -14 187 -62 238c-47 49 -125 71 -254 71c-128 0 -205 -22 -252 -69c-49 -49 -64 -127 -64 -240c0 -216 56 -309 316 -309c39 0 73 4 104 7c12 1 18 -9 18 -17v-40
c0 -11 -8 -16 -16 -17c-32 -3 -67 -6 -106 -6c-312 0 -397 124 -397 382c0 259 85 383 397 383c313 0 397 -124 397 -383zM640 463v-218c0 -59 -17 -74 -72 -84c-27 -7 -64 -11 -107 -11c-77 0 -188 6 -188 134c0 51 13 78 38 97c24 17 58 22 94 29l141 23v27
c0 25 -8 41 -23 48s-36 8 -63 8c-51 0 -99 -13 -139 -22c-3 -1 -5 -1 -6 -1c-5 0 -8 3 -10 9l-10 44c-3 8 6 13 11 16c21 8 92 26 169 26c51 0 90 -5 118 -21c35 -20 47 -53 47 -104zM549 368l-115 -19c-37 -5 -65 -11 -65 -62c0 -65 52 -71 95 -71c31 0 62 5 85 12v140z
" />
    <glyph glyph-name="A" unicode="A" horiz-adv-x="778" 
d="M296 739h186c8 0 14 -4 17 -12l260 -709c3 -8 1 -18 -10 -18h-106c-7 0 -12 4 -15 12l-93 264h-300l-93 -264c-3 -8 -9 -12 -16 -12h-96c-11 0 -14 7 -11 18l260 709c3 8 8 12 17 12zM265 368h240l-100 285h-39z" />
    <glyph glyph-name="B" unicode="B" horiz-adv-x="748" 
d="M696 193c0 -135 -91 -193 -258 -193h-325c-9 0 -17 7 -17 16v707c0 9 8 16 17 16h339c156 0 220 -60 220 -181c0 -105 -60 -147 -140 -163v-27c101 -11 164 -59 164 -175zM571 206c0 86 -31 122 -143 125l-210 6v-245h212c107 0 141 49 141 114zM549 539
c0 75 -34 108 -114 108h-217v-229l208 8c80 3 123 30 123 113z" />
    <glyph glyph-name="C" unicode="C" horiz-adv-x="682" 
d="M186 371c0 -195 40 -281 220 -281c100 0 156 19 196 30c11 3 22 6 25 -9l11 -56c3 -15 -1 -20 -16 -25c-40 -15 -113 -36 -232 -36c-245 0 -329 123 -329 377s84 377 329 377c119 0 192 -21 232 -36c15 -5 19 -10 16 -25l-11 -56c-3 -15 -14 -12 -25 -9
c-40 11 -96 30 -196 30c-180 0 -220 -86 -220 -281z" />
    <glyph glyph-name="D" unicode="D" horiz-adv-x="800" 
d="M739 370c0 -293 -105 -370 -340 -370h-287c-8 0 -16 7 -16 16v707c0 9 8 16 16 16h287c235 0 340 -76 340 -369zM615 371c0 240 -70 276 -231 276h-166v-555h166c161 0 231 39 231 279z" />
    <glyph glyph-name="E" unicode="E" horiz-adv-x="662" 
d="M582 0h-469c-9 0 -17 7 -17 16v707c0 9 8 16 17 16h468c11 0 16 -5 16 -16v-65c0 -10 -5 -15 -16 -15h-363v-212h341c10 0 15 -5 15 -15v-65c0 -11 -5 -16 -15 -16h-341v-239h364c8 0 15 -6 15 -15v-65c0 -9 -7 -16 -15 -16z" />
    <glyph glyph-name="F" unicode="F" horiz-adv-x="616" 
d="M201 0h-88c-9 0 -17 7 -17 16v707c0 9 8 16 17 16h457c11 0 16 -5 16 -16v-65c0 -8 -7 -15 -15 -15h-353v-250h313c11 0 16 -5 16 -16v-65c0 -8 -7 -16 -16 -16h-313v-280c0 -11 -6 -16 -17 -16z" />
    <glyph glyph-name="G" unicode="G" horiz-adv-x="770" 
d="M429 -13c-276 0 -368 99 -368 382c0 259 82 383 349 383c142 0 249 -36 265 -41c15 -7 19 -11 16 -24l-12 -56c-3 -11 -11 -14 -22 -11c-32 8 -114 35 -231 35c-183 0 -240 -72 -240 -288c0 -220 58 -287 247 -287c63 0 119 10 134 14v196l-127 14c-7 1 -11 5 -11 12v67
c0 7 4 11 12 11h231c9 0 14 -5 14 -14v-272c0 -54 -6 -79 -54 -95c-51 -16 -148 -26 -203 -26z" />
    <glyph glyph-name="H" unicode="H" horiz-adv-x="825" 
d="M729 738v-723c0 -8 -8 -15 -17 -15h-89c-9 0 -16 7 -16 15v317h-389v-317c0 -8 -7 -15 -16 -15h-89c-9 0 -17 7 -17 15v710c0 8 5 13 14 14l94 13c11 1 14 -7 14 -14v-307h389v294c0 8 5 13 14 14l94 13c11 1 14 -7 14 -14z" />
    <glyph glyph-name="I" unicode="I" horiz-adv-x="314" 
d="M218 738v-723c0 -8 -7 -15 -16 -15h-89c-9 0 -17 7 -17 15v710c0 8 5 13 14 14l94 13c11 1 14 -7 14 -14z" />
    <glyph glyph-name="J" unicode="J" horiz-adv-x="310" 
d="M224 738v-759c0 -128 -74 -175 -201 -175h-39c-9 0 -18 0 -25 1c-9 1 -18 5 -18 18v58c0 11 6 18 18 19l49 2c61 3 94 8 94 81v742c0 8 5 13 14 14l94 13c11 1 14 -7 14 -14z" />
    <glyph glyph-name="K" unicode="K" horiz-adv-x="713" 
d="M218 328v-312c0 -11 -5 -16 -16 -16h-89c-11 0 -17 5 -17 16v707c0 11 6 16 17 16h89c11 0 16 -5 16 -16v-301h80l241 310c3 5 9 7 17 7h115c8 0 17 -7 9 -18l-280 -342l302 -361c2 -2 3 -4 3 -6c0 -7 -5 -12 -12 -12h-126c-7 0 -12 2 -17 7l-252 321h-80z" />
    <glyph glyph-name="L" unicode="L" horiz-adv-x="603" 
d="M566 0h-453c-11 0 -17 5 -17 16v709c0 7 5 12 14 14l94 13c11 3 14 -5 14 -12v-644h348c11 0 16 -5 16 -15v-65c0 -11 -5 -16 -16 -16z" />
    <glyph glyph-name="M" unicode="M" horiz-adv-x="1046" 
d="M891 724l79 -710c1 -9 -4 -14 -15 -14h-92c-10 0 -15 5 -16 15l-63 636h-31l-149 -527c-3 -9 -8 -14 -17 -14h-132c-8 0 -14 5 -17 14l-149 527h-31l-63 -636c-1 -10 -7 -15 -16 -15h-87c-11 0 -17 5 -16 14l79 709c1 11 7 16 17 16h197c11 0 17 -5 19 -15l130 -486h10
l130 486c2 10 8 15 18 15h197c9 0 17 -7 18 -15z" />
    <glyph glyph-name="N" unicode="N" horiz-adv-x="825" 
d="M205 599l8 -585c0 -7 -3 -14 -14 -14h-89c-11 0 -14 7 -14 14v711c0 7 5 14 14 14h161c11 0 20 -5 25 -16l292 -583h32l-8 585c0 7 3 14 14 14h89c11 0 14 -7 14 -14v-712c0 -7 -3 -13 -14 -13h-161c-11 0 -20 5 -25 16l-292 583h-32z" />
    <glyph glyph-name="O" unicode="O" horiz-adv-x="807" 
d="M746 370c0 -227 -56 -383 -342 -383c-288 0 -343 156 -343 383c0 226 55 382 343 382c286 0 342 -156 342 -382zM620 370c0 183 -20 288 -217 288s-216 -105 -216 -288c0 -184 19 -289 216 -289s217 106 217 289z" />
    <glyph glyph-name="P" unicode="P" horiz-adv-x="726" 
d="M202 0h-89c-11 0 -17 5 -17 16v707c0 9 8 16 17 16h305c183 0 268 -70 268 -237s-85 -237 -268 -237h-200v-249c0 -11 -5 -16 -16 -16zM218 357h174c108 0 168 27 168 145c0 119 -60 145 -168 145h-174v-290z" />
    <glyph glyph-name="Q" unicode="Q" horiz-adv-x="807" 
d="M746 370c0 -214 -46 -365 -294 -381l18 -86h171c10 0 15 -5 15 -15v-68c0 -11 -5 -16 -15 -16h-138c-111 0 -138 100 -157 185c-237 19 -285 171 -285 381c0 226 55 382 343 382c286 0 342 -156 342 -382zM620 370c0 183 -20 288 -217 288s-216 -105 -216 -288
c0 -184 19 -289 216 -289s217 106 217 289z" />
    <glyph glyph-name="R" unicode="R" horiz-adv-x="769" 
d="M202 0h-89c-11 0 -17 5 -17 16v707c0 11 6 16 17 16h334c155 0 239 -57 239 -202c0 -100 -39 -166 -144 -182v-25c107 -16 146 -55 151 -170l8 -147c0 -9 -5 -13 -15 -13h-99c-9 0 -14 4 -14 13l-6 140c-5 101 -59 129 -164 132l-185 5v-274c0 -11 -5 -16 -16 -16z
M218 375l182 6c91 3 161 23 161 130c0 89 -32 136 -127 136h-216v-272z" />
    <glyph glyph-name="S" unicode="S" horiz-adv-x="684" 
d="M623 214c0 -176 -144 -225 -291 -225c-125 0 -224 28 -243 36c-11 3 -15 11 -15 19c0 1 0 3 1 6l12 56c2 8 7 12 15 12c2 0 5 0 8 -1c21 -5 121 -33 222 -33c85 0 167 27 167 121c0 93 -79 102 -182 118c-111 16 -251 43 -251 212c0 172 133 215 281 215
c115 0 211 -26 233 -34c13 -5 18 -13 16 -24l-13 -58c-1 -7 -11 -12 -18 -11c-37 8 -117 31 -213 31c-77 0 -165 -16 -165 -107s90 -105 182 -118c118 -16 254 -31 254 -215z" />
    <glyph glyph-name="T" unicode="T" horiz-adv-x="644" 
d="M634 723v-65c0 -8 -7 -15 -16 -15h-235v-628c0 -8 -7 -15 -16 -15h-89c-9 0 -16 7 -16 15v628h-236c-11 0 -16 5 -16 16v64c0 11 5 16 16 16h592c11 0 16 -5 16 -16z" />
    <glyph glyph-name="U" unicode="U" horiz-adv-x="786" 
d="M700 738v-474c0 -163 -63 -277 -307 -277c-222 0 -307 91 -307 273v465c0 7 5 12 14 13l94 14c11 1 14 -7 14 -14v-485c0 -109 34 -172 186 -172c129 0 184 47 184 159v485c0 7 5 12 14 13l94 14c11 3 14 -7 14 -14z" />
    <glyph glyph-name="V" unicode="V" horiz-adv-x="714" 
d="M450 0h-186c-9 0 -14 4 -16 12l-226 709c-3 11 0 18 11 18h102c7 0 13 -4 16 -12l189 -640h40l189 640c2 8 7 12 16 12h96c11 0 14 -7 11 -18l-226 -709c-2 -8 -7 -12 -16 -12z" />
    <glyph glyph-name="W" unicode="W" horiz-adv-x="1055" 
d="M747 98h33l114 624c3 15 8 17 19 17h92c9 0 17 -5 14 -20l-146 -704c-2 -10 -9 -15 -20 -15h-179c-12 0 -17 7 -20 15l-118 531h-15l-118 -531c-3 -8 -7 -15 -20 -15h-180c-12 0 -19 5 -21 15l-146 704c-3 11 5 20 14 20h96c8 0 16 -2 19 -17l114 -624h33l122 551
c2 11 8 16 19 16h154c10 0 16 -5 18 -16z" />
    <glyph glyph-name="X" unicode="X" horiz-adv-x="709" 
d="M445 388l254 -370c5 -8 0 -18 -11 -18h-111c-7 0 -13 3 -16 9l-207 316l-211 -317c-3 -5 -8 -8 -15 -8h-107c-9 0 -16 11 -11 18l258 367l-234 334c-3 7 2 20 11 20h111c7 0 14 -4 20 -13l183 -279l179 280c5 8 11 12 19 12h103c9 0 15 -11 11 -20z" />
    <glyph glyph-name="Y" unicode="Y" horiz-adv-x="677" 
d="M401 294v-279c0 -8 -8 -15 -17 -15h-89c-9 0 -16 7 -16 15v279l-277 425c-1 2 -2 4 -2 7c0 9 4 13 13 13h111c8 0 14 -4 19 -13l203 -332l198 333c5 9 8 12 19 12h102c9 0 15 -12 11 -20z" />
    <glyph glyph-name="Z" unicode="Z" horiz-adv-x="669" 
d="M623 81v-65c0 -11 -5 -16 -15 -16h-542c-9 0 -16 7 -16 15v61c0 19 4 20 11 29l403 538h-402c-11 0 -16 5 -16 16v64c0 11 5 16 16 16h535c10 0 15 -5 15 -16v-68c0 -11 -2 -15 -7 -22l-409 -536h412c8 0 15 -7 15 -16z" />
    <glyph glyph-name="bracketleft" unicode="[" horiz-adv-x="333" 
d="M268 -84l-23 -55c-2 -7 -6 -9 -13 -7l-148 42c-5 1 -11 9 -11 17v845c0 8 6 14 11 17l147 42c7 3 11 0 14 -7l23 -55c3 -7 1 -11 -6 -14l-85 -37v-737l85 -37c4 -3 9 -6 6 -14z" />
    <glyph glyph-name="backslash" unicode="\" horiz-adv-x="306" 
d="M218 -47l-219 816c-3 8 3 13 8 14l68 15c8 3 13 -3 14 -8l219 -816c3 -8 -3 -12 -8 -13l-68 -16c-8 -3 -13 3 -14 8z" />
    <glyph glyph-name="bracketright" unicode="]" horiz-adv-x="333" 
d="M260 758v-845c0 -9 -4 -14 -11 -17l-147 -42c-7 -2 -11 0 -14 7l-23 55c-3 7 -1 11 6 14l85 37v737l-84 37c-4 3 -10 6 -7 14l23 55c3 7 7 9 14 7l147 -42c7 -3 11 -8 11 -17z" />
    <glyph glyph-name="asciicircum" unicode="^" horiz-adv-x="606" 
d="M303 641l-174 -354c-3 -5 -6 -7 -10 -7c-2 0 -4 1 -7 2l-62 28c-4 2 -6 5 -6 9c0 3 1 5 2 8l210 404c3 5 8 8 15 8h64c7 0 12 -3 15 -8l210 -404c1 -3 2 -5 2 -8c0 -4 -2 -7 -6 -9l-62 -28c-3 -1 -5 -2 -7 -2c-5 0 -8 2 -10 7z" />
    <glyph glyph-name="underscore" unicode="_" horiz-adv-x="519" 
d="M0 -125v57h519v-57h-519z" />
    <glyph glyph-name="grave" unicode="`" horiz-adv-x="581" 
d="M390 646l-36 -47c-4 -5 -9 -6 -15 -2l-147 102c-5 3 -6 8 -2 13l39 50c4 5 9 6 14 2l145 -105c5 -3 6 -8 2 -13z" />
    <glyph glyph-name="a" unicode="a" horiz-adv-x="576" 
d="M508 382v-277c0 -73 -20 -88 -89 -104c-33 -8 -79 -14 -135 -14c-100 0 -237 7 -237 168c0 131 78 141 166 157l182 30v37c0 31 -2 52 -31 64c-16 7 -43 10 -82 10c-72 0 -142 -20 -175 -28c-3 -1 -6 -1 -7 -1c-4 0 -9 2 -12 9l-12 55c-3 11 4 14 11 17
c28 9 117 33 215 33c72 0 118 -10 149 -27c52 -29 57 -76 57 -129zM395 263l-152 -25c-41 -8 -80 -12 -80 -81c0 -85 71 -92 124 -92c41 0 77 5 108 16v182z" />
    <glyph glyph-name="b" unicode="b" horiz-adv-x="594" 
d="M547 267c0 -193 -49 -280 -242 -280c-75 0 -141 12 -177 23c-52 16 -55 43 -55 83v625c0 10 5 16 15 18l82 16c12 3 17 -6 17 -15v-166l-11 -59c16 5 93 26 156 26c161 0 215 -78 215 -271zM431 264c0 152 -25 191 -121 191c-46 0 -109 -16 -123 -19v-354
c9 -3 52 -14 111 -14c100 0 133 42 133 196z" />
    <glyph glyph-name="c" unicode="c" horiz-adv-x="502" 
d="M163 263c0 -144 34 -191 146 -191c61 0 102 13 125 20c15 4 17 -2 20 -10l10 -46c2 -10 -2 -17 -11 -21c-24 -11 -86 -26 -162 -26c-186 0 -244 90 -244 275c0 184 58 274 244 274c76 0 138 -15 162 -26c9 -4 13 -11 11 -21l-10 -46c-3 -8 -5 -14 -20 -10
c-23 7 -64 20 -125 20c-112 0 -146 -49 -146 -192z" />
    <glyph glyph-name="d" unicode="d" horiz-adv-x="594" 
d="M521 737v-651c0 -31 -3 -62 -62 -78c-39 -11 -89 -21 -161 -21c-195 0 -251 77 -251 274c0 183 49 277 226 277c69 0 121 -12 145 -19l-10 59v140c0 10 5 16 15 18l81 16c12 3 17 -6 17 -15zM408 83v359c-11 3 -61 14 -111 14c-95 0 -134 -25 -134 -192
c0 -176 46 -195 137 -195c52 0 97 11 108 14z" />
    <glyph glyph-name="e" unicode="e" horiz-adv-x="575" 
d="M528 272v-24c0 -9 0 -17 -1 -24c0 -9 -6 -19 -17 -19h-348c1 -49 13 -77 37 -100c28 -27 69 -36 129 -36c57 0 100 12 143 24c2 1 4 1 7 1c7 0 10 0 13 -11l10 -45c1 -3 1 -5 1 -6c0 -6 -4 -11 -11 -14c-37 -15 -103 -31 -178 -31c-196 0 -266 83 -266 274
c0 180 45 277 242 277c103 0 163 -28 199 -80c31 -45 40 -107 40 -186zM162 284h251c0 35 -1 64 -9 95c-15 60 -47 78 -115 78c-73 0 -105 -20 -118 -76c-8 -31 -8 -64 -9 -97z" />
    <glyph glyph-name="f" unicode="f" horiz-adv-x="391" 
d="M402 720l-7 -50c-1 -8 -6 -12 -15 -12c-17 3 -52 10 -85 10c-25 0 -44 -2 -56 -13c-12 -9 -18 -26 -18 -49v-81h139c10 0 15 -5 15 -15v-55c0 -10 -5 -15 -15 -15h-139v-425c0 -10 -5 -15 -15 -15h-82c-11 0 -16 5 -16 15v425h-78c-10 0 -15 5 -15 15v55c0 10 5 15 15 15
h78v79c0 101 49 148 157 148c63 0 106 -9 125 -16c9 -3 13 -9 12 -16z" />
    <glyph glyph-name="g" unicode="g" horiz-adv-x="605" 
d="M492 444c8 -11 30 -43 30 -94c0 -137 -98 -178 -231 -178h-56c-44 0 -56 -22 -56 -47c0 -39 26 -48 73 -48h127c93 0 176 -26 176 -127c0 -125 -106 -170 -254 -170c-168 0 -251 31 -251 131c0 82 59 93 107 104v13c-47 10 -89 15 -89 88c0 62 41 75 108 88
c-42 13 -111 39 -111 151c0 140 93 183 230 183c88 0 104 -24 166 -24c39 0 67 12 98 27c4 2 7 3 9 3c3 0 6 -3 8 -8l21 -62c2 -7 1 -13 -4 -16c-20 -16 -34 -20 -57 -20c-17 0 -39 5 -44 6zM443 -67c0 53 -44 58 -88 58h-106c-43 0 -87 -11 -87 -67c0 -60 57 -70 143 -70
c64 0 138 11 138 79zM411 355c0 80 -38 112 -118 112c-79 0 -117 -32 -117 -112s38 -112 117 -112c80 0 118 32 118 112z" />
    <glyph glyph-name="h" unicode="h" horiz-adv-x="599" 
d="M531 394v-379c0 -10 -5 -15 -15 -15h-82c-11 0 -16 5 -16 15v363c0 56 -20 78 -80 78c-67 0 -136 -17 -151 -20v-421c0 -10 -5 -15 -15 -15h-83c-11 0 -16 5 -16 15v703c0 10 5 16 16 18l81 16c12 3 17 -6 17 -15v-165l-11 -60c51 13 126 26 180 26
c116 0 175 -35 175 -144z" />
    <glyph glyph-name="i" unicode="i" horiz-adv-x="289" 
d="M201 505v-490c0 -10 -5 -15 -15 -15h-82c-11 0 -16 5 -16 15v490c0 9 5 14 16 14h82c10 0 15 -5 15 -14zM201 732v-111c0 -13 -7 -20 -21 -20h-71c-14 0 -21 7 -21 20v111c0 13 7 20 21 20h71c14 0 21 -7 21 -20z" />
    <glyph glyph-name="j" unicode="j" horiz-adv-x="283" 
d="M200 505v-560c0 -120 -69 -155 -172 -155c-29 0 -50 1 -64 3c-7 1 -18 2 -18 17l1 46c0 13 7 15 16 15l35 1c59 3 88 9 88 77v556c0 9 5 14 16 14h83c10 0 15 -5 15 -14zM200 732v-111c0 -13 -7 -20 -21 -20h-72c-13 0 -20 7 -20 20v111c0 13 7 20 20 20h72
c14 0 21 -7 21 -20z" />
    <glyph glyph-name="k" unicode="k" horiz-adv-x="548" 
d="M172 0h-83c-11 0 -16 5 -16 15v703c0 10 5 16 14 18l84 16c8 3 16 -4 16 -15v-435h46l165 216c4 5 9 7 16 7h100c11 0 12 -10 8 -15l-193 -241l207 -255c4 -4 -1 -14 -8 -14h-116c-6 0 -10 2 -13 6l-166 217h-46v-208c0 -10 -5 -15 -15 -15z" />
    <glyph glyph-name="l" unicode="l" horiz-adv-x="312" 
d="M277 70l10 -51c1 -5 -1 -12 -8 -15c-11 -5 -39 -13 -83 -13c-80 0 -123 41 -123 120v608c0 9 5 15 15 17l82 16h4c9 0 13 -5 13 -15v-619c0 -36 22 -43 42 -43c15 0 26 3 37 4c5 0 8 -1 11 -9z" />
    <glyph glyph-name="m" unicode="m" horiz-adv-x="946" 
d="M878 389v-374c0 -10 -5 -15 -15 -15h-82c-11 0 -16 5 -16 15v359c0 63 -24 82 -84 82c-66 0 -132 -18 -148 -21v-420c0 -10 -5 -15 -15 -15h-83c-10 0 -15 5 -15 15v359c0 63 -23 82 -83 82c-65 0 -134 -18 -150 -21v-420c0 -10 -5 -15 -15 -15h-83c-11 0 -16 5 -16 15
v425c0 37 14 54 67 70c50 16 143 28 206 28c64 0 107 -13 135 -36c39 16 138 36 212 36c122 0 185 -34 185 -149z" />
    <glyph glyph-name="n" unicode="n" horiz-adv-x="599" 
d="M531 389v-374c0 -10 -5 -15 -15 -15h-83c-11 0 -16 5 -16 15v359c0 63 -22 82 -82 82c-66 0 -132 -18 -148 -21v-420c0 -10 -5 -15 -15 -15h-83c-11 0 -16 5 -16 15v425c0 37 14 54 67 70c50 16 141 28 205 28c122 0 186 -34 186 -149z" />
    <glyph glyph-name="o" unicode="o" horiz-adv-x="581" 
d="M534 262c0 -152 -26 -275 -243 -275s-244 123 -244 275c0 153 27 276 244 276s243 -123 243 -276zM417 262c0 123 -5 194 -126 194c-123 0 -127 -71 -127 -194s4 -193 127 -193c121 0 126 70 126 193z" />
    <glyph glyph-name="p" unicode="p" horiz-adv-x="594" 
d="M547 262c0 -171 -42 -275 -226 -275c-57 0 -109 7 -145 18l11 -60v-121c0 -10 -5 -16 -15 -18l-81 -16c-12 -3 -18 6 -18 15v621c0 48 12 64 59 80c57 20 133 32 200 32c189 0 215 -115 215 -276zM431 263c0 173 -40 191 -124 191c-46 0 -106 -16 -120 -19v-353
c9 -3 52 -14 111 -14c100 0 133 41 133 195z" />
    <glyph glyph-name="q" unicode="q" horiz-adv-x="594" 
d="M521 435v-611c0 -10 -5 -16 -15 -18l-81 -16c-12 -3 -17 6 -17 15v141l11 59c-35 -8 -75 -18 -142 -18c-195 0 -230 106 -230 274c0 205 64 277 244 277c68 0 120 -10 161 -21c60 -15 69 -41 69 -82zM408 84v359c-11 3 -58 13 -111 13c-95 0 -134 -29 -134 -192
c0 -177 46 -195 137 -195c52 0 97 12 108 15z" />
    <glyph glyph-name="r" unicode="r" horiz-adv-x="368" 
d="M73 15v426c0 41 18 53 61 68s114 27 197 28c12 0 23 -2 23 -17v-57c0 -8 -2 -15 -14 -15c-63 0 -114 -5 -153 -16v-417c0 -10 -5 -15 -15 -15h-84c-10 0 -15 5 -15 15z" />
    <glyph glyph-name="s" unicode="s" horiz-adv-x="501" 
d="M457 154c0 -130 -100 -167 -217 -167c-87 0 -166 26 -181 32c-5 3 -12 7 -9 14l11 53c2 7 6 11 11 11c2 0 4 0 7 -1c11 -3 79 -26 154 -26c67 0 111 21 111 74c0 68 -48 64 -116 78c-71 11 -173 30 -173 156c0 137 122 160 210 160c84 0 147 -18 162 -22
c8 -2 12 -7 11 -15l-9 -54c-1 -7 -6 -10 -14 -9c-12 2 -81 17 -136 17c-56 0 -111 -14 -111 -69c0 -57 55 -65 116 -73c83 -13 173 -27 173 -159z" />
    <glyph glyph-name="t" unicode="t" horiz-adv-x="395" 
d="M358 75l10 -46c3 -13 -2 -18 -10 -21c-19 -7 -61 -18 -124 -18c-108 0 -161 42 -161 150v528c0 9 5 15 16 17l81 17c12 3 17 -6 17 -15v-162h152c10 0 15 -5 15 -15v-55c0 -10 -5 -15 -15 -15h-152v-301c0 -48 22 -65 74 -65c31 0 63 7 82 11c8 2 13 -1 15 -10z" />
    <glyph glyph-name="u" unicode="u" horiz-adv-x="594" 
d="M526 523v-336c0 -115 -41 -200 -229 -200c-167 0 -229 63 -229 199v318c0 10 5 16 16 18l81 16c12 3 17 -6 17 -15v-344c0 -76 26 -111 115 -111c104 0 115 51 115 112v324c0 10 5 16 16 18l81 16c12 3 17 -6 17 -15z" />
    <glyph glyph-name="v" unicode="v" horiz-adv-x="544" 
d="M519 505l-148 -489c-3 -11 -10 -16 -20 -16h-152c-10 0 -17 5 -20 16l-154 488c-1 3 -1 5 -1 7c0 9 5 14 14 14h88c12 0 16 -4 19 -15l121 -435h26l108 435c3 10 9 15 20 15h84c11 0 16 -5 16 -14c0 -1 0 -3 -1 -6z" />
    <glyph glyph-name="w" unicode="w" horiz-adv-x="825" 
d="M304 0h-157c-11 0 -17 5 -19 16l-100 487c-3 11 1 22 14 22h88c9 0 15 -5 17 -15l71 -412h23l84 365c3 11 10 17 22 17h134c11 0 19 -4 22 -17l84 -365h23l71 412c2 10 8 15 17 15h85c15 0 17 -10 14 -22l-100 -487c-2 -11 -8 -16 -19 -16h-152c-11 0 -18 5 -20 15
l-85 361h-13l-85 -361c-2 -10 -8 -15 -19 -15z" />
    <glyph glyph-name="x" unicode="x" horiz-adv-x="553" 
d="M348 271l181 -251c2 -3 3 -6 3 -9c0 -7 -4 -11 -11 -11h-98c-7 0 -12 3 -15 9l-133 199l-129 -199c-3 -6 -9 -9 -16 -9h-99c-7 0 -10 4 -10 11c0 4 1 7 2 9l180 249l-163 235c-2 3 -3 6 -3 9c0 8 3 12 10 12h93c13 0 18 -4 25 -13l115 -179l110 179c5 9 13 13 24 13h92
c7 0 10 -4 10 -13c0 -3 -1 -6 -2 -8z" />
    <glyph glyph-name="y" unicode="y" horiz-adv-x="545" 
d="M520 506l-173 -574c-29 -93 -61 -142 -179 -142c-49 0 -67 2 -84 6c-9 2 -13 7 -13 14l1 53c0 7 3 15 14 14c13 -1 40 -2 59 -2c51 0 77 12 92 63l18 62h-56c-10 0 -17 5 -20 16l-154 489c-4 11 6 20 15 20h87c9 0 16 -5 19 -15l120 -435h26l109 435c3 10 9 15 20 15h84
c11 0 16 -4 16 -13c0 -2 0 -4 -1 -6z" />
    <glyph glyph-name="z" unicode="z" horiz-adv-x="503" 
d="M446 0h-380c-9 0 -14 5 -14 14v55c0 9 2 13 7 20l259 351h-262c-9 0 -14 4 -14 13v58c0 9 5 14 14 14h383c9 0 14 -5 14 -14v-54c0 -7 0 -11 -7 -19l-260 -352h260c10 0 15 -5 15 -14v-58c0 -9 -5 -14 -15 -14z" />
    <glyph glyph-name="braceleft" unicode="{" horiz-adv-x="396" 
d="M331 -84l-23 -55c-3 -7 -7 -9 -14 -7l-147 42c-5 3 -11 9 -11 17v270c0 73 -8 100 -64 108c-7 1 -14 7 -14 14v58c0 8 7 13 14 14c56 8 64 35 64 108v273c0 8 6 16 11 17l147 42c7 2 12 0 14 -7l23 -54c3 -7 1 -12 -6 -15l-85 -37v-238c0 -90 -53 -110 -77 -121v-23
c24 -11 77 -31 77 -121v-234l85 -37c7 -3 9 -6 6 -14z" />
    <glyph glyph-name="bar" unicode="|" horiz-adv-x="264" 
d="M181 765v-910c0 -11 -5 -17 -16 -17h-65c-11 0 -17 9 -17 18v908c0 9 6 18 17 18h65c11 0 16 -6 16 -17z" />
    <glyph glyph-name="braceright" unicode="}" horiz-adv-x="396" 
d="M338 363v-58c0 -8 -5 -13 -14 -14c-56 -8 -64 -35 -64 -108v-270c0 -9 -4 -14 -11 -17l-147 -42c-9 -3 -11 2 -14 7l-23 55c-3 7 -1 11 6 14l85 37v234c0 90 53 110 77 121v23c-24 11 -77 31 -77 121v238l-84 37c-4 3 -10 8 -7 15l23 54c3 7 7 9 14 7l147 -42
c7 -1 11 -9 11 -17v-273c0 -73 8 -100 64 -108c9 -1 14 -6 14 -14z" />
    <glyph glyph-name="asciitilde" unicode="~" horiz-adv-x="607" 
d="M501 349l27 -51c3 -5 2 -14 -5 -19c-26 -21 -81 -58 -132 -58c-31 0 -59 12 -87 24c-31 13 -58 28 -85 28c-35 0 -64 -21 -91 -42c-3 -3 -6 -4 -10 -4c-5 0 -9 2 -11 7l-27 51c-4 7 -2 14 5 19c24 19 79 58 132 58c31 0 59 -12 86 -24c32 -13 58 -27 86 -27
c33 0 64 20 91 41c7 7 16 8 21 -3z" />
    <glyph glyph-name="uni00A0" unicode="&#xa0;" horiz-adv-x="280" 
 />
    <glyph glyph-name="exclamdown" unicode="&#xa1;" horiz-adv-x="311" 
d="M203 300l11 -515c0 -8 -5 -15 -14 -12l-94 17c-10 2 -15 8 -15 18l12 492c0 7 4 11 11 11h77c8 0 12 -4 12 -11zM214 507v-114c0 -12 -6 -18 -17 -18h-88c-11 0 -17 6 -17 18v114c0 12 6 18 17 18h88c11 0 17 -6 17 -18z" />
    <glyph glyph-name="cent" unicode="&#xa2;" horiz-adv-x="704" 
d="M550 80l9 -45c3 -12 -1 -15 -10 -20c-20 -11 -70 -21 -123 -25v-71c0 -11 -7 -18 -16 -18h-56c-11 0 -16 9 -16 18v72c-152 16 -195 103 -195 272s43 257 195 273v73c0 9 5 17 16 17h56c11 0 16 -6 16 -17v-73c53 -4 102 -15 123 -24c8 -4 13 -8 10 -20l-9 -46
c-3 -11 -9 -14 -20 -11c-23 5 -74 20 -125 20c-112 0 -146 -49 -146 -192c0 -144 34 -191 146 -191c46 0 102 11 125 19c11 3 17 -3 20 -11z" />
    <glyph glyph-name="sterling" unicode="&#xa3;" horiz-adv-x="704" 
d="M632 707l-14 -68c-1 -5 -6 -8 -14 -8c-10 0 -96 24 -168 24c-73 0 -158 -13 -158 -112c0 -44 22 -131 25 -143h218c11 0 16 -5 16 -15v-64c0 -10 -5 -15 -16 -15h-200c3 -7 9 -36 9 -76c0 -88 -55 -122 -74 -135l356 3c9 0 16 -8 16 -16v-66c0 -11 -5 -16 -16 -16h-526
c-10 0 -15 5 -15 15v67c0 8 1 14 16 17c61 11 126 49 126 138c0 70 -52 213 -52 303c0 164 108 212 258 212c100 0 191 -25 202 -28c9 -3 13 -9 11 -17z" />
    <glyph glyph-name="currency" unicode="&#xa4;" horiz-adv-x="704" 
d="M352 220c81 0 101 40 101 117s-20 117 -101 117s-101 -40 -101 -117s20 -117 101 -117zM352 529c43 0 75 -9 100 -22l47 43c3 3 6 4 10 4c3 0 6 -1 9 -4l52 -54c3 -3 4 -6 4 -9s-1 -5 -3 -7l-52 -47c13 -31 18 -61 18 -96s-5 -65 -18 -96l52 -47c2 -2 3 -4 3 -7
s-1 -6 -4 -9l-52 -54c-3 -3 -6 -4 -9 -4c-4 0 -7 1 -10 4l-47 43c-25 -13 -57 -22 -100 -22s-75 9 -100 22l-47 -43c-3 -3 -6 -4 -10 -4c-3 0 -6 1 -9 4l-52 54c-3 3 -4 6 -4 9s1 5 3 7l52 47c-13 31 -18 61 -18 96s5 65 18 96l-52 47c-2 2 -3 4 -3 7s1 6 4 9l52 54
c3 3 6 4 9 4c4 0 7 -1 10 -4l47 -43c25 13 57 22 100 22z" />
    <glyph glyph-name="yen" unicode="&#xa5;" horiz-adv-x="704" 
d="M460 369h151c10 0 15 -5 15 -15v-53c0 -9 -8 -15 -15 -15h-519c-10 0 -15 5 -15 14v54c0 9 7 15 15 15h152l-219 349c-4 8 2 21 13 21h105c9 0 15 -4 20 -13l193 -335l188 336c5 8 11 12 19 12h102c11 0 17 -12 13 -21zM586 218v-52c0 -9 -8 -15 -15 -15h-156v-136
c0 -8 -7 -15 -16 -15h-89c-11 0 -17 7 -17 15v136h-160c-10 0 -15 5 -15 15v52c0 9 5 14 15 14h438c10 0 15 -5 15 -14z" />
    <glyph glyph-name="brokenbar" unicode="&#xa6;" horiz-adv-x="264" 
d="M181 225v-369c0 -11 -7 -18 -16 -18h-66c-11 0 -16 9 -16 18v370c0 9 7 17 16 17h66c11 0 16 -6 16 -18zM181 764v-369c0 -11 -7 -18 -16 -18h-66c-11 0 -16 9 -16 18v370c0 9 7 17 16 17h66c11 0 16 -6 16 -18z" />
    <glyph glyph-name="section" unicode="&#xa7;" horiz-adv-x="737" 
d="M650 278c0 -104 -88 -138 -131 -149v-22c23 -8 103 -33 103 -138c0 -72 -32 -120 -83 -147c-48 -24 -100 -32 -183 -32c-104 0 -205 29 -227 37c-9 4 -12 11 -9 20l11 49c3 10 9 14 20 11l34 -8c43 -12 108 -24 168 -24c93 0 155 20 155 96c0 69 -57 78 -124 89
c-20 3 -43 5 -68 9c-131 19 -229 41 -229 186c0 107 88 140 131 151v22c-24 8 -102 34 -102 137c0 72 31 127 82 154c45 24 95 33 182 33c77 0 164 -17 196 -30c7 -3 11 -5 11 -16v-3c0 -1 0 -3 -1 -6l-8 -43c-2 -9 -7 -12 -15 -11c-22 3 -113 24 -182 24
c-95 0 -153 -25 -153 -102c0 -68 57 -81 121 -89l69 -9c133 -19 232 -39 232 -189zM537 268c0 74 -62 91 -114 96l-77 9c-74 -3 -146 -24 -146 -106c0 -74 62 -91 115 -96l77 -9c74 3 145 24 145 106z" />
    <glyph glyph-name="dieresis" unicode="&#xa8;" horiz-adv-x="581" 
d="M463 693v-65c0 -9 -5 -13 -14 -13h-106c-10 0 -15 4 -15 13v65c0 7 6 12 15 12h106c8 0 14 -5 14 -12zM252 693v-65c0 -9 -5 -13 -14 -13h-106c-8 0 -15 6 -15 13v65c0 7 7 12 15 12h106c8 0 14 -5 14 -12z" />
    <glyph glyph-name="copyright" unicode="&#xa9;" horiz-adv-x="911" 
d="M852 368c0 -259 -84 -381 -397 -381c-312 0 -397 122 -397 381s85 384 397 384c313 0 397 -125 397 -384zM771 369c0 117 -16 194 -69 245c-47 44 -123 64 -247 64c-125 0 -202 -21 -249 -66c-51 -51 -67 -128 -67 -244c0 -115 16 -192 67 -243c47 -45 124 -65 249 -65
c124 0 200 19 247 63c53 51 69 129 69 246zM609 557l-7 -34c-3 -11 -9 -14 -19 -11c-28 8 -67 18 -106 18c-93 0 -120 -40 -120 -157c0 -119 27 -158 120 -158c37 0 90 12 106 17c11 3 17 0 19 -10l7 -34c2 -7 0 -13 -6 -16l-8 -4c-30 -14 -89 -21 -128 -21
c-161 0 -200 78 -200 226s39 226 200 226c40 0 110 -11 134 -24c7 -4 10 -10 8 -18z" />
    <glyph glyph-name="ordfeminine" unicode="&#xaa;" horiz-adv-x="458" 
d="M364 656v-159c0 -44 -11 -57 -58 -66c-19 -4 -48 -9 -83 -9c-52 0 -152 1 -152 104c0 79 57 89 116 97l106 17v13c0 17 -1 29 -18 36c-10 4 -27 6 -51 6c-39 0 -74 -7 -111 -16c-5 -1 -9 -2 -10 -2c-5 0 -7 2 -8 7l-8 36c-3 8 7 12 11 13c28 7 79 19 136 19
c55 0 94 -7 114 -30c16 -19 16 -43 16 -66zM376 354v-29c0 -10 -5 -15 -15 -15h-272c-8 0 -15 6 -15 15v29c0 9 5 14 15 14h272c10 0 15 -5 15 -14zM293 587l-98 -15c-25 -4 -50 -9 -50 -44c0 -49 41 -52 78 -52c23 0 47 2 70 9v102z" />
    <glyph glyph-name="guillemotleft" unicode="&#xab;" horiz-adv-x="566" 
d="M155 289l147 -200c1 -2 2 -4 2 -7c0 -4 -2 -7 -5 -9l-55 -34c-3 -1 -5 -2 -7 -2c-4 0 -7 2 -10 6l-167 236c-2 3 -3 6 -3 10s1 7 3 10l167 236c3 4 6 6 10 6c2 0 4 -1 7 -2l55 -34c3 -2 5 -5 5 -9c0 -3 -1 -5 -2 -7zM360 289l147 -200c1 -2 2 -4 2 -7c0 -4 -2 -7 -5 -9
l-55 -34c-3 -1 -5 -2 -7 -2c-4 0 -7 2 -10 6l-167 236c-2 3 -3 6 -3 10s1 7 3 10l167 236c3 4 6 6 10 6c2 0 4 -1 7 -2l55 -34c3 -2 5 -5 5 -9c0 -3 -1 -5 -2 -7z" />
    <glyph glyph-name="logicalnot" unicode="&#xac;" horiz-adv-x="608" 
d="M550 374v-216c0 -9 -7 -17 -18 -17h-62c-11 0 -18 6 -18 17v143h-376c-9 0 -18 6 -18 17v56c0 11 6 17 18 17h456c11 0 18 -8 18 -17z" />
    <glyph glyph-name="uni00AD" unicode="&#xad;" horiz-adv-x="409" 
d="M356 302v-56c0 -11 -9 -17 -18 -17h-266c-9 0 -19 6 -19 17v56c0 9 8 17 19 17h266c11 0 18 -8 18 -17z" />
    <glyph glyph-name="registered" unicode="&#xae;" horiz-adv-x="910" 
d="M852 368c0 -259 -84 -381 -397 -381c-312 0 -397 122 -397 381s85 384 397 384c313 0 397 -125 397 -384zM771 369c0 117 -16 194 -69 245c-47 44 -123 64 -247 64c-125 0 -202 -21 -249 -66c-51 -51 -67 -128 -67 -244c0 -115 16 -192 67 -243c47 -45 124 -65 249 -65
c124 0 200 19 247 63c53 51 69 129 69 246zM641 249l4 -79c0 -8 -3 -12 -10 -12h-65c-7 0 -11 3 -12 10l-6 93c-3 47 -35 59 -92 62l-85 4v-156c0 -9 -5 -13 -14 -13h-60c-9 0 -13 8 -13 13v399c0 9 7 17 16 17h189c89 0 144 -31 144 -123c0 -60 -24 -88 -93 -99v-16
c23 -3 44 -6 61 -17c21 -15 33 -36 36 -83zM549 453c0 51 -25 68 -82 68h-92v-135l92 3c57 3 82 13 82 64z" />
    <glyph glyph-name="macron" unicode="&#xaf;" horiz-adv-x="581" 
d="M291 630c-56 0 -104 -17 -131 -24c-3 -1 -5 -1 -7 -1c-6 0 -10 4 -11 11l-9 53c-1 5 3 9 11 12c27 11 86 25 146 25s120 -14 147 -25c8 -3 12 -8 11 -13l-9 -52c-1 -7 -5 -11 -11 -11c-1 0 -4 0 -7 1c-31 8 -74 24 -130 24z" />
    <glyph glyph-name="degree" unicode="&#xb0;" horiz-adv-x="406" 
d="M359 602c0 -83 -71 -150 -156 -150s-156 67 -156 150c0 82 71 150 156 150s156 -68 156 -150zM287 602c0 44 -40 81 -85 81s-83 -37 -83 -81c0 -47 37 -81 84 -81c45 0 84 34 84 81z" />
    <glyph glyph-name="plusminus" unicode="&#xb1;" horiz-adv-x="616" 
d="M536 382v-57c0 -11 -6 -16 -17 -16h-163v-139c0 -11 -5 -17 -16 -17h-64c-11 0 -16 6 -16 17v139h-165c-11 0 -17 6 -17 17v56c0 11 6 17 18 17h164v140c0 11 5 17 16 17h63c11 0 17 -6 17 -17v-140h163c11 0 17 -6 17 -17zM538 73v-56c0 -11 -9 -17 -18 -17h-424
c-8 0 -18 6 -18 17v56c0 11 6 17 18 17h424c12 0 18 -6 18 -17z" />
    <glyph glyph-name="twosuperior" unicode="&#xb2;" horiz-adv-x="504" 
d="M430 349v-45c0 -10 -5 -15 -14 -15h-310c-11 0 -17 5 -17 14v71c0 25 11 41 26 52c16 11 95 64 116 77c43 30 101 56 101 109c0 59 -38 70 -98 70c-47 0 -89 -10 -134 -21c-11 -3 -15 4 -18 11l-8 36c-3 11 4 16 11 19c19 7 79 24 162 24c107 0 175 -31 175 -138
c0 -82 -71 -130 -135 -167l-111 -66v-18l240 2c9 0 14 -5 14 -15z" />
    <glyph glyph-name="threesuperior" unicode="&#xb3;" horiz-adv-x="504" 
d="M426 412c0 -101 -90 -130 -184 -130c-69 0 -126 12 -138 16c-9 3 -10 6 -9 17l6 43c1 8 7 11 16 9c17 -3 67 -15 118 -15c50 0 101 12 101 66c0 69 -81 69 -137 74c-9 1 -14 5 -14 13v34c0 12 6 13 13 14c43 5 130 5 130 68c0 47 -37 61 -90 61c-61 0 -118 -17 -134 -20
c-9 -3 -15 -2 -18 9l-7 39c-3 11 -1 15 10 18c23 7 79 23 156 23c108 0 172 -37 172 -121c0 -61 -38 -85 -89 -96v-19c64 -11 98 -39 98 -103z" />
    <glyph glyph-name="acute" unicode="&#xb4;" horiz-adv-x="581" 
d="M351 762l39 -50c3 -5 3 -10 -2 -13l-147 -102c-5 -3 -10 -3 -15 2l-36 47c-3 3 -3 10 2 13l145 105c5 4 10 3 14 -2z" />
    <glyph glyph-name="mu" unicode="&#xb5;" horiz-adv-x="605" 
d="M532 523v-395c0 -110 -49 -141 -152 -141c-93 0 -154 17 -205 34l12 -61v-136c0 -10 -5 -16 -15 -18l-81 -16c-12 -3 -18 6 -18 15v699c0 10 5 16 16 18l81 16c12 3 17 -6 17 -15v-425c12 -5 81 -26 149 -26c71 0 83 20 83 81v351c0 10 5 16 15 18l81 16
c12 3 17 -6 17 -15z" />
    <glyph glyph-name="paragraph" unicode="&#xb6;" horiz-adv-x="712" 
d="M465 723v-899c0 -11 -4 -17 -12 -19l-69 -15c-11 -3 -17 5 -17 13v475h-99c-120 0 -221 35 -221 228c0 178 87 229 234 229h172c7 0 12 -5 12 -12zM639 739v-895c0 -11 -4 -17 -12 -19l-69 -15c-11 -3 -16 5 -16 13v895c0 11 4 17 12 19l69 15c9 3 16 -5 16 -13zM367 649
h-72c-94 0 -136 -24 -136 -143c0 -127 56 -143 136 -143h72v286z" />
    <glyph glyph-name="periodcentered" unicode="&#xb7;" horiz-adv-x="209" 
d="M162 327v-87c0 -11 -5 -17 -16 -17h-83c-9 0 -17 6 -17 17v87c0 11 8 18 17 18h83c9 0 16 -7 16 -18z" />
    <glyph glyph-name="cedilla" unicode="&#xb8;" horiz-adv-x="581" 
d="M282 -31c58 0 103 -23 103 -84s-45 -84 -104 -84c-43 0 -69 6 -76 9c-6 2 -9 6 -9 12v29c0 7 4 10 12 8c9 -3 31 -8 56 -8c23 0 42 7 42 34c0 28 -19 34 -43 34c-15 0 -27 -1 -39 -4c-7 -1 -10 1 -10 6v31c0 6 3 10 9 11c11 3 28 6 59 6z" />
    <glyph glyph-name="onesuperior" unicode="&#xb9;" horiz-adv-x="504" 
d="M340 737v-433c0 -10 -5 -15 -15 -15h-56c-10 0 -15 5 -15 15v360l-77 5c-8 0 -14 1 -14 12v38c0 11 5 13 12 14l150 18c8 1 15 -6 15 -14z" />
    <glyph glyph-name="ordmasculine" unicode="&#xba;" horiz-adv-x="460" 
d="M385 587c0 -86 -17 -164 -155 -164s-155 78 -155 164c0 87 17 165 155 165s155 -78 155 -165zM313 587c0 69 -4 111 -83 111c-77 0 -82 -42 -82 -111s5 -111 82 -111c79 0 83 42 83 111zM382 354v-29c0 -10 -5 -15 -16 -15h-271c-11 0 -16 5 -16 15v29c0 8 7 14 15 14
h273c8 0 15 -6 15 -14z" />
    <glyph glyph-name="guillemotright" unicode="&#xbb;" horiz-adv-x="566" 
d="M411 289l-147 200c-1 2 -2 4 -2 7c0 4 2 7 5 9l55 34c3 1 5 2 7 2c3 0 7 -2 10 -6l167 -236c3 -5 5 -13 0 -20l-167 -236c-3 -4 -7 -6 -10 -6c-2 0 -4 1 -7 2l-55 34c-3 2 -5 5 -5 9c0 3 1 5 2 7zM206 289l-147 200c-1 2 -2 4 -2 7c0 4 2 7 5 9l55 34c3 1 5 2 7 2
c3 0 7 -2 10 -6l167 -236c3 -5 5 -13 0 -20l-167 -236c-3 -4 -7 -6 -10 -6c-2 0 -4 1 -7 2l-55 34c-3 2 -5 5 -5 9c0 3 1 5 2 7z" />
    <glyph glyph-name="onequarter" unicode="&#xbc;" horiz-adv-x="1182" 
d="M340 737v-433c0 -10 -5 -15 -15 -15h-56c-10 0 -15 5 -15 15v360l-77 5c-8 0 -14 1 -14 12v38c0 11 5 13 12 14l150 18c8 1 15 -6 15 -14zM881 694l-468 -694c-3 -5 -7 -5 -12 -2l-48 32c-5 4 -6 8 -3 13l468 694c3 3 6 6 13 2l48 -32c3 -3 6 -6 2 -13zM1134 159v-38
c0 -11 -5 -16 -16 -16h-54v-90c0 -10 -5 -15 -15 -15h-50c-11 0 -16 5 -16 15v90h-244c-9 0 -14 5 -14 16v45c0 4 1 11 5 18l194 265c3 3 9 7 14 7h111c10 0 15 -5 15 -15v-267h54c11 0 16 -5 16 -15zM983 391h-16l-158 -217h174v217z" />
    <glyph glyph-name="onehalf" unicode="&#xbd;" horiz-adv-x="1182" 
d="M340 737v-433c0 -10 -5 -15 -15 -15h-56c-10 0 -15 5 -15 15v360l-77 5c-8 0 -14 1 -14 12v38c0 11 5 13 12 14l150 18c8 1 15 -6 15 -14zM831 694l-468 -694c-3 -5 -7 -5 -12 -2l-48 32c-5 4 -6 8 -3 13l468 694c3 3 6 6 13 2l48 -32c3 -3 6 -6 2 -13zM1108 60v-45
c0 -10 -5 -15 -14 -15h-310c-11 0 -17 5 -17 14v71c0 25 11 41 26 52c16 11 95 64 116 77c43 30 101 56 101 109c0 59 -38 70 -98 70c-47 0 -89 -10 -134 -21c-11 -3 -15 4 -18 11l-8 36c-3 11 4 16 11 19c19 7 79 24 162 24c107 0 175 -31 175 -138
c0 -82 -71 -130 -135 -167l-111 -66v-18l240 2c9 0 14 -5 14 -15z" />
    <glyph glyph-name="threequarters" unicode="&#xbe;" horiz-adv-x="1182" 
d="M426 412c0 -101 -90 -130 -184 -130c-69 0 -126 12 -138 16c-9 3 -10 6 -9 17l6 43c1 8 7 11 16 9c17 -3 67 -15 118 -15c50 0 101 12 101 66c0 69 -81 69 -137 74c-9 1 -14 5 -14 13v34c0 12 6 13 13 14c43 5 130 5 130 68c0 47 -37 61 -90 61c-61 0 -118 -17 -134 -20
c-9 -3 -15 -2 -18 9l-7 39c-3 11 -1 15 10 18c23 7 79 23 156 23c108 0 172 -37 172 -121c0 -61 -38 -85 -89 -96v-19c64 -11 98 -39 98 -103zM871 694l-468 -694c-3 -5 -7 -5 -12 -2l-48 32c-5 4 -6 8 -3 13l468 694c3 3 6 6 13 2l48 -32c3 -3 6 -6 2 -13zM1134 159v-38
c0 -11 -5 -16 -16 -16h-54v-90c0 -10 -5 -15 -15 -15h-50c-11 0 -16 5 -16 15v90h-244c-9 0 -14 5 -14 16v45c0 4 1 11 5 18l194 265c3 3 9 7 14 7h111c10 0 15 -5 15 -15v-267h54c11 0 16 -5 16 -15zM983 391h-16l-158 -217h174v217z" />
    <glyph glyph-name="questiondown" unicode="&#xbf;" horiz-adv-x="607" 
d="M71 -49c0 96 74 137 111 163c43 30 104 52 104 117c0 31 -2 40 -5 61c-3 13 7 16 18 16h76c12 0 14 -2 17 -14c3 -11 7 -38 7 -65c0 -102 -53 -128 -121 -174c-30 -19 -83 -56 -83 -104c0 -74 76 -85 135 -85c72 0 153 20 171 25c3 1 6 1 8 1c6 0 10 -4 12 -13l13 -54
c1 -3 1 -5 1 -7c0 -5 -4 -10 -13 -13c-17 -6 -109 -32 -206 -32c-128 0 -245 40 -245 178zM272 393v115c0 11 6 17 17 17h88c11 0 17 -6 17 -17v-115c0 -11 -6 -17 -17 -17h-88c-11 0 -17 6 -17 17z" />
    <glyph glyph-name="Agrave" unicode="&#xc0;" horiz-adv-x="778" 
d="M296 739h186c8 0 14 -4 17 -12l260 -709c3 -8 1 -18 -10 -18h-106c-7 0 -12 4 -15 12l-93 264h-300l-93 -264c-3 -8 -9 -12 -16 -12h-96c-11 0 -14 7 -11 18l260 709c3 8 8 12 17 12zM265 368h240l-100 285h-39zM482 864l-36 -47c-3 -5 -8 -5 -14 -2l-148 102
c-5 4 -6 8 -2 13l39 50c5 6 9 7 14 3l145 -106c5 -3 5 -8 2 -13z" />
    <glyph glyph-name="Aacute" unicode="&#xc1;" horiz-adv-x="778" 
d="M296 739h186c8 0 14 -4 17 -12l260 -709c3 -8 1 -18 -10 -18h-106c-7 0 -12 4 -15 12l-93 264h-300l-93 -264c-3 -8 -9 -12 -16 -12h-96c-11 0 -14 7 -11 18l260 709c3 8 8 12 17 12zM265 368h240l-100 285h-39zM446 980l39 -50c3 -5 3 -9 -2 -13l-147 -102
c-5 -3 -11 -5 -15 2l-36 47c-4 5 -3 10 2 13l145 106c6 3 11 2 14 -3z" />
    <glyph glyph-name="Acircumflex" unicode="&#xc2;" horiz-adv-x="778" 
d="M296 739h186c8 0 14 -4 17 -12l260 -709c3 -8 1 -18 -10 -18h-106c-7 0 -12 4 -15 12l-93 264h-300l-93 -264c-3 -8 -9 -12 -16 -12h-96c-11 0 -14 7 -11 18l260 709c3 8 8 12 17 12zM265 368h240l-100 285h-39zM548 863l-37 -45c-3 -3 -7 -8 -14 -3l-111 87l-111 -87
c-5 -3 -9 -2 -14 3l-36 45c-3 3 -3 10 2 13l142 103h34l143 -103c5 -4 6 -8 2 -13z" />
    <glyph glyph-name="Atilde" unicode="&#xc3;" horiz-adv-x="778" 
d="M296 739h186c8 0 14 -4 17 -12l260 -709c3 -8 1 -18 -10 -18h-106c-7 0 -12 4 -15 12l-93 264h-300l-93 -264c-3 -8 -9 -12 -16 -12h-96c-11 0 -14 7 -11 18l260 709c3 8 8 12 17 12zM265 368h240l-100 285h-39zM536 923l22 -43c3 -5 2 -11 -4 -17
c-19 -16 -64 -50 -104 -50c-23 0 -46 10 -67 21l-31 15c-10 5 -20 8 -30 8c-24 0 -48 -19 -69 -35c-5 -5 -12 -6 -17 2l-23 44c-3 7 -3 9 4 16c20 17 63 50 105 50c24 0 46 -10 66 -21c21 -11 42 -23 61 -23c25 0 49 19 69 36c3 3 6 4 9 4s6 -2 9 -7z" />
    <glyph glyph-name="Adieresis" unicode="&#xc4;" horiz-adv-x="778" 
d="M296 739h186c8 0 14 -4 17 -12l260 -709c3 -8 1 -18 -10 -18h-106c-7 0 -12 4 -15 12l-93 264h-300l-93 -264c-3 -8 -9 -12 -16 -12h-96c-11 0 -14 7 -11 18l260 709c3 8 8 12 17 12zM265 368h240l-100 285h-39zM557 911v-65c0 -9 -5 -13 -14 -13h-106
c-10 0 -15 4 -15 13v65c0 7 6 12 15 12h106c8 0 14 -5 14 -12zM346 911v-65c0 -9 -5 -13 -14 -13h-106c-8 0 -15 6 -15 13v65c0 7 7 12 15 12h106c8 0 14 -5 14 -12z" />
    <glyph glyph-name="Aring" unicode="&#xc5;" horiz-adv-x="778" 
d="M296 739h186c8 0 14 -4 17 -12l260 -709c3 -8 1 -18 -10 -18h-106c-7 0 -12 4 -15 12l-93 264h-300l-93 -264c-3 -8 -9 -12 -16 -12h-96c-11 0 -14 7 -11 18l260 709c3 8 8 12 17 12zM265 368h240l-100 285h-39zM523 910c0 -87 -48 -117 -137 -117s-138 30 -138 117
s49 116 138 116s137 -29 137 -116zM441 910c0 49 -10 70 -55 70s-56 -22 -56 -71c0 -48 11 -70 56 -70s55 22 55 71z" />
    <glyph glyph-name="AE" unicode="&#xc6;" horiz-adv-x="965" 
d="M124 0h-94c-11 0 -14 7 -11 18l259 709c3 7 10 12 17 12h588c11 0 17 -5 17 -16v-64c0 -11 -6 -16 -17 -16h-293v-212h272c10 0 15 -5 15 -15v-65c0 -11 -5 -16 -15 -16h-272v-239h294c11 0 16 -5 16 -15v-65c0 -11 -5 -16 -16 -16h-399c-9 0 -17 7 -17 16v260h-234
l-94 -264c-2 -8 -7 -12 -16 -12zM468 368v280h-105l-99 -280h204z" />
    <glyph glyph-name="Ccedilla" unicode="&#xc7;" horiz-adv-x="682" 
d="M186 371c0 -195 40 -281 220 -281c100 0 156 19 196 30c11 3 22 6 25 -9l11 -56c3 -15 -1 -20 -16 -25c-40 -15 -113 -36 -232 -36c-245 0 -329 123 -329 377s84 377 329 377c119 0 192 -21 232 -36c15 -5 19 -10 16 -25l-11 -56c-3 -15 -14 -12 -25 -9
c-40 11 -96 30 -196 30c-180 0 -220 -86 -220 -281zM407 -31c58 0 103 -23 103 -84s-45 -84 -104 -84c-43 0 -69 6 -76 9c-6 2 -9 6 -9 12v29c0 7 4 10 12 8c9 -3 31 -8 56 -8c23 0 42 7 42 34c0 28 -19 34 -43 34c-15 0 -27 -1 -39 -4c-7 -1 -10 1 -10 6v31c0 6 3 10 9 11
c11 3 28 6 59 6z" />
    <glyph glyph-name="Egrave" unicode="&#xc8;" horiz-adv-x="662" 
d="M582 0h-469c-9 0 -17 7 -17 16v707c0 9 8 16 17 16h468c11 0 16 -5 16 -16v-65c0 -10 -5 -15 -16 -15h-363v-212h341c10 0 15 -5 15 -15v-65c0 -11 -5 -16 -15 -16h-341v-239h364c8 0 15 -6 15 -15v-65c0 -9 -7 -16 -15 -16zM444 864l-36 -47c-3 -5 -8 -5 -14 -2
l-148 102c-5 4 -6 8 -2 13l39 50c5 6 9 7 14 3l145 -106c5 -3 5 -8 2 -13z" />
    <glyph glyph-name="Eacute" unicode="&#xc9;" horiz-adv-x="662" 
d="M582 0h-469c-9 0 -17 7 -17 16v707c0 9 8 16 17 16h468c11 0 16 -5 16 -16v-65c0 -10 -5 -15 -16 -15h-363v-212h341c10 0 15 -5 15 -15v-65c0 -11 -5 -16 -15 -16h-341v-239h364c8 0 15 -6 15 -15v-65c0 -9 -7 -16 -15 -16zM422 980l39 -50c3 -5 3 -9 -2 -13l-147 -102
c-5 -3 -11 -5 -15 2l-36 47c-4 5 -3 10 2 13l145 106c6 3 11 2 14 -3z" />
    <glyph glyph-name="Ecircumflex" unicode="&#xca;" horiz-adv-x="662" 
d="M582 0h-469c-9 0 -17 7 -17 16v707c0 9 8 16 17 16h468c11 0 16 -5 16 -16v-65c0 -10 -5 -15 -16 -15h-363v-212h341c10 0 15 -5 15 -15v-65c0 -11 -5 -16 -15 -16h-341v-239h364c8 0 15 -6 15 -15v-65c0 -9 -7 -16 -15 -16zM514 863l-37 -45c-3 -3 -7 -8 -14 -3l-111 87
l-111 -87c-5 -3 -9 -2 -14 3l-36 45c-3 3 -3 10 2 13l142 103h34l143 -103c5 -4 6 -8 2 -13z" />
    <glyph glyph-name="Edieresis" unicode="&#xcb;" horiz-adv-x="662" 
d="M582 0h-469c-9 0 -17 7 -17 16v707c0 9 8 16 17 16h468c11 0 16 -5 16 -16v-65c0 -10 -5 -15 -16 -15h-363v-212h341c10 0 15 -5 15 -15v-65c0 -11 -5 -16 -15 -16h-341v-239h364c8 0 15 -6 15 -15v-65c0 -9 -7 -16 -15 -16zM519 911v-65c0 -9 -5 -13 -14 -13h-106
c-10 0 -15 4 -15 13v65c0 7 6 12 15 12h106c8 0 14 -5 14 -12zM308 911v-65c0 -9 -5 -13 -14 -13h-106c-8 0 -15 6 -15 13v65c0 7 7 12 15 12h106c8 0 14 -5 14 -12z" />
    <glyph glyph-name="Igrave" unicode="&#xcc;" horiz-adv-x="314" 
d="M218 738v-723c0 -8 -7 -15 -16 -15h-89c-9 0 -17 7 -17 15v710c0 8 5 13 14 14l94 13c11 1 14 -7 14 -14zM243 864l-36 -47c-3 -5 -8 -5 -14 -2l-148 102c-5 4 -6 8 -2 13l39 50c5 6 9 7 14 3l145 -106c5 -3 5 -8 2 -13z" />
    <glyph glyph-name="Iacute" unicode="&#xcd;" horiz-adv-x="314" 
d="M218 738v-723c0 -8 -7 -15 -16 -15h-89c-9 0 -17 7 -17 15v710c0 8 5 13 14 14l94 13c11 1 14 -7 14 -14zM210 980l39 -50c3 -5 3 -9 -2 -13l-147 -102c-5 -3 -11 -5 -15 2l-36 47c-4 5 -3 10 2 13l145 106c6 3 11 2 14 -3z" />
    <glyph glyph-name="Icircumflex" unicode="&#xce;" horiz-adv-x="314" 
d="M218 738v-723c0 -8 -7 -15 -16 -15h-89c-9 0 -17 7 -17 15v710c0 8 5 13 14 14l94 13c11 1 14 -7 14 -14zM319 863l-37 -45c-3 -3 -7 -8 -14 -3l-111 87l-111 -87c-5 -3 -9 -2 -14 3l-36 45c-3 3 -3 10 2 13l142 103h34l143 -103c5 -4 6 -8 2 -13z" />
    <glyph glyph-name="Idieresis" unicode="&#xcf;" horiz-adv-x="314" 
d="M218 738v-723c0 -8 -7 -15 -16 -15h-89c-9 0 -17 7 -17 15v710c0 8 5 13 14 14l94 13c11 1 14 -7 14 -14zM331 911v-65c0 -9 -5 -13 -14 -13h-106c-10 0 -15 4 -15 13v65c0 7 6 12 15 12h106c8 0 14 -5 14 -12zM120 911v-65c0 -9 -5 -13 -14 -13h-106c-8 0 -15 6 -15 13
v65c0 7 7 12 15 12h106c8 0 14 -5 14 -12z" />
    <glyph glyph-name="Eth" unicode="&#xd0;" horiz-adv-x="840" 
d="M779 370c0 -293 -105 -370 -340 -370h-287c-11 0 -16 5 -16 16v314h-85c-9 0 -16 8 -16 17v56c0 9 8 15 16 15h85v306c0 8 7 15 16 15h287c235 0 340 -76 340 -369zM654 371c0 240 -70 276 -230 276h-167v-229h231c8 0 16 -6 16 -15v-56c0 -9 -7 -17 -16 -17h-231v-238
h167c160 0 230 39 230 279z" />
    <glyph glyph-name="Ntilde" unicode="&#xd1;" horiz-adv-x="825" 
d="M205 599l8 -585c0 -7 -3 -14 -14 -14h-89c-11 0 -14 7 -14 14v711c0 7 5 14 14 14h161c11 0 20 -5 25 -16l292 -583h32l-8 585c0 7 3 14 14 14h89c11 0 14 -7 14 -14v-712c0 -7 -3 -13 -14 -13h-161c-11 0 -20 5 -25 16l-292 583h-32zM594 923l22 -43c3 -5 2 -11 -4 -17
c-19 -16 -64 -50 -104 -50c-23 0 -46 10 -67 21l-31 15c-10 5 -20 8 -30 8c-24 0 -48 -19 -69 -35c-5 -5 -12 -6 -17 2l-23 44c-3 7 -3 9 4 16c20 17 63 50 105 50c24 0 46 -10 66 -21c21 -11 42 -23 61 -23c25 0 49 19 69 36c3 3 6 4 9 4s6 -2 9 -7z" />
    <glyph glyph-name="Ograve" unicode="&#xd2;" horiz-adv-x="807" 
d="M746 370c0 -227 -56 -383 -342 -383c-288 0 -343 156 -343 383c0 226 55 382 343 382c286 0 342 -156 342 -382zM620 370c0 183 -20 288 -217 288s-216 -105 -216 -288c0 -184 19 -289 216 -289s217 106 217 289zM480 864l-36 -47c-3 -5 -8 -5 -14 -2l-148 102
c-5 4 -6 8 -2 13l39 50c5 6 9 7 14 3l145 -106c5 -3 5 -8 2 -13z" />
    <glyph glyph-name="Oacute" unicode="&#xd3;" horiz-adv-x="807" 
d="M746 370c0 -227 -56 -383 -342 -383c-288 0 -343 156 -343 383c0 226 55 382 343 382c286 0 342 -156 342 -382zM620 370c0 183 -20 288 -217 288s-216 -105 -216 -288c0 -184 19 -289 216 -289s217 106 217 289zM461 980l39 -50c3 -5 3 -9 -2 -13l-147 -102
c-5 -3 -11 -5 -15 2l-36 47c-4 5 -3 10 2 13l145 106c6 3 11 2 14 -3z" />
    <glyph glyph-name="Ocircumflex" unicode="&#xd4;" horiz-adv-x="807" 
d="M746 370c0 -227 -56 -383 -342 -383c-288 0 -343 156 -343 383c0 226 55 382 343 382c286 0 342 -156 342 -382zM620 370c0 183 -20 288 -217 288s-216 -105 -216 -288c0 -184 19 -289 216 -289s217 106 217 289zM565 863l-37 -45c-3 -3 -7 -8 -14 -3l-111 87l-111 -87
c-5 -3 -9 -2 -14 3l-36 45c-3 3 -3 10 2 13l142 103h34l143 -103c5 -4 6 -8 2 -13z" />
    <glyph glyph-name="Otilde" unicode="&#xd5;" horiz-adv-x="807" 
d="M746 370c0 -227 -56 -383 -342 -383c-288 0 -343 156 -343 383c0 226 55 382 343 382c286 0 342 -156 342 -382zM620 370c0 183 -20 288 -217 288s-216 -105 -216 -288c0 -184 19 -289 216 -289s217 106 217 289zM553 923l22 -43c3 -5 2 -11 -4 -17
c-19 -16 -64 -50 -104 -50c-23 0 -46 10 -67 21l-31 15c-10 5 -20 8 -30 8c-24 0 -48 -19 -69 -35c-5 -5 -12 -6 -17 2l-23 44c-3 7 -3 9 4 16c20 17 63 50 105 50c24 0 46 -10 66 -21c21 -11 42 -23 61 -23c25 0 49 19 69 36c3 3 6 4 9 4s6 -2 9 -7z" />
    <glyph glyph-name="Odieresis" unicode="&#xd6;" horiz-adv-x="807" 
d="M746 370c0 -227 -56 -383 -342 -383c-288 0 -343 156 -343 383c0 226 55 382 343 382c286 0 342 -156 342 -382zM620 370c0 183 -20 288 -217 288s-216 -105 -216 -288c0 -184 19 -289 216 -289s217 106 217 289zM576 911v-65c0 -9 -5 -13 -14 -13h-106
c-10 0 -15 4 -15 13v65c0 7 6 12 15 12h106c8 0 14 -5 14 -12zM365 911v-65c0 -9 -5 -13 -14 -13h-106c-8 0 -15 6 -15 13v65c0 7 7 12 15 12h106c8 0 14 -5 14 -12z" />
    <glyph glyph-name="multiply" unicode="&#xd7;" horiz-adv-x="608" 
d="M365 348l168 -163c5 -7 5 -14 -1 -20l-46 -46c-5 -5 -12 -7 -19 0l-163 168l-163 -168c-3 -3 -6 -4 -9 -4c-4 0 -7 1 -10 4l-46 46c-3 3 -5 7 -5 11c0 3 1 6 4 9l168 163l-168 163c-6 6 -6 12 1 19l46 46c7 7 13 7 19 1l163 -168l163 168c6 6 12 6 19 -1l46 -46
c5 -5 8 -12 1 -19z" />
    <glyph glyph-name="Oslash" unicode="&#xd8;" horiz-adv-x="807" 
d="M746 370c0 -227 -56 -383 -342 -383c-107 0 -180 20 -232 59l-62 -72c-5 -5 -11 -6 -16 -1l-41 33c-7 5 -7 11 -2 16l68 79c-47 68 -58 160 -58 269c0 226 55 382 343 382c101 0 173 -20 224 -55l64 74c5 5 11 6 16 1l41 -33c6 -5 7 -11 2 -16l-68 -79
c49 -68 63 -161 63 -274zM620 370c0 72 -3 131 -19 178l-358 -419c32 -32 81 -48 160 -48c197 0 217 106 217 289zM203 199l355 416c-33 28 -80 43 -155 43c-197 0 -216 -105 -216 -288c0 -68 3 -126 16 -171z" />
    <glyph glyph-name="Ugrave" unicode="&#xd9;" horiz-adv-x="786" 
d="M700 738v-474c0 -163 -63 -277 -307 -277c-222 0 -307 91 -307 273v465c0 7 5 12 14 13l94 14c11 1 14 -7 14 -14v-485c0 -109 34 -172 186 -172c129 0 184 47 184 159v485c0 7 5 12 14 13l94 14c11 3 14 -7 14 -14zM474 864l-36 -47c-3 -5 -8 -5 -14 -2l-148 102
c-5 4 -6 8 -2 13l39 50c5 6 9 7 14 3l145 -106c5 -3 5 -8 2 -13z" />
    <glyph glyph-name="Uacute" unicode="&#xda;" horiz-adv-x="786" 
d="M700 738v-474c0 -163 -63 -277 -307 -277c-222 0 -307 91 -307 273v465c0 7 5 12 14 13l94 14c11 1 14 -7 14 -14v-485c0 -109 34 -172 186 -172c129 0 184 47 184 159v485c0 7 5 12 14 13l94 14c11 3 14 -7 14 -14zM451 980l39 -50c3 -5 3 -9 -2 -13l-147 -102
c-5 -3 -11 -5 -15 2l-36 47c-4 5 -3 10 2 13l145 106c6 3 11 2 14 -3z" />
    <glyph glyph-name="Ucircumflex" unicode="&#xdb;" horiz-adv-x="786" 
d="M700 738v-474c0 -163 -63 -277 -307 -277c-222 0 -307 91 -307 273v465c0 7 5 12 14 13l94 14c11 1 14 -7 14 -14v-485c0 -109 34 -172 186 -172c129 0 184 47 184 159v485c0 7 5 12 14 13l94 14c11 3 14 -7 14 -14zM555 863l-37 -45c-3 -3 -7 -8 -14 -3l-111 87
l-111 -87c-5 -3 -9 -2 -14 3l-36 45c-3 3 -3 10 2 13l142 103h34l143 -103c5 -4 6 -8 2 -13z" />
    <glyph glyph-name="Udieresis" unicode="&#xdc;" horiz-adv-x="786" 
d="M700 738v-474c0 -163 -63 -277 -307 -277c-222 0 -307 91 -307 273v465c0 7 5 12 14 13l94 14c11 1 14 -7 14 -14v-485c0 -109 34 -172 186 -172c129 0 184 47 184 159v485c0 7 5 12 14 13l94 14c11 3 14 -7 14 -14zM566 911v-65c0 -9 -5 -13 -14 -13h-106
c-10 0 -15 4 -15 13v65c0 7 6 12 15 12h106c8 0 14 -5 14 -12zM355 911v-65c0 -9 -5 -13 -14 -13h-106c-8 0 -15 6 -15 13v65c0 7 7 12 15 12h106c8 0 14 -5 14 -12z" />
    <glyph glyph-name="Yacute" unicode="&#xdd;" horiz-adv-x="677" 
d="M401 294v-279c0 -8 -8 -15 -17 -15h-89c-9 0 -16 7 -16 15v279l-277 425c-1 2 -2 4 -2 7c0 9 4 13 13 13h111c8 0 14 -4 19 -13l203 -332l198 333c5 9 8 12 19 12h102c9 0 15 -12 11 -20zM399 980l39 -50c3 -5 3 -9 -2 -13l-147 -102c-5 -3 -11 -5 -15 2l-36 47
c-4 5 -3 10 2 13l145 106c6 3 11 2 14 -3z" />
    <glyph glyph-name="Thorn" unicode="&#xde;" horiz-adv-x="725" 
d="M202 0h-89c-11 0 -17 5 -17 16v709c0 8 5 13 14 14l94 13c11 3 14 -7 14 -14v-129h197c183 0 271 -68 271 -232s-87 -231 -271 -231h-197v-130c0 -11 -5 -16 -16 -16zM218 237h176c107 0 166 24 166 140s-59 140 -166 140h-176v-280z" />
    <glyph glyph-name="germandbls" unicode="&#xdf;" horiz-adv-x="604" 
d="M557 172c0 -127 -81 -185 -202 -185c-47 0 -87 6 -122 19c-7 3 -13 9 -10 17l10 52c1 5 8 12 17 9c16 -3 50 -14 89 -14c59 0 108 32 108 99c0 130 -155 131 -155 215c0 75 105 66 105 179c0 69 -39 105 -104 105c-72 0 -108 -23 -108 -104v-742c0 -10 -5 -16 -15 -18
l-79 -14c-13 -3 -18 6 -18 15v759c0 120 58 188 218 188c120 0 215 -48 215 -179c0 -95 -46 -130 -108 -165c-8 -4 -12 -10 -12 -17s4 -13 13 -17c57 -24 158 -62 158 -202z" />
    <glyph glyph-name="agrave" unicode="&#xe0;" horiz-adv-x="576" 
d="M508 382v-277c0 -73 -20 -88 -89 -104c-33 -8 -79 -14 -135 -14c-100 0 -237 7 -237 168c0 131 78 141 166 157l182 30v37c0 31 -2 52 -31 64c-16 7 -43 10 -82 10c-72 0 -142 -20 -175 -28c-3 -1 -6 -1 -7 -1c-4 0 -9 2 -12 9l-12 55c-3 11 4 14 11 17
c28 9 117 33 215 33c72 0 118 -10 149 -27c52 -29 57 -76 57 -129zM395 263l-152 -25c-41 -8 -80 -12 -80 -81c0 -85 71 -92 124 -92c41 0 77 5 108 16v182zM397 646l-36 -47c-4 -5 -9 -6 -15 -2l-147 102c-5 3 -6 8 -2 13l39 50c4 5 9 6 14 2l145 -105c5 -3 6 -8 2 -13z
" />
    <glyph glyph-name="aacute" unicode="&#xe1;" horiz-adv-x="576" 
d="M508 382v-277c0 -73 -20 -88 -89 -104c-33 -8 -79 -14 -135 -14c-100 0 -237 7 -237 168c0 131 78 141 166 157l182 30v37c0 31 -2 52 -31 64c-16 7 -43 10 -82 10c-72 0 -142 -20 -175 -28c-3 -1 -6 -1 -7 -1c-4 0 -9 2 -12 9l-12 55c-3 11 4 14 11 17
c28 9 117 33 215 33c72 0 118 -10 149 -27c52 -29 57 -76 57 -129zM395 263l-152 -25c-41 -8 -80 -12 -80 -81c0 -85 71 -92 124 -92c41 0 77 5 108 16v182zM365 762l39 -50c3 -5 3 -10 -2 -13l-147 -102c-5 -3 -10 -3 -15 2l-36 47c-3 3 -3 10 2 13l145 105c5 4 10 3 14 -2
z" />
    <glyph glyph-name="acircumflex" unicode="&#xe2;" horiz-adv-x="576" 
d="M508 382v-277c0 -73 -20 -88 -89 -104c-33 -8 -79 -14 -135 -14c-100 0 -237 7 -237 168c0 131 78 141 166 157l182 30v37c0 31 -2 52 -31 64c-16 7 -43 10 -82 10c-72 0 -142 -20 -175 -28c-3 -1 -6 -1 -7 -1c-4 0 -9 2 -12 9l-12 55c-3 11 4 14 11 17
c28 9 117 33 215 33c72 0 118 -10 149 -27c52 -29 57 -76 57 -129zM395 263l-152 -25c-41 -8 -80 -12 -80 -81c0 -85 71 -92 124 -92c41 0 77 5 108 16v182zM453 645l-37 -45c-3 -3 -7 -8 -14 -3l-111 87l-111 -87c-5 -3 -9 -2 -14 3l-36 45c-3 3 -3 10 2 13l142 102h34
l143 -102c5 -4 6 -8 2 -13z" />
    <glyph glyph-name="atilde" unicode="&#xe3;" horiz-adv-x="576" 
d="M508 382v-277c0 -73 -20 -88 -89 -104c-33 -8 -79 -14 -135 -14c-100 0 -237 7 -237 168c0 131 78 141 166 157l182 30v37c0 31 -2 52 -31 64c-16 7 -43 10 -82 10c-72 0 -142 -20 -175 -28c-3 -1 -6 -1 -7 -1c-4 0 -9 2 -12 9l-12 55c-3 11 4 14 11 17
c28 9 117 33 215 33c72 0 118 -10 149 -27c52 -29 57 -76 57 -129zM395 263l-152 -25c-41 -8 -80 -12 -80 -81c0 -85 71 -92 124 -92c41 0 77 5 108 16v182zM440 705l22 -43c3 -5 2 -11 -4 -17c-19 -16 -64 -50 -104 -50c-23 0 -46 10 -67 21l-31 15c-10 5 -20 8 -30 8
c-24 0 -49 -18 -69 -35c-5 -5 -12 -6 -17 2l-23 44c-3 7 -3 9 4 16c20 17 63 50 105 50c24 0 46 -10 66 -21c21 -11 42 -22 61 -23c25 0 49 19 69 36c3 3 6 4 9 4s6 -2 9 -7z" />
    <glyph glyph-name="adieresis" unicode="&#xe4;" horiz-adv-x="576" 
d="M508 382v-277c0 -73 -20 -88 -89 -104c-33 -8 -79 -14 -135 -14c-100 0 -237 7 -237 168c0 131 78 141 166 157l182 30v37c0 31 -2 52 -31 64c-16 7 -43 10 -82 10c-72 0 -142 -20 -175 -28c-3 -1 -6 -1 -7 -1c-4 0 -9 2 -12 9l-12 55c-3 11 4 14 11 17
c28 9 117 33 215 33c72 0 118 -10 149 -27c52 -29 57 -76 57 -129zM395 263l-152 -25c-41 -8 -80 -12 -80 -81c0 -85 71 -92 124 -92c41 0 77 5 108 16v182zM465 693v-65c0 -9 -5 -13 -14 -13h-106c-10 0 -15 4 -15 13v65c0 7 6 12 15 12h106c8 0 14 -5 14 -12zM254 693v-65
c0 -9 -5 -13 -14 -13h-106c-8 0 -15 6 -15 13v65c0 7 7 12 15 12h106c8 0 14 -5 14 -12z" />
    <glyph glyph-name="aring" unicode="&#xe5;" horiz-adv-x="576" 
d="M508 382v-277c0 -73 -20 -88 -89 -104c-33 -8 -79 -14 -135 -14c-100 0 -237 7 -237 168c0 131 78 141 166 157l182 30v37c0 31 -2 52 -31 64c-16 7 -43 10 -82 10c-72 0 -142 -20 -175 -28c-3 -1 -6 -1 -7 -1c-4 0 -9 2 -12 9l-12 55c-3 11 4 14 11 17
c28 9 117 33 215 33c72 0 118 -10 149 -27c52 -29 57 -76 57 -129zM395 263l-152 -25c-41 -8 -80 -12 -80 -81c0 -85 71 -92 124 -92c41 0 77 5 108 16v182zM427 683c0 -80 -44 -108 -127 -108c-81 0 -126 28 -126 108s45 107 126 107c83 0 127 -27 127 -107zM351 683
c0 45 -8 65 -51 65c-41 0 -51 -21 -51 -66c0 -44 10 -64 51 -64c43 0 51 20 51 65z" />
    <glyph glyph-name="ae" unicode="&#xe6;" horiz-adv-x="941" 
d="M266 -13c-131 0 -219 39 -219 163c0 143 108 160 215 160h156v20c-3 108 -52 124 -138 124c-78 0 -142 -20 -167 -26c-11 -2 -17 1 -19 9l-10 55c-3 11 3 14 12 18c31 11 105 27 190 27c104 0 159 -22 186 -81h12c35 56 82 82 187 82c170 0 223 -84 223 -256v-31
c0 -11 -5 -21 -21 -21h-348c0 -107 42 -160 161 -160c76 0 124 18 148 25c11 2 17 -1 19 -9l10 -53c3 -11 -2 -15 -11 -19c-31 -11 -87 -27 -171 -27c-95 0 -169 23 -204 97h-10c-37 -74 -112 -97 -201 -97zM279 63c49 0 83 9 106 36c23 24 34 57 34 132h-146
c-53 0 -112 -3 -112 -79c0 -67 42 -89 118 -89zM526 309h254c0 101 -25 151 -126 151c-100 0 -128 -55 -128 -151z" />
    <glyph glyph-name="ccedilla" unicode="&#xe7;" horiz-adv-x="502" 
d="M163 263c0 -144 34 -191 146 -191c61 0 102 13 125 20c15 4 17 -2 20 -10l10 -46c2 -10 -2 -17 -11 -21c-24 -11 -86 -26 -162 -26c-186 0 -244 90 -244 275c0 184 58 274 244 274c76 0 138 -15 162 -26c9 -4 13 -11 11 -21l-10 -46c-3 -8 -5 -14 -20 -10
c-23 7 -64 20 -125 20c-112 0 -146 -49 -146 -192zM289 -31c58 0 103 -23 103 -84s-45 -84 -104 -84c-43 0 -69 6 -76 9c-6 2 -9 6 -9 12v29c0 7 4 10 12 8c9 -3 31 -8 56 -8c23 0 42 7 42 34c0 28 -19 34 -43 34c-15 0 -27 -1 -39 -4c-7 -1 -10 1 -10 6v31c0 6 3 10 9 11
c11 3 28 6 59 6z" />
    <glyph glyph-name="egrave" unicode="&#xe8;" horiz-adv-x="575" 
d="M528 272v-24c0 -9 0 -17 -1 -24c0 -9 -6 -19 -17 -19h-348c1 -49 13 -77 37 -100c28 -27 69 -36 129 -36c57 0 100 12 143 24c2 1 4 1 7 1c7 0 10 0 13 -11l10 -45c1 -3 1 -5 1 -6c0 -6 -4 -11 -11 -14c-37 -15 -103 -31 -178 -31c-196 0 -266 83 -266 274
c0 180 45 277 242 277c103 0 163 -28 199 -80c31 -45 40 -107 40 -186zM162 284h251c0 35 -1 64 -9 95c-15 60 -47 78 -115 78c-73 0 -105 -20 -118 -76c-8 -31 -8 -64 -9 -97zM383 646l-36 -47c-4 -5 -9 -6 -15 -2l-147 102c-5 3 -6 8 -2 13l39 50c4 5 9 6 14 2l145 -105
c5 -3 6 -8 2 -13z" />
    <glyph glyph-name="eacute" unicode="&#xe9;" horiz-adv-x="575" 
d="M528 272v-24c0 -9 0 -17 -1 -24c0 -9 -6 -19 -17 -19h-348c1 -49 13 -77 37 -100c28 -27 69 -36 129 -36c57 0 100 12 143 24c2 1 4 1 7 1c7 0 10 0 13 -11l10 -45c1 -3 1 -5 1 -6c0 -6 -4 -11 -11 -14c-37 -15 -103 -31 -178 -31c-196 0 -266 83 -266 274
c0 180 45 277 242 277c103 0 163 -28 199 -80c31 -45 40 -107 40 -186zM162 284h251c0 35 -1 64 -9 95c-15 60 -47 78 -115 78c-73 0 -105 -20 -118 -76c-8 -31 -8 -64 -9 -97zM360 762l39 -50c3 -5 3 -10 -2 -13l-147 -102c-5 -3 -10 -3 -15 2l-36 47c-3 3 -3 10 2 13
l145 105c5 4 10 3 14 -2z" />
    <glyph glyph-name="ecircumflex" unicode="&#xea;" horiz-adv-x="575" 
d="M528 272v-24c0 -9 0 -17 -1 -24c0 -9 -6 -19 -17 -19h-348c1 -49 13 -77 37 -100c28 -27 69 -36 129 -36c57 0 100 12 143 24c2 1 4 1 7 1c7 0 10 0 13 -11l10 -45c1 -3 1 -5 1 -6c0 -6 -4 -11 -11 -14c-37 -15 -103 -31 -178 -31c-196 0 -266 83 -266 274
c0 180 45 277 242 277c103 0 163 -28 199 -80c31 -45 40 -107 40 -186zM162 284h251c0 35 -1 64 -9 95c-15 60 -47 78 -115 78c-73 0 -105 -20 -118 -76c-8 -31 -8 -64 -9 -97zM454 645l-37 -45c-3 -3 -7 -8 -14 -3l-111 87l-111 -87c-5 -3 -9 -2 -14 3l-36 45
c-3 3 -3 10 2 13l142 102h34l143 -102c5 -4 6 -8 2 -13z" />
    <glyph glyph-name="edieresis" unicode="&#xeb;" horiz-adv-x="575" 
d="M528 272v-24c0 -9 0 -17 -1 -24c0 -9 -6 -19 -17 -19h-348c1 -49 13 -77 37 -100c28 -27 69 -36 129 -36c57 0 100 12 143 24c2 1 4 1 7 1c7 0 10 0 13 -11l10 -45c1 -3 1 -5 1 -6c0 -6 -4 -11 -11 -14c-37 -15 -103 -31 -178 -31c-196 0 -266 83 -266 274
c0 180 45 277 242 277c103 0 163 -28 199 -80c31 -45 40 -107 40 -186zM162 284h251c0 35 -1 64 -9 95c-15 60 -47 78 -115 78c-73 0 -105 -20 -118 -76c-8 -31 -8 -64 -9 -97zM462 693v-65c0 -9 -5 -13 -14 -13h-106c-10 0 -15 4 -15 13v65c0 7 6 12 15 12h106
c8 0 14 -5 14 -12zM251 693v-65c0 -9 -5 -13 -14 -13h-106c-8 0 -15 6 -15 13v65c0 7 7 12 15 12h106c8 0 14 -5 14 -12z" />
    <glyph glyph-name="igrave" unicode="&#xec;" horiz-adv-x="289" 
d="M201 505v-490c0 -10 -5 -15 -15 -15h-82c-11 0 -16 5 -16 15v490c0 9 5 14 16 14h82c10 0 15 -5 15 -14zM238 646l-36 -47c-4 -5 -9 -6 -15 -2l-147 102c-5 3 -6 8 -2 13l39 50c4 5 9 6 14 2l145 -105c5 -3 6 -8 2 -13z" />
    <glyph glyph-name="iacute" unicode="&#xed;" horiz-adv-x="289" 
d="M201 505v-490c0 -10 -5 -15 -15 -15h-82c-11 0 -16 5 -16 15v490c0 9 5 14 16 14h82c10 0 15 -5 15 -14zM211 762l39 -50c3 -5 3 -10 -2 -13l-147 -102c-5 -3 -10 -3 -15 2l-36 47c-3 3 -3 10 2 13l145 105c5 4 10 3 14 -2z" />
    <glyph glyph-name="icircumflex" unicode="&#xee;" horiz-adv-x="289" 
d="M201 505v-490c0 -10 -5 -15 -15 -15h-82c-11 0 -16 5 -16 15v490c0 9 5 14 16 14h82c10 0 15 -5 15 -14zM306 645l-37 -45c-3 -3 -7 -8 -14 -3l-111 87l-111 -87c-5 -3 -9 -2 -14 3l-36 45c-3 3 -3 10 2 13l142 102h34l143 -102c5 -4 6 -8 2 -13z" />
    <glyph glyph-name="idieresis" unicode="&#xef;" horiz-adv-x="289" 
d="M201 505v-490c0 -10 -5 -15 -15 -15h-82c-11 0 -16 5 -16 15v490c0 9 5 14 16 14h82c10 0 15 -5 15 -14zM323 693v-65c0 -9 -5 -13 -14 -13h-106c-10 0 -15 4 -15 13v65c0 7 6 12 15 12h106c8 0 14 -5 14 -12zM112 693v-65c0 -9 -5 -13 -14 -13h-106c-8 0 -15 6 -15 13
v65c0 7 7 12 15 12h106c8 0 14 -5 14 -12z" />
    <glyph glyph-name="eth" unicode="&#xf0;" horiz-adv-x="581" 
d="M534 295v-7c0 -119 -3 -301 -242 -301c-205 0 -245 134 -245 267c0 95 13 268 228 268c60 0 101 -20 134 -47l5 4c-13 95 -73 163 -109 186l-100 -66c-2 -1 -5 -2 -8 -2s-5 1 -8 4l-32 34c-2 2 -3 4 -3 7s1 6 4 8l80 51c-47 21 -103 22 -158 25c-15 0 -22 6 -22 18v49
c0 19 10 19 18 19h19c76 0 160 -10 231 -49l79 54c3 2 5 3 8 3s6 -1 9 -4l32 -37c2 -2 3 -4 3 -7s-2 -6 -6 -9l-63 -42c82 -64 146 -186 146 -426zM417 254c0 104 -14 186 -126 186c-113 0 -127 -82 -127 -186s14 -185 127 -185c112 0 126 81 126 185z" />
    <glyph glyph-name="ntilde" unicode="&#xf1;" horiz-adv-x="599" 
d="M531 389v-374c0 -10 -5 -15 -15 -15h-83c-11 0 -16 5 -16 15v359c0 63 -22 82 -82 82c-66 0 -132 -18 -148 -21v-420c0 -10 -5 -15 -15 -15h-83c-11 0 -16 5 -16 15v425c0 37 14 54 67 70c50 16 141 28 205 28c122 0 186 -34 186 -149zM452 705l22 -43c3 -5 2 -11 -4 -17
c-19 -16 -64 -50 -104 -50c-23 0 -46 10 -67 21l-31 15c-10 5 -20 8 -30 8c-24 0 -49 -18 -69 -35c-5 -5 -12 -6 -17 2l-23 44c-3 7 -3 9 4 16c20 17 63 50 105 50c24 0 46 -10 66 -21c21 -11 42 -22 61 -23c25 0 49 19 69 36c3 3 6 4 9 4s6 -2 9 -7z" />
    <glyph glyph-name="ograve" unicode="&#xf2;" horiz-adv-x="581" 
d="M534 262c0 -152 -26 -275 -243 -275s-244 123 -244 275c0 153 27 276 244 276s243 -123 243 -276zM417 262c0 123 -5 194 -126 194c-123 0 -127 -71 -127 -194s4 -193 127 -193c121 0 126 70 126 193zM385 646l-36 -47c-4 -5 -9 -6 -15 -2l-147 102c-5 3 -6 8 -2 13
l39 50c4 5 9 6 14 2l145 -105c5 -3 6 -8 2 -13z" />
    <glyph glyph-name="oacute" unicode="&#xf3;" horiz-adv-x="581" 
d="M534 262c0 -152 -26 -275 -243 -275s-244 123 -244 275c0 153 27 276 244 276s243 -123 243 -276zM417 262c0 123 -5 194 -126 194c-123 0 -127 -71 -127 -194s4 -193 127 -193c121 0 126 70 126 193zM357 762l39 -50c3 -5 3 -10 -2 -13l-147 -102c-5 -3 -10 -3 -15 2
l-36 47c-3 3 -3 10 2 13l145 105c5 4 10 3 14 -2z" />
    <glyph glyph-name="ocircumflex" unicode="&#xf4;" horiz-adv-x="581" 
d="M534 262c0 -152 -26 -275 -243 -275s-244 123 -244 275c0 153 27 276 244 276s243 -123 243 -276zM417 262c0 123 -5 194 -126 194c-123 0 -127 -71 -127 -194s4 -193 127 -193c121 0 126 70 126 193zM452 645l-37 -45c-3 -3 -7 -8 -14 -3l-111 87l-111 -87
c-5 -3 -9 -2 -14 3l-36 45c-3 3 -3 10 2 13l142 102h34l143 -102c5 -4 6 -8 2 -13z" />
    <glyph glyph-name="otilde" unicode="&#xf5;" horiz-adv-x="581" 
d="M534 262c0 -152 -26 -275 -243 -275s-244 123 -244 275c0 153 27 276 244 276s243 -123 243 -276zM417 262c0 123 -5 194 -126 194c-123 0 -127 -71 -127 -194s4 -193 127 -193c121 0 126 70 126 193zM440 705l22 -43c3 -5 2 -11 -4 -17c-19 -16 -64 -50 -104 -50
c-23 0 -46 10 -67 21l-31 15c-10 5 -20 8 -30 8c-24 0 -49 -18 -69 -35c-5 -5 -12 -6 -17 2l-23 44c-3 7 -3 9 4 16c20 17 63 50 105 50c24 0 46 -10 66 -21c21 -11 42 -22 61 -23c25 0 49 19 69 36c3 3 6 4 9 4s6 -2 9 -7z" />
    <glyph glyph-name="odieresis" unicode="&#xf6;" horiz-adv-x="581" 
d="M534 262c0 -152 -26 -275 -243 -275s-244 123 -244 275c0 153 27 276 244 276s243 -123 243 -276zM417 262c0 123 -5 194 -126 194c-123 0 -127 -71 -127 -194s4 -193 127 -193c121 0 126 70 126 193zM463 693v-65c0 -9 -5 -13 -14 -13h-106c-10 0 -15 4 -15 13v65
c0 7 6 12 15 12h106c8 0 14 -5 14 -12zM252 693v-65c0 -9 -5 -13 -14 -13h-106c-8 0 -15 6 -15 13v65c0 7 7 12 15 12h106c8 0 14 -5 14 -12z" />
    <glyph glyph-name="divide" unicode="&#xf7;" horiz-adv-x="607" 
d="M555 353v-58c0 -9 -7 -16 -18 -16h-466c-13 0 -19 5 -19 16v58c0 11 6 16 19 16h466c12 0 18 -5 18 -16zM361 557v-106c0 -7 -6 -12 -14 -12h-87c-8 0 -14 5 -14 12v106c0 9 5 13 14 13h87c9 0 14 -4 14 -13zM361 197v-106c0 -8 -5 -12 -14 -12h-87c-9 0 -14 4 -14 12
v106c0 7 6 12 14 12h87c8 0 14 -5 14 -12z" />
    <glyph glyph-name="oslash" unicode="&#xf8;" horiz-adv-x="581" 
d="M534 262c0 -152 -26 -275 -243 -275c-72 0 -123 13 -159 37l-55 -64c-5 -5 -10 -6 -16 -1l-30 26c-6 5 -7 11 -2 16l58 66c-35 51 -40 119 -40 195c0 153 27 276 244 276c76 0 127 -15 163 -40l58 68c5 6 11 6 16 1l31 -26c5 -5 6 -10 1 -16l-63 -73
c31 -51 37 -115 37 -190zM169 163l219 259c-19 23 -48 34 -97 34c-123 0 -127 -71 -127 -194c0 -39 0 -72 5 -99zM417 262c0 35 -1 66 -4 93l-217 -256c18 -20 50 -30 95 -30c121 0 126 70 126 193z" />
    <glyph glyph-name="ugrave" unicode="&#xf9;" horiz-adv-x="594" 
d="M526 523v-336c0 -115 -41 -200 -229 -200c-167 0 -229 63 -229 199v318c0 10 5 16 16 18l81 16c12 3 17 -6 17 -15v-344c0 -76 26 -111 115 -111c104 0 115 51 115 112v324c0 10 5 16 16 18l81 16c12 3 17 -6 17 -15zM388 646l-36 -47c-4 -5 -9 -6 -15 -2l-147 102
c-5 3 -6 8 -2 13l39 50c4 5 9 6 14 2l145 -105c5 -3 6 -8 2 -13z" />
    <glyph glyph-name="uacute" unicode="&#xfa;" horiz-adv-x="594" 
d="M526 523v-336c0 -115 -41 -200 -229 -200c-167 0 -229 63 -229 199v318c0 10 5 16 16 18l81 16c12 3 17 -6 17 -15v-344c0 -76 26 -111 115 -111c104 0 115 51 115 112v324c0 10 5 16 16 18l81 16c12 3 17 -6 17 -15zM358 762l39 -50c3 -5 3 -10 -2 -13l-147 -102
c-5 -3 -10 -3 -15 2l-36 47c-3 3 -3 10 2 13l145 105c5 4 10 3 14 -2z" />
    <glyph glyph-name="ucircumflex" unicode="&#xfb;" horiz-adv-x="594" 
d="M526 523v-336c0 -115 -41 -200 -229 -200c-167 0 -229 63 -229 199v318c0 10 5 16 16 18l81 16c12 3 17 -6 17 -15v-344c0 -76 26 -111 115 -111c104 0 115 51 115 112v324c0 10 5 16 16 18l81 16c12 3 17 -6 17 -15zM454 645l-37 -45c-3 -3 -7 -8 -14 -3l-111 87
l-111 -87c-5 -3 -9 -2 -14 3l-36 45c-3 3 -3 10 2 13l142 102h34l143 -102c5 -4 6 -8 2 -13z" />
    <glyph glyph-name="udieresis" unicode="&#xfc;" horiz-adv-x="594" 
d="M526 523v-336c0 -115 -41 -200 -229 -200c-167 0 -229 63 -229 199v318c0 10 5 16 16 18l81 16c12 3 17 -6 17 -15v-344c0 -76 26 -111 115 -111c104 0 115 51 115 112v324c0 10 5 16 16 18l81 16c12 3 17 -6 17 -15zM463 693v-65c0 -9 -5 -13 -14 -13h-106
c-10 0 -15 4 -15 13v65c0 7 6 12 15 12h106c8 0 14 -5 14 -12zM252 693v-65c0 -9 -5 -13 -14 -13h-106c-8 0 -15 6 -15 13v65c0 7 7 12 15 12h106c8 0 14 -5 14 -12z" />
    <glyph glyph-name="yacute" unicode="&#xfd;" horiz-adv-x="545" 
d="M520 506l-173 -574c-29 -93 -61 -142 -179 -142c-49 0 -67 2 -84 6c-9 2 -13 7 -13 14l1 53c0 7 3 15 14 14c13 -1 40 -2 59 -2c51 0 77 12 92 63l18 62h-56c-10 0 -17 5 -20 16l-154 489c-4 11 6 20 15 20h87c9 0 16 -5 19 -15l120 -435h26l109 435c3 10 9 15 20 15h84
c11 0 16 -4 16 -13c0 -2 0 -4 -1 -6zM341 762l39 -50c3 -5 3 -10 -2 -13l-147 -102c-5 -3 -10 -3 -15 2l-36 47c-3 3 -3 10 2 13l145 105c5 4 10 3 14 -2z" />
    <glyph glyph-name="thorn" unicode="&#xfe;" horiz-adv-x="594" 
d="M547 263c0 -172 -42 -276 -226 -276c-57 0 -109 7 -145 18l11 -60v-121c0 -10 -5 -16 -15 -18l-81 -16c-12 -3 -18 6 -18 15v913c0 10 5 16 16 18l81 16c12 3 17 -6 17 -15v-166l-11 -59c16 5 93 26 156 26c161 0 215 -83 215 -275zM431 264c0 152 -25 191 -121 191
c-46 0 -109 -16 -123 -19v-354c9 -3 52 -14 111 -14c100 0 133 42 133 196z" />
    <glyph glyph-name="ydieresis" unicode="&#xff;" horiz-adv-x="545" 
d="M520 506l-173 -574c-29 -93 -61 -142 -179 -142c-49 0 -67 2 -84 6c-9 2 -13 7 -13 14l1 53c0 7 3 15 14 14c13 -1 40 -2 59 -2c51 0 77 12 92 63l18 62h-56c-10 0 -17 5 -20 16l-154 489c-4 11 6 20 15 20h87c9 0 16 -5 19 -15l120 -435h26l109 435c3 10 9 15 20 15h84
c11 0 16 -4 16 -13c0 -2 0 -4 -1 -6zM450 693v-65c0 -9 -5 -13 -14 -13h-106c-10 0 -15 4 -15 13v65c0 7 6 12 15 12h106c8 0 14 -5 14 -12zM239 693v-65c0 -9 -5 -13 -14 -13h-106c-8 0 -15 6 -15 13v65c0 7 7 12 15 12h106c8 0 14 -5 14 -12z" />
    <glyph glyph-name="Amacron" unicode="&#x100;" horiz-adv-x="778" 
d="M296 739h186c8 0 14 -4 17 -12l260 -709c3 -8 1 -18 -10 -18h-106c-7 0 -12 4 -15 12l-93 264h-300l-93 -264c-3 -8 -9 -12 -16 -12h-96c-11 0 -14 7 -11 18l260 709c3 8 8 12 17 12zM265 368h240l-100 285h-39zM387 848c-56 0 -104 -17 -131 -24c-3 -1 -5 -1 -7 -1
c-6 0 -10 4 -11 11l-9 53c-1 5 3 9 11 12c27 11 86 25 146 25s120 -14 147 -25c8 -3 12 -8 11 -13l-9 -52c-1 -7 -5 -11 -11 -11c-1 0 -4 0 -7 1c-31 8 -74 24 -130 24z" />
    <glyph glyph-name="amacron" unicode="&#x101;" horiz-adv-x="576" 
d="M508 382v-277c0 -73 -20 -88 -89 -104c-33 -8 -79 -14 -135 -14c-100 0 -237 7 -237 168c0 131 78 141 166 157l182 30v37c0 31 -2 52 -31 64c-16 7 -43 10 -82 10c-72 0 -142 -20 -175 -28c-3 -1 -6 -1 -7 -1c-4 0 -9 2 -12 9l-12 55c-3 11 4 14 11 17
c28 9 117 33 215 33c72 0 118 -10 149 -27c52 -29 57 -76 57 -129zM395 263l-152 -25c-41 -8 -80 -12 -80 -81c0 -85 71 -92 124 -92c41 0 77 5 108 16v182zM286 630c-56 0 -104 -17 -131 -24c-3 -1 -5 -1 -7 -1c-6 0 -10 4 -11 11l-9 53c-1 5 3 9 11 12c27 11 86 25 146 25
s120 -14 147 -25c8 -3 12 -8 11 -13l-9 -52c-1 -7 -5 -11 -11 -11c-1 0 -4 0 -7 1c-31 8 -74 24 -130 24z" />
    <glyph glyph-name="Abreve" unicode="&#x102;" horiz-adv-x="778" 
d="M296 739h186c8 0 14 -4 17 -12l260 -709c3 -8 1 -18 -10 -18h-106c-7 0 -12 4 -15 12l-93 264h-300l-93 -264c-3 -8 -9 -12 -16 -12h-96c-11 0 -14 7 -11 18l260 709c3 8 8 12 17 12zM265 368h240l-100 285h-39zM561 959c0 -112 -63 -146 -174 -146
c-112 0 -175 34 -175 146c0 7 3 14 12 14h47c9 0 12 -7 12 -14c1 -59 23 -84 104 -84c80 0 101 25 104 85c0 7 1 13 12 13h47c9 0 11 -7 11 -14z" />
    <glyph glyph-name="abreve" unicode="&#x103;" horiz-adv-x="576" 
d="M508 382v-277c0 -73 -20 -88 -89 -104c-33 -8 -79 -14 -135 -14c-100 0 -237 7 -237 168c0 131 78 141 166 157l182 30v37c0 31 -2 52 -31 64c-16 7 -43 10 -82 10c-72 0 -142 -20 -175 -28c-3 -1 -6 -1 -7 -1c-4 0 -9 2 -12 9l-12 55c-3 11 4 14 11 17
c28 9 117 33 215 33c72 0 118 -10 149 -27c52 -29 57 -76 57 -129zM395 263l-152 -25c-41 -8 -80 -12 -80 -81c0 -85 71 -92 124 -92c41 0 77 5 108 16v182zM466 741c0 -112 -63 -146 -174 -146c-112 0 -175 34 -175 146c0 7 3 14 12 14h47c9 0 12 -7 12 -14
c1 -59 23 -84 104 -84c80 0 101 25 104 85c0 7 1 13 12 13h47c9 0 11 -7 11 -14z" />
    <glyph glyph-name="Aogonek" unicode="&#x104;" horiz-adv-x="778" 
d="M296 739h186c8 0 14 -4 17 -12l260 -709c3 -8 1 -18 -10 -18h-29c-35 -24 -53 -53 -53 -87c0 -37 25 -49 65 -49c20 0 38 4 53 7c8 2 13 -1 15 -8l7 -40c3 -9 -2 -12 -10 -15c-15 -7 -43 -12 -82 -12c-68 0 -134 24 -134 98c0 51 28 81 67 106h-5c-7 0 -12 4 -15 12
l-93 264h-300l-93 -264c-3 -8 -9 -12 -16 -12h-96c-11 0 -14 7 -11 18l260 709c3 8 8 12 17 12zM265 368h240l-100 285h-39z" />
    <glyph glyph-name="aogonek" unicode="&#x105;" horiz-adv-x="576" 
d="M508 382v-277c0 -61 -15 -83 -56 -96c-45 -25 -67 -57 -67 -96c0 -37 25 -49 65 -49c20 0 38 4 53 7c8 2 13 -1 15 -8l7 -40c3 -9 -2 -12 -10 -15c-15 -7 -43 -12 -82 -12c-68 0 -134 24 -134 98c0 45 22 73 53 96c-21 -2 -44 -3 -68 -3c-100 0 -237 7 -237 168
c0 131 78 141 166 157l182 30v37c0 31 -2 52 -31 64c-16 7 -43 10 -82 10c-72 0 -142 -20 -175 -28c-3 -1 -6 -1 -7 -1c-4 0 -9 2 -12 9l-12 55c-3 11 4 14 11 17c28 9 117 33 215 33c72 0 118 -10 149 -27c52 -29 57 -76 57 -129zM395 263l-152 -25c-41 -8 -80 -12 -80 -81
c0 -85 71 -92 124 -92c41 0 77 5 108 16v182z" />
    <glyph glyph-name="Cacute" unicode="&#x106;" horiz-adv-x="682" 
d="M186 371c0 -195 40 -281 220 -281c100 0 156 19 196 30c11 3 22 6 25 -9l11 -56c3 -15 -1 -20 -16 -25c-40 -15 -113 -36 -232 -36c-245 0 -329 123 -329 377s84 377 329 377c119 0 192 -21 232 -36c15 -5 19 -10 16 -25l-11 -56c-3 -15 -14 -12 -25 -9
c-40 11 -96 30 -196 30c-180 0 -220 -86 -220 -281zM467 980l39 -50c3 -5 3 -9 -2 -13l-147 -102c-5 -3 -11 -5 -15 2l-36 47c-4 5 -3 10 2 13l145 106c6 3 11 2 14 -3z" />
    <glyph glyph-name="cacute" unicode="&#x107;" horiz-adv-x="502" 
d="M163 263c0 -144 34 -191 146 -191c61 0 102 13 125 20c15 4 17 -2 20 -10l10 -46c2 -10 -2 -17 -11 -21c-24 -11 -86 -26 -162 -26c-186 0 -244 90 -244 275c0 184 58 274 244 274c76 0 138 -15 162 -26c9 -4 13 -11 11 -21l-10 -46c-3 -8 -5 -14 -20 -10
c-23 7 -64 20 -125 20c-112 0 -146 -49 -146 -192zM364 762l39 -50c3 -5 3 -10 -2 -13l-147 -102c-5 -3 -10 -3 -15 2l-36 47c-3 3 -3 10 2 13l145 105c5 4 10 3 14 -2z" />
    <glyph glyph-name="Ccircumflex" unicode="&#x108;" horiz-adv-x="682" 
d="M186 371c0 -195 40 -281 220 -281c100 0 156 19 196 30c11 3 22 6 25 -9l11 -56c3 -15 -1 -20 -16 -25c-40 -15 -113 -36 -232 -36c-245 0 -329 123 -329 377s84 377 329 377c119 0 192 -21 232 -36c15 -5 19 -10 16 -25l-11 -56c-3 -15 -14 -12 -25 -9
c-40 11 -96 30 -196 30c-180 0 -220 -86 -220 -281zM547 863l-37 -45c-3 -3 -7 -8 -14 -3l-111 87l-111 -87c-5 -3 -9 -2 -14 3l-36 45c-3 3 -3 10 2 13l142 103h34l143 -103c5 -4 6 -8 2 -13z" />
    <glyph glyph-name="ccircumflex" unicode="&#x109;" horiz-adv-x="502" 
d="M163 263c0 -144 34 -191 146 -191c61 0 102 13 125 20c15 4 17 -2 20 -10l10 -46c2 -10 -2 -17 -11 -21c-24 -11 -86 -26 -162 -26c-186 0 -244 90 -244 275c0 184 58 274 244 274c76 0 138 -15 162 -26c9 -4 13 -11 11 -21l-10 -46c-3 -8 -5 -14 -20 -10
c-23 7 -64 20 -125 20c-112 0 -146 -49 -146 -192zM437 645l-37 -45c-3 -3 -7 -8 -14 -3l-111 87l-111 -87c-5 -3 -9 -2 -14 3l-36 45c-3 3 -3 10 2 13l142 102h34l143 -102c5 -4 6 -8 2 -13z" />
    <glyph glyph-name="Cdotaccent" unicode="&#x10a;" horiz-adv-x="682" 
d="M186 371c0 -195 40 -281 220 -281c100 0 156 19 196 30c11 3 22 6 25 -9l11 -56c3 -15 -1 -20 -16 -25c-40 -15 -113 -36 -232 -36c-245 0 -329 123 -329 377s84 377 329 377c119 0 192 -21 232 -36c15 -5 19 -10 16 -25l-11 -56c-3 -15 -14 -12 -25 -9
c-40 11 -96 30 -196 30c-180 0 -220 -86 -220 -281zM460 917v-68c0 -9 -7 -16 -18 -16h-109c-13 0 -19 5 -19 16v68c0 11 6 16 19 16h109c11 0 18 -7 18 -16z" />
    <glyph glyph-name="cdotaccent" unicode="&#x10b;" horiz-adv-x="502" 
d="M163 263c0 -144 34 -191 146 -191c61 0 102 13 125 20c15 4 17 -2 20 -10l10 -46c2 -10 -2 -17 -11 -21c-24 -11 -86 -26 -162 -26c-186 0 -244 90 -244 275c0 184 58 274 244 274c76 0 138 -15 162 -26c9 -4 13 -11 11 -21l-10 -46c-3 -8 -5 -14 -20 -10
c-23 7 -64 20 -125 20c-112 0 -146 -49 -146 -192zM348 699v-68c0 -9 -7 -16 -18 -16h-109c-13 0 -19 5 -19 16v68c0 11 6 16 19 16h109c11 0 18 -7 18 -16z" />
    <glyph glyph-name="Ccaron" unicode="&#x10c;" horiz-adv-x="682" 
d="M186 371c0 -195 40 -281 220 -281c100 0 156 19 196 30c11 3 22 6 25 -9l11 -56c3 -15 -1 -20 -16 -25c-40 -15 -113 -36 -232 -36c-245 0 -329 123 -329 377s84 377 329 377c119 0 192 -21 232 -36c15 -5 19 -10 16 -25l-11 -56c-3 -15 -14 -12 -25 -9
c-40 11 -96 30 -196 30c-180 0 -220 -86 -220 -281zM376 812l-142 102c-4 3 -8 8 -3 13l37 44c4 4 10 9 17 2l108 -86l108 86c5 5 11 4 17 -2l37 -44c4 -4 2 -10 -3 -13l-142 -102h-34z" />
    <glyph glyph-name="ccaron" unicode="&#x10d;" horiz-adv-x="502" 
d="M163 263c0 -144 34 -191 146 -191c61 0 102 13 125 20c15 4 17 -2 20 -10l10 -46c2 -10 -2 -17 -11 -21c-24 -11 -86 -26 -162 -26c-186 0 -244 90 -244 275c0 184 58 274 244 274c76 0 138 -15 162 -26c9 -4 13 -11 11 -21l-10 -46c-3 -8 -5 -14 -20 -10
c-23 7 -64 20 -125 20c-112 0 -146 -49 -146 -192zM418 754l37 -44c4 -4 2 -10 -2 -13l-143 -102h-34l-142 102c-5 3 -6 8 -2 13l36 44c5 5 10 6 14 3l111 -87l111 87c5 4 10 3 14 -3z" />
    <glyph glyph-name="Dcaron" unicode="&#x10e;" horiz-adv-x="800" 
d="M739 370c0 -293 -105 -370 -340 -370h-287c-8 0 -16 7 -16 16v707c0 9 8 16 16 16h287c235 0 340 -76 340 -369zM615 371c0 240 -70 276 -231 276h-166v-555h166c161 0 231 39 231 279zM357 812l-142 102c-4 3 -8 8 -3 13l37 44c4 4 10 9 17 2l108 -86l108 86
c5 5 11 4 17 -2l37 -44c4 -4 2 -10 -3 -13l-142 -102h-34z" />
    <glyph glyph-name="dcaron" unicode="&#x10f;" horiz-adv-x="689" 
d="M521 737v-651c0 -31 -3 -62 -62 -78c-39 -11 -89 -21 -161 -21c-195 0 -251 77 -251 274c0 183 49 277 226 277c69 0 121 -12 145 -19l-10 59v140c0 10 5 16 15 18l81 16c12 3 17 -6 17 -15zM408 83v359c-11 3 -61 14 -111 14c-95 0 -134 -25 -134 -192
c0 -176 46 -195 137 -195c52 0 97 11 108 14zM579 583l29 148c3 9 10 15 21 15h66c15 0 21 -12 16 -24l-59 -144c-3 -8 -10 -12 -19 -12h-39c-9 0 -18 6 -15 17z" />
    <glyph glyph-name="Dcroat" unicode="&#x110;" horiz-adv-x="840" 
d="M779 370c0 -293 -105 -370 -340 -370h-287c-11 0 -16 5 -16 16v314h-85c-9 0 -16 8 -16 17v56c0 9 8 15 16 15h85v306c0 8 7 15 16 15h287c235 0 340 -76 340 -369zM654 371c0 240 -70 276 -230 276h-167v-229h231c8 0 16 -6 16 -15v-56c0 -9 -7 -17 -16 -17h-231v-238
h167c160 0 230 39 230 279z" />
    <glyph glyph-name="dcroat" unicode="&#x111;" horiz-adv-x="594" 
d="M521 590v-504c0 -31 -3 -62 -62 -78c-39 -11 -89 -21 -161 -21c-195 0 -251 77 -251 274c0 183 49 267 226 267c69 0 121 -12 145 -19l-10 59v22h-146c-10 0 -15 5 -15 15v51c0 10 5 15 15 15h146v47c0 10 5 16 15 18l81 16c12 3 17 -6 17 -15v-66h51c10 0 15 -5 15 -15
v-51c0 -10 -5 -15 -15 -15h-51zM408 83v349c-11 3 -61 14 -111 14c-95 0 -134 -15 -134 -182c0 -176 46 -195 137 -195c52 0 97 11 108 14z" />
    <glyph glyph-name="Emacron" unicode="&#x112;" horiz-adv-x="662" 
d="M582 0h-469c-9 0 -17 7 -17 16v707c0 9 8 16 17 16h468c11 0 16 -5 16 -16v-65c0 -10 -5 -15 -16 -15h-363v-212h341c10 0 15 -5 15 -15v-65c0 -11 -5 -16 -15 -16h-341v-239h364c8 0 15 -6 15 -15v-65c0 -9 -7 -16 -15 -16zM353 848c-56 0 -104 -17 -131 -24
c-3 -1 -5 -1 -7 -1c-6 0 -10 4 -11 11l-9 53c-1 5 3 9 11 12c27 11 86 25 146 25s120 -14 147 -25c8 -3 12 -8 11 -13l-9 -52c-1 -7 -5 -11 -11 -11c-1 0 -4 0 -7 1c-31 8 -74 24 -130 24z" />
    <glyph glyph-name="emacron" unicode="&#x113;" horiz-adv-x="575" 
d="M528 272v-24c0 -9 0 -17 -1 -24c0 -9 -6 -19 -17 -19h-348c1 -49 13 -77 37 -100c28 -27 69 -36 129 -36c57 0 100 12 143 24c2 1 4 1 7 1c7 0 10 0 13 -11l10 -45c1 -3 1 -5 1 -6c0 -6 -4 -11 -11 -14c-37 -15 -103 -31 -178 -31c-196 0 -266 83 -266 274
c0 180 45 277 242 277c103 0 163 -28 199 -80c31 -45 40 -107 40 -186zM162 284h251c0 35 -1 64 -9 95c-15 60 -47 78 -115 78c-73 0 -105 -20 -118 -76c-8 -31 -8 -64 -9 -97zM290 630c-56 0 -104 -17 -131 -24c-3 -1 -5 -1 -7 -1c-6 0 -10 4 -11 11l-9 53c-1 5 3 9 11 12
c27 11 86 25 146 25s120 -14 147 -25c8 -3 12 -8 11 -13l-9 -52c-1 -7 -5 -11 -11 -11c-1 0 -4 0 -7 1c-31 8 -74 24 -130 24z" />
    <glyph glyph-name="Ebreve" unicode="&#x114;" horiz-adv-x="662" 
d="M582 0h-469c-9 0 -17 7 -17 16v707c0 9 8 16 17 16h468c11 0 16 -5 16 -16v-65c0 -10 -5 -15 -16 -15h-363v-212h341c10 0 15 -5 15 -15v-65c0 -11 -5 -16 -15 -16h-341v-239h364c8 0 15 -6 15 -15v-65c0 -9 -7 -16 -15 -16zM528 959c0 -112 -63 -146 -174 -146
c-112 0 -175 34 -175 146c0 7 3 14 12 14h47c9 0 12 -7 12 -14c1 -59 23 -84 104 -84c80 0 101 25 104 85c0 7 1 13 12 13h47c9 0 11 -7 11 -14z" />
    <glyph glyph-name="ebreve" unicode="&#x115;" horiz-adv-x="575" 
d="M528 272v-24c0 -9 0 -17 -1 -24c0 -9 -6 -19 -17 -19h-348c1 -49 13 -77 37 -100c28 -27 69 -36 129 -36c57 0 100 12 143 24c2 1 4 1 7 1c7 0 10 0 13 -11l10 -45c1 -3 1 -5 1 -6c0 -6 -4 -11 -11 -14c-37 -15 -103 -31 -178 -31c-196 0 -266 83 -266 274
c0 180 45 277 242 277c103 0 163 -28 199 -80c31 -45 40 -107 40 -186zM162 284h251c0 35 -1 64 -9 95c-15 60 -47 78 -115 78c-73 0 -105 -20 -118 -76c-8 -31 -8 -64 -9 -97zM464 741c0 -112 -63 -146 -174 -146c-112 0 -175 34 -175 146c0 7 3 14 12 14h47
c9 0 12 -7 12 -14c1 -59 23 -84 104 -84c80 0 101 25 104 85c0 7 1 13 12 13h47c9 0 11 -7 11 -14z" />
    <glyph glyph-name="Edotaccent" unicode="&#x116;" horiz-adv-x="662" 
d="M582 0h-469c-9 0 -17 7 -17 16v707c0 9 8 16 17 16h468c11 0 16 -5 16 -16v-65c0 -10 -5 -15 -16 -15h-363v-212h341c10 0 15 -5 15 -15v-65c0 -11 -5 -16 -15 -16h-341v-239h364c8 0 15 -6 15 -15v-65c0 -9 -7 -16 -15 -16zM425 917v-68c0 -9 -7 -16 -18 -16h-109
c-13 0 -19 5 -19 16v68c0 11 6 16 19 16h109c11 0 18 -7 18 -16z" />
    <glyph glyph-name="edotaccent" unicode="&#x117;" horiz-adv-x="575" 
d="M528 272v-24c0 -9 0 -17 -1 -24c0 -9 -6 -19 -17 -19h-348c1 -49 13 -77 37 -100c28 -27 69 -36 129 -36c57 0 100 12 143 24c2 1 4 1 7 1c7 0 10 0 13 -11l10 -45c1 -3 1 -5 1 -6c0 -6 -4 -11 -11 -14c-37 -15 -103 -31 -178 -31c-196 0 -266 83 -266 274
c0 180 45 277 242 277c103 0 163 -28 199 -80c31 -45 40 -107 40 -186zM162 284h251c0 35 -1 64 -9 95c-15 60 -47 78 -115 78c-73 0 -105 -20 -118 -76c-8 -31 -8 -64 -9 -97zM362 699v-68c0 -9 -7 -16 -18 -16h-109c-13 0 -19 5 -19 16v68c0 11 6 16 19 16h109
c11 0 18 -7 18 -16z" />
    <glyph glyph-name="Eogonek" unicode="&#x118;" horiz-adv-x="662" 
d="M440 0h-327c-9 0 -17 7 -17 16v707c0 9 8 16 17 16h468c11 0 16 -5 16 -16v-65c0 -10 -5 -15 -16 -15h-363v-212h341c10 0 15 -5 15 -15v-65c0 -11 -5 -16 -15 -16h-341v-239h364c8 0 15 -6 15 -15v-65c0 -9 -7 -16 -15 -16h-70c-35 -24 -53 -53 -53 -87
c0 -37 25 -49 65 -49c20 0 38 4 53 7c8 2 13 -1 15 -8l7 -40c3 -9 -2 -12 -10 -15c-15 -7 -43 -12 -82 -12c-68 0 -134 24 -134 98c0 51 28 81 67 106z" />
    <glyph glyph-name="eogonek" unicode="&#x119;" horiz-adv-x="575" 
d="M528 272v-24c0 -9 0 -17 -1 -24c0 -9 -6 -19 -17 -19h-348c1 -49 13 -77 37 -100c28 -27 69 -36 129 -36c57 0 100 12 143 24c2 1 4 1 7 1c7 0 10 0 13 -11l10 -45c1 -3 1 -5 1 -6c0 -6 -4 -11 -11 -14c-35 -15 -92 -27 -159 -30c-24 -22 -36 -47 -36 -75
c0 -37 25 -49 65 -49c20 0 38 4 53 7c8 2 13 -1 15 -8l7 -40c3 -9 -2 -12 -10 -15c-15 -7 -43 -12 -82 -12c-68 0 -134 24 -134 98c0 44 21 72 52 95c-157 13 -215 98 -215 272c0 180 45 277 242 277c103 0 163 -28 199 -80c31 -45 40 -107 40 -186zM162 284h251
c0 35 -1 64 -9 95c-15 60 -47 78 -115 78c-73 0 -105 -20 -118 -76c-8 -31 -8 -64 -9 -97z" />
    <glyph glyph-name="Ecaron" unicode="&#x11a;" horiz-adv-x="662" 
d="M582 0h-469c-9 0 -17 7 -17 16v707c0 9 8 16 17 16h468c11 0 16 -5 16 -16v-65c0 -10 -5 -15 -16 -15h-363v-212h341c10 0 15 -5 15 -15v-65c0 -11 -5 -16 -15 -16h-341v-239h364c8 0 15 -6 15 -15v-65c0 -9 -7 -16 -15 -16zM336 812l-142 102c-4 3 -8 8 -3 13l37 44
c4 4 10 9 17 2l108 -86l108 86c5 5 11 4 17 -2l37 -44c4 -4 2 -10 -3 -13l-142 -102h-34z" />
    <glyph glyph-name="ecaron" unicode="&#x11b;" horiz-adv-x="575" 
d="M528 272v-24c0 -9 0 -17 -1 -24c0 -9 -6 -19 -17 -19h-348c1 -49 13 -77 37 -100c28 -27 69 -36 129 -36c57 0 100 12 143 24c2 1 4 1 7 1c7 0 10 0 13 -11l10 -45c1 -3 1 -5 1 -6c0 -6 -4 -11 -11 -14c-37 -15 -103 -31 -178 -31c-196 0 -266 83 -266 274
c0 180 45 277 242 277c103 0 163 -28 199 -80c31 -45 40 -107 40 -186zM162 284h251c0 35 -1 64 -9 95c-15 60 -47 78 -115 78c-73 0 -105 -20 -118 -76c-8 -31 -8 -64 -9 -97zM413 754l37 -44c4 -4 2 -10 -2 -13l-143 -102h-34l-142 102c-5 3 -6 8 -2 13l36 44
c5 5 10 6 14 3l111 -87l111 87c5 4 10 3 14 -3z" />
    <glyph glyph-name="Gcircumflex" unicode="&#x11c;" horiz-adv-x="770" 
d="M429 -13c-276 0 -368 99 -368 382c0 259 82 383 349 383c142 0 249 -36 265 -41c15 -7 19 -11 16 -24l-12 -56c-3 -11 -11 -14 -22 -11c-32 8 -114 35 -231 35c-183 0 -240 -72 -240 -288c0 -220 58 -287 247 -287c63 0 119 10 134 14v196l-127 14c-7 1 -11 5 -11 12v67
c0 7 4 11 12 11h231c9 0 14 -5 14 -14v-272c0 -54 -6 -79 -54 -95c-51 -16 -148 -26 -203 -26zM568 863l-37 -45c-3 -3 -7 -8 -14 -3l-111 87l-111 -87c-5 -3 -9 -2 -14 3l-36 45c-3 3 -3 10 2 13l142 103h34l143 -103c5 -4 6 -8 2 -13z" />
    <glyph glyph-name="gcircumflex" unicode="&#x11d;" horiz-adv-x="605" 
d="M492 444c8 -11 30 -43 30 -94c0 -137 -98 -178 -231 -178h-56c-44 0 -56 -22 -56 -47c0 -39 26 -48 73 -48h127c93 0 176 -26 176 -127c0 -125 -106 -170 -254 -170c-168 0 -251 31 -251 131c0 82 59 93 107 104v13c-47 10 -89 15 -89 88c0 62 41 75 108 88
c-42 13 -111 39 -111 151c0 140 93 183 230 183c88 0 104 -24 166 -24c39 0 67 12 98 27c4 2 7 3 9 3c3 0 6 -3 8 -8l21 -62c2 -7 1 -13 -4 -16c-20 -16 -34 -20 -57 -20c-17 0 -39 5 -44 6zM443 -67c0 53 -44 58 -88 58h-106c-43 0 -87 -11 -87 -67c0 -60 57 -70 143 -70
c64 0 138 11 138 79zM411 355c0 80 -38 112 -118 112c-79 0 -117 -32 -117 -112s38 -112 117 -112c80 0 118 32 118 112zM456 645l-37 -45c-3 -3 -7 -8 -14 -3l-111 87l-111 -87c-5 -3 -9 -2 -14 3l-36 45c-3 3 -3 10 2 13l142 102h34l143 -102c5 -4 6 -8 2 -13z" />
    <glyph glyph-name="Gbreve" unicode="&#x11e;" horiz-adv-x="770" 
d="M429 -13c-276 0 -368 99 -368 382c0 259 82 383 349 383c142 0 249 -36 265 -41c15 -7 19 -11 16 -24l-12 -56c-3 -11 -11 -14 -22 -11c-32 8 -114 35 -231 35c-183 0 -240 -72 -240 -288c0 -220 58 -287 247 -287c63 0 119 10 134 14v196l-127 14c-7 1 -11 5 -11 12v67
c0 7 4 11 12 11h231c9 0 14 -5 14 -14v-272c0 -54 -6 -79 -54 -95c-51 -16 -148 -26 -203 -26zM583 959c0 -112 -63 -146 -174 -146c-112 0 -175 34 -175 146c0 7 3 14 12 14h47c9 0 12 -7 12 -14c1 -59 23 -84 104 -84c80 0 101 25 104 85c0 7 1 13 12 13h47
c9 0 11 -7 11 -14z" />
    <glyph glyph-name="gbreve" unicode="&#x11f;" horiz-adv-x="605" 
d="M492 444c8 -11 30 -43 30 -94c0 -137 -98 -178 -231 -178h-56c-44 0 -56 -22 -56 -47c0 -39 26 -48 73 -48h127c93 0 176 -26 176 -127c0 -125 -106 -170 -254 -170c-168 0 -251 31 -251 131c0 82 59 93 107 104v13c-47 10 -89 15 -89 88c0 62 41 75 108 88
c-42 13 -111 39 -111 151c0 140 93 183 230 183c88 0 104 -24 166 -24c39 0 67 12 98 27c4 2 7 3 9 3c3 0 6 -3 8 -8l21 -62c2 -7 1 -13 -4 -16c-20 -16 -34 -20 -57 -20c-17 0 -39 5 -44 6zM443 -67c0 53 -44 58 -88 58h-106c-43 0 -87 -11 -87 -67c0 -60 57 -70 143 -70
c64 0 138 11 138 79zM411 355c0 80 -38 112 -118 112c-79 0 -117 -32 -117 -112s38 -112 117 -112c80 0 118 32 118 112zM464 741c0 -112 -63 -146 -174 -146c-112 0 -175 34 -175 146c0 7 3 14 12 14h47c9 0 12 -7 12 -14c1 -59 23 -84 104 -84c80 0 101 25 104 85
c0 7 1 13 12 13h47c9 0 11 -7 11 -14z" />
    <glyph glyph-name="Gdotaccent" unicode="&#x120;" horiz-adv-x="770" 
d="M429 -13c-276 0 -368 99 -368 382c0 259 82 383 349 383c142 0 249 -36 265 -41c15 -7 19 -11 16 -24l-12 -56c-3 -11 -11 -14 -22 -11c-32 8 -114 35 -231 35c-183 0 -240 -72 -240 -288c0 -220 58 -287 247 -287c63 0 119 10 134 14v196l-127 14c-7 1 -11 5 -11 12v67
c0 7 4 11 12 11h231c9 0 14 -5 14 -14v-272c0 -54 -6 -79 -54 -95c-51 -16 -148 -26 -203 -26zM481 917v-68c0 -9 -7 -16 -18 -16h-109c-13 0 -19 5 -19 16v68c0 11 6 16 19 16h109c11 0 18 -7 18 -16z" />
    <glyph glyph-name="gdotaccent" unicode="&#x121;" horiz-adv-x="605" 
d="M492 444c8 -11 30 -43 30 -94c0 -137 -98 -178 -231 -178h-56c-44 0 -56 -22 -56 -47c0 -39 26 -48 73 -48h127c93 0 176 -26 176 -127c0 -125 -106 -170 -254 -170c-168 0 -251 31 -251 131c0 82 59 93 107 104v13c-47 10 -89 15 -89 88c0 62 41 75 108 88
c-42 13 -111 39 -111 151c0 140 93 183 230 183c88 0 104 -24 166 -24c39 0 67 12 98 27c4 2 7 3 9 3c3 0 6 -3 8 -8l21 -62c2 -7 1 -13 -4 -16c-20 -16 -34 -20 -57 -20c-17 0 -39 5 -44 6zM443 -67c0 53 -44 58 -88 58h-106c-43 0 -87 -11 -87 -67c0 -60 57 -70 143 -70
c64 0 138 11 138 79zM411 355c0 80 -38 112 -118 112c-79 0 -117 -32 -117 -112s38 -112 117 -112c80 0 118 32 118 112zM362 699v-68c0 -9 -7 -16 -18 -16h-109c-13 0 -19 5 -19 16v68c0 11 6 16 19 16h109c11 0 18 -7 18 -16z" />
    <glyph glyph-name="Gcommaaccent" unicode="&#x122;" horiz-adv-x="770" 
d="M429 -13c-276 0 -368 99 -368 382c0 259 82 383 349 383c142 0 249 -36 265 -41c15 -7 19 -11 16 -24l-12 -56c-3 -11 -11 -14 -22 -11c-32 8 -114 35 -231 35c-183 0 -240 -72 -240 -288c0 -220 58 -287 247 -287c63 0 119 10 134 14v196l-127 14c-7 1 -11 5 -11 12v67
c0 7 4 11 12 11h231c9 0 14 -5 14 -14v-272c0 -54 -6 -79 -54 -95c-51 -16 -148 -26 -203 -26zM352 -213l29 148c3 9 10 15 21 15h66c15 0 21 -12 16 -24l-59 -144c-3 -8 -10 -12 -19 -12h-39c-9 0 -18 6 -15 17z" />
    <glyph glyph-name="gcommaaccent" unicode="&#x123;" horiz-adv-x="605" 
d="M492 444c8 -11 30 -43 30 -94c0 -137 -98 -178 -231 -178h-56c-44 0 -56 -22 -56 -47c0 -39 26 -48 73 -48h127c93 0 176 -26 176 -127c0 -125 -106 -170 -254 -170c-168 0 -251 31 -251 131c0 82 59 93 107 104v13c-47 10 -89 15 -89 88c0 62 41 75 108 88
c-42 13 -111 39 -111 151c0 140 93 183 230 183c88 0 104 -24 166 -24c39 0 67 12 98 27c4 2 7 3 9 3c3 0 6 -3 8 -8l21 -62c2 -7 1 -13 -4 -16c-20 -16 -34 -20 -57 -20c-17 0 -39 5 -44 6zM443 -67c0 53 -44 58 -88 58h-106c-43 0 -87 -11 -87 -67c0 -60 57 -70 143 -70
c64 0 138 11 138 79zM411 355c0 80 -38 112 -118 112c-79 0 -117 -32 -117 -112s38 -112 117 -112c80 0 118 32 118 112zM368 778l-29 -148c-3 -9 -10 -15 -21 -15h-66c-15 0 -21 12 -16 24l59 144c3 8 9 12 19 12h39c9 0 18 -6 15 -17z" />
    <glyph glyph-name="Hcircumflex" unicode="&#x124;" horiz-adv-x="825" 
d="M729 738v-723c0 -8 -8 -15 -17 -15h-89c-9 0 -16 7 -16 15v317h-389v-317c0 -8 -7 -15 -16 -15h-89c-9 0 -17 7 -17 15v710c0 8 5 13 14 14l94 13c11 1 14 -7 14 -14v-307h389v294c0 8 5 13 14 14l94 13c11 1 14 -7 14 -14zM573 863l-37 -45c-3 -3 -7 -8 -14 -3l-111 87
l-111 -87c-5 -3 -9 -2 -14 3l-36 45c-3 3 -3 10 2 13l142 103h34l143 -103c5 -4 6 -8 2 -13z" />
    <glyph glyph-name="hcircumflex" unicode="&#x125;" horiz-adv-x="599" 
d="M531 394v-379c0 -10 -5 -15 -15 -15h-82c-11 0 -16 5 -16 15v363c0 56 -20 78 -80 78c-67 0 -136 -17 -151 -20v-421c0 -10 -5 -15 -15 -15h-83c-11 0 -16 5 -16 15v703c0 10 5 16 16 18l81 16c12 3 17 -6 17 -15v-165l-11 -60c51 13 126 26 180 26
c116 0 175 -35 175 -144zM299 830l-37 -45c-3 -3 -7 -8 -14 -3l-111 87l-111 -87c-5 -3 -9 -2 -14 3l-36 45c-3 3 -3 10 2 13l142 103h34l143 -103c5 -4 6 -8 2 -13z" />
    <glyph glyph-name="Hbar" unicode="&#x126;" horiz-adv-x="785" 
d="M182 0h-89c-11 0 -16 5 -16 16v517h-67c-11 0 -18 6 -18 17v58c0 9 7 16 18 16h67v101c0 8 4 13 13 14l94 13c11 3 14 -7 14 -14v-114h389v101c0 8 5 13 14 14l94 13c11 3 14 -7 14 -14v-114h66c12 0 18 -5 18 -16v-58c0 -11 -6 -17 -18 -17h-66v-517
c0 -11 -5 -16 -16 -16h-90c-11 0 -16 5 -16 16v284h-389v-284c0 -11 -5 -16 -16 -16zM587 392v141h-389v-141h389z" />
    <glyph glyph-name="hbar" unicode="&#x127;" horiz-adv-x="599" 
d="M187 590v-18l-11 -60c51 13 126 26 180 26c116 0 175 -35 175 -144v-379c0 -10 -5 -15 -15 -15h-82c-11 0 -16 5 -16 15v363c0 56 -20 78 -80 78c-67 0 -136 -17 -151 -20v-421c0 -10 -5 -15 -15 -15h-83c-11 0 -16 5 -16 15v575h-51c-10 0 -15 5 -15 15v51
c0 10 5 15 15 15h51v47c0 10 5 16 16 18l81 16c12 3 17 -6 17 -15v-66h145c10 0 15 -5 15 -15v-51c0 -10 -5 -15 -15 -15h-145z" />
    <glyph glyph-name="Itilde" unicode="&#x128;" horiz-adv-x="314" 
d="M218 738v-723c0 -8 -7 -15 -16 -15h-89c-9 0 -17 7 -17 15v710c0 8 5 13 14 14l94 13c11 1 14 -7 14 -14zM308 923l22 -43c3 -5 2 -11 -4 -17c-19 -16 -64 -50 -104 -50c-23 0 -46 10 -67 21l-31 15c-10 5 -20 8 -30 8c-24 0 -48 -19 -69 -35c-5 -5 -12 -6 -17 2l-23 44
c-3 7 -3 9 4 16c20 17 63 50 105 50c24 0 46 -10 66 -21c21 -11 42 -23 61 -23c25 0 49 19 69 36c3 3 6 4 9 4s6 -2 9 -7z" />
    <glyph glyph-name="itilde" unicode="&#x129;" horiz-adv-x="289" 
d="M201 505v-490c0 -10 -5 -15 -15 -15h-82c-11 0 -16 5 -16 15v490c0 9 5 14 16 14h82c10 0 15 -5 15 -14zM294 705l22 -43c3 -5 2 -11 -4 -17c-19 -16 -64 -50 -104 -50c-23 0 -46 10 -67 21l-31 15c-10 5 -20 8 -30 8c-24 0 -49 -18 -69 -35c-5 -5 -12 -6 -17 2l-23 44
c-3 7 -3 9 4 16c20 17 63 50 105 50c24 0 46 -10 66 -21c21 -11 42 -22 61 -23c25 0 49 19 69 36c3 3 6 4 9 4s6 -2 9 -7z" />
    <glyph glyph-name="Imacron" unicode="&#x12a;" horiz-adv-x="314" 
d="M218 738v-723c0 -8 -7 -15 -16 -15h-89c-9 0 -17 7 -17 15v710c0 8 5 13 14 14l94 13c11 1 14 -7 14 -14zM158 848c-56 0 -104 -17 -131 -24c-3 -1 -5 -1 -7 -1c-6 0 -10 4 -11 11l-9 53c-1 5 3 9 11 12c27 11 86 25 146 25s120 -14 147 -25c8 -3 12 -8 11 -13l-9 -52
c-1 -7 -5 -11 -11 -11c-1 0 -4 0 -7 1c-31 8 -74 24 -130 24z" />
    <glyph glyph-name="imacron" unicode="&#x12b;" horiz-adv-x="289" 
d="M201 505v-490c0 -10 -5 -15 -15 -15h-82c-11 0 -16 5 -16 15v490c0 9 5 14 16 14h82c10 0 15 -5 15 -14zM146 630c-56 0 -104 -17 -131 -24c-3 -1 -5 -1 -7 -1c-6 0 -10 4 -11 11l-9 53c-1 5 3 9 11 12c27 11 86 25 146 25s120 -14 147 -25c8 -3 12 -8 11 -13l-9 -52
c-1 -7 -5 -11 -11 -11c-1 0 -4 0 -7 1c-31 8 -74 24 -130 24z" />
    <glyph glyph-name="Ibreve" unicode="&#x12c;" horiz-adv-x="314" 
d="M218 738v-723c0 -8 -7 -15 -16 -15h-89c-9 0 -17 7 -17 15v710c0 8 5 13 14 14l94 13c11 1 14 -7 14 -14zM332 959c0 -112 -63 -146 -174 -146c-112 0 -175 34 -175 146c0 7 3 14 12 14h47c9 0 12 -7 12 -14c1 -59 23 -84 104 -84c80 0 101 25 104 85c0 7 1 13 12 13h47
c9 0 11 -7 11 -14z" />
    <glyph glyph-name="ibreve" unicode="&#x12d;" horiz-adv-x="289" 
d="M201 505v-490c0 -10 -5 -15 -15 -15h-82c-11 0 -16 5 -16 15v490c0 9 5 14 16 14h82c10 0 15 -5 15 -14zM320 741c0 -112 -63 -146 -174 -146c-112 0 -175 34 -175 146c0 7 3 14 12 14h47c9 0 12 -7 12 -14c1 -59 23 -84 104 -84c80 0 101 25 104 85c0 7 1 13 12 13h47
c9 0 11 -7 11 -14z" />
    <glyph glyph-name="Iogonek" unicode="&#x12e;" horiz-adv-x="314" 
d="M218 738v-723c0 -8 -7 -15 -16 -15h-15c-35 -24 -53 -53 -53 -87c0 -37 25 -49 65 -49c20 0 38 4 53 7c8 2 13 -1 15 -8l7 -40c3 -9 -2 -12 -10 -15c-15 -7 -43 -12 -82 -12c-68 0 -134 24 -134 98c0 51 28 81 67 106h-2c-9 0 -17 7 -17 15v710c0 8 5 13 14 14l94 13
c11 1 14 -7 14 -14z" />
    <glyph glyph-name="iogonek" unicode="&#x12f;" horiz-adv-x="289" 
d="M201 505v-490c0 -10 -5 -15 -15 -15h-12c-35 -23 -53 -51 -53 -87c0 -37 25 -49 65 -49c20 0 38 4 53 7c8 2 13 -1 15 -8l7 -40c3 -9 -2 -12 -10 -15c-15 -7 -43 -12 -82 -12c-68 0 -134 24 -134 98c0 51 28 81 67 106c-9 0 -14 5 -14 15v490c0 9 5 14 16 14h82
c10 0 15 -5 15 -14zM201 732v-111c0 -13 -7 -20 -21 -20h-71c-14 0 -21 7 -21 20v111c0 13 7 20 21 20h71c14 0 21 -7 21 -20z" />
    <glyph glyph-name="Idotaccent" unicode="&#x130;" horiz-adv-x="314" 
d="M218 738v-723c0 -8 -7 -15 -16 -15h-89c-9 0 -17 7 -17 15v710c0 8 5 13 14 14l94 13c11 1 14 -7 14 -14zM230 917v-68c0 -9 -7 -16 -18 -16h-109c-13 0 -19 5 -19 16v68c0 11 6 16 19 16h109c11 0 18 -7 18 -16z" />
    <glyph glyph-name="dotlessi" unicode="&#x131;" horiz-adv-x="289" 
d="M201 505v-490c0 -10 -5 -15 -15 -15h-82c-11 0 -16 5 -16 15v490c0 9 5 14 16 14h82c10 0 15 -5 15 -14z" />
    <glyph glyph-name="IJ" unicode="&#x132;" horiz-adv-x="624" 
d="M218 738v-723c0 -8 -7 -15 -16 -15h-89c-9 0 -17 7 -17 15v710c0 8 5 13 14 14l94 13c11 1 14 -7 14 -14zM538 738v-759c0 -128 -74 -175 -201 -175h-39c-9 0 -18 0 -25 1c-9 1 -18 5 -18 18v58c0 11 6 18 18 19l49 2c61 3 94 8 94 81v742c0 8 5 13 14 14l94 13
c11 1 14 -7 14 -14z" />
    <glyph glyph-name="ij" unicode="&#x133;" horiz-adv-x="572" 
d="M201 505v-490c0 -10 -5 -15 -15 -15h-82c-11 0 -16 5 -16 15v490c0 9 5 14 16 14h82c10 0 15 -5 15 -14zM201 732v-111c0 -13 -7 -20 -21 -20h-71c-14 0 -21 7 -21 20v111c0 13 7 20 21 20h71c14 0 21 -7 21 -20zM489 505v-560c0 -120 -69 -155 -172 -155
c-29 0 -50 1 -64 3c-7 1 -18 2 -18 17l1 46c0 13 7 15 16 15l35 1c59 3 88 9 88 77v556c0 9 5 14 16 14h83c10 0 15 -5 15 -14zM489 732v-111c0 -13 -7 -20 -21 -20h-72c-13 0 -20 7 -20 20v111c0 13 7 20 20 20h72c14 0 21 -7 21 -20z" />
    <glyph glyph-name="Jcircumflex" unicode="&#x134;" horiz-adv-x="310" 
d="M224 738v-759c0 -128 -74 -175 -201 -175h-39c-9 0 -18 0 -25 1c-9 1 -18 5 -18 18v58c0 11 6 18 18 19l49 2c61 3 94 8 94 81v742c0 8 5 13 14 14l94 13c11 1 14 -7 14 -14zM323 863l-37 -45c-3 -3 -7 -8 -14 -3l-111 87l-111 -87c-5 -3 -9 -2 -14 3l-36 45
c-3 3 -3 10 2 13l142 103h34l143 -103c5 -4 6 -8 2 -13z" />
    <glyph glyph-name="jcircumflex" unicode="&#x135;" horiz-adv-x="283" 
d="M200 505v-560c0 -120 -69 -155 -172 -155c-29 0 -50 1 -64 3c-7 1 -18 2 -18 17l1 46c0 13 7 15 16 15l35 1c59 3 88 9 88 77v556c0 9 5 14 16 14h83c10 0 15 -5 15 -14zM306 645l-37 -45c-3 -3 -7 -8 -14 -3l-111 87l-111 -87c-5 -3 -9 -2 -14 3l-36 45c-3 3 -3 10 2 13
l142 102h34l143 -102c5 -4 6 -8 2 -13z" />
    <glyph glyph-name="Kcommaaccent" unicode="&#x136;" horiz-adv-x="713" 
d="M218 328v-312c0 -11 -5 -16 -16 -16h-89c-11 0 -17 5 -17 16v707c0 11 6 16 17 16h89c11 0 16 -5 16 -16v-301h80l241 310c3 5 9 7 17 7h115c8 0 17 -7 9 -18l-280 -342l302 -361c2 -2 3 -4 3 -6c0 -7 -5 -12 -12 -12h-126c-7 0 -12 2 -17 7l-252 321h-80zM299 -213
l29 148c3 9 10 15 21 15h66c15 0 21 -12 16 -24l-59 -144c-3 -8 -10 -12 -19 -12h-39c-9 0 -18 6 -15 17z" />
    <glyph glyph-name="kcommaaccent" unicode="&#x137;" horiz-adv-x="548" 
d="M172 0h-83c-11 0 -16 5 -16 15v703c0 10 5 16 14 18l84 16c8 3 16 -4 16 -15v-435h46l165 216c4 5 9 7 16 7h100c11 0 12 -10 8 -15l-193 -241l207 -255c4 -4 -1 -14 -8 -14h-116c-6 0 -10 2 -13 6l-166 217h-46v-208c0 -10 -5 -15 -15 -15zM205 -213l29 148
c3 9 10 15 21 15h66c15 0 21 -12 16 -24l-59 -144c-3 -8 -10 -12 -19 -12h-39c-9 0 -18 6 -15 17z" />
    <glyph glyph-name="kgreenlandic" unicode="&#x138;" horiz-adv-x="558" 
d="M172 0h-83c-11 0 -16 5 -16 15v495c0 10 5 15 15 15h83c11 0 16 -5 16 -15v-208h56l165 216c4 5 9 7 16 7h100c11 0 12 -10 8 -15l-193 -241l207 -255c4 -4 -1 -14 -8 -14h-116c-6 0 -10 2 -13 6l-166 217h-56v-208c0 -10 -5 -15 -15 -15z" />
    <glyph glyph-name="Lacute" unicode="&#x139;" horiz-adv-x="603" 
d="M566 0h-453c-11 0 -17 5 -17 16v709c0 7 5 12 14 14l94 13c11 3 14 -5 14 -12v-644h348c11 0 16 -5 16 -15v-65c0 -11 -5 -16 -16 -16zM258 980l39 -50c3 -5 3 -9 -2 -13l-147 -102c-5 -3 -11 -5 -15 2l-36 47c-4 5 -3 10 2 13l145 106c6 3 11 2 14 -3z" />
    <glyph glyph-name="lacute" unicode="&#x13a;" horiz-adv-x="312" 
d="M277 70l10 -51c1 -5 -1 -12 -8 -15c-11 -5 -39 -13 -83 -13c-80 0 -123 41 -123 120v608c0 9 5 15 15 17l82 16h4c9 0 13 -5 13 -15v-619c0 -36 22 -43 42 -43c15 0 26 3 37 4c5 0 8 -1 11 -9zM237 967l39 -50c3 -5 3 -9 -2 -13l-147 -102c-5 -3 -11 -5 -15 2l-36 47
c-4 5 -3 10 2 13l145 106c6 3 11 2 14 -3z" />
    <glyph glyph-name="Lcommaaccent" unicode="&#x13b;" horiz-adv-x="603" 
d="M566 0h-453c-11 0 -17 5 -17 16v709c0 7 5 12 14 14l94 13c11 3 14 -5 14 -12v-644h348c11 0 16 -5 16 -15v-65c0 -11 -5 -16 -16 -16zM290 -213l29 148c3 9 10 15 21 15h66c15 0 21 -12 16 -24l-59 -144c-3 -8 -10 -12 -19 -12h-39c-9 0 -18 6 -15 17z" />
    <glyph glyph-name="lcommaaccent" unicode="&#x13c;" horiz-adv-x="312" 
d="M277 70l10 -51c1 -5 -1 -12 -8 -15c-11 -5 -39 -13 -83 -13c-80 0 -123 41 -123 120v608c0 9 5 15 15 17l82 16h4c9 0 13 -5 13 -15v-619c0 -36 22 -43 42 -43c15 0 26 3 37 4c5 0 8 -1 11 -9zM113 -213l29 148c3 9 10 15 21 15h66c15 0 21 -12 16 -24l-59 -144
c-3 -8 -10 -12 -19 -12h-39c-9 0 -18 6 -15 17z" />
    <glyph glyph-name="Lcaron" unicode="&#x13d;" horiz-adv-x="603" 
d="M566 0h-453c-11 0 -17 5 -17 16v709c0 7 5 12 14 14l94 13c11 3 14 -5 14 -12v-644h348c11 0 16 -5 16 -15v-65c0 -11 -5 -16 -16 -16zM338 590l29 148c3 9 10 15 21 15h66c15 0 21 -12 16 -24l-59 -144c-3 -8 -10 -12 -19 -12h-39c-9 0 -18 6 -15 17z" />
    <glyph glyph-name="lcaron" unicode="&#x13e;" horiz-adv-x="355" 
d="M277 70l10 -51c1 -5 -1 -12 -8 -15c-11 -5 -39 -13 -83 -13c-80 0 -123 41 -123 120v608c0 9 5 15 15 17l82 16h4c9 0 13 -5 13 -15v-619c0 -36 22 -43 42 -43c15 0 26 3 37 4c5 0 8 -1 11 -9zM245 583l29 148c3 9 10 15 21 15h66c15 0 21 -12 16 -24l-59 -144
c-3 -8 -10 -12 -19 -12h-39c-9 0 -18 6 -15 17z" />
    <glyph glyph-name="Ldot" unicode="&#x13f;" horiz-adv-x="603" 
d="M566 0h-453c-11 0 -17 5 -17 16v709c0 7 5 12 14 14l94 13c11 3 14 -5 14 -12v-644h348c11 0 16 -5 16 -15v-65c0 -11 -5 -16 -16 -16zM502 443v-87c0 -11 -5 -17 -16 -17h-83c-9 0 -17 6 -17 17v87c0 11 8 18 17 18h83c9 0 16 -7 16 -18z" />
    <glyph glyph-name="ldot" unicode="&#x140;" horiz-adv-x="356" 
d="M277 70l10 -51c1 -5 -1 -12 -8 -15c-11 -5 -39 -13 -83 -13c-80 0 -123 41 -123 120v608c0 9 5 15 15 17l82 16h4c9 0 13 -5 13 -15v-619c0 -36 22 -43 42 -43c15 0 26 3 37 4c5 0 8 -1 11 -9zM367 443v-87c0 -11 -5 -17 -16 -17h-83c-9 0 -17 6 -17 17v87
c0 11 8 18 17 18h83c9 0 16 -7 16 -18z" />
    <glyph glyph-name="Lslash" unicode="&#x141;" horiz-adv-x="603" 
d="M565 0h-452c-11 0 -17 5 -17 16v306l-71 -23c-9 -3 -14 2 -15 7l-17 56c-3 9 0 14 8 16l95 29v318c0 8 5 13 15 14l93 13c11 3 14 -7 14 -14v-294l214 67c7 3 13 0 16 -7l18 -58c3 -7 -3 -12 -10 -15l-238 -73v-262h347c11 0 17 -5 17 -15v-65c0 -11 -6 -16 -17 -16z" />
    <glyph glyph-name="lslash" unicode="&#x142;" horiz-adv-x="366" 
d="M269 75c15 0 26 3 37 4c5 0 8 -1 11 -9l10 -51c3 -9 -5 -14 -8 -15c-9 -4 -37 -13 -84 -13c-79 0 -122 41 -122 120v209l-71 -22c-11 -3 -12 0 -15 7l-18 56c-3 8 2 11 9 14l95 29v315c0 9 5 15 15 17l81 16h4c9 0 14 -5 14 -15v-298l107 32c7 3 14 4 17 -5l18 -58
c3 -7 -3 -10 -10 -13l-132 -40v-237c0 -36 22 -43 42 -43z" />
    <glyph glyph-name="Nacute" unicode="&#x143;" horiz-adv-x="825" 
d="M205 599l8 -585c0 -7 -3 -14 -14 -14h-89c-11 0 -14 7 -14 14v711c0 7 5 14 14 14h161c11 0 20 -5 25 -16l292 -583h32l-8 585c0 7 3 14 14 14h89c11 0 14 -7 14 -14v-712c0 -7 -3 -13 -14 -13h-161c-11 0 -20 5 -25 16l-292 583h-32zM532 980l39 -50c3 -5 3 -9 -2 -13
l-147 -102c-5 -3 -11 -5 -15 2l-36 47c-4 5 -3 10 2 13l145 106c6 3 11 2 14 -3z" />
    <glyph glyph-name="nacute" unicode="&#x144;" horiz-adv-x="599" 
d="M531 389v-374c0 -10 -5 -15 -15 -15h-83c-11 0 -16 5 -16 15v359c0 63 -22 82 -82 82c-66 0 -132 -18 -148 -21v-420c0 -10 -5 -15 -15 -15h-83c-11 0 -16 5 -16 15v425c0 37 14 54 67 70c50 16 141 28 205 28c122 0 186 -34 186 -149zM377 762l39 -50c3 -5 3 -10 -2 -13
l-147 -102c-5 -3 -10 -3 -15 2l-36 47c-3 3 -3 10 2 13l145 105c5 4 10 3 14 -2z" />
    <glyph glyph-name="Ncommaaccent" unicode="&#x145;" horiz-adv-x="825" 
d="M205 599l8 -585c0 -7 -3 -14 -14 -14h-89c-11 0 -14 7 -14 14v711c0 7 5 14 14 14h161c11 0 20 -5 25 -16l292 -583h32l-8 585c0 7 3 14 14 14h89c11 0 14 -7 14 -14v-712c0 -7 -3 -13 -14 -13h-161c-11 0 -20 5 -25 16l-292 583h-32zM366 -213l29 148c3 9 10 15 21 15
h66c15 0 21 -12 16 -24l-59 -144c-3 -8 -10 -12 -19 -12h-39c-9 0 -18 6 -15 17z" />
    <glyph glyph-name="ncommaaccent" unicode="&#x146;" horiz-adv-x="599" 
d="M531 389v-374c0 -10 -5 -15 -15 -15h-83c-11 0 -16 5 -16 15v359c0 63 -22 82 -82 82c-66 0 -132 -18 -148 -21v-420c0 -10 -5 -15 -15 -15h-83c-11 0 -16 5 -16 15v425c0 37 14 54 67 70c50 16 141 28 205 28c122 0 186 -34 186 -149zM238 -213l29 148c3 9 10 15 21 15
h66c15 0 21 -12 16 -24l-59 -144c-3 -8 -10 -12 -19 -12h-39c-9 0 -18 6 -15 17z" />
    <glyph glyph-name="Ncaron" unicode="&#x147;" horiz-adv-x="825" 
d="M205 599l8 -585c0 -7 -3 -14 -14 -14h-89c-11 0 -14 7 -14 14v711c0 7 5 14 14 14h161c11 0 20 -5 25 -16l292 -583h32l-8 585c0 7 3 14 14 14h89c11 0 14 -7 14 -14v-712c0 -7 -3 -13 -14 -13h-161c-11 0 -20 5 -25 16l-292 583h-32zM420 812l-142 102c-4 3 -8 8 -3 13
l37 44c4 4 10 9 17 2l108 -86l108 86c5 5 11 4 17 -2l37 -44c4 -4 2 -10 -3 -13l-142 -102h-34z" />
    <glyph glyph-name="ncaron" unicode="&#x148;" horiz-adv-x="599" 
d="M531 389v-374c0 -10 -5 -15 -15 -15h-83c-11 0 -16 5 -16 15v359c0 63 -22 82 -82 82c-66 0 -132 -18 -148 -21v-420c0 -10 -5 -15 -15 -15h-83c-11 0 -16 5 -16 15v425c0 37 14 54 67 70c50 16 141 28 205 28c122 0 186 -34 186 -149zM422 754l37 -44c4 -4 2 -10 -2 -13
l-143 -102h-34l-142 102c-5 3 -6 8 -2 13l36 44c5 5 10 6 14 3l111 -87l111 87c5 4 10 3 14 -3z" />
    <glyph glyph-name="napostrophe" unicode="&#x149;" horiz-adv-x="852" 
d="M201 717l-65 -211c-3 -8 -9 -13 -16 -13h-55c-7 0 -16 7 -13 18l32 214c1 8 10 14 18 14h85c10 0 15 -5 15 -14c0 -3 0 -6 -1 -8zM784 389v-374c0 -10 -5 -15 -15 -15h-83c-11 0 -16 5 -16 15v359c0 63 -22 82 -82 82c-66 0 -132 -18 -148 -21v-420c0 -10 -5 -15 -15 -15
h-83c-11 0 -16 5 -16 15v425c0 37 14 54 67 70c50 16 141 28 205 28c122 0 186 -34 186 -149z" />
    <glyph glyph-name="Eng" unicode="&#x14a;" horiz-adv-x="825" 
d="M205 599l8 -585c0 -7 -3 -14 -14 -14h-89c-11 0 -14 7 -14 14v711c0 7 5 14 14 14h161c11 0 20 -5 25 -16l292 -583h32l-8 585c0 7 3 14 14 14h89c11 0 14 -7 14 -14v-737c0 -128 -67 -184 -228 -184h-27c-13 0 -20 6 -20 17v59c0 13 6 20 18 20l47 2c61 3 87 21 87 82
v16h-52c-11 0 -20 5 -25 16l-292 583h-32z" />
    <glyph glyph-name="eng" unicode="&#x14b;" horiz-adv-x="599" 
d="M531 389v-430c0 -120 -69 -155 -172 -155c-29 0 -50 1 -64 3c-7 1 -18 2 -18 17l1 46c0 13 7 15 16 15l35 1c59 3 88 9 88 77v411c0 63 -22 82 -82 82c-66 0 -132 -18 -148 -21v-420c0 -10 -5 -15 -15 -15h-83c-11 0 -16 5 -16 15v425c0 37 14 54 67 70
c50 16 141 28 205 28c122 0 186 -34 186 -149z" />
    <glyph glyph-name="Omacron" unicode="&#x14c;" horiz-adv-x="807" 
d="M746 370c0 -227 -56 -383 -342 -383c-288 0 -343 156 -343 383c0 226 55 382 343 382c286 0 342 -156 342 -382zM620 370c0 183 -20 288 -217 288s-216 -105 -216 -288c0 -184 19 -289 216 -289s217 106 217 289zM405 848c-56 0 -104 -17 -131 -24c-3 -1 -5 -1 -7 -1
c-6 0 -10 4 -11 11l-9 53c-1 5 3 9 11 12c27 11 86 25 146 25s120 -14 147 -25c8 -3 12 -8 11 -13l-9 -52c-1 -7 -5 -11 -11 -11c-1 0 -4 0 -7 1c-31 8 -74 24 -130 24z" />
    <glyph glyph-name="omacron" unicode="&#x14d;" horiz-adv-x="581" 
d="M534 262c0 -152 -26 -275 -243 -275s-244 123 -244 275c0 153 27 276 244 276s243 -123 243 -276zM417 262c0 123 -5 194 -126 194c-123 0 -127 -71 -127 -194s4 -193 127 -193c121 0 126 70 126 193zM292 630c-56 0 -104 -17 -131 -24c-3 -1 -5 -1 -7 -1
c-6 0 -10 4 -11 11l-9 53c-1 5 3 9 11 12c27 11 86 25 146 25s120 -14 147 -25c8 -3 12 -8 11 -13l-9 -52c-1 -7 -5 -11 -11 -11c-1 0 -4 0 -7 1c-31 8 -74 24 -130 24z" />
    <glyph glyph-name="Obreve" unicode="&#x14e;" horiz-adv-x="807" 
d="M746 370c0 -227 -56 -383 -342 -383c-288 0 -343 156 -343 383c0 226 55 382 343 382c286 0 342 -156 342 -382zM620 370c0 183 -20 288 -217 288s-216 -105 -216 -288c0 -184 19 -289 216 -289s217 106 217 289zM578 959c0 -112 -63 -146 -174 -146
c-112 0 -175 34 -175 146c0 7 3 14 12 14h47c9 0 12 -7 12 -14c1 -59 23 -84 104 -84c80 0 101 25 104 85c0 7 1 13 12 13h47c9 0 11 -7 11 -14z" />
    <glyph glyph-name="obreve" unicode="&#x14f;" horiz-adv-x="581" 
d="M534 262c0 -152 -26 -275 -243 -275s-244 123 -244 275c0 153 27 276 244 276s243 -123 243 -276zM417 262c0 123 -5 194 -126 194c-123 0 -127 -71 -127 -194s4 -193 127 -193c121 0 126 70 126 193zM465 741c0 -112 -63 -146 -174 -146c-112 0 -175 34 -175 146
c0 7 3 14 12 14h47c9 0 12 -7 12 -14c1 -59 23 -84 104 -84c80 0 101 25 104 85c0 7 1 13 12 13h47c9 0 11 -7 11 -14z" />
    <glyph glyph-name="Ohungarumlaut" unicode="&#x150;" horiz-adv-x="807" 
d="M746 370c0 -227 -56 -383 -342 -383c-288 0 -343 156 -343 383c0 226 55 382 343 382c286 0 342 -156 342 -382zM620 370c0 183 -20 288 -217 288s-216 -105 -216 -288c0 -184 19 -289 216 -289s217 106 217 289zM600 975l33 -43c4 -5 3 -10 -2 -14l-147 -103
c-6 -3 -11 -3 -15 2l-30 41c-4 5 -3 10 2 14l145 105c5 4 10 3 14 -2zM418 975l33 -43c4 -5 3 -10 -2 -14l-147 -103c-6 -3 -11 -3 -15 2l-30 41c-4 5 -3 10 2 14l145 105c5 4 10 3 14 -2z" />
    <glyph glyph-name="ohungarumlaut" unicode="&#x151;" horiz-adv-x="581" 
d="M534 262c0 -152 -26 -275 -243 -275s-244 123 -244 275c0 153 27 276 244 276s243 -123 243 -276zM417 262c0 123 -5 194 -126 194c-123 0 -127 -71 -127 -194s4 -193 127 -193c121 0 126 70 126 193zM478 757l33 -43c1 -3 2 -5 2 -6c0 -3 -1 -6 -4 -8l-147 -103
c-3 -1 -5 -2 -6 -2c-3 0 -6 1 -9 4l-30 41c-1 3 -2 5 -2 6c0 3 1 6 4 8l145 105c3 1 5 2 6 2c3 0 6 -1 8 -4zM296 757l33 -43c1 -3 2 -5 2 -6c0 -3 -1 -6 -4 -8l-147 -103c-3 -1 -5 -2 -6 -2c-3 0 -6 1 -9 4l-30 41c-1 3 -2 5 -2 6c0 3 1 6 4 8l145 105c3 1 5 2 6 2
c3 0 6 -1 8 -4z" />
    <glyph glyph-name="OE" unicode="&#x152;" horiz-adv-x="1102" 
d="M367 -13c-276 0 -306 193 -306 382c0 190 30 383 306 383c87 0 157 -28 201 -72v44c0 10 5 15 16 15h437c11 0 16 -5 16 -16v-65c0 -10 -5 -15 -16 -15h-342v-212h324c10 0 15 -5 15 -16v-66c0 -11 -5 -16 -15 -16h-324v-237h342c11 0 16 -5 16 -16v-64
c0 -11 -5 -16 -16 -16h-437c-11 0 -16 5 -16 16v42c-44 -43 -114 -71 -201 -71zM371 80c164 0 186 104 186 289c0 187 -22 290 -186 290s-184 -103 -184 -290c0 -185 21 -289 184 -289z" />
    <glyph glyph-name="oe" unicode="&#x153;" horiz-adv-x="938" 
d="M417 262c0 120 -5 194 -126 194c-123 0 -127 -74 -127 -194c0 -119 4 -193 127 -193c121 0 126 74 126 193zM524 282h251c0 35 -1 68 -9 99c-15 57 -48 76 -115 76c-73 0 -105 -20 -118 -75c-8 -31 -8 -65 -9 -100zM482 54h-12c-24 -32 -71 -67 -179 -67
c-217 0 -244 126 -244 275c0 150 27 276 244 276c106 0 150 -34 173 -65h12c24 32 70 65 176 65c104 0 164 -29 199 -81c31 -45 40 -108 40 -185v-48c0 -9 -6 -19 -18 -19h-347c0 -51 13 -77 37 -100c28 -27 69 -36 129 -36c62 0 98 11 142 24c11 3 18 0 20 -10l10 -45
c2 -9 -1 -15 -10 -20c-36 -15 -102 -31 -178 -31c-113 0 -168 33 -194 67z" />
    <glyph glyph-name="Racute" unicode="&#x154;" horiz-adv-x="769" 
d="M202 0h-89c-11 0 -17 5 -17 16v707c0 11 6 16 17 16h334c155 0 239 -57 239 -202c0 -100 -39 -166 -144 -182v-25c107 -16 146 -55 151 -170l8 -147c0 -9 -5 -13 -15 -13h-99c-9 0 -14 4 -14 13l-6 140c-5 101 -59 129 -164 132l-185 5v-274c0 -11 -5 -16 -16 -16z
M218 375l182 6c91 3 161 23 161 130c0 89 -32 136 -127 136h-216v-272zM450 980l39 -50c3 -5 3 -9 -2 -13l-147 -102c-5 -3 -11 -5 -15 2l-36 47c-4 5 -3 10 2 13l145 106c6 3 11 2 14 -3z" />
    <glyph glyph-name="racute" unicode="&#x155;" horiz-adv-x="368" 
d="M73 15v426c0 41 18 53 61 68s114 27 197 28c12 0 23 -2 23 -17v-57c0 -8 -2 -15 -14 -15c-63 0 -114 -5 -153 -16v-417c0 -10 -5 -15 -15 -15h-84c-10 0 -15 5 -15 15zM292 762l39 -50c3 -5 3 -10 -2 -13l-147 -102c-5 -3 -10 -3 -15 2l-36 47c-3 3 -3 10 2 13l145 105
c5 4 10 3 14 -2z" />
    <glyph glyph-name="Rcommaaccent" unicode="&#x156;" horiz-adv-x="769" 
d="M202 0h-89c-11 0 -17 5 -17 16v707c0 11 6 16 17 16h334c155 0 239 -57 239 -202c0 -100 -39 -166 -144 -182v-25c107 -16 146 -55 151 -170l8 -147c0 -9 -5 -13 -15 -13h-99c-9 0 -14 4 -14 13l-6 140c-5 101 -59 129 -164 132l-185 5v-274c0 -11 -5 -16 -16 -16z
M218 375l182 6c91 3 161 23 161 130c0 89 -32 136 -127 136h-216v-272zM331 -213l29 148c3 9 10 15 21 15h66c15 0 21 -12 16 -24l-59 -144c-3 -8 -10 -12 -19 -12h-39c-9 0 -18 6 -15 17z" />
    <glyph glyph-name="rcommaaccent" unicode="&#x157;" horiz-adv-x="368" 
d="M73 15v426c0 41 18 53 61 68s114 27 197 28c12 0 23 -2 23 -17v-57c0 -8 -2 -15 -14 -15c-63 0 -114 -5 -153 -16v-417c0 -10 -5 -15 -15 -15h-84c-10 0 -15 5 -15 15zM47 -213l29 148c3 9 10 15 21 15h66c15 0 21 -12 16 -24l-59 -144c-3 -8 -10 -12 -19 -12h-39
c-9 0 -18 6 -15 17z" />
    <glyph glyph-name="Rcaron" unicode="&#x158;" horiz-adv-x="769" 
d="M202 0h-89c-11 0 -17 5 -17 16v707c0 11 6 16 17 16h334c155 0 239 -57 239 -202c0 -100 -39 -166 -144 -182v-25c107 -16 146 -55 151 -170l8 -147c0 -9 -5 -13 -15 -13h-99c-9 0 -14 4 -14 13l-6 140c-5 101 -59 129 -164 132l-185 5v-274c0 -11 -5 -16 -16 -16z
M218 375l182 6c91 3 161 23 161 130c0 89 -32 136 -127 136h-216v-272zM340 812l-142 102c-4 3 -8 8 -3 13l37 44c4 4 10 9 17 2l108 -86l108 86c5 5 11 4 17 -2l37 -44c4 -4 2 -10 -3 -13l-142 -102h-34z" />
    <glyph glyph-name="rcaron" unicode="&#x159;" horiz-adv-x="368" 
d="M73 15v426c0 41 18 53 61 68s114 27 197 28c12 0 23 -2 23 -17v-57c0 -8 -2 -15 -14 -15c-63 0 -114 -5 -153 -16v-417c0 -10 -5 -15 -15 -15h-84c-10 0 -15 5 -15 15zM334 754l37 -44c4 -4 2 -10 -2 -13l-143 -102h-34l-142 102c-5 3 -6 8 -2 13l36 44c5 5 10 6 14 3
l111 -87l111 87c5 4 10 3 14 -3z" />
    <glyph glyph-name="Sacute" unicode="&#x15a;" horiz-adv-x="684" 
d="M623 214c0 -176 -144 -225 -291 -225c-125 0 -224 28 -243 36c-11 3 -15 11 -15 19c0 1 0 3 1 6l12 56c2 8 7 12 15 12c2 0 5 0 8 -1c21 -5 121 -33 222 -33c85 0 167 27 167 121c0 93 -79 102 -182 118c-111 16 -251 43 -251 212c0 172 133 215 281 215
c115 0 211 -26 233 -34c13 -5 18 -13 16 -24l-13 -58c-1 -7 -11 -12 -18 -11c-37 8 -117 31 -213 31c-77 0 -165 -16 -165 -107s90 -105 182 -118c118 -16 254 -31 254 -215zM436 980l39 -50c3 -5 3 -9 -2 -13l-147 -102c-5 -3 -11 -5 -15 2l-36 47c-4 5 -3 10 2 13l145 106
c6 3 11 2 14 -3z" />
    <glyph glyph-name="sacute" unicode="&#x15b;" horiz-adv-x="501" 
d="M457 154c0 -130 -100 -167 -217 -167c-87 0 -166 26 -181 32c-5 3 -12 7 -9 14l11 53c2 7 6 11 11 11c2 0 4 0 7 -1c11 -3 79 -26 154 -26c67 0 111 21 111 74c0 68 -48 64 -116 78c-71 11 -173 30 -173 156c0 137 122 160 210 160c84 0 147 -18 162 -22
c8 -2 12 -7 11 -15l-9 -54c-1 -7 -6 -10 -14 -9c-12 2 -81 17 -136 17c-56 0 -111 -14 -111 -69c0 -57 55 -65 116 -73c83 -13 173 -27 173 -159zM349 762l39 -50c3 -5 3 -10 -2 -13l-147 -102c-5 -3 -10 -3 -15 2l-36 47c-3 3 -3 10 2 13l145 105c5 4 10 3 14 -2z" />
    <glyph glyph-name="Scircumflex" unicode="&#x15c;" horiz-adv-x="684" 
d="M623 214c0 -176 -144 -225 -291 -225c-125 0 -224 28 -243 36c-11 3 -15 11 -15 19c0 1 0 3 1 6l12 56c2 8 7 12 15 12c2 0 5 0 8 -1c21 -5 121 -33 222 -33c85 0 167 27 167 121c0 93 -79 102 -182 118c-111 16 -251 43 -251 212c0 172 133 215 281 215
c115 0 211 -26 233 -34c13 -5 18 -13 16 -24l-13 -58c-1 -7 -11 -12 -18 -11c-37 8 -117 31 -213 31c-77 0 -165 -16 -165 -107s90 -105 182 -118c118 -16 254 -31 254 -215zM500 863l-37 -45c-3 -3 -7 -8 -14 -3l-111 87l-111 -87c-5 -3 -9 -2 -14 3l-36 45
c-3 3 -3 10 2 13l142 103h34l143 -103c5 -4 6 -8 2 -13z" />
    <glyph glyph-name="scircumflex" unicode="&#x15d;" horiz-adv-x="501" 
d="M457 154c0 -130 -100 -167 -217 -167c-87 0 -166 26 -181 32c-5 3 -12 7 -9 14l11 53c2 7 6 11 11 11c2 0 4 0 7 -1c11 -3 79 -26 154 -26c67 0 111 21 111 74c0 68 -48 64 -116 78c-71 11 -173 30 -173 156c0 137 122 160 210 160c84 0 147 -18 162 -22
c8 -2 12 -7 11 -15l-9 -54c-1 -7 -6 -10 -14 -9c-12 2 -81 17 -136 17c-56 0 -111 -14 -111 -69c0 -57 55 -65 116 -73c83 -13 173 -27 173 -159zM417 645l-37 -45c-3 -3 -7 -8 -14 -3l-111 87l-111 -87c-5 -3 -9 -2 -14 3l-36 45c-3 3 -3 10 2 13l142 102h34l143 -102
c5 -4 6 -8 2 -13z" />
    <glyph glyph-name="Scedilla" unicode="&#x15e;" horiz-adv-x="684" 
d="M623 214c0 -176 -144 -225 -291 -225c-125 0 -224 28 -243 36c-11 3 -15 11 -15 19c0 1 0 3 1 6l12 56c2 8 7 12 15 12c2 0 5 0 8 -1c21 -5 121 -33 222 -33c85 0 167 27 167 121c0 93 -79 102 -182 118c-111 16 -251 43 -251 212c0 172 133 215 281 215
c115 0 211 -26 233 -34c13 -5 18 -13 16 -24l-13 -58c-1 -7 -11 -12 -18 -11c-37 8 -117 31 -213 31c-77 0 -165 -16 -165 -107s90 -105 182 -118c118 -16 254 -31 254 -215zM346 -31c58 0 103 -23 103 -84s-45 -84 -104 -84c-43 0 -69 6 -76 9c-6 2 -9 6 -9 12v29
c0 7 4 10 12 8c9 -3 31 -8 56 -8c23 0 42 7 42 34c0 28 -19 34 -43 34c-15 0 -27 -1 -39 -4c-7 -1 -10 1 -10 6v31c0 6 3 10 9 11c11 3 28 6 59 6z" />
    <glyph glyph-name="scedilla" unicode="&#x15f;" horiz-adv-x="501" 
d="M457 154c0 -130 -100 -167 -217 -167c-87 0 -166 26 -181 32c-5 3 -12 7 -9 14l11 53c2 7 6 11 11 11c2 0 4 0 7 -1c11 -3 79 -26 154 -26c67 0 111 21 111 74c0 68 -48 64 -116 78c-71 11 -173 30 -173 156c0 137 122 160 210 160c84 0 147 -18 162 -22
c8 -2 12 -7 11 -15l-9 -54c-1 -7 -6 -10 -14 -9c-12 2 -81 17 -136 17c-56 0 -111 -14 -111 -69c0 -57 55 -65 116 -73c83 -13 173 -27 173 -159zM254 -31c58 0 103 -23 103 -84s-45 -84 -104 -84c-43 0 -69 6 -76 9c-6 2 -9 6 -9 12v29c0 7 4 10 12 8c9 -3 31 -8 56 -8
c23 0 42 7 42 34c0 28 -19 34 -43 34c-15 0 -27 -1 -39 -4c-7 -1 -10 1 -10 6v31c0 6 3 10 9 11c11 3 28 6 59 6z" />
    <glyph glyph-name="Scaron" unicode="&#x160;" horiz-adv-x="684" 
d="M623 214c0 -176 -144 -225 -291 -225c-125 0 -224 28 -243 36c-11 3 -15 11 -15 19c0 1 0 3 1 6l12 56c2 8 7 12 15 12c2 0 5 0 8 -1c21 -5 121 -33 222 -33c85 0 167 27 167 121c0 93 -79 102 -182 118c-111 16 -251 43 -251 212c0 172 133 215 281 215
c115 0 211 -26 233 -34c13 -5 18 -13 16 -24l-13 -58c-1 -7 -11 -12 -18 -11c-37 8 -117 31 -213 31c-77 0 -165 -16 -165 -107s90 -105 182 -118c118 -16 254 -31 254 -215zM342 812l-142 102c-4 3 -8 8 -3 13l37 44c4 4 10 9 17 2l108 -86l108 86c5 5 11 4 17 -2l37 -44
c4 -4 2 -10 -3 -13l-142 -102h-34z" />
    <glyph glyph-name="scaron" unicode="&#x161;" horiz-adv-x="501" 
d="M457 154c0 -130 -100 -167 -217 -167c-87 0 -166 26 -181 32c-5 3 -12 7 -9 14l11 53c2 7 6 11 11 11c2 0 4 0 7 -1c11 -3 79 -26 154 -26c67 0 111 21 111 74c0 68 -48 64 -116 78c-71 11 -173 30 -173 156c0 137 122 160 210 160c84 0 147 -18 162 -22
c8 -2 12 -7 11 -15l-9 -54c-1 -7 -6 -10 -14 -9c-12 2 -81 17 -136 17c-56 0 -111 -14 -111 -69c0 -57 55 -65 116 -73c83 -13 173 -27 173 -159zM383 754l37 -44c4 -4 2 -10 -2 -13l-143 -102h-34l-142 102c-5 3 -6 8 -2 13l36 44c5 5 10 6 14 3l111 -87l111 87
c5 4 10 3 14 -3z" />
    <glyph glyph-name="Tcommaaccent" unicode="&#x162;" horiz-adv-x="644" 
d="M634 723v-65c0 -8 -7 -15 -16 -15h-235v-628c0 -8 -7 -15 -16 -15h-89c-9 0 -16 7 -16 15v628h-236c-11 0 -16 5 -16 16v64c0 11 5 16 16 16h592c11 0 16 -5 16 -16zM324 -31c58 0 103 -23 103 -84s-45 -84 -104 -84c-43 0 -69 6 -76 9c-6 2 -9 6 -9 12v29c0 7 4 10 12 8
c9 -3 31 -8 56 -8c23 0 42 7 42 34c0 28 -19 34 -43 34c-15 0 -27 -1 -39 -4c-7 -1 -10 1 -10 6v31c0 6 3 10 9 11c11 3 28 6 59 6z" />
    <glyph glyph-name="tcommaaccent" unicode="&#x163;" horiz-adv-x="395" 
d="M358 75l10 -46c3 -13 -2 -18 -10 -21c-19 -7 -61 -18 -124 -18c-108 0 -161 42 -161 150v528c0 9 5 15 16 17l81 17c12 3 17 -6 17 -15v-162h152c10 0 15 -5 15 -15v-55c0 -10 -5 -15 -15 -15h-152v-301c0 -48 22 -65 74 -65c31 0 63 7 82 11c8 2 13 -1 15 -10zM193 -31
c58 0 103 -23 103 -84s-45 -84 -104 -84c-43 0 -69 6 -76 9c-6 2 -9 6 -9 12v29c0 7 4 10 12 8c9 -3 31 -8 56 -8c23 0 42 7 42 34c0 28 -19 34 -43 34c-15 0 -27 -1 -39 -4c-7 -1 -10 1 -10 6v31c0 6 3 10 9 11c11 3 28 6 59 6z" />
    <glyph glyph-name="Tcaron" unicode="&#x164;" horiz-adv-x="644" 
d="M634 723v-65c0 -8 -7 -15 -16 -15h-235v-628c0 -8 -7 -15 -16 -15h-89c-9 0 -16 7 -16 15v628h-236c-11 0 -16 5 -16 16v64c0 11 5 16 16 16h592c11 0 16 -5 16 -16zM306 812l-142 102c-4 3 -8 8 -3 13l37 44c4 4 10 9 17 2l108 -86l108 86c5 5 11 4 17 -2l37 -44
c4 -4 2 -10 -3 -13l-142 -102h-34z" />
    <glyph glyph-name="tcaron" unicode="&#x165;" horiz-adv-x="397" 
d="M358 75l10 -46c3 -13 -2 -18 -10 -21c-19 -7 -61 -18 -124 -18c-108 0 -161 42 -161 150v528c0 9 5 15 16 17l81 17c12 3 17 -6 17 -15v-162h152c10 0 15 -5 15 -15v-55c0 -10 -5 -15 -15 -15h-152v-301c0 -48 22 -65 74 -65c31 0 63 7 82 11c8 2 13 -1 15 -10zM287 583
l29 148c3 9 10 15 21 15h66c15 0 21 -12 16 -24l-59 -144c-3 -8 -10 -12 -19 -12h-39c-9 0 -18 6 -15 17z" />
    <glyph glyph-name="Tbar" unicode="&#x166;" horiz-adv-x="644" 
d="M634 723v-65c0 -8 -7 -15 -16 -15h-235v-227h87c11 0 18 -8 18 -17v-56c0 -11 -9 -17 -18 -17h-87v-311c0 -8 -7 -15 -16 -15h-89c-9 0 -16 7 -16 15v311h-86c-9 0 -19 6 -19 17v56c0 9 8 17 19 17h86v227h-236c-11 0 -16 5 -16 16v64c0 11 5 16 16 16h592
c11 0 16 -5 16 -16z" />
    <glyph glyph-name="tbar" unicode="&#x167;" horiz-adv-x="395" 
d="M358 75l10 -46c3 -13 -2 -18 -10 -21c-19 -7 -61 -18 -124 -18c-108 0 -161 42 -161 150v528c0 9 5 15 16 17l81 17c12 3 17 -6 17 -15v-162h152c10 0 15 -5 15 -15v-55c0 -10 -5 -15 -15 -15h-152v-135h152c10 0 15 -5 15 -15v-55c0 -10 -5 -15 -15 -15h-152v-81
c0 -48 22 -65 74 -65c31 0 63 7 82 11c8 2 13 -1 15 -10z" />
    <glyph glyph-name="Utilde" unicode="&#x168;" horiz-adv-x="786" 
d="M700 738v-474c0 -163 -63 -277 -307 -277c-222 0 -307 91 -307 273v465c0 7 5 12 14 13l94 14c11 1 14 -7 14 -14v-485c0 -109 34 -172 186 -172c129 0 184 47 184 159v485c0 7 5 12 14 13l94 14c11 3 14 -7 14 -14zM543 923l22 -43c3 -5 2 -11 -4 -17
c-19 -16 -64 -50 -104 -50c-23 0 -46 10 -67 21l-31 15c-10 5 -20 8 -30 8c-24 0 -48 -19 -69 -35c-5 -5 -12 -6 -17 2l-23 44c-3 7 -3 9 4 16c20 17 63 50 105 50c24 0 46 -10 66 -21c21 -11 42 -23 61 -23c25 0 49 19 69 36c3 3 6 4 9 4s6 -2 9 -7z" />
    <glyph glyph-name="utilde" unicode="&#x169;" horiz-adv-x="594" 
d="M526 523v-336c0 -115 -41 -200 -229 -200c-167 0 -229 63 -229 199v318c0 10 5 16 16 18l81 16c12 3 17 -6 17 -15v-344c0 -76 26 -111 115 -111c104 0 115 51 115 112v324c0 10 5 16 16 18l81 16c12 3 17 -6 17 -15zM442 705l22 -43c3 -5 2 -11 -4 -17
c-19 -16 -64 -50 -104 -50c-23 0 -46 10 -67 21l-31 15c-10 5 -20 8 -30 8c-24 0 -49 -18 -69 -35c-5 -5 -12 -6 -17 2l-23 44c-3 7 -3 9 4 16c20 17 63 50 105 50c24 0 46 -10 66 -21c21 -11 42 -22 61 -23c25 0 49 19 69 36c3 3 6 4 9 4s6 -2 9 -7z" />
    <glyph glyph-name="Umacron" unicode="&#x16a;" horiz-adv-x="786" 
d="M700 738v-474c0 -163 -63 -277 -307 -277c-222 0 -307 91 -307 273v465c0 7 5 12 14 13l94 14c11 1 14 -7 14 -14v-485c0 -109 34 -172 186 -172c129 0 184 47 184 159v485c0 7 5 12 14 13l94 14c11 3 14 -7 14 -14zM393 848c-56 0 -104 -17 -131 -24c-3 -1 -5 -1 -7 -1
c-6 0 -10 4 -11 11l-9 53c-1 5 3 9 11 12c27 11 86 25 146 25s120 -14 147 -25c8 -3 12 -8 11 -13l-9 -52c-1 -7 -5 -11 -11 -11c-1 0 -4 0 -7 1c-31 8 -74 24 -130 24z" />
    <glyph glyph-name="umacron" unicode="&#x16b;" horiz-adv-x="594" 
d="M526 523v-336c0 -115 -41 -200 -229 -200c-167 0 -229 63 -229 199v318c0 10 5 16 16 18l81 16c12 3 17 -6 17 -15v-344c0 -76 26 -111 115 -111c104 0 115 51 115 112v324c0 10 5 16 16 18l81 16c12 3 17 -6 17 -15zM293 630c-56 0 -104 -17 -131 -24c-3 -1 -5 -1 -7 -1
c-6 0 -10 4 -11 11l-9 53c-1 5 3 9 11 12c27 11 86 25 146 25s120 -14 147 -25c8 -3 12 -8 11 -13l-9 -52c-1 -7 -5 -11 -11 -11c-1 0 -4 0 -7 1c-31 8 -74 24 -130 24z" />
    <glyph glyph-name="Ubreve" unicode="&#x16c;" horiz-adv-x="786" 
d="M700 738v-474c0 -163 -63 -277 -307 -277c-222 0 -307 91 -307 273v465c0 7 5 12 14 13l94 14c11 1 14 -7 14 -14v-485c0 -109 34 -172 186 -172c129 0 184 47 184 159v485c0 7 5 12 14 13l94 14c11 3 14 -7 14 -14zM568 959c0 -112 -63 -146 -174 -146
c-112 0 -175 34 -175 146c0 7 3 14 12 14h47c9 0 12 -7 12 -14c1 -59 23 -84 104 -84c80 0 101 25 104 85c0 7 1 13 12 13h47c9 0 11 -7 11 -14z" />
    <glyph glyph-name="ubreve" unicode="&#x16d;" horiz-adv-x="594" 
d="M526 523v-336c0 -115 -41 -200 -229 -200c-167 0 -229 63 -229 199v318c0 10 5 16 16 18l81 16c12 3 17 -6 17 -15v-344c0 -76 26 -111 115 -111c104 0 115 51 115 112v324c0 10 5 16 16 18l81 16c12 3 17 -6 17 -15zM472 741c0 -112 -63 -146 -174 -146
c-112 0 -175 34 -175 146c0 7 3 14 12 14h47c9 0 12 -7 12 -14c1 -59 23 -84 104 -84c80 0 101 25 104 85c0 7 1 13 12 13h47c9 0 11 -7 11 -14z" />
    <glyph glyph-name="Uring" unicode="&#x16e;" horiz-adv-x="786" 
d="M700 738v-474c0 -163 -63 -277 -307 -277c-222 0 -307 91 -307 273v465c0 7 5 12 14 13l94 14c11 1 14 -7 14 -14v-485c0 -109 34 -172 186 -172c129 0 184 47 184 159v485c0 7 5 12 14 13l94 14c11 3 14 -7 14 -14zM532 910c0 -87 -48 -117 -137 -117s-138 30 -138 117
s49 116 138 116s137 -29 137 -116zM450 910c0 49 -10 70 -55 70s-56 -22 -56 -71c0 -48 11 -70 56 -70s55 22 55 71z" />
    <glyph glyph-name="uring" unicode="&#x16f;" horiz-adv-x="594" 
d="M526 523v-336c0 -115 -41 -200 -229 -200c-167 0 -229 63 -229 199v318c0 10 5 16 16 18l81 16c12 3 17 -6 17 -15v-344c0 -76 26 -111 115 -111c104 0 115 51 115 112v324c0 10 5 16 16 18l81 16c12 3 17 -6 17 -15zM424 683c0 -80 -44 -108 -127 -108
c-81 0 -126 28 -126 108s45 107 126 107c83 0 127 -27 127 -107zM348 683c0 45 -8 65 -51 65c-41 0 -51 -21 -51 -66c0 -44 10 -64 51 -64c43 0 51 20 51 65z" />
    <glyph glyph-name="Uhungarumlaut" unicode="&#x170;" horiz-adv-x="786" 
d="M700 738v-474c0 -163 -63 -277 -307 -277c-222 0 -307 91 -307 273v465c0 7 5 12 14 13l94 14c11 1 14 -7 14 -14v-485c0 -109 34 -172 186 -172c129 0 184 47 184 159v485c0 7 5 12 14 13l94 14c11 3 14 -7 14 -14zM586 975l33 -43c4 -5 3 -10 -2 -14l-147 -103
c-6 -3 -11 -3 -15 2l-30 41c-4 5 -3 10 2 14l145 105c5 4 10 3 14 -2zM404 975l33 -43c4 -5 3 -10 -2 -14l-147 -103c-6 -3 -11 -3 -15 2l-30 41c-4 5 -3 10 2 14l145 105c5 4 10 3 14 -2z" />
    <glyph glyph-name="uhungarumlaut" unicode="&#x171;" horiz-adv-x="594" 
d="M526 523v-336c0 -115 -41 -200 -229 -200c-167 0 -229 63 -229 199v318c0 10 5 16 16 18l81 16c12 3 17 -6 17 -15v-344c0 -76 26 -111 115 -111c104 0 115 51 115 112v324c0 10 5 16 16 18l81 16c12 3 17 -6 17 -15zM496 757l33 -43c1 -3 2 -5 2 -6c0 -3 -1 -6 -4 -8
l-147 -103c-3 -1 -5 -2 -6 -2c-3 0 -6 1 -9 4l-30 41c-1 3 -2 5 -2 6c0 3 1 6 4 8l145 105c3 1 5 2 6 2c3 0 6 -1 8 -4zM314 757l33 -43c1 -3 2 -5 2 -6c0 -3 -1 -6 -4 -8l-147 -103c-3 -1 -5 -2 -6 -2c-3 0 -6 1 -9 4l-30 41c-1 3 -2 5 -2 6c0 3 1 6 4 8l145 105
c3 1 5 2 6 2c3 0 6 -1 8 -4z" />
    <glyph glyph-name="Uogonek" unicode="&#x172;" horiz-adv-x="786" 
d="M700 738v-474c0 -155 -57 -265 -272 -276c-25 -21 -37 -46 -37 -75c0 -37 25 -49 65 -49c20 0 38 4 53 7c8 2 13 -1 15 -8l7 -40c3 -9 -2 -12 -10 -15c-15 -7 -43 -12 -82 -12c-68 0 -134 24 -134 98c0 44 21 71 50 94c-195 11 -269 99 -269 272v465c0 7 5 12 14 13
l94 14c11 1 14 -7 14 -14v-485c0 -109 34 -172 186 -172c129 0 184 47 184 159v485c0 7 5 12 14 13l94 14c11 3 14 -7 14 -14z" />
    <glyph glyph-name="uogonek" unicode="&#x173;" horiz-adv-x="594" 
d="M526 523v-336c0 -108 -36 -188 -195 -199c-25 -21 -37 -46 -37 -75c0 -37 25 -49 65 -49c20 0 38 4 53 7c8 2 13 -1 15 -8l7 -40c3 -9 -2 -12 -10 -15c-15 -7 -43 -12 -82 -12c-68 0 -134 24 -134 98c0 44 20 71 51 94c-139 9 -191 71 -191 198v318c0 10 5 16 16 18
l81 16c12 3 17 -6 17 -15v-344c0 -76 26 -111 115 -111c104 0 115 51 115 112v324c0 10 5 16 16 18l81 16c12 3 17 -6 17 -15z" />
    <glyph glyph-name="Wcircumflex" unicode="&#x174;" horiz-adv-x="1055" 
d="M747 98h33l114 624c3 15 8 17 19 17h92c9 0 17 -5 14 -20l-146 -704c-2 -10 -9 -15 -20 -15h-179c-12 0 -17 7 -20 15l-118 531h-15l-118 -531c-3 -8 -7 -15 -20 -15h-180c-12 0 -19 5 -21 15l-146 704c-3 11 5 20 14 20h96c8 0 16 -2 19 -17l114 -624h33l122 551
c2 11 8 16 19 16h154c10 0 16 -5 18 -16zM690 863l-37 -45c-3 -3 -7 -8 -14 -3l-111 87l-111 -87c-5 -3 -9 -2 -14 3l-36 45c-3 3 -3 10 2 13l142 103h34l143 -103c5 -4 6 -8 2 -13z" />
    <glyph glyph-name="wcircumflex" unicode="&#x175;" horiz-adv-x="825" 
d="M304 0h-157c-11 0 -17 5 -19 16l-100 487c-3 11 1 22 14 22h88c9 0 15 -5 17 -15l71 -412h23l84 365c3 11 10 17 22 17h134c11 0 19 -4 22 -17l84 -365h23l71 412c2 10 8 15 17 15h85c15 0 17 -10 14 -22l-100 -487c-2 -11 -8 -16 -19 -16h-152c-11 0 -18 5 -20 15
l-85 361h-13l-85 -361c-2 -10 -8 -15 -19 -15zM577 645l-37 -45c-3 -3 -7 -8 -14 -3l-111 87l-111 -87c-5 -3 -9 -2 -14 3l-36 45c-3 3 -3 10 2 13l142 102h34l143 -102c5 -4 6 -8 2 -13z" />
    <glyph glyph-name="Ycircumflex" unicode="&#x176;" horiz-adv-x="677" 
d="M401 294v-279c0 -8 -8 -15 -17 -15h-89c-9 0 -16 7 -16 15v279l-277 425c-1 2 -2 4 -2 7c0 9 4 13 13 13h111c8 0 14 -4 19 -13l203 -332l198 333c5 9 8 12 19 12h102c9 0 15 -12 11 -20zM496 863l-37 -45c-3 -3 -7 -8 -14 -3l-111 87l-111 -87c-5 -3 -9 -2 -14 3l-36 45
c-3 3 -3 10 2 13l142 103h34l143 -103c5 -4 6 -8 2 -13z" />
    <glyph glyph-name="ycircumflex" unicode="&#x177;" horiz-adv-x="545" 
d="M520 506l-173 -574c-29 -93 -61 -142 -179 -142c-49 0 -67 2 -84 6c-9 2 -13 7 -13 14l1 53c0 7 3 15 14 14c13 -1 40 -2 59 -2c51 0 77 12 92 63l18 62h-56c-10 0 -17 5 -20 16l-154 489c-4 11 6 20 15 20h87c9 0 16 -5 19 -15l120 -435h26l109 435c3 10 9 15 20 15h84
c11 0 16 -4 16 -13c0 -2 0 -4 -1 -6zM433 645l-37 -45c-3 -3 -7 -8 -14 -3l-111 87l-111 -87c-5 -3 -9 -2 -14 3l-36 45c-3 3 -3 10 2 13l142 102h34l143 -102c5 -4 6 -8 2 -13z" />
    <glyph glyph-name="Ydieresis" unicode="&#x178;" horiz-adv-x="677" 
d="M401 294v-279c0 -8 -8 -15 -17 -15h-89c-9 0 -16 7 -16 15v279l-277 425c-1 2 -2 4 -2 7c0 9 4 13 13 13h111c8 0 14 -4 19 -13l203 -332l198 333c5 9 8 12 19 12h102c9 0 15 -12 11 -20zM514 911v-65c0 -9 -5 -13 -14 -13h-106c-10 0 -15 4 -15 13v65c0 7 6 12 15 12
h106c8 0 14 -5 14 -12zM303 911v-65c0 -9 -5 -13 -14 -13h-106c-8 0 -15 6 -15 13v65c0 7 7 12 15 12h106c8 0 14 -5 14 -12z" />
    <glyph glyph-name="Zacute" unicode="&#x179;" horiz-adv-x="669" 
d="M623 81v-65c0 -11 -5 -16 -15 -16h-542c-9 0 -16 7 -16 15v61c0 19 4 20 11 29l403 538h-402c-11 0 -16 5 -16 16v64c0 11 5 16 16 16h535c10 0 15 -5 15 -16v-68c0 -11 -2 -15 -7 -22l-409 -536h412c8 0 15 -7 15 -16zM434 980l39 -50c3 -5 3 -9 -2 -13l-147 -102
c-5 -3 -11 -5 -15 2l-36 47c-4 5 -3 10 2 13l145 106c6 3 11 2 14 -3z" />
    <glyph glyph-name="zacute" unicode="&#x17a;" horiz-adv-x="503" 
d="M446 0h-380c-9 0 -14 5 -14 14v55c0 9 2 13 7 20l259 351h-262c-9 0 -14 4 -14 13v58c0 9 5 14 14 14h383c9 0 14 -5 14 -14v-54c0 -7 0 -11 -7 -19l-260 -352h260c10 0 15 -5 15 -14v-58c0 -9 -5 -14 -15 -14zM350 762l39 -50c3 -5 3 -10 -2 -13l-147 -102
c-5 -3 -10 -3 -15 2l-36 47c-3 3 -3 10 2 13l145 105c5 4 10 3 14 -2z" />
    <glyph glyph-name="Zdotaccent" unicode="&#x17b;" horiz-adv-x="669" 
d="M623 81v-65c0 -11 -5 -16 -15 -16h-542c-9 0 -16 7 -16 15v61c0 19 4 20 11 29l403 538h-402c-11 0 -16 5 -16 16v64c0 11 5 16 16 16h535c10 0 15 -5 15 -16v-68c0 -11 -2 -15 -7 -22l-409 -536h412c8 0 15 -7 15 -16zM406 917v-68c0 -9 -7 -16 -18 -16h-109
c-13 0 -19 5 -19 16v68c0 11 6 16 19 16h109c11 0 18 -7 18 -16z" />
    <glyph glyph-name="zdotaccent" unicode="&#x17c;" horiz-adv-x="503" 
d="M446 0h-380c-9 0 -14 5 -14 14v55c0 9 2 13 7 20l259 351h-262c-9 0 -14 4 -14 13v58c0 9 5 14 14 14h383c9 0 14 -5 14 -14v-54c0 -7 0 -11 -7 -19l-260 -352h260c10 0 15 -5 15 -14v-58c0 -9 -5 -14 -15 -14zM334 699v-68c0 -9 -7 -16 -18 -16h-109c-13 0 -19 5 -19 16
v68c0 11 6 16 19 16h109c11 0 18 -7 18 -16z" />
    <glyph glyph-name="Zcaron" unicode="&#x17d;" horiz-adv-x="669" 
d="M623 81v-65c0 -11 -5 -16 -15 -16h-542c-9 0 -16 7 -16 15v61c0 19 4 20 11 29l403 538h-402c-11 0 -16 5 -16 16v64c0 11 5 16 16 16h535c10 0 15 -5 15 -16v-68c0 -11 -2 -15 -7 -22l-409 -536h412c8 0 15 -7 15 -16zM315 812l-142 102c-4 3 -8 8 -3 13l37 44
c4 4 10 9 17 2l108 -86l108 86c5 5 11 4 17 -2l37 -44c4 -4 2 -10 -3 -13l-142 -102h-34z" />
    <glyph glyph-name="zcaron" unicode="&#x17e;" horiz-adv-x="503" 
d="M446 0h-380c-9 0 -14 5 -14 14v55c0 9 2 13 7 20l259 351h-262c-9 0 -14 4 -14 13v58c0 9 5 14 14 14h383c9 0 14 -5 14 -14v-54c0 -7 0 -11 -7 -19l-260 -352h260c10 0 15 -5 15 -14v-58c0 -9 -5 -14 -15 -14zM373 754l37 -44c4 -4 2 -10 -2 -13l-143 -102h-34l-142 102
c-5 3 -6 8 -2 13l36 44c5 5 10 6 14 3l111 -87l111 87c5 4 10 3 14 -3z" />
    <glyph glyph-name="longs" unicode="&#x17f;" horiz-adv-x="391" 
d="M402 720l-7 -50c-1 -8 -4 -15 -15 -12c-17 3 -52 10 -85 10c-25 0 -44 -2 -56 -13c-12 -9 -18 -26 -18 -49v-591c0 -10 -5 -15 -15 -15h-82c-11 0 -16 5 -16 15v425h-78c-10 0 -15 5 -15 15v55c0 10 5 15 15 15h78v79c0 101 49 148 157 148c63 0 106 -9 125 -16
c9 -3 13 -9 12 -16z" />
    <glyph glyph-name="uni018F" unicode="&#x18f;" horiz-adv-x="805" 
d="M392 657c-116 0 -199 -32 -220 -37c-11 -1 -18 2 -20 11l-12 62c-1 9 4 16 15 21c18 8 118 38 255 38c255 0 334 -122 334 -383c0 -228 -46 -382 -332 -382c-288 0 -333 154 -333 382v24c0 16 6 33 30 33h505c-3 157 -49 231 -222 231zM617 334h-412
c3 -166 24 -255 206 -255c184 0 203 91 206 255z" />
    <glyph glyph-name="florin" unicode="&#x192;" horiz-adv-x="704" 
d="M560 727l-11 -51c-2 -8 -6 -12 -12 -12l-8 1c-17 3 -29 4 -48 4c-71 0 -78 -27 -89 -87l-17 -101h126c8 0 12 -3 12 -9c0 -2 0 -5 -1 -8l-11 -55c-2 -9 -7 -13 -14 -13h-127l-106 -590c-1 -7 -7 -12 -14 -12h-83c-9 0 -14 3 -14 10v3c0 1 0 3 1 6l105 583h-82
c-7 0 -15 3 -12 12l12 60c2 9 7 13 14 13h84l19 108c21 117 57 163 188 163c35 0 69 -7 76 -10c8 -3 15 -7 12 -15z" />
    <glyph glyph-name="uni01B5" unicode="&#x1b5;" horiz-adv-x="669" 
d="M623 81v-65c0 -11 -5 -16 -15 -16h-542c-9 0 -16 7 -16 15v61c0 19 4 20 11 29l166 222h-77c-9 0 -19 6 -19 17v56c0 9 8 17 19 17h145l169 226h-402c-11 0 -16 5 -16 16v64c0 11 5 16 16 16h535c10 0 15 -5 15 -16v-68c0 -11 -2 -15 -7 -22l-165 -216h80
c11 0 18 -8 18 -17v-56c0 -11 -9 -17 -18 -17h-149l-175 -230h412c8 0 15 -7 15 -16z" />
    <glyph glyph-name="uni01B6" unicode="&#x1b6;" horiz-adv-x="503" 
d="M159 225h-65c-11 0 -18 6 -18 17v47c0 11 7 17 18 17h125l99 134h-262c-9 0 -14 4 -14 13v58c0 9 5 14 14 14h383c9 0 14 -5 14 -14v-54c0 -7 0 -12 -7 -19l-98 -132h76c11 0 18 -6 18 -17v-47c0 -11 -7 -17 -18 -17h-136l-102 -139h260c10 0 15 -5 15 -14v-58
c0 -9 -5 -14 -15 -14h-380c-9 0 -14 5 -14 14v55c0 9 2 13 7 20z" />
    <glyph glyph-name="Aringacute" unicode="&#x1fa;" horiz-adv-x="778" 
d="M296 739h186c8 0 14 -4 17 -12l260 -709c3 -8 1 -18 -10 -18h-106c-7 0 -12 4 -15 12l-93 264h-300l-93 -264c-3 -8 -9 -12 -16 -12h-96c-11 0 -14 7 -11 18l260 709c3 8 8 12 17 12zM265 368h240l-100 285h-39zM524 910c0 -87 -48 -117 -137 -117s-138 30 -138 117
s49 116 138 116s137 -29 137 -116zM442 910c0 49 -10 70 -55 70s-56 -22 -56 -71c0 -48 11 -70 56 -70s55 22 55 71zM448 1217l39 -50c3 -5 3 -9 -2 -13l-147 -102c-5 -3 -11 -5 -15 2l-36 47c-4 5 -3 10 2 13l145 106c6 3 11 2 14 -3z" />
    <glyph glyph-name="aringacute" unicode="&#x1fb;" horiz-adv-x="576" 
d="M508 382v-277c0 -73 -20 -88 -89 -104c-33 -8 -79 -14 -135 -14c-100 0 -237 7 -237 168c0 131 78 141 166 157l182 30v37c0 31 -2 52 -31 64c-16 7 -43 10 -82 10c-72 0 -142 -20 -175 -28c-3 -1 -6 -1 -7 -1c-4 0 -9 2 -12 9l-12 55c-3 11 4 14 11 17
c28 9 117 33 215 33c72 0 118 -10 149 -27c52 -29 57 -76 57 -129zM395 263l-152 -25c-41 -8 -80 -12 -80 -81c0 -85 71 -92 124 -92c41 0 77 5 108 16v182zM427 683c0 -80 -44 -108 -127 -108c-81 0 -126 28 -126 108s45 107 126 107c83 0 127 -27 127 -107zM351 683
c0 45 -8 65 -51 65c-41 0 -51 -21 -51 -66c0 -44 10 -64 51 -64c43 0 51 20 51 65zM362 978l39 -50c3 -5 3 -9 -2 -13l-147 -102c-5 -3 -11 -5 -15 2l-36 47c-4 5 -3 10 2 13l145 106c6 3 11 2 14 -3z" />
    <glyph glyph-name="AEacute" unicode="&#x1fc;" horiz-adv-x="965" 
d="M124 0h-94c-11 0 -14 7 -11 18l259 709c3 7 10 12 17 12h588c11 0 17 -5 17 -16v-64c0 -11 -6 -16 -17 -16h-293v-212h272c10 0 15 -5 15 -15v-65c0 -11 -5 -16 -15 -16h-272v-239h294c11 0 16 -5 16 -15v-65c0 -11 -5 -16 -16 -16h-399c-9 0 -17 7 -17 16v260h-234
l-94 -264c-2 -8 -7 -12 -16 -12zM468 368v280h-105l-99 -280h204zM607 980l39 -50c3 -5 3 -9 -2 -13l-147 -102c-5 -3 -11 -5 -15 2l-36 47c-4 5 -3 10 2 13l145 106c6 3 11 2 14 -3z" />
    <glyph glyph-name="aeacute" unicode="&#x1fd;" horiz-adv-x="941" 
d="M266 -13c-131 0 -219 39 -219 163c0 143 108 160 215 160h156v20c-3 108 -52 124 -138 124c-78 0 -142 -20 -167 -26c-11 -2 -17 1 -19 9l-10 55c-3 11 3 14 12 18c31 11 105 27 190 27c104 0 159 -22 186 -81h12c35 56 82 82 187 82c170 0 223 -84 223 -256v-31
c0 -11 -5 -21 -21 -21h-348c0 -107 42 -160 161 -160c76 0 124 18 148 25c11 2 17 -1 19 -9l10 -53c3 -11 -2 -15 -11 -19c-31 -11 -87 -27 -171 -27c-95 0 -169 23 -204 97h-10c-37 -74 -112 -97 -201 -97zM279 63c49 0 83 9 106 36c23 24 34 57 34 132h-146
c-53 0 -112 -3 -112 -79c0 -67 42 -89 118 -89zM526 309h254c0 101 -25 151 -126 151c-100 0 -128 -55 -128 -151zM577 762l39 -50c3 -5 3 -10 -2 -13l-147 -102c-5 -3 -10 -3 -15 2l-36 47c-3 3 -3 10 2 13l145 105c5 4 10 3 14 -2z" />
    <glyph glyph-name="Oslashacute" unicode="&#x1fe;" horiz-adv-x="807" 
d="M746 370c0 -227 -56 -383 -342 -383c-107 0 -180 20 -232 59l-62 -72c-5 -5 -11 -6 -16 -1l-41 33c-7 5 -7 11 -2 16l68 79c-47 68 -58 160 -58 269c0 226 55 382 343 382c101 0 173 -20 224 -55l64 74c5 5 11 6 16 1l41 -33c6 -5 7 -11 2 -16l-68 -79
c49 -68 63 -161 63 -274zM620 370c0 72 -3 131 -19 178l-358 -419c32 -32 81 -48 160 -48c197 0 217 106 217 289zM203 199l355 416c-33 28 -80 43 -155 43c-197 0 -216 -105 -216 -288c0 -68 3 -126 16 -171zM482 980l39 -50c3 -5 3 -9 -2 -13l-147 -102
c-5 -3 -11 -5 -15 2l-36 47c-4 5 -3 10 2 13l145 106c6 3 11 2 14 -3z" />
    <glyph glyph-name="oslashacute" unicode="&#x1ff;" horiz-adv-x="581" 
d="M534 262c0 -152 -26 -275 -243 -275c-72 0 -123 13 -159 37l-55 -64c-5 -5 -10 -6 -16 -1l-30 26c-6 5 -7 11 -2 16l58 66c-35 51 -40 119 -40 195c0 153 27 276 244 276c76 0 127 -15 163 -40l58 68c5 6 11 6 16 1l31 -26c5 -5 6 -10 1 -16l-63 -73
c31 -51 37 -115 37 -190zM169 163l219 259c-19 23 -48 34 -97 34c-123 0 -127 -71 -127 -194c0 -39 0 -72 5 -99zM417 262c0 35 -1 66 -4 93l-217 -256c18 -20 50 -30 95 -30c121 0 126 70 126 193zM373 762l39 -50c3 -5 3 -10 -2 -13l-147 -102c-5 -3 -10 -3 -15 2l-36 47
c-3 3 -3 10 2 13l145 105c5 4 10 3 14 -2z" />
    <glyph glyph-name="Scommaaccent" unicode="&#x218;" horiz-adv-x="684" 
d="M623 214c0 -176 -144 -225 -291 -225c-125 0 -224 28 -243 36c-11 3 -15 11 -15 19c0 1 0 3 1 6l12 56c2 8 7 12 15 12c2 0 5 0 8 -1c21 -5 121 -33 222 -33c85 0 167 27 167 121c0 93 -79 102 -182 118c-111 16 -251 43 -251 212c0 172 133 215 281 215
c115 0 211 -26 233 -34c13 -5 18 -13 16 -24l-13 -58c-1 -7 -11 -12 -18 -11c-37 8 -117 31 -213 31c-77 0 -165 -16 -165 -107s90 -105 182 -118c118 -16 254 -31 254 -215zM283 -213l29 148c3 9 10 15 21 15h66c15 0 21 -12 16 -24l-59 -144c-3 -8 -10 -12 -19 -12h-39
c-9 0 -18 6 -15 17z" />
    <glyph glyph-name="scommaaccent" unicode="&#x219;" horiz-adv-x="501" 
d="M457 154c0 -130 -100 -167 -217 -167c-87 0 -166 26 -181 32c-5 3 -12 7 -9 14l11 53c2 7 6 11 11 11c2 0 4 0 7 -1c11 -3 79 -26 154 -26c67 0 111 21 111 74c0 68 -48 64 -116 78c-71 11 -173 30 -173 156c0 137 122 160 210 160c84 0 147 -18 162 -22
c8 -2 12 -7 11 -15l-9 -54c-1 -7 -6 -10 -14 -9c-12 2 -81 17 -136 17c-56 0 -111 -14 -111 -69c0 -57 55 -65 116 -73c83 -13 173 -27 173 -159zM182 -213l29 148c3 9 10 15 21 15h66c15 0 21 -12 16 -24l-59 -144c-3 -8 -10 -12 -19 -12h-39c-9 0 -18 6 -15 17z" />
    <glyph glyph-name="uni021A" unicode="&#x21a;" horiz-adv-x="644" 
d="M634 723v-65c0 -8 -7 -15 -16 -15h-235v-628c0 -8 -7 -15 -16 -15h-89c-9 0 -16 7 -16 15v628h-236c-11 0 -16 5 -16 16v64c0 11 5 16 16 16h592c11 0 16 -5 16 -16zM239 -213l29 148c3 9 10 15 21 15h66c15 0 21 -12 16 -24l-59 -144c-3 -8 -10 -12 -19 -12h-39
c-9 0 -18 6 -15 17z" />
    <glyph glyph-name="uni021B" unicode="&#x21b;" horiz-adv-x="395" 
d="M358 75l10 -46c3 -13 -2 -18 -10 -21c-19 -7 -61 -18 -124 -18c-108 0 -161 42 -161 150v528c0 9 5 15 16 17l81 17c12 3 17 -6 17 -15v-162h152c10 0 15 -5 15 -15v-55c0 -10 -5 -15 -15 -15h-152v-301c0 -48 22 -65 74 -65c31 0 63 7 82 11c8 2 13 -1 15 -10zM132 -213
l29 148c3 9 10 15 21 15h66c15 0 21 -12 16 -24l-59 -144c-3 -8 -10 -12 -19 -12h-39c-9 0 -18 6 -15 17z" />
    <glyph glyph-name="uni0237" unicode="&#x237;" horiz-adv-x="283" 
d="M200 505v-560c0 -120 -69 -155 -172 -155c-29 0 -50 1 -64 3c-7 1 -18 2 -18 17l1 46c0 13 7 15 16 15l35 1c59 3 88 9 88 77v556c0 9 5 14 16 14h83c10 0 15 -5 15 -14z" />
    <glyph glyph-name="uni0259" unicode="&#x259;" horiz-adv-x="569" 
d="M286 68c111 0 118 60 118 169h-236c0 -109 7 -169 118 -169zM110 430c-9 -3 -17 -1 -20 10l-9 46c-3 11 -1 18 10 22c28 11 99 30 183 30c176 0 248 -79 248 -276c0 -159 -27 -275 -239 -275c-209 0 -236 115 -236 269v39c0 13 6 19 18 19h339c0 101 -37 141 -144 141
c-68 0 -109 -13 -150 -25z" />
    <glyph glyph-name="uni02BB" unicode="&#x2bb;" horiz-adv-x="252" 
d="M200 721l-31 -214c-1 -8 -10 -14 -18 -14h-85c-10 0 -15 5 -15 15c0 3 0 5 1 7l65 211c3 8 9 13 16 13h54c8 0 16 -6 13 -18z" />
    <glyph glyph-name="afii57929" unicode="&#x2bc;" horiz-adv-x="253" 
d="M201 717l-65 -211c-3 -8 -9 -13 -16 -13h-55c-7 0 -16 7 -13 18l32 214c1 8 10 14 18 14h85c10 0 15 -5 15 -14c0 -3 0 -6 -1 -8z" />
    <glyph glyph-name="circumflex" unicode="&#x2c6;" horiz-adv-x="581" 
d="M452 645l-37 -45c-3 -3 -7 -8 -14 -3l-111 87l-111 -87c-5 -3 -9 -2 -14 3l-36 45c-3 3 -3 10 2 13l142 102h34l143 -102c5 -4 6 -8 2 -13z" />
    <glyph glyph-name="caron" unicode="&#x2c7;" horiz-adv-x="581" 
d="M415 754l37 -44c4 -4 2 -10 -2 -13l-143 -102h-34l-142 102c-5 3 -6 8 -2 13l36 44c5 5 10 6 14 3l111 -87l111 87c5 4 10 3 14 -3z" />
    <glyph glyph-name="breve" unicode="&#x2d8;" horiz-adv-x="581" 
d="M465 741c0 -112 -63 -146 -174 -146c-112 0 -175 34 -175 146c0 7 3 14 12 14h47c9 0 12 -7 12 -14c1 -59 23 -84 104 -84c80 0 101 25 104 85c0 7 1 13 12 13h47c9 0 11 -7 11 -14z" />
    <glyph glyph-name="dotaccent" unicode="&#x2d9;" horiz-adv-x="581" 
d="M363 699v-68c0 -9 -7 -16 -18 -16h-109c-13 0 -19 5 -19 16v68c0 11 6 16 19 16h109c11 0 18 -7 18 -16z" />
    <glyph glyph-name="ring" unicode="&#x2da;" horiz-adv-x="581" 
d="M417 683c0 -80 -44 -108 -127 -108c-81 0 -126 28 -126 108s45 107 126 107c83 0 127 -27 127 -107zM341 683c0 45 -8 65 -51 65c-41 0 -51 -21 -51 -66c0 -44 10 -64 51 -64c43 0 51 20 51 65z" />
    <glyph glyph-name="ogonek" unicode="&#x2db;" horiz-adv-x="581" 
d="M265 13l66 -4c-43 -24 -68 -56 -68 -96c0 -37 25 -49 65 -49c20 0 38 4 53 7c8 2 13 -1 15 -8l7 -40c3 -9 -2 -12 -10 -15c-15 -7 -43 -12 -82 -12c-68 0 -134 24 -134 98c0 60 40 90 88 119z" />
    <glyph glyph-name="tilde" unicode="&#x2dc;" horiz-adv-x="581" 
d="M440 705l22 -43c3 -5 2 -11 -4 -17c-19 -16 -64 -50 -104 -50c-23 0 -46 10 -67 21l-31 15c-10 5 -20 8 -30 8c-24 0 -49 -18 -69 -35c-5 -5 -12 -6 -17 2l-23 44c-3 7 -3 9 4 16c20 17 63 50 105 50c24 0 46 -10 66 -21c21 -11 42 -22 61 -23c25 0 49 19 69 36
c3 3 6 4 9 4s6 -2 9 -7z" />
    <glyph glyph-name="hungarumlaut" unicode="&#x2dd;" horiz-adv-x="581" 
d="M445 757l33 -43c1 -3 2 -5 2 -6c0 -3 -1 -6 -4 -8l-147 -103c-3 -1 -5 -2 -6 -2c-3 0 -6 1 -9 4l-30 41c-1 3 -2 5 -2 6c0 3 1 6 4 8l145 105c3 1 5 2 6 2c3 0 6 -1 8 -4zM263 757l33 -43c1 -3 2 -5 2 -6c0 -3 -1 -6 -4 -8l-147 -103c-3 -1 -5 -2 -6 -2c-3 0 -6 1 -9 4
l-30 41c-1 3 -2 5 -2 6c0 3 1 6 4 8l145 105c3 1 5 2 6 2c3 0 6 -1 8 -4z" />
    <glyph glyph-name="gravecomb" unicode="&#x300;" 
d="M-198 646l-36 -47c-4 -5 -9 -6 -15 -2l-147 102c-5 3 -6 8 -2 13l39 50c4 5 9 6 14 2l145 -105c5 -3 6 -8 2 -13z" />
    <glyph glyph-name="acutecomb" unicode="&#x301;" 
d="M-225 762l39 -50c3 -5 3 -10 -2 -13l-147 -102c-5 -3 -10 -3 -15 2l-36 47c-3 3 -3 10 2 13l145 105c5 4 10 3 14 -2z" />
    <glyph glyph-name="uni0302" unicode="&#x302;" 
d="M-128 645l-37 -45c-3 -3 -7 -8 -14 -3l-111 87l-111 -87c-5 -3 -9 -2 -14 3l-36 45c-3 3 -3 10 2 13l142 102h34l143 -102c5 -4 6 -8 2 -13z" />
    <glyph glyph-name="tildecomb" unicode="&#x303;" 
d="M-141 705l22 -43c3 -5 2 -11 -4 -17c-19 -16 -64 -50 -104 -50c-23 0 -46 10 -67 21l-31 15c-10 5 -20 8 -30 8c-24 0 -49 -18 -69 -35c-5 -5 -12 -6 -17 2l-23 44c-3 7 -3 9 4 16c20 17 63 50 105 50c24 0 46 -10 66 -21c21 -11 42 -22 61 -23c25 0 49 19 69 36
c3 3 6 4 9 4s6 -2 9 -7z" />
    <glyph glyph-name="uni0304" unicode="&#x304;" 
d="M-239 630c-56 0 -104 -17 -131 -24c-3 -1 -5 -1 -7 -1c-6 0 -10 4 -11 11l-9 53c-1 5 3 9 11 12c27 11 86 25 146 25s120 -14 147 -25c8 -3 12 -8 11 -13l-9 -52c-1 -7 -5 -11 -11 -11c-1 0 -4 0 -7 1c-31 8 -74 24 -130 24z" />
    <glyph glyph-name="uni0306" unicode="&#x306;" 
d="M-78 741c0 -112 -63 -146 -174 -146c-112 0 -175 34 -175 146c0 7 3 14 12 14h47c9 0 12 -7 12 -14c1 -59 23 -84 104 -84c80 0 101 25 104 85c0 7 1 13 12 13h47c9 0 11 -7 11 -14z" />
    <glyph glyph-name="uni0307" unicode="&#x307;" 
d="M-72 699v-68c0 -9 -7 -16 -18 -16h-109c-13 0 -19 5 -19 16v68c0 11 6 16 19 16h109c11 0 18 -7 18 -16z" />
    <glyph glyph-name="uni0308" unicode="&#x308;" 
d="M-80 693v-65c0 -9 -5 -13 -14 -13h-106c-10 0 -15 4 -15 13v65c0 7 6 12 15 12h106c8 0 14 -5 14 -12zM-291 693v-65c0 -9 -5 -13 -14 -13h-106c-8 0 -15 6 -15 13v65c0 7 7 12 15 12h106c8 0 14 -5 14 -12z" />
    <glyph glyph-name="uni030A" unicode="&#x30a;" 
d="M-81 683c0 -80 -44 -108 -127 -108c-81 0 -126 28 -126 108s45 107 126 107c83 0 127 -27 127 -107zM-157 683c0 45 -8 65 -51 65c-41 0 -51 -21 -51 -66c0 -44 10 -64 51 -64c43 0 51 20 51 65z" />
    <glyph glyph-name="uni030B" unicode="&#x30b;" 
d="M-107 757l33 -43c1 -3 2 -5 2 -6c0 -3 -1 -6 -4 -8l-147 -103c-3 -1 -5 -2 -6 -2c-3 0 -6 1 -9 4l-30 41c-1 3 -2 5 -2 6c0 3 1 6 4 8l145 105c3 1 5 2 6 2c3 0 6 -1 8 -4zM-289 757l33 -43c1 -3 2 -5 2 -6c0 -3 -1 -6 -4 -8l-147 -103c-3 -1 -5 -2 -6 -2c-3 0 -6 1 -9 4
l-30 41c-1 3 -2 5 -2 6c0 3 1 6 4 8l145 105c3 1 5 2 6 2c3 0 6 -1 8 -4z" />
    <glyph glyph-name="uni030C" unicode="&#x30c;" 
d="M-124 754l37 -44c4 -4 2 -10 -2 -13l-143 -102h-34l-142 102c-5 3 -6 8 -2 13l36 44c5 5 10 6 14 3l111 -87l111 87c5 4 10 3 14 -3z" />
    <glyph glyph-name="uni0312" unicode="&#x312;" 
d="M-81 778l-29 -148c-3 -9 -10 -15 -21 -15h-66c-15 0 -21 12 -16 24l59 144c3 8 9 12 19 12h39c9 0 18 -6 15 -17z" />
    <glyph glyph-name="uni0313" unicode="&#x313;" 
d="M-244 583l29 148c3 9 10 15 21 15h66c15 0 21 -12 16 -24l-59 -144c-3 -8 -10 -12 -19 -12h-39c-9 0 -18 6 -15 17z" />
    <glyph glyph-name="uni0326" unicode="&#x326;" 
d="M-214 -213l29 148c3 9 10 15 21 15h66c15 0 21 -12 16 -24l-59 -144c-3 -8 -10 -12 -19 -12h-39c-9 0 -18 6 -15 17z" />
    <glyph glyph-name="uni0327" unicode="&#x327;" 
d="M-183 -31c58 0 103 -23 103 -84s-45 -84 -104 -84c-43 0 -69 6 -76 9c-6 2 -9 6 -9 12v29c0 7 4 10 12 8c9 -3 31 -8 56 -8c23 0 42 7 42 34c0 28 -19 34 -43 34c-15 0 -27 -1 -39 -4c-7 -1 -10 1 -10 6v31c0 6 3 10 9 11c11 3 28 6 59 6z" />
    <glyph glyph-name="uni0328" unicode="&#x328;" 
d="M-217 13l66 -4c-43 -24 -68 -56 -68 -96c0 -37 25 -49 65 -49c20 0 38 4 53 7c8 2 13 -1 15 -8l7 -40c3 -9 -2 -12 -10 -15c-15 -7 -43 -12 -82 -12c-68 0 -134 24 -134 98c0 60 40 90 88 119z" />
    <glyph glyph-name="uni0335" unicode="&#x335;" 
d="M-28 291v-58c0 -11 -9 -16 -18 -16h-482c-9 0 -19 5 -19 16v58c0 11 6 16 19 16h482c12 0 18 -5 18 -16z" />
    <glyph glyph-name="uni0336" unicode="&#x336;" 
d="M-52 291v-58c0 -11 -10 -16 -19 -16h-1001c-9 0 -19 5 -19 16v58c0 11 6 16 19 16h1002c11 0 18 -7 18 -16z" />
    <glyph glyph-name="uni0394" unicode="&#x394;" horiz-adv-x="711" 
d="M449 726l242 -699c1 -4 2 -7 2 -9c0 -9 -5 -18 -20 -18h-634c-15 0 -26 11 -19 27l243 699c3 7 12 13 19 13h148c5 0 16 -6 19 -13zM376 655h-41l-188 -570h416z" />
    <glyph glyph-name="uni03A9" unicode="&#x3a9;" horiz-adv-x="727" 
d="M674 408c0 -113 -43 -239 -163 -287v-19l147 -26c7 -1 10 -4 10 -9v-56c0 -7 -4 -11 -12 -11h-221c-7 0 -13 5 -13 12v143c94 49 127 147 127 250c0 163 -29 256 -186 256c-156 0 -185 -93 -185 -256c0 -103 34 -202 127 -250v-143c0 -7 -6 -12 -13 -12h-221
c-8 0 -12 4 -12 11v56c0 5 3 8 10 9l148 26v19c-121 48 -164 174 -164 287c0 176 44 344 311 344s310 -168 310 -344z" />
    <glyph glyph-name="uni03BC" unicode="&#x3bc;" horiz-adv-x="605" 
d="M532 523v-395c0 -110 -49 -141 -152 -141c-93 0 -154 17 -205 34l12 -61v-136c0 -10 -5 -16 -15 -18l-81 -16c-12 -3 -18 6 -18 15v699c0 10 5 16 16 18l81 16c12 3 17 -6 17 -15v-425c12 -5 81 -26 149 -26c71 0 83 20 83 81v351c0 10 5 16 15 18l81 16
c12 3 17 -6 17 -15z" />
    <glyph glyph-name="pi" unicode="&#x3c0;" horiz-adv-x="597" 
d="M563 510v-56c0 -10 -5 -15 -15 -15h-63v-424c0 -10 -5 -15 -15 -15h-83c-10 0 -15 5 -15 15v424h-146v-424c0 -10 -5 -15 -15 -15h-83c-10 0 -15 5 -15 15v424h-63c-11 0 -16 5 -16 15v56c0 10 5 15 16 15h498c10 0 15 -5 15 -15z" />
    <glyph glyph-name="uni0400" unicode="&#x400;" horiz-adv-x="662" 
d="M582 0h-469c-9 0 -17 7 -17 16v707c0 9 8 16 17 16h468c11 0 16 -5 16 -16v-65c0 -10 -5 -15 -16 -15h-363v-212h341c10 0 15 -5 15 -15v-65c0 -11 -5 -16 -15 -16h-341v-239h364c8 0 15 -6 15 -15v-65c0 -9 -7 -16 -15 -16zM443 864l-36 -47c-3 -5 -8 -5 -14 -2
l-148 102c-5 4 -6 8 -2 13l39 50c5 6 9 7 14 3l145 -106c5 -3 5 -8 2 -13z" />
    <glyph glyph-name="afii10023" unicode="&#x401;" horiz-adv-x="662" 
d="M582 0h-469c-9 0 -17 7 -17 16v707c0 9 8 16 17 16h468c11 0 16 -5 16 -16v-65c0 -10 -5 -15 -16 -15h-363v-212h341c10 0 15 -5 15 -15v-65c0 -11 -5 -16 -15 -16h-341v-239h364c8 0 15 -6 15 -15v-65c0 -9 -7 -16 -15 -16zM519 911v-65c0 -9 -5 -13 -14 -13h-106
c-10 0 -15 4 -15 13v65c0 7 6 12 15 12h106c8 0 14 -5 14 -12zM308 911v-65c0 -9 -5 -13 -14 -13h-106c-8 0 -15 6 -15 13v65c0 7 7 12 15 12h106c8 0 14 -5 14 -12z" />
    <glyph glyph-name="afii10051" unicode="&#x402;" horiz-adv-x="904" 
d="M568 -89h-38c-10 0 -15 5 -15 16v61c0 11 5 16 15 16h36c40 0 88 6 120 36c31 31 42 66 42 145c0 124 -35 181 -154 181c-80 0 -162 -20 -191 -30v-320c0 -11 -5 -16 -16 -16h-89c-11 0 -17 5 -17 16v627h-234c-11 0 -17 7 -17 15v65c0 11 6 16 17 16h591
c11 0 16 -5 16 -16v-65c0 -10 -5 -15 -16 -15h-235v-213c36 11 131 32 222 32c191 0 249 -105 249 -273c0 -167 -53 -278 -286 -278z" />
    <glyph glyph-name="afii10052" unicode="&#x403;" horiz-adv-x="586" 
d="M202 0h-89c-11 0 -17 5 -17 16v707c0 11 6 16 17 16h446c11 0 17 -5 17 -16v-65c0 -10 -6 -15 -17 -15h-341v-627c0 -11 -5 -16 -16 -16zM409 980l39 -50c3 -5 3 -9 -2 -13l-147 -102c-5 -3 -11 -5 -15 2l-36 47c-4 5 -3 10 2 13l145 106c6 3 11 2 14 -3z" />
    <glyph glyph-name="afii10053" unicode="&#x404;" horiz-adv-x="682" 
d="M406 652c-159 0 -218 -69 -218 -221h254c10 0 15 -4 14 -13l-10 -70c-1 -9 -6 -13 -15 -13h-244c0 -170 51 -245 219 -245c100 0 156 19 196 30c11 3 22 6 25 -9l11 -56c3 -15 -1 -20 -16 -25c-40 -15 -113 -36 -232 -36c-245 0 -329 123 -329 377s84 377 329 377
c119 0 192 -21 232 -36c15 -5 19 -10 16 -25l-11 -56c-3 -15 -14 -12 -25 -9c-40 11 -96 30 -196 30z" />
    <glyph glyph-name="afii10054" unicode="&#x405;" horiz-adv-x="684" 
d="M623 214c0 -176 -144 -225 -291 -225c-125 0 -224 28 -243 36c-11 3 -15 11 -15 19c0 1 0 3 1 6l12 56c2 8 7 12 15 12c2 0 5 0 8 -1c21 -5 121 -33 222 -33c85 0 167 27 167 121c0 93 -79 102 -182 118c-111 16 -251 43 -251 212c0 172 133 215 281 215
c115 0 211 -26 233 -34c13 -5 18 -13 16 -24l-13 -58c-1 -7 -11 -12 -18 -11c-37 8 -117 31 -213 31c-77 0 -165 -16 -165 -107s90 -105 182 -118c118 -16 254 -31 254 -215z" />
    <glyph glyph-name="afii10055" unicode="&#x406;" horiz-adv-x="314" 
d="M218 738v-723c0 -8 -7 -15 -16 -15h-89c-9 0 -17 7 -17 15v710c0 8 5 13 14 14l94 13c11 1 14 -7 14 -14z" />
    <glyph glyph-name="afii10056" unicode="&#x407;" horiz-adv-x="314" 
d="M218 738v-723c0 -8 -7 -15 -16 -15h-89c-9 0 -17 7 -17 15v710c0 8 5 13 14 14l94 13c11 1 14 -7 14 -14zM331 911v-65c0 -9 -5 -13 -14 -13h-106c-10 0 -15 4 -15 13v65c0 7 6 12 15 12h106c8 0 14 -5 14 -12zM120 911v-65c0 -9 -5 -13 -14 -13h-106c-8 0 -15 6 -15 13
v65c0 7 7 12 15 12h106c8 0 14 -5 14 -12z" />
    <glyph glyph-name="afii10057" unicode="&#x408;" horiz-adv-x="310" 
d="M224 738v-759c0 -128 -74 -175 -201 -175h-39c-9 0 -18 0 -25 1c-9 1 -18 5 -18 18v58c0 11 6 18 18 19l49 2c61 3 94 8 94 81v742c0 8 5 13 14 14l94 13c11 1 14 -7 14 -14z" />
    <glyph glyph-name="afii10058" unicode="&#x409;" horiz-adv-x="1198" 
d="M278 647v-287c0 -215 -47 -360 -255 -360c-9 0 -13 4 -13 13v77c0 7 4 12 13 13c131 3 136 135 136 270v350c0 9 8 16 16 16h481c9 0 17 -7 17 -16v-272h217c177 0 268 -60 268 -225s-91 -226 -268 -226h-323c-8 0 -16 7 -16 16v631h-273zM673 92h194
c105 0 166 23 166 134c0 109 -61 134 -166 134h-194v-268z" />
    <glyph glyph-name="afii10059" unicode="&#x40a;" horiz-adv-x="1211" 
d="M202 0h-89c-11 0 -17 5 -17 16v709c0 8 5 13 14 14l93 13c10 2 15 -3 15 -14v-291h346v278c0 8 4 13 13 14l93 13c10 2 15 -3 15 -14v-291h218c177 0 268 -60 268 -223c0 -164 -91 -224 -268 -224h-323c-11 0 -16 5 -16 16v340h-346v-340c0 -11 -5 -16 -16 -16zM685 92
h195c105 0 166 24 166 132c0 109 -61 131 -166 131h-195v-263z" />
    <glyph glyph-name="afii10060" unicode="&#x40b;" horiz-adv-x="901" 
d="M368 0h-94c-9 0 -14 5 -14 14v631h-235c-8 0 -15 7 -15 15v65c0 8 7 14 15 14h593c9 0 13 -5 13 -14v-65c0 -10 -4 -15 -13 -15h-236v-205c42 11 151 32 250 32c153 0 219 -54 219 -175v-283c0 -9 -5 -14 -14 -14h-93c-8 0 -15 6 -15 14v259c0 76 -37 103 -125 103
c-90 0 -187 -20 -222 -31v-331c0 -9 -5 -14 -14 -14z" />
    <glyph glyph-name="afii10061" unicode="&#x40c;" horiz-adv-x="713" 
d="M218 328v-312c0 -11 -5 -16 -16 -16h-89c-11 0 -17 5 -17 16v707c0 11 6 16 17 16h89c11 0 16 -5 16 -16v-301h80l241 310c3 5 9 7 17 7h115c8 0 17 -7 9 -18l-280 -342l302 -361c2 -2 3 -4 3 -6c0 -7 -5 -12 -12 -12h-126c-7 0 -12 2 -17 7l-252 321h-80zM442 980
l39 -50c3 -5 3 -9 -2 -13l-147 -102c-5 -3 -11 -5 -15 2l-36 47c-4 5 -3 10 2 13l145 106c6 3 11 2 14 -3z" />
    <glyph glyph-name="uni040D" unicode="&#x40d;" horiz-adv-x="825" 
d="M283 0h-171c-11 0 -16 5 -16 16v709c0 9 5 14 15 14h88c9 0 14 -5 14 -14v-601h30l273 596c7 13 12 19 27 19h170c11 0 16 -5 16 -16v-707c0 -11 -5 -16 -16 -16h-85c-11 0 -16 5 -16 16v599h-30l-273 -596c-6 -13 -15 -19 -26 -19zM513 864l-36 -47c-3 -5 -8 -5 -14 -2
l-148 102c-5 4 -6 8 -2 13l39 50c5 6 9 7 14 3l145 -106c5 -3 5 -8 2 -13z" />
    <glyph glyph-name="afii10062" unicode="&#x40e;" horiz-adv-x="678" 
d="M295 297l-293 424c-5 7 3 18 12 18h114c11 0 14 -3 19 -12l215 -323l183 324c5 7 11 11 18 11h102c11 0 16 -11 11 -20l-294 -497c-109 -184 -179 -235 -349 -235c-9 0 -14 5 -14 14v71c0 8 5 13 14 14c107 11 149 34 222 147zM526 959c0 -112 -63 -146 -174 -146
c-112 0 -175 34 -175 146c0 7 3 14 12 14h47c9 0 12 -7 12 -14c1 -59 23 -84 104 -84c80 0 101 25 104 85c0 7 1 13 12 13h47c9 0 11 -7 11 -14z" />
    <glyph glyph-name="afii10145" unicode="&#x40f;" horiz-adv-x="799" 
d="M439 -160h-78c-11 0 -16 5 -16 16v144h-232c-9 0 -17 7 -17 16v709c0 8 5 13 14 14l93 13c10 2 15 -3 15 -14v-642h364v629c0 8 4 13 13 14l93 13c10 2 15 -3 15 -14v-722c0 -11 -5 -16 -16 -16h-232v-144c0 -11 -5 -16 -16 -16z" />
    <glyph glyph-name="afii10017" unicode="&#x410;" horiz-adv-x="778" 
d="M296 739h186c8 0 14 -4 17 -12l260 -709c3 -8 1 -18 -10 -18h-106c-7 0 -12 4 -15 12l-93 264h-300l-93 -264c-3 -8 -9 -12 -16 -12h-96c-11 0 -14 7 -11 18l260 709c3 8 8 12 17 12zM265 368h240l-100 285h-39z" />
    <glyph glyph-name="afii10018" unicode="&#x411;" horiz-adv-x="730" 
d="M422 0h-309c-9 0 -17 7 -17 16v707c0 9 8 16 17 16h457c9 0 14 -5 14 -14v-65c0 -10 -5 -15 -14 -15h-352v-194h204c177 0 268 -60 268 -225s-91 -226 -268 -226zM218 92h181c105 0 166 23 166 134c0 109 -61 134 -166 134h-181v-268z" />
    <glyph glyph-name="afii10019" unicode="&#x412;" horiz-adv-x="748" 
d="M696 193c0 -135 -91 -193 -258 -193h-325c-9 0 -17 7 -17 16v707c0 9 8 16 17 16h339c156 0 220 -60 220 -181c0 -105 -60 -147 -140 -163v-27c101 -11 164 -59 164 -175zM571 206c0 86 -31 122 -143 125l-210 6v-245h212c107 0 141 49 141 114zM549 539
c0 75 -34 108 -114 108h-217v-229l208 8c80 3 123 30 123 113z" />
    <glyph glyph-name="afii10020" unicode="&#x413;" horiz-adv-x="586" 
d="M202 0h-89c-11 0 -17 5 -17 16v707c0 11 6 16 17 16h446c11 0 17 -5 17 -16v-65c0 -10 -6 -15 -17 -15h-341v-627c0 -11 -5 -16 -16 -16z" />
    <glyph glyph-name="afii10021" unicode="&#x414;" horiz-adv-x="780" 
d="M10 -146v221c0 7 5 13 15 16c147 51 154 289 154 452v180c0 11 5 16 16 16h473c11 0 16 -5 16 -16v-631h76c11 0 16 -5 16 -16v-220c0 -11 -5 -16 -16 -16h-77c-11 0 -16 5 -16 16v144h-547v-146c0 -8 -7 -14 -15 -14h-81c-9 0 -14 5 -14 14zM562 92v555h-264v-110
c0 -141 -10 -332 -101 -445h365z" />
    <glyph glyph-name="afii10022" unicode="&#x415;" horiz-adv-x="662" 
d="M582 0h-469c-9 0 -17 7 -17 16v707c0 9 8 16 17 16h468c11 0 16 -5 16 -16v-65c0 -10 -5 -15 -16 -15h-363v-212h341c10 0 15 -5 15 -15v-65c0 -11 -5 -16 -15 -16h-341v-239h364c8 0 15 -6 15 -15v-65c0 -9 -7 -16 -15 -16z" />
    <glyph glyph-name="afii10024" unicode="&#x416;" horiz-adv-x="1111" 
d="M616 328v-312c0 -11 -5 -16 -16 -16h-89c-11 0 -16 5 -16 16v312h-80l-252 -321c-5 -5 -10 -7 -17 -7h-126c-7 0 -12 5 -12 12c0 2 1 4 3 6l302 361l-280 342c-8 11 1 18 9 18h115c7 0 12 -2 17 -7l241 -310h80v301c0 11 5 16 16 16h89c11 0 16 -5 16 -16v-301h80
l241 310c5 5 10 7 17 7h115c8 0 17 -7 9 -18l-280 -342l302 -361c2 -2 3 -4 3 -6c0 -7 -5 -12 -12 -12h-126c-7 0 -12 2 -17 7l-252 321h-80z" />
    <glyph glyph-name="afii10025" unicode="&#x417;" horiz-adv-x="662" 
d="M605 195c0 -163 -141 -208 -275 -208c-112 0 -213 23 -246 37c-11 4 -16 11 -13 21l14 59c3 11 10 14 21 11c55 -18 142 -32 214 -32c83 0 161 31 161 122c0 117 -99 117 -230 130c-11 1 -17 6 -17 15v58c0 9 6 15 17 17c121 11 217 21 217 120c0 86 -69 110 -155 110
c-99 0 -179 -24 -223 -37c-8 -3 -17 -1 -20 11l-14 58c-1 3 -1 5 -1 8c0 7 4 12 12 16c35 16 138 41 264 41c142 0 260 -53 260 -193c0 -132 -110 -156 -150 -164v-26c40 -5 164 -22 164 -174z" />
    <glyph glyph-name="afii10026" unicode="&#x418;" horiz-adv-x="825" 
d="M283 0h-171c-11 0 -16 5 -16 16v709c0 9 5 14 15 14h88c9 0 14 -5 14 -14v-601h30l273 596c7 13 12 19 27 19h170c11 0 16 -5 16 -16v-707c0 -11 -5 -16 -16 -16h-85c-11 0 -16 5 -16 16v599h-30l-273 -596c-6 -13 -15 -19 -26 -19z" />
    <glyph glyph-name="afii10027" unicode="&#x419;" horiz-adv-x="825" 
d="M283 0h-171c-11 0 -16 5 -16 16v709c0 9 5 14 15 14h88c9 0 14 -5 14 -14v-601h30l273 596c7 13 12 19 27 19h170c11 0 16 -5 16 -16v-707c0 -11 -5 -16 -16 -16h-85c-11 0 -16 5 -16 16v599h-30l-273 -596c-6 -13 -15 -19 -26 -19zM594 959c0 -112 -63 -146 -174 -146
c-112 0 -175 34 -175 146c0 7 3 14 12 14h47c9 0 12 -7 12 -14c1 -59 23 -84 104 -84c80 0 101 25 104 85c0 7 1 13 12 13h47c9 0 11 -7 11 -14z" />
    <glyph glyph-name="afii10028" unicode="&#x41a;" horiz-adv-x="713" 
d="M218 328v-312c0 -11 -5 -16 -16 -16h-89c-11 0 -17 5 -17 16v707c0 11 6 16 17 16h89c11 0 16 -5 16 -16v-301h80l241 310c3 5 9 7 17 7h115c8 0 17 -7 9 -18l-280 -342l302 -361c2 -2 3 -4 3 -6c0 -7 -5 -12 -12 -12h-126c-7 0 -12 2 -17 7l-252 321h-80z" />
    <glyph glyph-name="afii10029" unicode="&#x41b;" horiz-adv-x="789" 
d="M278 647v-287c0 -215 -47 -360 -255 -360c-9 0 -13 4 -13 13v77c0 7 4 12 13 13c131 3 136 135 136 270v350c0 9 8 16 16 16h502c8 0 16 -7 16 -16v-707c0 -11 -5 -16 -16 -16h-89c-11 0 -17 5 -17 16v631h-293z" />
    <glyph glyph-name="afii10030" unicode="&#x41c;" horiz-adv-x="1046" 
d="M891 724l79 -710c1 -9 -4 -14 -15 -14h-92c-10 0 -15 5 -16 15l-63 636h-31l-149 -527c-3 -9 -8 -14 -17 -14h-132c-8 0 -14 5 -17 14l-149 527h-31l-63 -636c-1 -10 -7 -15 -16 -15h-87c-11 0 -17 5 -16 14l79 709c1 11 7 16 17 16h197c11 0 17 -5 19 -15l130 -486h10
l130 486c2 10 8 15 18 15h197c9 0 17 -7 18 -15z" />
    <glyph glyph-name="afii10031" unicode="&#x41d;" horiz-adv-x="825" 
d="M729 738v-723c0 -8 -8 -15 -17 -15h-89c-9 0 -16 7 -16 15v317h-389v-317c0 -8 -7 -15 -16 -15h-89c-9 0 -17 7 -17 15v710c0 8 5 13 14 14l94 13c11 1 14 -7 14 -14v-307h389v294c0 8 5 13 14 14l94 13c11 1 14 -7 14 -14z" />
    <glyph glyph-name="afii10032" unicode="&#x41e;" horiz-adv-x="807" 
d="M746 370c0 -227 -56 -383 -342 -383c-288 0 -343 156 -343 383c0 226 55 382 343 382c286 0 342 -156 342 -382zM620 370c0 183 -20 288 -217 288s-216 -105 -216 -288c0 -184 19 -289 216 -289s217 106 217 289z" />
    <glyph glyph-name="afii10033" unicode="&#x41f;" horiz-adv-x="803" 
d="M202 0h-89c-11 0 -17 5 -17 16v707c0 9 8 16 17 16h578c11 0 16 -5 16 -16v-707c0 -11 -5 -16 -16 -16h-90c-11 0 -16 5 -16 16v631h-367v-631c0 -11 -5 -16 -16 -16z" />
    <glyph glyph-name="afii10034" unicode="&#x420;" horiz-adv-x="726" 
d="M202 0h-89c-11 0 -17 5 -17 16v707c0 9 8 16 17 16h305c183 0 268 -70 268 -237s-85 -237 -268 -237h-200v-249c0 -11 -5 -16 -16 -16zM218 357h174c108 0 168 27 168 145c0 119 -60 145 -168 145h-174v-290z" />
    <glyph glyph-name="afii10035" unicode="&#x421;" horiz-adv-x="682" 
d="M186 371c0 -195 40 -281 220 -281c100 0 156 19 196 30c11 3 22 6 25 -9l11 -56c3 -15 -1 -20 -16 -25c-40 -15 -113 -36 -232 -36c-245 0 -329 123 -329 377s84 377 329 377c119 0 192 -21 232 -36c15 -5 19 -10 16 -25l-11 -56c-3 -15 -14 -12 -25 -9
c-40 11 -96 30 -196 30c-180 0 -220 -86 -220 -281z" />
    <glyph glyph-name="afii10036" unicode="&#x422;" horiz-adv-x="644" 
d="M634 723v-65c0 -8 -7 -15 -16 -15h-235v-628c0 -8 -7 -15 -16 -15h-89c-9 0 -16 7 -16 15v628h-236c-11 0 -16 5 -16 16v64c0 11 5 16 16 16h592c11 0 16 -5 16 -16z" />
    <glyph glyph-name="afii10037" unicode="&#x423;" horiz-adv-x="678" 
d="M295 297l-293 424c-5 7 3 18 12 18h114c11 0 14 -3 19 -12l215 -323l183 324c5 7 11 11 18 11h102c11 0 16 -11 11 -20l-294 -497c-109 -184 -179 -235 -349 -235c-9 0 -14 5 -14 14v71c0 8 5 13 14 14c107 11 149 34 222 147z" />
    <glyph glyph-name="afii10038" unicode="&#x424;" horiz-adv-x="899" 
d="M494 0h-89c-11 0 -17 5 -17 16v77c-300 0 -343 121 -343 289c0 165 43 289 343 289v54c0 8 5 13 14 14l93 13c10 2 15 -3 15 -14v-67c301 0 344 -124 344 -289c0 -168 -43 -289 -344 -289v-77c0 -11 -5 -16 -16 -16zM389 184v396c-185 0 -218 -52 -218 -198
s33 -198 218 -198zM510 580v-396c184 0 218 52 218 198s-34 198 -218 198z" />
    <glyph glyph-name="afii10039" unicode="&#x425;" horiz-adv-x="709" 
d="M445 388l254 -370c5 -8 0 -18 -11 -18h-111c-7 0 -13 3 -16 9l-207 316l-211 -317c-3 -5 -8 -8 -15 -8h-107c-9 0 -16 11 -11 18l258 367l-234 334c-3 7 2 20 11 20h111c7 0 14 -4 20 -13l183 -279l179 280c5 8 11 12 19 12h103c9 0 15 -11 11 -20z" />
    <glyph glyph-name="afii10040" unicode="&#x426;" horiz-adv-x="800" 
d="M780 -160h-78c-11 0 -16 5 -16 16v144h-573c-9 0 -17 7 -17 16v709c0 8 5 13 14 14l93 13c10 2 15 -3 15 -14v-646h364v633c0 8 4 13 13 14l93 13c10 2 15 -3 15 -14v-646h77c8 0 16 -7 16 -16v-220c0 -11 -5 -16 -16 -16z" />
    <glyph glyph-name="afii10041" unicode="&#x427;" horiz-adv-x="737" 
d="M625 0h-90c-11 0 -16 5 -16 16v297c-42 -11 -151 -32 -250 -32c-153 0 -219 54 -219 175v269c0 8 4 13 13 14l93 13c11 2 16 -3 16 -14v-260c0 -76 37 -103 125 -103c91 0 186 21 222 31v319c0 8 5 13 14 14l93 13c10 2 15 -3 15 -14v-722c0 -11 -5 -16 -16 -16z" />
    <glyph glyph-name="afii10042" unicode="&#x428;" horiz-adv-x="1032" 
d="M920 0h-807c-9 0 -17 7 -17 16v709c0 8 5 13 14 14l93 13c10 2 15 -3 15 -14v-646h237v633c0 8 5 13 14 14l93 13c10 2 15 -3 15 -14v-646h237v633c0 8 5 13 14 14l93 13c10 2 15 -3 15 -14v-722c0 -9 -8 -16 -16 -16z" />
    <glyph glyph-name="afii10043" unicode="&#x429;" horiz-adv-x="1032" 
d="M918 0h-805c-9 0 -17 7 -17 16v709c0 8 5 13 14 14l93 13c10 2 15 -3 15 -14v-646h237v633c0 8 5 13 14 14l93 13c10 2 15 -3 15 -14v-646h237v633c0 8 5 13 14 14l93 13c10 2 15 -3 15 -14v-646h76c11 0 16 -5 16 -16v-220c0 -11 -5 -16 -16 -16h-77c-11 0 -17 5 -17 16
v144z" />
    <glyph glyph-name="afii10044" unicode="&#x42a;" horiz-adv-x="831" 
d="M523 0h-323c-9 0 -17 7 -17 16v627h-156c-11 0 -17 7 -17 15v65c0 11 6 16 17 16h261c9 0 17 -7 17 -16v-272h218c176 0 268 -60 268 -225s-92 -226 -268 -226zM305 92h194c107 0 166 23 166 134c0 109 -59 134 -166 134h-194v-268z" />
    <glyph glyph-name="afii10045" unicode="&#x42b;" horiz-adv-x="1058" 
d="M436 0h-323c-9 0 -17 7 -17 16v709c0 8 5 13 14 14l93 13c10 2 15 -3 15 -14v-287h218c176 0 268 -60 268 -225s-92 -226 -268 -226zM218 92h194c107 0 166 23 166 134c0 109 -59 134 -166 134h-194v-268zM962 738v-723c0 -8 -7 -15 -16 -15h-89c-9 0 -17 7 -17 15v710
c0 8 5 13 14 14l94 13c11 1 14 -7 14 -14z" />
    <glyph glyph-name="afii10046" unicode="&#x42c;" horiz-adv-x="744" 
d="M436 0h-323c-9 0 -17 7 -17 16v709c0 8 5 13 14 14l93 13c10 2 15 -3 15 -14v-287h218c176 0 268 -60 268 -225s-92 -226 -268 -226zM218 92h194c107 0 166 23 166 134c0 109 -59 134 -166 134h-194v-268z" />
    <glyph glyph-name="afii10047" unicode="&#x42d;" horiz-adv-x="682" 
d="M276 652c-100 0 -156 -19 -196 -30c-11 -3 -22 -6 -25 9l-11 56c-3 15 1 20 16 25c40 15 113 36 232 36c245 0 329 -123 329 -377s-84 -377 -329 -377c-119 0 -192 21 -232 36c-15 5 -19 10 -16 25l11 56c3 15 14 12 25 9c40 -11 96 -30 196 -30c168 0 219 75 219 245
h-244c-9 0 -14 4 -15 13l-10 70c-1 9 4 13 14 13h254c0 152 -60 221 -218 221z" />
    <glyph glyph-name="afii10048" unicode="&#x42e;" horiz-adv-x="1089" 
d="M686 -13c-272 0 -337 140 -342 346h-126v-317c0 -11 -5 -16 -16 -16h-89c-11 0 -17 5 -17 16v710c0 8 7 13 14 14l94 12c4 0 14 -5 14 -12v-312h127c11 194 79 324 341 324c287 0 342 -156 342 -382c0 -227 -55 -383 -342 -383zM685 81c197 0 217 106 217 289
s-20 288 -217 288s-215 -105 -215 -289c0 -183 18 -288 215 -288z" />
    <glyph glyph-name="afii10049" unicode="&#x42f;" horiz-adv-x="769" 
d="M656 0h-89c-11 0 -16 5 -16 16v274l-185 -5c-105 -3 -159 -31 -164 -132l-6 -140c0 -9 -5 -13 -14 -13h-99c-10 0 -15 4 -15 13l8 147c5 114 44 154 151 170v25c-105 16 -144 82 -144 182c0 145 84 202 239 202h334c11 0 17 -5 17 -16v-707c0 -11 -6 -16 -17 -16z
M551 375v272h-216c-95 0 -127 -47 -127 -136c0 -107 70 -127 161 -130z" />
    <glyph glyph-name="afii10065" unicode="&#x430;" horiz-adv-x="576" 
d="M508 382v-277c0 -73 -20 -88 -89 -104c-33 -8 -79 -14 -135 -14c-100 0 -237 7 -237 168c0 131 78 141 166 157l182 30v37c0 31 -2 52 -31 64c-16 7 -43 10 -82 10c-72 0 -142 -20 -175 -28c-3 -1 -6 -1 -7 -1c-4 0 -9 2 -12 9l-12 55c-3 11 4 14 11 17
c28 9 117 33 215 33c72 0 118 -10 149 -27c52 -29 57 -76 57 -129zM395 263l-152 -25c-41 -8 -80 -12 -80 -81c0 -85 71 -92 124 -92c41 0 77 5 108 16v182z" />
    <glyph glyph-name="afii10066" unicode="&#x431;" horiz-adv-x="574" 
d="M140 669c72 77 159 99 266 104c37 3 62 5 81 8c13 3 20 -1 20 -16v-60c0 -19 -9 -19 -28 -19c-20 0 -48 1 -69 1c-126 0 -226 -45 -245 -213h7c17 19 63 61 147 61c175 0 208 -126 208 -274c0 -172 -57 -274 -237 -274c-179 0 -240 108 -240 311c0 177 19 296 90 371z
M290 69c106 0 120 78 120 190c0 113 -14 189 -120 189c-112 0 -129 -76 -129 -189c0 -112 14 -190 129 -190z" />
    <glyph glyph-name="afii10067" unicode="&#x432;" horiz-adv-x="589" 
d="M349 0h-260c-11 0 -16 5 -16 15v495c0 10 5 15 16 15h272c117 0 167 -40 167 -129c0 -78 -43 -105 -103 -116v-16c77 -7 120 -41 120 -125c0 -99 -75 -139 -196 -139zM187 74h147c73 0 95 32 95 76c0 56 -24 81 -96 82l-146 3v-161zM187 300l144 6c56 3 85 19 85 72
c0 49 -20 73 -80 73h-149v-151z" />
    <glyph glyph-name="afii10068" unicode="&#x433;" horiz-adv-x="457" 
d="M171 0h-82c-11 0 -16 5 -16 15v495c0 10 6 15 17 15h337c11 0 16 -5 16 -15v-55c0 -10 -5 -15 -16 -15h-240v-425c0 -10 -5 -15 -16 -15z" />
    <glyph glyph-name="afii10069" unicode="&#x434;" horiz-adv-x="592" 
d="M239 445v-62c0 -87 -6 -222 -71 -303h243v365h-172zM150 525h353c10 0 15 -5 15 -14v-431h66c11 0 16 -5 16 -15v-195c0 -10 -5 -15 -16 -15h-67c-11 0 -16 5 -16 15v130h-392v-130c0 -10 -5 -15 -16 -15h-67c-11 0 -16 5 -16 15v191c0 11 4 15 15 18
c103 34 111 204 111 319v113c0 9 5 14 14 14z" />
    <glyph glyph-name="afii10070" unicode="&#x435;" horiz-adv-x="575" 
d="M528 272v-24c0 -9 0 -17 -1 -24c0 -9 -6 -19 -17 -19h-348c1 -49 13 -77 37 -100c28 -27 69 -36 129 -36c57 0 100 12 143 24c2 1 4 1 7 1c7 0 10 0 13 -11l10 -45c1 -3 1 -5 1 -6c0 -6 -4 -11 -11 -14c-37 -15 -103 -31 -178 -31c-196 0 -266 83 -266 274
c0 180 45 277 242 277c103 0 163 -28 199 -80c31 -45 40 -107 40 -186zM162 284h251c0 35 -1 64 -9 95c-15 60 -47 78 -115 78c-73 0 -105 -20 -118 -76c-8 -31 -8 -64 -9 -97z" />
    <glyph glyph-name="afii10072" unicode="&#x436;" horiz-adv-x="881" 
d="M148 0h-116c-7 0 -11 10 -8 14l207 255l-193 241c-3 5 -3 15 8 15h101c7 0 12 -2 15 -7l165 -216h57v208c0 10 5 15 15 15h83c10 0 15 -5 15 -15v-208h56l165 216c4 5 9 7 16 7h101c11 0 11 -10 8 -15l-193 -241l207 -255c4 -4 -1 -14 -8 -14h-117c-5 0 -9 2 -12 6
l-167 217h-56v-208c0 -10 -5 -15 -16 -15h-82c-10 0 -15 5 -15 15v208h-57l-166 -217c-3 -4 -8 -6 -13 -6z" />
    <glyph glyph-name="afii10073" unicode="&#x437;" horiz-adv-x="507" 
d="M254 -9c-101 0 -185 17 -213 25c-11 4 -12 10 -11 21l5 44c3 12 11 17 20 14c21 -5 99 -21 171 -21c61 0 119 14 119 76c0 41 -22 59 -57 70c-32 8 -70 10 -102 14c-15 3 -18 9 -18 17v36c0 8 5 15 18 16c29 4 63 7 94 16c35 9 57 27 57 64c0 60 -54 69 -115 69
c-66 0 -148 -16 -170 -21c-9 -3 -17 1 -20 14l-6 43c-2 11 2 18 12 21c27 8 115 25 209 25c112 0 205 -36 205 -133c0 -76 -37 -107 -117 -122v-14c80 -13 127 -44 127 -126c0 -113 -109 -148 -208 -148z" />
    <glyph glyph-name="afii10074" unicode="&#x438;" horiz-adv-x="604" 
d="M222 0h-133c-11 0 -16 5 -16 15v495c0 10 5 15 16 15h73c11 0 16 -5 16 -15v-395h18l165 396c5 9 12 14 21 14h133c11 0 16 -5 16 -15v-495c0 -10 -5 -15 -16 -15h-73c-11 0 -16 5 -16 15v395h-18l-165 -396c-3 -9 -10 -14 -21 -14z" />
    <glyph glyph-name="afii10075" unicode="&#x439;" horiz-adv-x="604" 
d="M222 0h-133c-11 0 -16 5 -16 15v495c0 10 5 15 16 15h73c11 0 16 -5 16 -15v-395h18l165 396c5 9 12 14 21 14h133c11 0 16 -5 16 -15v-495c0 -10 -5 -15 -16 -15h-73c-11 0 -16 5 -16 15v395h-18l-165 -396c-3 -9 -10 -14 -21 -14zM486 741c0 -112 -63 -146 -174 -146
c-112 0 -175 34 -175 146c0 7 3 14 12 14h47c9 0 12 -7 12 -14c1 -59 23 -84 104 -84c80 0 101 25 104 85c0 7 1 13 12 13h47c9 0 11 -7 11 -14z" />
    <glyph glyph-name="afii10076" unicode="&#x43a;" horiz-adv-x="570" 
d="M172 0h-83c-11 0 -16 5 -16 15v495c0 10 5 15 15 15h83c11 0 16 -5 16 -15v-208h56l165 216c4 5 9 7 16 7h100c11 0 12 -10 8 -15l-193 -241l207 -255c4 -4 -1 -14 -8 -14h-116c-6 0 -10 2 -13 6l-166 217h-56v-208c0 -10 -5 -15 -15 -15z" />
    <glyph glyph-name="afii10077" unicode="&#x43b;" horiz-adv-x="586" 
d="M216 445v-189c0 -177 -35 -256 -192 -256c-13 0 -19 6 -19 17v58c0 10 5 15 16 16c84 8 84 58 84 163v255c0 11 5 16 16 16h376c11 0 16 -5 16 -15v-495c0 -10 -5 -15 -16 -15h-82c-11 0 -16 5 -16 15v430h-183z" />
    <glyph glyph-name="afii10078" unicode="&#x43c;" horiz-adv-x="780" 
d="M141 0h-74c-11 0 -17 6 -16 18l58 491c1 11 8 16 19 16h156c12 0 19 -6 22 -17l82 -303h10l82 303c3 11 10 17 22 17h150c11 0 17 -5 18 -16l59 -491c1 -12 -5 -18 -17 -18h-72c-12 0 -19 3 -20 16l-45 416h-20l-93 -331c-3 -11 -10 -17 -22 -17h-102c-12 0 -17 2 -21 17
l-93 331h-19l-45 -416c-1 -13 -7 -16 -19 -16z" />
    <glyph glyph-name="afii10079" unicode="&#x43d;" horiz-adv-x="604" 
d="M171 0h-81c-11 0 -17 5 -17 15v488c0 11 5 17 15 19l83 16c8 3 16 -4 16 -15v-206h230v186c0 11 5 17 15 19l83 16c8 3 16 -4 16 -15v-508c0 -10 -5 -15 -16 -15h-81c-11 0 -17 5 -17 15v220h-230v-220c0 -10 -5 -15 -16 -15z" />
    <glyph glyph-name="afii10080" unicode="&#x43e;" horiz-adv-x="581" 
d="M534 262c0 -152 -26 -275 -243 -275s-244 123 -244 275c0 153 27 276 244 276s243 -123 243 -276zM417 262c0 123 -5 194 -126 194c-123 0 -127 -71 -127 -194s4 -193 127 -193c121 0 126 70 126 193z" />
    <glyph glyph-name="afii10081" unicode="&#x43f;" horiz-adv-x="604" 
d="M171 0h-81c-11 0 -17 5 -17 15v495c0 10 5 15 16 15h426c11 0 16 -5 16 -15v-495c0 -10 -5 -15 -16 -15h-81c-11 0 -17 5 -17 15v430h-230v-430c0 -10 -5 -15 -16 -15z" />
    <glyph glyph-name="afii10082" unicode="&#x440;" horiz-adv-x="594" 
d="M547 262c0 -171 -42 -275 -226 -275c-57 0 -109 7 -145 18l11 -60v-121c0 -10 -5 -16 -15 -18l-81 -16c-12 -3 -18 6 -18 15v621c0 48 12 64 59 80c57 20 133 32 200 32c189 0 215 -115 215 -276zM431 263c0 173 -40 191 -124 191c-46 0 -106 -16 -120 -19v-353
c9 -3 52 -14 111 -14c100 0 133 41 133 195z" />
    <glyph glyph-name="afii10083" unicode="&#x441;" horiz-adv-x="502" 
d="M163 263c0 -144 34 -191 146 -191c61 0 102 13 125 20c15 4 17 -2 20 -10l10 -46c2 -10 -2 -17 -11 -21c-24 -11 -86 -26 -162 -26c-186 0 -244 90 -244 275c0 184 58 274 244 274c76 0 138 -15 162 -26c9 -4 13 -11 11 -21l-10 -46c-3 -8 -5 -14 -20 -10
c-23 7 -64 20 -125 20c-112 0 -146 -49 -146 -192z" />
    <glyph glyph-name="afii10084" unicode="&#x442;" horiz-adv-x="501" 
d="M291 0h-81c-11 0 -17 5 -17 15v425h-164c-10 0 -15 5 -15 15v55c0 10 5 15 15 15h442c11 0 16 -5 16 -15v-55c0 -10 -5 -15 -16 -15h-164v-425c0 -10 -5 -15 -16 -15z" />
    <glyph glyph-name="afii10085" unicode="&#x443;" horiz-adv-x="537" 
d="M520 506l-173 -574c-29 -93 -61 -142 -179 -142c-49 0 -67 2 -84 6c-9 2 -13 7 -13 14l1 53c0 7 3 15 14 14c13 -1 40 -2 59 -2c51 0 77 12 92 63l18 62h-56c-10 0 -17 5 -20 16l-154 489c-4 11 6 20 15 20h87c9 0 16 -5 19 -15l120 -435h26l109 435c3 10 9 15 20 15h84
c11 0 16 -4 16 -13c0 -2 0 -4 -1 -6z" />
    <glyph glyph-name="afii10086" unicode="&#x444;" horiz-adv-x="807" 
d="M347 -195v200c-23 -7 -64 -20 -105 -20c-157 0 -197 107 -197 278c0 196 58 275 201 275c53 0 108 -24 111 -24l-10 60v145c0 9 5 15 14 17l84 16c11 3 15 -6 15 -14v-221c21 8 62 21 102 21c144 0 200 -79 200 -275c0 -171 -40 -278 -197 -278c-53 0 -103 20 -115 23
l10 -59v-125c0 -10 -5 -16 -14 -18l-84 -16c-11 -3 -15 6 -15 15zM275 68c24 0 57 9 72 13v360c-15 5 -49 14 -76 14c-75 0 -109 -28 -109 -191c0 -165 37 -196 113 -196zM532 68c77 0 114 31 114 196c0 163 -34 191 -110 191c-27 0 -61 -9 -76 -14v-360
c15 -4 48 -13 72 -13z" />
    <glyph glyph-name="afii10087" unicode="&#x445;" horiz-adv-x="553" 
d="M348 271l181 -251c2 -3 3 -6 3 -9c0 -7 -4 -11 -11 -11h-98c-7 0 -12 3 -15 9l-133 199l-129 -199c-3 -6 -9 -9 -16 -9h-99c-7 0 -10 4 -10 11c0 4 1 7 2 9l180 249l-163 235c-2 3 -3 6 -3 9c0 8 3 12 10 12h93c13 0 18 -4 25 -13l115 -179l110 179c5 9 13 13 24 13h92
c7 0 10 -4 10 -13c0 -3 -1 -6 -2 -8z" />
    <glyph glyph-name="afii10088" unicode="&#x446;" horiz-adv-x="595" 
d="M588 -145h-68c-10 0 -15 5 -15 15v130h-416c-11 0 -16 5 -16 15v488c0 11 5 17 15 19l83 16c8 3 16 -4 16 -15v-443h222v423c0 11 5 17 14 19l83 16c9 3 16 -4 16 -15v-443h66c10 0 15 -5 15 -15v-195c0 -10 -5 -15 -15 -15z" />
    <glyph glyph-name="afii10089" unicode="&#x447;" horiz-adv-x="601" 
d="M512 0h-82c-11 0 -16 5 -16 15v130l11 60c-52 -14 -125 -26 -179 -26c-116 0 -176 34 -176 143v181c0 11 5 17 15 19l83 16c8 3 16 -4 16 -15v-184c0 -56 20 -79 80 -79c67 0 135 16 150 21v222c0 11 5 17 15 19l83 16c8 3 16 -4 16 -15v-508c0 -10 -5 -15 -16 -15z" />
    <glyph glyph-name="afii10090" unicode="&#x448;" horiz-adv-x="810" 
d="M721 0h-632c-11 0 -16 5 -16 15v488c0 11 5 17 15 19l83 16c8 3 16 -4 16 -15v-443h162v423c0 11 5 17 14 19l83 16c9 3 16 -4 16 -15v-443h162v423c0 11 5 17 14 19l83 16c9 3 16 -4 16 -15v-508c0 -10 -5 -15 -16 -15z" />
    <glyph glyph-name="afii10091" unicode="&#x449;" horiz-adv-x="810" 
d="M720 0h-631c-11 0 -16 5 -16 15v488c0 11 5 17 15 19l83 16c8 3 16 -4 16 -15v-443h162v423c0 11 5 17 14 19l83 16c9 3 16 -4 16 -15v-443h162v423c0 11 5 17 14 19l83 16c9 3 16 -4 16 -15v-443h66c10 0 15 -5 15 -15v-195c0 -10 -5 -15 -15 -15h-68
c-10 0 -15 5 -15 15v130z" />
    <glyph glyph-name="afii10092" unicode="&#x44a;" horiz-adv-x="620" 
d="M397 0h-260c-11 0 -16 5 -16 15v424h-106c-10 0 -15 5 -15 15v56c0 10 5 15 15 15h204c10 0 15 -5 15 -15v-169h163c121 0 188 -48 188 -171c0 -121 -67 -170 -188 -170zM234 74h147c68 0 88 39 88 96c0 59 -20 97 -88 97h-147v-193z" />
    <glyph glyph-name="afii10093" unicode="&#x44b;" horiz-adv-x="807" 
d="M718 0h-82c-11 0 -16 5 -16 15v488c0 10 5 17 15 20c23 4 64 12 83 16c9 3 16 -5 16 -16v-508c0 -10 -5 -15 -16 -15zM349 0h-260c-11 0 -16 5 -16 15v488c0 11 5 17 15 19l83 16c8 3 16 -4 16 -15v-182h162c121 0 188 -48 188 -171c0 -121 -67 -170 -188 -170zM187 74
h146c68 0 88 39 88 96c0 59 -20 97 -88 97h-146v-193z" />
    <glyph glyph-name="afii10094" unicode="&#x44c;" horiz-adv-x="572" 
d="M349 0h-260c-11 0 -16 5 -16 15v488c0 11 5 17 15 19l83 16c8 3 16 -4 16 -15v-182h162c121 0 188 -48 188 -171c0 -121 -67 -170 -188 -170zM187 74h146c68 0 88 39 88 96c0 59 -20 97 -88 97h-146v-193z" />
    <glyph glyph-name="afii10095" unicode="&#x44d;" horiz-adv-x="502" 
d="M193 455c-61 0 -102 -13 -125 -20c-15 -4 -17 2 -20 10l-10 46c-2 10 2 17 11 21c24 11 86 26 162 26c186 0 244 -90 244 -274c0 -185 -58 -275 -244 -275c-76 0 -138 15 -162 26c-9 4 -13 11 -11 21l10 46c3 8 5 14 20 10c23 -7 64 -20 125 -20c101 0 145 38 145 154
h-157c-9 0 -15 4 -16 13l-6 48c-1 9 4 14 15 14h164c0 113 -44 154 -145 154z" />
    <glyph glyph-name="afii10096" unicode="&#x44e;" horiz-adv-x="801" 
d="M511 -13c-202 0 -240 107 -243 246h-82v-218c0 -10 -5 -15 -15 -15h-82c-11 0 -16 5 -16 15v488c0 10 5 17 15 20l83 16c10 2 15 -3 15 -16v-206h83c8 125 51 221 242 221c217 0 243 -123 243 -276c0 -152 -26 -275 -243 -275zM511 69c121 0 126 70 126 193
s-5 194 -126 194s-126 -71 -126 -194s5 -193 126 -193z" />
    <glyph glyph-name="afii10097" unicode="&#x44f;" horiz-adv-x="595" 
d="M155 0h-89c-11 0 -16 5 -16 15l3 96c4 85 36 119 116 126v14c-84 15 -111 58 -111 130c0 108 67 144 177 144h271c11 0 16 -5 16 -15v-495c0 -10 -5 -15 -16 -15h-82c-11 0 -16 5 -16 15v194l-132 -5c-75 -3 -102 -25 -103 -94l-2 -95c0 -10 -5 -15 -16 -15zM408 451
h-153c-60 0 -80 -30 -80 -85c0 -70 44 -83 104 -86l129 -5v176z" />
    <glyph glyph-name="uni0450" unicode="&#x450;" horiz-adv-x="575" 
d="M528 272v-24c0 -9 0 -17 -1 -24c0 -9 -6 -19 -17 -19h-348c1 -49 13 -77 37 -100c28 -27 69 -36 129 -36c57 0 100 12 143 24c2 1 4 1 7 1c7 0 10 0 13 -11l10 -45c1 -3 1 -5 1 -6c0 -6 -4 -11 -11 -14c-37 -15 -103 -31 -178 -31c-196 0 -266 83 -266 274
c0 180 45 277 242 277c103 0 163 -28 199 -80c31 -45 40 -107 40 -186zM162 284h251c0 35 -1 64 -9 95c-15 60 -47 78 -115 78c-73 0 -105 -20 -118 -76c-8 -31 -8 -64 -9 -97zM383 646l-36 -47c-4 -5 -9 -6 -15 -2l-147 102c-5 3 -6 8 -2 13l39 50c4 5 9 6 14 2l145 -105
c5 -3 6 -8 2 -13z" />
    <glyph glyph-name="afii10071" unicode="&#x451;" horiz-adv-x="575" 
d="M528 272v-24c0 -9 0 -17 -1 -24c0 -9 -6 -19 -17 -19h-348c1 -49 13 -77 37 -100c28 -27 69 -36 129 -36c57 0 100 12 143 24c2 1 4 1 7 1c7 0 10 0 13 -11l10 -45c1 -3 1 -5 1 -6c0 -6 -4 -11 -11 -14c-37 -15 -103 -31 -178 -31c-196 0 -266 83 -266 274
c0 180 45 277 242 277c103 0 163 -28 199 -80c31 -45 40 -107 40 -186zM162 284h251c0 35 -1 64 -9 95c-15 60 -47 78 -115 78c-73 0 -105 -20 -118 -76c-8 -31 -8 -64 -9 -97zM462 693v-65c0 -9 -5 -13 -14 -13h-106c-10 0 -15 4 -15 13v65c0 7 6 12 15 12h106
c8 0 14 -5 14 -12zM251 693v-65c0 -9 -5 -13 -14 -13h-106c-8 0 -15 6 -15 13v65c0 7 7 12 15 12h106c8 0 14 -5 14 -12z" />
    <glyph glyph-name="afii10099" unicode="&#x452;" horiz-adv-x="607" 
d="M426 87v241c0 56 -20 78 -80 78c-67 0 -136 -17 -151 -20v-371c0 -10 -5 -15 -15 -15h-83c-11 0 -16 5 -16 15v575h-51c-10 0 -15 5 -15 15v51c0 10 5 15 15 15h51v47c0 10 5 16 16 18l81 16c12 3 17 -6 17 -15v-66h145c10 0 15 -5 15 -15v-51c0 -10 -5 -15 -15 -15h-145
v-68l-11 -60c51 13 126 26 180 26c116 0 175 -35 175 -144v-250c0 -207 -60 -304 -255 -304c-8 0 -15 6 -15 14v55c0 8 7 14 15 14c123 3 142 69 142 214z" />
    <glyph glyph-name="afii10100" unicode="&#x453;" horiz-adv-x="457" 
d="M171 0h-82c-11 0 -16 5 -16 15v495c0 10 6 15 17 15h337c11 0 16 -5 16 -15v-55c0 -10 -5 -15 -16 -15h-240v-425c0 -10 -5 -15 -16 -15zM335 762l39 -50c3 -5 3 -10 -2 -13l-147 -102c-5 -3 -10 -3 -15 2l-36 47c-3 3 -3 10 2 13l145 105c5 4 10 3 14 -2z" />
    <glyph glyph-name="afii10101" unicode="&#x454;" horiz-adv-x="502" 
d="M309 455c-101 0 -145 -41 -145 -154h164c11 0 16 -5 15 -14l-6 -48c-1 -9 -7 -13 -16 -13h-157c0 -117 44 -154 145 -154c61 0 102 13 125 20c15 4 17 -2 20 -10l10 -46c2 -10 -2 -17 -11 -21c-24 -11 -86 -26 -162 -26c-186 0 -244 90 -244 275c0 184 58 274 244 274
c76 0 138 -15 162 -26c9 -4 13 -11 11 -21l-10 -46c-3 -8 -5 -14 -20 -10c-23 7 -64 20 -125 20z" />
    <glyph glyph-name="afii10102" unicode="&#x455;" horiz-adv-x="501" 
d="M457 154c0 -130 -100 -167 -217 -167c-87 0 -166 26 -181 32c-5 3 -12 7 -9 14l11 53c2 7 6 11 11 11c2 0 4 0 7 -1c11 -3 79 -26 154 -26c67 0 111 21 111 74c0 68 -48 64 -116 78c-71 11 -173 30 -173 156c0 137 122 160 210 160c84 0 147 -18 162 -22
c8 -2 12 -7 11 -15l-9 -54c-1 -7 -6 -10 -14 -9c-12 2 -81 17 -136 17c-56 0 -111 -14 -111 -69c0 -57 55 -65 116 -73c83 -13 173 -27 173 -159z" />
    <glyph glyph-name="afii10103" unicode="&#x456;" horiz-adv-x="289" 
d="M201 505v-490c0 -10 -5 -15 -15 -15h-82c-11 0 -16 5 -16 15v490c0 9 5 14 16 14h82c10 0 15 -5 15 -14zM201 732v-111c0 -13 -7 -20 -21 -20h-71c-14 0 -21 7 -21 20v111c0 13 7 20 21 20h71c14 0 21 -7 21 -20z" />
    <glyph glyph-name="afii10104" unicode="&#x457;" horiz-adv-x="289" 
d="M201 505v-490c0 -10 -5 -15 -15 -15h-82c-11 0 -16 5 -16 15v490c0 9 5 14 16 14h82c10 0 15 -5 15 -14zM323 693v-65c0 -9 -5 -13 -14 -13h-106c-10 0 -15 4 -15 13v65c0 7 6 12 15 12h106c8 0 14 -5 14 -12zM112 693v-65c0 -9 -5 -13 -14 -13h-106c-8 0 -15 6 -15 13
v65c0 7 7 12 15 12h106c8 0 14 -5 14 -12z" />
    <glyph glyph-name="afii10105" unicode="&#x458;" horiz-adv-x="283" 
d="M200 505v-560c0 -120 -69 -155 -172 -155c-29 0 -50 1 -64 3c-7 1 -18 2 -18 17l1 46c0 13 7 15 16 15l35 1c59 3 88 9 88 77v556c0 9 5 14 16 14h83c10 0 15 -5 15 -14zM200 732v-111c0 -13 -7 -20 -21 -20h-72c-13 0 -20 7 -20 20v111c0 13 7 20 20 20h72
c14 0 21 -7 21 -20z" />
    <glyph glyph-name="afii10106" unicode="&#x459;" horiz-adv-x="877" 
d="M492 74h147c67 0 88 39 88 96s-21 97 -88 97h-147v-193zM216 445v-189c0 -177 -35 -256 -192 -256c-13 0 -19 6 -19 17v58c0 10 5 15 16 16c84 8 84 58 84 163v255c0 11 5 16 16 16h355c11 0 16 -5 16 -15v-169h163c121 0 187 -48 187 -171c0 -121 -66 -170 -187 -170
h-261c-10 0 -15 5 -15 15v430h-163z" />
    <glyph glyph-name="afii10107" unicode="&#x45a;" horiz-adv-x="909" 
d="M171 0h-81c-11 0 -17 5 -17 15v488c0 11 5 17 15 19l83 16c8 3 16 -4 16 -15v-195h224v175c0 11 5 17 14 19l83 16c9 3 16 -4 16 -15v-195h168c121 0 182 -55 182 -164s-61 -164 -182 -164h-266c-10 0 -15 5 -15 15v232h-224v-232c0 -10 -5 -15 -16 -15zM524 74h147
c56 0 87 30 87 90s-31 90 -87 90h-147v-180z" />
    <glyph glyph-name="afii10108" unicode="&#x45b;" horiz-adv-x="599" 
d="M187 590v-68l-11 -60c51 13 126 26 180 26c116 0 175 -35 175 -144v-329c0 -10 -5 -15 -15 -15h-82c-11 0 -16 5 -16 15v313c0 56 -20 78 -80 78c-67 0 -136 -17 -151 -20v-371c0 -10 -5 -15 -15 -15h-83c-11 0 -16 5 -16 15v575h-51c-10 0 -15 5 -15 15v51
c0 10 5 15 15 15h51v47c0 10 5 16 16 18l81 16c12 3 17 -6 17 -15v-66h145c10 0 15 -5 15 -15v-51c0 -10 -5 -15 -15 -15h-145z" />
    <glyph glyph-name="afii10109" unicode="&#x45c;" horiz-adv-x="570" 
d="M172 0h-83c-11 0 -16 5 -16 15v495c0 10 5 15 15 15h83c11 0 16 -5 16 -15v-208h56l165 216c4 5 9 7 16 7h100c11 0 12 -10 8 -15l-193 -241l207 -255c4 -4 -1 -14 -8 -14h-116c-6 0 -10 2 -13 6l-166 217h-56v-208c0 -10 -5 -15 -15 -15zM355 762l39 -50
c3 -5 3 -10 -2 -13l-147 -102c-5 -3 -10 -3 -15 2l-36 47c-3 3 -3 10 2 13l145 105c5 4 10 3 14 -2z" />
    <glyph glyph-name="uni045D" unicode="&#x45d;" horiz-adv-x="604" 
d="M222 0h-133c-11 0 -16 5 -16 15v495c0 10 5 15 16 15h73c11 0 16 -5 16 -15v-395h18l165 396c5 9 12 14 21 14h133c11 0 16 -5 16 -15v-495c0 -10 -5 -15 -16 -15h-73c-11 0 -16 5 -16 15v395h-18l-165 -396c-3 -9 -10 -14 -21 -14zM398 646l-36 -47c-4 -5 -9 -6 -15 -2
l-147 102c-5 3 -6 8 -2 13l39 50c4 5 9 6 14 2l145 -105c5 -3 6 -8 2 -13z" />
    <glyph glyph-name="afii10110" unicode="&#x45e;" horiz-adv-x="537" 
d="M442 741c0 -112 -63 -146 -174 -146c-112 0 -175 34 -175 146c0 7 3 14 12 14h47c9 0 12 -7 12 -14c1 -59 23 -84 104 -84c80 0 101 25 104 85c0 7 1 13 12 13h47c9 0 11 -7 11 -14zM520 506l-173 -574c-29 -93 -61 -142 -179 -142c-49 0 -67 2 -84 6c-9 2 -13 7 -13 14
l1 53c0 7 3 15 14 14c13 -1 40 -2 59 -2c51 0 77 12 92 63l18 62h-56c-10 0 -17 5 -20 16l-154 489c-4 11 6 20 15 20h87c9 0 16 -5 19 -15l120 -435h26l109 435c3 10 9 15 20 15h84c11 0 16 -4 16 -13c0 -2 0 -4 -1 -6z" />
    <glyph glyph-name="afii10193" unicode="&#x45f;" horiz-adv-x="595" 
d="M332 -145h-68c-11 0 -16 5 -16 15v130h-159c-11 0 -16 5 -16 15v488c0 11 5 17 15 19l83 16c8 3 16 -4 16 -15v-443h222v423c0 11 5 17 14 19l83 16c9 3 16 -4 16 -15v-508c0 -10 -5 -15 -16 -15h-159v-130c0 -10 -5 -15 -15 -15z" />
    <glyph glyph-name="afii10146" unicode="&#x462;" horiz-adv-x="732" 
d="M418 0h-306c-9 0 -14 5 -14 14v548h-72c-9 0 -14 5 -14 14v43c0 8 6 15 14 15h72v91c0 8 4 13 13 14l95 13c3 0 14 -6 14 -13v-105h241c8 0 14 -7 14 -15v-43c0 -9 -5 -14 -14 -14h-241v-111h198c177 0 274 -61 274 -226s-97 -225 -274 -225zM220 87h180
c105 0 166 27 166 138c0 112 -61 139 -166 139h-180v-277z" />
    <glyph glyph-name="afii10194" unicode="&#x463;" horiz-adv-x="585" 
d="M190 525h145c10 0 15 -5 15 -15v-51c0 -10 -5 -15 -15 -15h-145v-111h180c116 0 180 -46 180 -166c0 -122 -64 -167 -180 -167h-280c-7 0 -14 6 -14 14v430h-51c-10 0 -15 5 -15 15v51c0 10 5 15 15 15h51v193c0 10 5 16 16 18l81 16c12 3 17 -6 17 -15v-212zM190 73h158
c68 0 86 38 86 94c0 55 -18 93 -86 93h-158v-187z" />
    <glyph glyph-name="afii10147" unicode="&#x472;" horiz-adv-x="807" 
d="M404 -13c-288 0 -343 156 -343 383c0 226 55 382 343 382c286 0 342 -156 342 -382c0 -227 -56 -383 -342 -383zM403 81c186 0 214 93 217 256h-432c3 -163 28 -256 215 -256zM188 423h431c-5 150 -37 235 -216 235c-177 0 -210 -87 -215 -235z" />
    <glyph glyph-name="afii10195" unicode="&#x473;" horiz-adv-x="581" 
d="M291 -13c-217 0 -244 123 -244 275c0 153 27 276 244 276s243 -123 243 -276c0 -152 -26 -275 -243 -275zM291 69c110 0 126 59 126 162h-253c3 -103 15 -162 127 -162zM165 297h252c-3 100 -16 159 -126 159c-109 0 -123 -59 -126 -159z" />
    <glyph glyph-name="afii10148" unicode="&#x474;" horiz-adv-x="763" 
d="M380 87l156 527c32 107 87 125 189 125c11 0 17 -5 17 -16v-73c0 -11 -6 -16 -17 -16h-60l-199 -622c-2 -8 -7 -12 -16 -12h-186c-9 0 -14 4 -16 12l-226 709c-3 11 0 18 11 18h102c7 0 13 -4 16 -12l189 -640h40z" />
    <glyph glyph-name="afii10196" unicode="&#x475;" horiz-adv-x="587" 
d="M292 75l88 356c21 87 86 94 168 94c10 0 15 -5 15 -15v-65c0 -9 -5 -13 -15 -13h-51l-126 -416c-3 -11 -10 -16 -20 -16h-152c-10 0 -17 5 -20 16l-154 488c-1 3 -1 5 -1 7c0 9 5 14 14 14h88c12 0 16 -4 19 -15l121 -435h26z" />
    <glyph glyph-name="afii10050" unicode="&#x490;" horiz-adv-x="586" 
d="M202 0h-89c-11 0 -17 5 -17 16v707c0 11 6 16 17 16h353v131c0 11 5 16 16 16h78c11 0 16 -5 16 -16v-212c0 -10 -6 -15 -17 -15h-341v-627c0 -11 -5 -16 -16 -16z" />
    <glyph glyph-name="afii10098" unicode="&#x491;" horiz-adv-x="457" 
d="M171 0h-82c-11 0 -16 5 -16 15v495c0 10 6 15 17 15h254v119c0 10 5 15 16 15h67c11 0 16 -5 16 -15v-189c0 -10 -5 -15 -16 -15h-240v-425c0 -10 -5 -15 -16 -15z" />
    <glyph glyph-name="uni0492" unicode="&#x492;" horiz-adv-x="638" 
d="M254 0h-89c-11 0 -17 5 -17 16v285h-97c-11 0 -16 5 -16 16v65c0 11 5 16 16 16h97v325c0 11 6 16 17 16h446c11 0 17 -5 17 -16v-65c0 -10 -6 -15 -17 -15h-341v-245h209c8 0 15 -7 15 -16v-65c0 -8 -7 -16 -15 -16h-209v-285c0 -11 -5 -16 -16 -16z" />
    <glyph glyph-name="uni0493" unicode="&#x493;" horiz-adv-x="476" 
d="M190 0h-82c-11 0 -16 5 -16 15v186h-69c-11 0 -16 5 -16 15v52c0 10 5 15 16 15h69v227c0 10 6 15 17 15h337c11 0 16 -5 16 -15v-55c0 -10 -5 -15 -16 -15h-240v-157h134c11 0 16 -5 16 -15v-52c0 -10 -5 -15 -16 -15h-134v-186c0 -10 -5 -15 -16 -15z" />
    <glyph glyph-name="uni0496" unicode="&#x496;" horiz-adv-x="1111" 
d="M616 328v-312c0 -11 -5 -16 -16 -16h-89c-11 0 -16 5 -16 16v312h-80l-252 -321c-5 -5 -10 -7 -17 -7h-126c-7 0 -12 5 -12 12c0 2 1 4 3 6l302 361l-280 342c-8 11 1 18 9 18h115c7 0 12 -2 17 -7l241 -310h80v301c0 11 5 16 16 16h89c11 0 16 -5 16 -16v-301h80
l241 310c5 5 10 7 17 7h115c8 0 17 -7 9 -18l-280 -342l240 -287h78c8 0 16 -7 16 -16v-220c0 -11 -5 -16 -16 -16h-78c-11 0 -16 5 -16 16v144h-57c-7 0 -12 2 -17 7l-252 321h-80z" />
    <glyph glyph-name="uni0497" unicode="&#x497;" horiz-adv-x="881" 
d="M148 0h-116c-7 0 -11 10 -8 14l207 255l-193 241c-3 5 -3 15 8 15h101c7 0 12 -2 15 -7l165 -216h57v208c0 10 5 15 15 15h83c10 0 15 -5 15 -15v-208h56l165 216c4 5 9 7 16 7h101c11 0 11 -10 8 -15l-193 -241l153 -189h67c11 0 16 -5 16 -15v-195
c0 -10 -5 -15 -16 -15h-67c-11 0 -16 5 -16 15v130h-55c-5 0 -9 2 -12 6l-167 217h-56v-208c0 -10 -5 -15 -16 -15h-82c-10 0 -15 5 -15 15v208h-57l-166 -217c-3 -4 -8 -6 -13 -6z" />
    <glyph glyph-name="uni049A" unicode="&#x49a;" horiz-adv-x="713" 
d="M218 328v-312c0 -11 -5 -16 -16 -16h-89c-11 0 -17 5 -17 16v707c0 11 6 16 17 16h89c11 0 16 -5 16 -16v-301h80l241 310c3 5 9 7 17 7h115c8 0 17 -7 9 -18l-280 -342l240 -287h77c11 0 16 -5 16 -16v-220c0 -11 -5 -16 -16 -16h-77c-11 0 -17 5 -17 16v144h-56
c-7 0 -12 2 -17 7l-252 321h-80z" />
    <glyph glyph-name="uni049B" unicode="&#x49b;" horiz-adv-x="570" 
d="M172 0h-83c-11 0 -16 5 -16 15v495c0 10 5 15 15 15h83c11 0 16 -5 16 -15v-208h56l165 216c4 5 9 7 16 7h100c11 0 12 -10 8 -15l-193 -241l153 -189h68c11 0 16 -5 16 -15v-195c0 -10 -5 -15 -16 -15h-68c-10 0 -15 5 -15 15v130h-55c-6 0 -10 2 -13 6l-166 217h-56
v-208c0 -10 -5 -15 -15 -15z" />
    <glyph glyph-name="uni049C" unicode="&#x49c;" horiz-adv-x="725" 
d="M316 328v-182c0 -8 -4 -12 -12 -12h-34c-8 0 -12 4 -12 12v182h-40v-312c0 -11 -5 -16 -16 -16h-89c-11 0 -17 5 -17 16v707c0 11 6 16 17 16h89c11 0 16 -5 16 -16v-301h40v186c0 8 4 12 12 12h34c8 0 12 -4 12 -12v-186h26l209 310c5 5 10 7 17 7h115c8 0 17 -7 9 -18
l-248 -342l270 -361c2 -2 3 -4 3 -6c0 -7 -5 -12 -12 -12h-126c-7 0 -12 2 -17 7l-220 321h-26z" />
    <glyph glyph-name="uni049D" unicode="&#x49d;" horiz-adv-x="591" 
d="M264 223v-116c0 -8 -4 -12 -12 -12h-23c-8 0 -12 4 -12 12v116h-30v-208c0 -10 -5 -15 -15 -15h-83c-11 0 -16 5 -16 15v495c0 10 5 15 15 15h83c11 0 16 -5 16 -15v-208h30v116c0 8 4 12 12 12h23c8 0 12 -4 12 -12v-116h30l135 216c4 5 9 7 16 7h100c11 0 12 -10 8 -15
l-163 -241l177 -255c4 -4 -1 -14 -8 -14h-116c-6 0 -10 2 -13 6l-136 217h-30z" />
    <glyph glyph-name="uni04A2" unicode="&#x4a2;" horiz-adv-x="825" 
d="M711 0h-88c-9 0 -16 7 -16 15v317h-389v-317c0 -8 -7 -15 -16 -15h-89c-9 0 -17 7 -17 15v710c0 8 5 13 14 14l94 13c11 1 14 -7 14 -14v-307h389v294c0 8 5 13 14 14l94 13c11 1 14 -7 14 -14v-646h76c8 0 16 -7 16 -16v-220c0 -11 -5 -16 -16 -16h-78
c-11 0 -16 5 -16 16v144z" />
    <glyph glyph-name="uni04A3" unicode="&#x4a3;" horiz-adv-x="604" 
d="M171 0h-81c-11 0 -17 5 -17 15v488c0 11 5 17 15 19l83 16c8 3 16 -4 16 -15v-206h230v186c0 11 5 17 15 19l83 16c8 3 16 -4 16 -15v-443h66c10 0 15 -5 15 -15v-195c0 -10 -5 -15 -15 -15h-68c-11 0 -16 5 -16 15v130h-79c-11 0 -17 5 -17 15v220h-230v-220
c0 -10 -5 -15 -16 -15z" />
    <glyph glyph-name="uni04AE" unicode="&#x4ae;" horiz-adv-x="677" 
d="M401 294v-279c0 -8 -8 -15 -17 -15h-89c-9 0 -16 7 -16 15v279l-277 425c-1 2 -2 4 -2 7c0 9 4 13 13 13h111c8 0 14 -4 19 -13l203 -332l198 333c5 9 8 12 19 12h102c9 0 15 -12 11 -20z" />
    <glyph glyph-name="uni04AF" unicode="&#x4af;" horiz-adv-x="548" 
d="M331 0v-196c0 -10 -5 -15 -16 -15h-82c-11 0 -16 5 -16 15v196l-191 503c-5 15 -1 22 13 22h88c10 0 16 -5 18 -14l120 -377h24l119 376c2 10 8 15 19 15h84c12 0 16 -6 12 -19z" />
    <glyph glyph-name="uni04B0" unicode="&#x4b0;" horiz-adv-x="677" 
d="M154 296h123l-275 423c-1 2 -2 4 -2 7c0 9 4 13 13 13h111c8 0 14 -4 19 -13l203 -332l198 333c5 9 8 12 19 12h102c9 0 15 -12 11 -20l-274 -423h123c11 0 16 -5 16 -15v-61c0 -8 -7 -15 -16 -15h-124v-190c0 -8 -8 -15 -17 -15h-89c-9 0 -16 7 -16 15v190h-125
c-8 0 -15 7 -15 15v61c0 9 7 15 15 15z" />
    <glyph glyph-name="uni04B1" unicode="&#x4b1;" horiz-adv-x="548" 
d="M331 0v-196c0 -10 -5 -15 -16 -15h-82c-11 0 -16 5 -16 15v196h-153c-10 0 -15 5 -15 15v52c0 10 5 15 15 15h122l-160 421c-5 15 -1 22 13 22h88c9 0 15 -5 18 -14l120 -377h24l119 376c3 10 9 15 19 15h84c12 0 16 -6 12 -19l-161 -424h119c11 0 16 -5 16 -15v-52
c0 -10 -5 -15 -16 -15h-150z" />
    <glyph glyph-name="uni04B2" unicode="&#x4b2;" horiz-adv-x="709" 
d="M631 -144v144h-54c-7 0 -13 3 -16 9l-207 316l-211 -317c-3 -5 -8 -8 -15 -8h-107c-9 0 -16 11 -11 18l258 367l-234 334c-3 7 2 20 11 20h111c7 0 14 -4 20 -13l183 -279l179 280c5 8 11 12 19 12h103c9 0 15 -11 11 -20l-226 -331l203 -296h77c11 0 16 -5 16 -16v-220
c0 -11 -5 -16 -16 -16h-77c-11 0 -17 5 -17 16z" />
    <glyph glyph-name="uni04B3" unicode="&#x4b3;" horiz-adv-x="553" 
d="M469 0h-45c-7 0 -12 3 -15 9l-133 199l-129 -199c-3 -6 -9 -9 -16 -9h-99c-7 0 -10 4 -10 11c0 4 1 7 2 9l180 249l-163 235c-2 3 -3 6 -3 9c0 8 3 12 10 12h93c13 0 18 -4 25 -13l115 -179l110 179c5 9 13 13 24 13h92c7 0 10 -4 10 -13c0 -3 -1 -6 -2 -8l-166 -233
l137 -191h66c11 0 16 -5 16 -15v-195c0 -10 -5 -15 -16 -15h-67c-11 0 -16 5 -16 15v130z" />
    <glyph glyph-name="uni04B6" unicode="&#x4b6;" horiz-adv-x="737" 
d="M623 0h-88c-11 0 -16 5 -16 16v297c-42 -11 -151 -32 -250 -32c-153 0 -219 54 -219 175v269c0 8 4 13 13 14l93 13c11 2 16 -3 16 -14v-260c0 -76 37 -103 125 -103c91 0 186 21 222 31v319c0 8 5 13 14 14l93 13c10 2 15 -3 15 -14v-646h76c11 0 16 -5 16 -16v-220
c0 -11 -5 -16 -16 -16h-77c-11 0 -17 5 -17 16v144z" />
    <glyph glyph-name="uni04B7" unicode="&#x4b7;" horiz-adv-x="601" 
d="M510 0h-80c-11 0 -16 5 -16 15v130l11 60c-52 -14 -125 -26 -179 -26c-116 0 -176 34 -176 143v181c0 11 5 17 15 19l83 16c8 3 16 -4 16 -15v-184c0 -56 20 -79 80 -79c67 0 135 16 150 21v222c0 11 5 17 15 19l83 16c8 3 16 -4 16 -15v-443h66c10 0 15 -5 15 -15v-195
c0 -10 -5 -15 -15 -15h-68c-11 0 -16 5 -16 15v130z" />
    <glyph glyph-name="uni04B8" unicode="&#x4b8;" horiz-adv-x="737" 
d="M625 0h-90c-11 0 -16 5 -16 16v297c-27 -7 -81 -18 -144 -26v-141c0 -8 -4 -12 -12 -12h-34c-8 0 -12 4 -12 12v136c-8 -1 -16 -1 -24 -1h-24c-153 0 -219 54 -219 175v269c0 8 4 13 13 14l93 13c11 2 16 -3 16 -14v-260c0 -76 37 -103 125 -103h20v181c0 8 4 12 12 12
h34c8 0 12 -4 12 -12v-177c63 7 117 20 144 27v319c0 8 5 13 14 14l93 13c10 2 15 -3 15 -14v-722c0 -11 -5 -16 -16 -16z" />
    <glyph glyph-name="uni04B9" unicode="&#x4b9;" horiz-adv-x="601" 
d="M512 0h-82c-11 0 -16 5 -16 15v130l11 60c-29 -8 -66 -16 -102 -21v-77c0 -8 -4 -12 -12 -12h-23c-8 0 -12 4 -12 12v73c-5 -1 -11 -1 -16 -1h-14c-116 0 -176 34 -176 143v181c0 11 5 17 15 19l83 16c8 3 16 -4 16 -15v-184c0 -56 20 -79 80 -79h12v109c0 8 4 12 12 12
h23c8 0 12 -4 12 -12v-105c43 5 80 14 91 17v222c0 11 5 17 15 19l83 16c8 3 16 -4 16 -15v-508c0 -10 -5 -15 -16 -15z" />
    <glyph glyph-name="uni04BA" unicode="&#x4ba;" horiz-adv-x="737" 
d="M204 0h-93c-8 0 -15 6 -15 14v711c0 8 5 13 14 14l94 13c11 3 14 -7 14 -14v-298c42 11 151 32 250 32c155 0 219 -54 219 -175v-283c0 -9 -5 -14 -14 -14h-93c-9 0 -14 5 -14 14v261c0 76 -38 103 -125 103c-92 0 -188 -20 -223 -31v-333c0 -9 -5 -14 -14 -14z" />
    <glyph glyph-name="uni04BB" unicode="&#x4bb;" horiz-adv-x="601" 
d="M172 0h-83c-11 0 -16 5 -16 15v488c0 10 5 16 16 18l82 17c8 3 16 -4 16 -15v-128l-11 -60c52 15 124 26 180 26c115 0 175 -35 175 -144v-202c0 -10 -5 -15 -16 -15h-82c-11 0 -16 5 -16 15v186c0 56 -20 78 -80 78c-67 0 -134 -17 -150 -20v-244c0 -10 -5 -15 -15 -15z
" />
    <glyph glyph-name="uni04C0" unicode="&#x4c0;" horiz-adv-x="314" 
d="M218 738v-723c0 -8 -7 -15 -16 -15h-89c-9 0 -17 7 -17 15v710c0 8 5 13 14 14l94 13c11 1 14 -7 14 -14z" />
    <glyph glyph-name="uni04CF" unicode="&#x4cf;" horiz-adv-x="260" 
d="M187 737v-722c0 -10 -5 -15 -15 -15h-83c-11 0 -16 5 -16 15v704c0 9 5 15 15 17l82 16h4c9 0 13 -5 13 -15z" />
    <glyph glyph-name="uni04D8" unicode="&#x4d8;" horiz-adv-x="805" 
d="M392 657c-116 0 -199 -32 -220 -37c-11 -1 -18 2 -20 11l-12 62c-1 9 4 16 15 21c18 8 118 38 255 38c255 0 334 -122 334 -383c0 -228 -46 -382 -332 -382c-288 0 -333 154 -333 382v24c0 16 6 33 30 33h505c-3 157 -49 231 -222 231zM617 334h-412
c3 -166 24 -255 206 -255c184 0 203 91 206 255z" />
    <glyph glyph-name="afii10846" unicode="&#x4d9;" horiz-adv-x="569" 
d="M286 68c111 0 118 60 118 169h-236c0 -109 7 -169 118 -169zM110 430c-9 -3 -17 -1 -20 10l-9 46c-3 11 -1 18 10 22c28 11 99 30 183 30c176 0 248 -79 248 -276c0 -159 -27 -275 -239 -275c-209 0 -236 115 -236 269v39c0 13 6 19 18 19h339c0 101 -37 141 -144 141
c-68 0 -109 -13 -150 -25z" />
    <glyph glyph-name="uni04E2" unicode="&#x4e2;" horiz-adv-x="825" 
d="M283 0h-171c-11 0 -16 5 -16 16v709c0 9 5 14 15 14h88c9 0 14 -5 14 -14v-601h30l273 596c7 13 12 19 27 19h170c11 0 16 -5 16 -16v-707c0 -11 -5 -16 -16 -16h-85c-11 0 -16 5 -16 16v599h-30l-273 -596c-6 -13 -15 -19 -26 -19zM439 848c-56 0 -104 -17 -131 -24
c-3 -1 -5 -1 -7 -1c-6 0 -10 4 -11 11l-9 53c-1 5 3 9 11 12c27 11 86 25 146 25s120 -14 147 -25c8 -3 12 -8 11 -13l-9 -52c-1 -7 -5 -11 -11 -11c-1 0 -4 0 -7 1c-31 8 -74 24 -130 24z" />
    <glyph glyph-name="uni04E3" unicode="&#x4e3;" horiz-adv-x="604" 
d="M222 0h-133c-11 0 -16 5 -16 15v495c0 10 5 15 16 15h73c11 0 16 -5 16 -15v-395h18l165 396c5 9 12 14 21 14h133c11 0 16 -5 16 -15v-495c0 -10 -5 -15 -16 -15h-73c-11 0 -16 5 -16 15v395h-18l-165 -396c-3 -9 -10 -14 -21 -14zM311 630c-56 0 -104 -17 -131 -24
c-3 -1 -5 -1 -7 -1c-6 0 -10 4 -11 11l-9 53c-1 5 3 9 11 12c27 11 86 25 146 25s120 -14 147 -25c8 -3 12 -8 11 -13l-9 -52c-1 -7 -5 -11 -11 -11c-1 0 -4 0 -7 1c-31 8 -74 24 -130 24z" />
    <glyph glyph-name="uni04E8" unicode="&#x4e8;" horiz-adv-x="807" 
d="M404 -13c-288 0 -343 156 -343 383c0 226 55 382 343 382c286 0 342 -156 342 -382c0 -227 -56 -383 -342 -383zM403 81c186 0 214 93 217 256h-432c3 -163 28 -256 215 -256zM188 423h431c-5 150 -37 235 -216 235c-177 0 -210 -87 -215 -235z" />
    <glyph glyph-name="uni04E9" unicode="&#x4e9;" horiz-adv-x="581" 
d="M291 -13c-217 0 -244 123 -244 275c0 153 27 276 244 276s243 -123 243 -276c0 -152 -26 -275 -243 -275zM291 69c110 0 126 59 126 162h-253c3 -103 15 -162 127 -162zM165 297h252c-3 100 -16 159 -126 159c-109 0 -123 -59 -126 -159z" />
    <glyph glyph-name="uni04EE" unicode="&#x4ee;" horiz-adv-x="678" 
d="M295 297l-293 424c-5 7 3 18 12 18h114c11 0 14 -3 19 -12l215 -323l183 324c5 7 11 11 18 11h102c11 0 16 -11 11 -20l-294 -497c-109 -184 -179 -235 -349 -235c-9 0 -14 5 -14 14v71c0 8 5 13 14 14c107 11 149 34 222 147zM340 848c-56 0 -104 -17 -131 -24
c-3 -1 -5 -1 -7 -1c-6 0 -10 4 -11 11l-9 53c-1 5 3 9 11 12c27 11 86 25 146 25s120 -14 147 -25c8 -3 12 -8 11 -13l-9 -52c-1 -7 -5 -11 -11 -11c-1 0 -4 0 -7 1c-31 8 -74 24 -130 24z" />
    <glyph glyph-name="uni04EF" unicode="&#x4ef;" horiz-adv-x="537" 
d="M520 506l-173 -574c-29 -93 -61 -142 -179 -142c-49 0 -67 2 -84 6c-9 2 -13 7 -13 14l1 53c0 7 3 15 14 14c13 -1 40 -2 59 -2c51 0 77 12 92 63l18 62h-56c-10 0 -17 5 -20 16l-154 489c-4 11 6 20 15 20h87c9 0 16 -5 19 -15l120 -435h26l109 435c3 10 9 15 20 15h84
c11 0 16 -4 16 -13c0 -2 0 -4 -1 -6zM275 630c-56 0 -104 -17 -131 -24c-3 -1 -5 -1 -7 -1c-6 0 -10 4 -11 11l-9 53c-1 5 3 9 11 12c27 11 86 25 146 25s120 -14 147 -25c8 -3 12 -8 11 -13l-9 -52c-1 -7 -5 -11 -11 -11c-1 0 -4 0 -7 1c-31 8 -74 24 -130 24z" />
    <glyph glyph-name="Wgrave" unicode="&#x1e80;" horiz-adv-x="1055" 
d="M747 98h33l114 624c3 15 8 17 19 17h92c9 0 17 -5 14 -20l-146 -704c-2 -10 -9 -15 -20 -15h-179c-12 0 -17 7 -20 15l-118 531h-15l-118 -531c-3 -8 -7 -15 -20 -15h-180c-12 0 -19 5 -21 15l-146 704c-3 11 5 20 14 20h96c8 0 16 -2 19 -17l114 -624h33l122 551
c2 11 8 16 19 16h154c10 0 16 -5 18 -16zM613 864l-36 -47c-3 -5 -8 -5 -14 -2l-148 102c-5 4 -6 8 -2 13l39 50c5 6 9 7 14 3l145 -106c5 -3 5 -8 2 -13z" />
    </font>
</defs>
</svg>
